M48
; DRILL file {KiCad (5.1.9)-1} date 05/27/22 18:47:21
; FORMAT={-:-/ absolute / inch / decimal}
; #@! TF.CreationDate,2022-05-27T18:47:21+02:00
; #@! TF.GenerationSoftware,Kicad,Pcbnew,(5.1.9)-1
; #@! TF.FileFunction,NonPlated,1,2,NPTH
FMAT,2
INCH
T1C0.1575
%
G90
G05
T1
X0.6118Y3.776
X0.6122Y4.5252
X0.7063Y0.7756
X0.7996Y3.0256
X0.8933Y2.276
X0.987Y1.526
X1.3614Y3.7748
X1.6433Y0.7752
X1.737Y3.0264
X1.7374Y4.5252
X1.9248Y2.2764
X2.1118Y3.7752
X2.1126Y1.5256
X2.4866Y4.5252
X2.4874Y3.026
X2.674Y0.7756
X2.6744Y2.276
X2.8614Y3.7752
X2.8618Y1.5252
X3.2362Y4.5256
X3.237Y3.0248
X3.4248Y2.2748
X3.6114Y3.7756
X3.6118Y1.5256
X3.9866Y4.5256
X3.9866Y3.0256
X4.1748Y2.2752
X4.3618Y3.776
X4.3626Y1.5252
X4.7366Y3.0244
X4.9252Y2.2756
X5.1118Y3.776
X5.1122Y4.526
X5.1122Y1.5256
X5.4862Y3.0256
X5.5811Y0.776
X5.6736Y2.2764
X5.8614Y4.5252
X5.8618Y3.7756
X5.8622Y1.526
X6.237Y3.0256
X6.4244Y2.276
X6.6106Y4.5244
X6.6118Y1.5256
X6.6126Y3.776
X6.9874Y3.0252
X7.1748Y2.2756
X7.3614Y4.5244
X7.3622Y3.7756
X7.3622Y1.5256
X7.7366Y3.0264
X7.9252Y2.2764
X8.1118Y1.5252
X8.1122Y3.7756
X8.4866Y4.5256
X8.4866Y3.026
X8.4866Y0.776
X8.6744Y2.2748
X8.8618Y3.7752
X8.8622Y1.5248
X9.2366Y4.526
X9.237Y3.026
X9.4244Y2.2752
X9.5181Y0.7756
X9.6118Y3.7764
X9.6122Y1.5248
X9.9862Y4.526
X9.987Y3.0256
X10.3614Y0.776
X10.3622Y1.5256
X10.6437Y2.2748
X10.737Y4.5252
X10.737Y3.7756
X10.9248Y3.0264
X11.1118Y1.5256
X11.1126Y0.7748
X11.861Y2.2748
X11.8614Y0.776
X11.8618Y3.7752
X11.8618Y1.5264
X11.8622Y4.5268
X11.8622Y3.0252
T0
M30
