G04 #@! TF.GenerationSoftware,KiCad,Pcbnew,(5.1.9)-1*
G04 #@! TF.CreationDate,2022-05-27T18:47:02+02:00*
G04 #@! TF.ProjectId,sofaboard,736f6661-626f-4617-9264-2e6b69636164,rev?*
G04 #@! TF.SameCoordinates,Original*
G04 #@! TF.FileFunction,Other,Fab,Top*
%FSLAX46Y46*%
G04 Gerber Fmt 4.6, Leading zero omitted, Abs format (unit mm)*
G04 Created by KiCad (PCBNEW (5.1.9)-1) date 2022-05-27 18:47:02*
%MOMM*%
%LPD*%
G01*
G04 APERTURE LIST*
%ADD10C,0.127000*%
%ADD11C,0.100000*%
%ADD12C,0.015000*%
%ADD13C,0.150000*%
G04 APERTURE END LIST*
D10*
X206595000Y119169000D02*
X195395000Y119169000D01*
D11*
X205770000Y112509000D02*
X196820000Y112509000D01*
X196820000Y112509000D02*
X196820000Y121679000D01*
X196820000Y121679000D02*
X205770000Y121679000D01*
X205770000Y121679000D02*
X205770000Y112509000D01*
D12*
X184146308Y123480384D02*
X184146308Y122669611D01*
X184194001Y122574226D01*
X184241693Y122526533D01*
X184337078Y122478841D01*
X184527848Y122478841D01*
X184623233Y122526533D01*
X184670926Y122574226D01*
X184718618Y122669611D01*
X184718618Y123480384D01*
X185147851Y122526533D02*
X185290929Y122478841D01*
X185529391Y122478841D01*
X185624776Y122526533D01*
X185672469Y122574226D01*
X185720161Y122669611D01*
X185720161Y122764996D01*
X185672469Y122860381D01*
X185624776Y122908073D01*
X185529391Y122955766D01*
X185338621Y123003458D01*
X185243236Y123051151D01*
X185195544Y123098843D01*
X185147851Y123194228D01*
X185147851Y123289613D01*
X185195544Y123384998D01*
X185243236Y123432691D01*
X185338621Y123480384D01*
X185577084Y123480384D01*
X185720161Y123432691D01*
X186483242Y123003458D02*
X186626319Y122955766D01*
X186674012Y122908073D01*
X186721704Y122812688D01*
X186721704Y122669611D01*
X186674012Y122574226D01*
X186626319Y122526533D01*
X186530934Y122478841D01*
X186149394Y122478841D01*
X186149394Y123480384D01*
X186483242Y123480384D01*
X186578627Y123432691D01*
X186626319Y123384998D01*
X186674012Y123289613D01*
X186674012Y123194228D01*
X186626319Y123098843D01*
X186578627Y123051151D01*
X186483242Y123003458D01*
X186149394Y123003458D01*
X187580170Y123146536D02*
X187580170Y122478841D01*
X187341707Y123528076D02*
X187103245Y122812688D01*
X187723247Y122812688D01*
X188295558Y123480384D02*
X188390943Y123480384D01*
X188486328Y123432691D01*
X188534020Y123384998D01*
X188581713Y123289613D01*
X188629405Y123098843D01*
X188629405Y122860381D01*
X188581713Y122669611D01*
X188534020Y122574226D01*
X188486328Y122526533D01*
X188390943Y122478841D01*
X188295558Y122478841D01*
X188200173Y122526533D01*
X188152480Y122574226D01*
X188104788Y122669611D01*
X188057095Y122860381D01*
X188057095Y123098843D01*
X188104788Y123289613D01*
X188152480Y123384998D01*
X188200173Y123432691D01*
X188295558Y123480384D01*
X189201716Y123051151D02*
X189106331Y123098843D01*
X189058638Y123146536D01*
X189010945Y123241921D01*
X189010945Y123289613D01*
X189058638Y123384998D01*
X189106331Y123432691D01*
X189201716Y123480384D01*
X189392486Y123480384D01*
X189487871Y123432691D01*
X189535563Y123384998D01*
X189583256Y123289613D01*
X189583256Y123241921D01*
X189535563Y123146536D01*
X189487871Y123098843D01*
X189392486Y123051151D01*
X189201716Y123051151D01*
X189106331Y123003458D01*
X189058638Y122955766D01*
X189010945Y122860381D01*
X189010945Y122669611D01*
X189058638Y122574226D01*
X189106331Y122526533D01*
X189201716Y122478841D01*
X189392486Y122478841D01*
X189487871Y122526533D01*
X189535563Y122574226D01*
X189583256Y122669611D01*
X189583256Y122860381D01*
X189535563Y122955766D01*
X189487871Y123003458D01*
X189392486Y123051151D01*
X190489414Y123480384D02*
X190012488Y123480384D01*
X189964796Y123003458D01*
X190012488Y123051151D01*
X190107874Y123098843D01*
X190346336Y123098843D01*
X190441721Y123051151D01*
X190489414Y123003458D01*
X190537106Y122908073D01*
X190537106Y122669611D01*
X190489414Y122574226D01*
X190441721Y122526533D01*
X190346336Y122478841D01*
X190107874Y122478841D01*
X190012488Y122526533D01*
X189964796Y122574226D01*
X190966339Y122860381D02*
X191729419Y122860381D01*
X192730962Y123432691D02*
X192635577Y123480384D01*
X192492500Y123480384D01*
X192349422Y123432691D01*
X192254037Y123337306D01*
X192206345Y123241921D01*
X192158652Y123051151D01*
X192158652Y122908073D01*
X192206345Y122717303D01*
X192254037Y122621918D01*
X192349422Y122526533D01*
X192492500Y122478841D01*
X192587885Y122478841D01*
X192730962Y122526533D01*
X192778655Y122574226D01*
X192778655Y122908073D01*
X192587885Y122908073D01*
X193541735Y123003458D02*
X193207888Y123003458D01*
X193207888Y122478841D02*
X193207888Y123480384D01*
X193684813Y123480384D01*
X194066353Y122860381D02*
X194829433Y122860381D01*
X195258666Y122764996D02*
X195735591Y122764996D01*
X195163281Y122478841D02*
X195497129Y123480384D01*
X195830976Y122478841D01*
X195926361Y122383455D02*
X196689442Y122383455D01*
X197500215Y122478841D02*
X197166367Y122955766D01*
X196927904Y122478841D02*
X196927904Y123480384D01*
X197309445Y123480384D01*
X197404830Y123432691D01*
X197452522Y123384998D01*
X197500215Y123289613D01*
X197500215Y123146536D01*
X197452522Y123051151D01*
X197404830Y123003458D01*
X197309445Y122955766D01*
X196927904Y122955766D01*
X197929447Y123003458D02*
X198263295Y123003458D01*
X198406373Y122478841D02*
X197929447Y122478841D01*
X197929447Y123480384D01*
X198406373Y123480384D01*
X198692528Y123480384D02*
X199026375Y122478841D01*
X199360223Y123480384D01*
X199646378Y122764996D02*
X200123304Y122764996D01*
X199550993Y122478841D02*
X199884841Y123480384D01*
X200218689Y122478841D01*
D13*
X23260476Y46229238D02*
X23403333Y46181619D01*
X23641428Y46181619D01*
X23736666Y46229238D01*
X23784285Y46276857D01*
X23831904Y46372095D01*
X23831904Y46467333D01*
X23784285Y46562571D01*
X23736666Y46610190D01*
X23641428Y46657809D01*
X23450952Y46705428D01*
X23355714Y46753047D01*
X23308095Y46800666D01*
X23260476Y46895904D01*
X23260476Y46991142D01*
X23308095Y47086380D01*
X23355714Y47134000D01*
X23450952Y47181619D01*
X23689047Y47181619D01*
X23831904Y47134000D01*
X24165238Y47181619D02*
X24403333Y46181619D01*
X24593809Y46895904D01*
X24784285Y46181619D01*
X25022380Y47181619D01*
X25879523Y47181619D02*
X25403333Y47181619D01*
X25355714Y46705428D01*
X25403333Y46753047D01*
X25498571Y46800666D01*
X25736666Y46800666D01*
X25831904Y46753047D01*
X25879523Y46705428D01*
X25927142Y46610190D01*
X25927142Y46372095D01*
X25879523Y46276857D01*
X25831904Y46229238D01*
X25736666Y46181619D01*
X25498571Y46181619D01*
X25403333Y46229238D01*
X25355714Y46276857D01*
X26403333Y46181619D02*
X26593809Y46181619D01*
X26689047Y46229238D01*
X26736666Y46276857D01*
X26831904Y46419714D01*
X26879523Y46610190D01*
X26879523Y46991142D01*
X26831904Y47086380D01*
X26784285Y47134000D01*
X26689047Y47181619D01*
X26498571Y47181619D01*
X26403333Y47134000D01*
X26355714Y47086380D01*
X26308095Y46991142D01*
X26308095Y46753047D01*
X26355714Y46657809D01*
X26403333Y46610190D01*
X26498571Y46562571D01*
X26689047Y46562571D01*
X26784285Y46610190D01*
X26831904Y46657809D01*
X26879523Y46753047D01*
X261370476Y27179238D02*
X261513333Y27131619D01*
X261751428Y27131619D01*
X261846666Y27179238D01*
X261894285Y27226857D01*
X261941904Y27322095D01*
X261941904Y27417333D01*
X261894285Y27512571D01*
X261846666Y27560190D01*
X261751428Y27607809D01*
X261560952Y27655428D01*
X261465714Y27703047D01*
X261418095Y27750666D01*
X261370476Y27845904D01*
X261370476Y27941142D01*
X261418095Y28036380D01*
X261465714Y28084000D01*
X261560952Y28131619D01*
X261799047Y28131619D01*
X261941904Y28084000D01*
X262275238Y28131619D02*
X262513333Y27131619D01*
X262703809Y27845904D01*
X262894285Y27131619D01*
X263132380Y28131619D01*
X263656190Y27703047D02*
X263560952Y27750666D01*
X263513333Y27798285D01*
X263465714Y27893523D01*
X263465714Y27941142D01*
X263513333Y28036380D01*
X263560952Y28084000D01*
X263656190Y28131619D01*
X263846666Y28131619D01*
X263941904Y28084000D01*
X263989523Y28036380D01*
X264037142Y27941142D01*
X264037142Y27893523D01*
X263989523Y27798285D01*
X263941904Y27750666D01*
X263846666Y27703047D01*
X263656190Y27703047D01*
X263560952Y27655428D01*
X263513333Y27607809D01*
X263465714Y27512571D01*
X263465714Y27322095D01*
X263513333Y27226857D01*
X263560952Y27179238D01*
X263656190Y27131619D01*
X263846666Y27131619D01*
X263941904Y27179238D01*
X263989523Y27226857D01*
X264037142Y27322095D01*
X264037142Y27512571D01*
X263989523Y27607809D01*
X263941904Y27655428D01*
X263846666Y27703047D01*
X264656190Y28131619D02*
X264751428Y28131619D01*
X264846666Y28084000D01*
X264894285Y28036380D01*
X264941904Y27941142D01*
X264989523Y27750666D01*
X264989523Y27512571D01*
X264941904Y27322095D01*
X264894285Y27226857D01*
X264846666Y27179238D01*
X264751428Y27131619D01*
X264656190Y27131619D01*
X264560952Y27179238D01*
X264513333Y27226857D01*
X264465714Y27322095D01*
X264418095Y27512571D01*
X264418095Y27750666D01*
X264465714Y27941142D01*
X264513333Y28036380D01*
X264560952Y28084000D01*
X264656190Y28131619D01*
X270910476Y122409238D02*
X271053333Y122361619D01*
X271291428Y122361619D01*
X271386666Y122409238D01*
X271434285Y122456857D01*
X271481904Y122552095D01*
X271481904Y122647333D01*
X271434285Y122742571D01*
X271386666Y122790190D01*
X271291428Y122837809D01*
X271100952Y122885428D01*
X271005714Y122933047D01*
X270958095Y122980666D01*
X270910476Y123075904D01*
X270910476Y123171142D01*
X270958095Y123266380D01*
X271005714Y123314000D01*
X271100952Y123361619D01*
X271339047Y123361619D01*
X271481904Y123314000D01*
X271815238Y123361619D02*
X272053333Y122361619D01*
X272243809Y123075904D01*
X272434285Y122361619D01*
X272672380Y123361619D01*
X273577142Y122361619D02*
X273005714Y122361619D01*
X273291428Y122361619D02*
X273291428Y123361619D01*
X273196190Y123218761D01*
X273100952Y123123523D01*
X273005714Y123075904D01*
X273910476Y123361619D02*
X274529523Y123361619D01*
X274196190Y122980666D01*
X274339047Y122980666D01*
X274434285Y122933047D01*
X274481904Y122885428D01*
X274529523Y122790190D01*
X274529523Y122552095D01*
X274481904Y122456857D01*
X274434285Y122409238D01*
X274339047Y122361619D01*
X274053333Y122361619D01*
X273958095Y122409238D01*
X273910476Y122456857D01*
X14216666Y122409238D02*
X14359523Y122361619D01*
X14597619Y122361619D01*
X14692857Y122409238D01*
X14740476Y122456857D01*
X14788095Y122552095D01*
X14788095Y122647333D01*
X14740476Y122742571D01*
X14692857Y122790190D01*
X14597619Y122837809D01*
X14407142Y122885428D01*
X14311904Y122933047D01*
X14264285Y122980666D01*
X14216666Y123075904D01*
X14216666Y123171142D01*
X14264285Y123266380D01*
X14311904Y123314000D01*
X14407142Y123361619D01*
X14645238Y123361619D01*
X14788095Y123314000D01*
X15121428Y123361619D02*
X15359523Y122361619D01*
X15550000Y123075904D01*
X15740476Y122361619D01*
X15978571Y123361619D01*
X16883333Y122361619D02*
X16311904Y122361619D01*
X16597619Y122361619D02*
X16597619Y123361619D01*
X16502380Y123218761D01*
X16407142Y123123523D01*
X16311904Y123075904D01*
X137540476Y84319238D02*
X137683333Y84271619D01*
X137921428Y84271619D01*
X138016666Y84319238D01*
X138064285Y84366857D01*
X138111904Y84462095D01*
X138111904Y84557333D01*
X138064285Y84652571D01*
X138016666Y84700190D01*
X137921428Y84747809D01*
X137730952Y84795428D01*
X137635714Y84843047D01*
X137588095Y84890666D01*
X137540476Y84985904D01*
X137540476Y85081142D01*
X137588095Y85176380D01*
X137635714Y85224000D01*
X137730952Y85271619D01*
X137969047Y85271619D01*
X138111904Y85224000D01*
X138445238Y85271619D02*
X138683333Y84271619D01*
X138873809Y84985904D01*
X139064285Y84271619D01*
X139302380Y85271619D01*
X139588095Y85271619D02*
X140207142Y85271619D01*
X139873809Y84890666D01*
X140016666Y84890666D01*
X140111904Y84843047D01*
X140159523Y84795428D01*
X140207142Y84700190D01*
X140207142Y84462095D01*
X140159523Y84366857D01*
X140111904Y84319238D01*
X140016666Y84271619D01*
X139730952Y84271619D01*
X139635714Y84319238D01*
X139588095Y84366857D01*
X141064285Y85271619D02*
X140873809Y85271619D01*
X140778571Y85224000D01*
X140730952Y85176380D01*
X140635714Y85033523D01*
X140588095Y84843047D01*
X140588095Y84462095D01*
X140635714Y84366857D01*
X140683333Y84319238D01*
X140778571Y84271619D01*
X140969047Y84271619D01*
X141064285Y84319238D01*
X141111904Y84366857D01*
X141159523Y84462095D01*
X141159523Y84700190D01*
X141111904Y84795428D01*
X141064285Y84843047D01*
X140969047Y84890666D01*
X140778571Y84890666D01*
X140683333Y84843047D01*
X140635714Y84795428D01*
X140588095Y84700190D01*
X242340476Y46199238D02*
X242483333Y46151619D01*
X242721428Y46151619D01*
X242816666Y46199238D01*
X242864285Y46246857D01*
X242911904Y46342095D01*
X242911904Y46437333D01*
X242864285Y46532571D01*
X242816666Y46580190D01*
X242721428Y46627809D01*
X242530952Y46675428D01*
X242435714Y46723047D01*
X242388095Y46770666D01*
X242340476Y46865904D01*
X242340476Y46961142D01*
X242388095Y47056380D01*
X242435714Y47104000D01*
X242530952Y47151619D01*
X242769047Y47151619D01*
X242911904Y47104000D01*
X243245238Y47151619D02*
X243483333Y46151619D01*
X243673809Y46865904D01*
X243864285Y46151619D01*
X244102380Y47151619D01*
X244388095Y47151619D02*
X245054761Y47151619D01*
X244626190Y46151619D01*
X245626190Y47151619D02*
X245721428Y47151619D01*
X245816666Y47104000D01*
X245864285Y47056380D01*
X245911904Y46961142D01*
X245959523Y46770666D01*
X245959523Y46532571D01*
X245911904Y46342095D01*
X245864285Y46246857D01*
X245816666Y46199238D01*
X245721428Y46151619D01*
X245626190Y46151619D01*
X245530952Y46199238D01*
X245483333Y46246857D01*
X245435714Y46342095D01*
X245388095Y46532571D01*
X245388095Y46770666D01*
X245435714Y46961142D01*
X245483333Y47056380D01*
X245530952Y47104000D01*
X245626190Y47151619D01*
X180430476Y65269238D02*
X180573333Y65221619D01*
X180811428Y65221619D01*
X180906666Y65269238D01*
X180954285Y65316857D01*
X181001904Y65412095D01*
X181001904Y65507333D01*
X180954285Y65602571D01*
X180906666Y65650190D01*
X180811428Y65697809D01*
X180620952Y65745428D01*
X180525714Y65793047D01*
X180478095Y65840666D01*
X180430476Y65935904D01*
X180430476Y66031142D01*
X180478095Y66126380D01*
X180525714Y66174000D01*
X180620952Y66221619D01*
X180859047Y66221619D01*
X181001904Y66174000D01*
X181335238Y66221619D02*
X181573333Y65221619D01*
X181763809Y65935904D01*
X181954285Y65221619D01*
X182192380Y66221619D01*
X183049523Y66221619D02*
X182573333Y66221619D01*
X182525714Y65745428D01*
X182573333Y65793047D01*
X182668571Y65840666D01*
X182906666Y65840666D01*
X183001904Y65793047D01*
X183049523Y65745428D01*
X183097142Y65650190D01*
X183097142Y65412095D01*
X183049523Y65316857D01*
X183001904Y65269238D01*
X182906666Y65221619D01*
X182668571Y65221619D01*
X182573333Y65269238D01*
X182525714Y65316857D01*
X183430476Y66221619D02*
X184049523Y66221619D01*
X183716190Y65840666D01*
X183859047Y65840666D01*
X183954285Y65793047D01*
X184001904Y65745428D01*
X184049523Y65650190D01*
X184049523Y65412095D01*
X184001904Y65316857D01*
X183954285Y65269238D01*
X183859047Y65221619D01*
X183573333Y65221619D01*
X183478095Y65269238D01*
X183430476Y65316857D01*
X299480476Y46239238D02*
X299623333Y46191619D01*
X299861428Y46191619D01*
X299956666Y46239238D01*
X300004285Y46286857D01*
X300051904Y46382095D01*
X300051904Y46477333D01*
X300004285Y46572571D01*
X299956666Y46620190D01*
X299861428Y46667809D01*
X299670952Y46715428D01*
X299575714Y46763047D01*
X299528095Y46810666D01*
X299480476Y46905904D01*
X299480476Y47001142D01*
X299528095Y47096380D01*
X299575714Y47144000D01*
X299670952Y47191619D01*
X299909047Y47191619D01*
X300051904Y47144000D01*
X300385238Y47191619D02*
X300623333Y46191619D01*
X300813809Y46905904D01*
X301004285Y46191619D01*
X301242380Y47191619D01*
X301528095Y47191619D02*
X302194761Y47191619D01*
X301766190Y46191619D01*
X302480476Y47191619D02*
X303099523Y47191619D01*
X302766190Y46810666D01*
X302909047Y46810666D01*
X303004285Y46763047D01*
X303051904Y46715428D01*
X303099523Y46620190D01*
X303099523Y46382095D01*
X303051904Y46286857D01*
X303004285Y46239238D01*
X302909047Y46191619D01*
X302623333Y46191619D01*
X302528095Y46239238D01*
X302480476Y46286857D01*
X280430476Y46219238D02*
X280573333Y46171619D01*
X280811428Y46171619D01*
X280906666Y46219238D01*
X280954285Y46266857D01*
X281001904Y46362095D01*
X281001904Y46457333D01*
X280954285Y46552571D01*
X280906666Y46600190D01*
X280811428Y46647809D01*
X280620952Y46695428D01*
X280525714Y46743047D01*
X280478095Y46790666D01*
X280430476Y46885904D01*
X280430476Y46981142D01*
X280478095Y47076380D01*
X280525714Y47124000D01*
X280620952Y47171619D01*
X280859047Y47171619D01*
X281001904Y47124000D01*
X281335238Y47171619D02*
X281573333Y46171619D01*
X281763809Y46885904D01*
X281954285Y46171619D01*
X282192380Y47171619D01*
X282478095Y47171619D02*
X283144761Y47171619D01*
X282716190Y46171619D01*
X283478095Y47076380D02*
X283525714Y47124000D01*
X283620952Y47171619D01*
X283859047Y47171619D01*
X283954285Y47124000D01*
X284001904Y47076380D01*
X284049523Y46981142D01*
X284049523Y46885904D01*
X284001904Y46743047D01*
X283430476Y46171619D01*
X284049523Y46171619D01*
X39930476Y27159238D02*
X40073333Y27111619D01*
X40311428Y27111619D01*
X40406666Y27159238D01*
X40454285Y27206857D01*
X40501904Y27302095D01*
X40501904Y27397333D01*
X40454285Y27492571D01*
X40406666Y27540190D01*
X40311428Y27587809D01*
X40120952Y27635428D01*
X40025714Y27683047D01*
X39978095Y27730666D01*
X39930476Y27825904D01*
X39930476Y27921142D01*
X39978095Y28016380D01*
X40025714Y28064000D01*
X40120952Y28111619D01*
X40359047Y28111619D01*
X40501904Y28064000D01*
X40835238Y28111619D02*
X41073333Y27111619D01*
X41263809Y27825904D01*
X41454285Y27111619D01*
X41692380Y28111619D01*
X41978095Y28111619D02*
X42644761Y28111619D01*
X42216190Y27111619D01*
X43501904Y28111619D02*
X43025714Y28111619D01*
X42978095Y27635428D01*
X43025714Y27683047D01*
X43120952Y27730666D01*
X43359047Y27730666D01*
X43454285Y27683047D01*
X43501904Y27635428D01*
X43549523Y27540190D01*
X43549523Y27302095D01*
X43501904Y27206857D01*
X43454285Y27159238D01*
X43359047Y27111619D01*
X43120952Y27111619D01*
X43025714Y27159238D01*
X42978095Y27206857D01*
X185190476Y46219238D02*
X185333333Y46171619D01*
X185571428Y46171619D01*
X185666666Y46219238D01*
X185714285Y46266857D01*
X185761904Y46362095D01*
X185761904Y46457333D01*
X185714285Y46552571D01*
X185666666Y46600190D01*
X185571428Y46647809D01*
X185380952Y46695428D01*
X185285714Y46743047D01*
X185238095Y46790666D01*
X185190476Y46885904D01*
X185190476Y46981142D01*
X185238095Y47076380D01*
X185285714Y47124000D01*
X185380952Y47171619D01*
X185619047Y47171619D01*
X185761904Y47124000D01*
X186095238Y47171619D02*
X186333333Y46171619D01*
X186523809Y46885904D01*
X186714285Y46171619D01*
X186952380Y47171619D01*
X187761904Y47171619D02*
X187571428Y47171619D01*
X187476190Y47124000D01*
X187428571Y47076380D01*
X187333333Y46933523D01*
X187285714Y46743047D01*
X187285714Y46362095D01*
X187333333Y46266857D01*
X187380952Y46219238D01*
X187476190Y46171619D01*
X187666666Y46171619D01*
X187761904Y46219238D01*
X187809523Y46266857D01*
X187857142Y46362095D01*
X187857142Y46600190D01*
X187809523Y46695428D01*
X187761904Y46743047D01*
X187666666Y46790666D01*
X187476190Y46790666D01*
X187380952Y46743047D01*
X187333333Y46695428D01*
X187285714Y46600190D01*
X188190476Y47171619D02*
X188857142Y47171619D01*
X188428571Y46171619D01*
X232810476Y84329238D02*
X232953333Y84281619D01*
X233191428Y84281619D01*
X233286666Y84329238D01*
X233334285Y84376857D01*
X233381904Y84472095D01*
X233381904Y84567333D01*
X233334285Y84662571D01*
X233286666Y84710190D01*
X233191428Y84757809D01*
X233000952Y84805428D01*
X232905714Y84853047D01*
X232858095Y84900666D01*
X232810476Y84995904D01*
X232810476Y85091142D01*
X232858095Y85186380D01*
X232905714Y85234000D01*
X233000952Y85281619D01*
X233239047Y85281619D01*
X233381904Y85234000D01*
X233715238Y85281619D02*
X233953333Y84281619D01*
X234143809Y84995904D01*
X234334285Y84281619D01*
X234572380Y85281619D01*
X235381904Y84948285D02*
X235381904Y84281619D01*
X235143809Y85329238D02*
X234905714Y84614952D01*
X235524761Y84614952D01*
X236429523Y84281619D02*
X235858095Y84281619D01*
X236143809Y84281619D02*
X236143809Y85281619D01*
X236048571Y85138761D01*
X235953333Y85043523D01*
X235858095Y84995904D01*
X261390476Y46219238D02*
X261533333Y46171619D01*
X261771428Y46171619D01*
X261866666Y46219238D01*
X261914285Y46266857D01*
X261961904Y46362095D01*
X261961904Y46457333D01*
X261914285Y46552571D01*
X261866666Y46600190D01*
X261771428Y46647809D01*
X261580952Y46695428D01*
X261485714Y46743047D01*
X261438095Y46790666D01*
X261390476Y46885904D01*
X261390476Y46981142D01*
X261438095Y47076380D01*
X261485714Y47124000D01*
X261580952Y47171619D01*
X261819047Y47171619D01*
X261961904Y47124000D01*
X262295238Y47171619D02*
X262533333Y46171619D01*
X262723809Y46885904D01*
X262914285Y46171619D01*
X263152380Y47171619D01*
X263438095Y47171619D02*
X264104761Y47171619D01*
X263676190Y46171619D01*
X265009523Y46171619D02*
X264438095Y46171619D01*
X264723809Y46171619D02*
X264723809Y47171619D01*
X264628571Y47028761D01*
X264533333Y46933523D01*
X264438095Y46885904D01*
X237570476Y65259238D02*
X237713333Y65211619D01*
X237951428Y65211619D01*
X238046666Y65259238D01*
X238094285Y65306857D01*
X238141904Y65402095D01*
X238141904Y65497333D01*
X238094285Y65592571D01*
X238046666Y65640190D01*
X237951428Y65687809D01*
X237760952Y65735428D01*
X237665714Y65783047D01*
X237618095Y65830666D01*
X237570476Y65925904D01*
X237570476Y66021142D01*
X237618095Y66116380D01*
X237665714Y66164000D01*
X237760952Y66211619D01*
X237999047Y66211619D01*
X238141904Y66164000D01*
X238475238Y66211619D02*
X238713333Y65211619D01*
X238903809Y65925904D01*
X239094285Y65211619D01*
X239332380Y66211619D01*
X240189523Y66211619D02*
X239713333Y66211619D01*
X239665714Y65735428D01*
X239713333Y65783047D01*
X239808571Y65830666D01*
X240046666Y65830666D01*
X240141904Y65783047D01*
X240189523Y65735428D01*
X240237142Y65640190D01*
X240237142Y65402095D01*
X240189523Y65306857D01*
X240141904Y65259238D01*
X240046666Y65211619D01*
X239808571Y65211619D01*
X239713333Y65259238D01*
X239665714Y65306857D01*
X241094285Y66211619D02*
X240903809Y66211619D01*
X240808571Y66164000D01*
X240760952Y66116380D01*
X240665714Y65973523D01*
X240618095Y65783047D01*
X240618095Y65402095D01*
X240665714Y65306857D01*
X240713333Y65259238D01*
X240808571Y65211619D01*
X240999047Y65211619D01*
X241094285Y65259238D01*
X241141904Y65306857D01*
X241189523Y65402095D01*
X241189523Y65640190D01*
X241141904Y65735428D01*
X241094285Y65783047D01*
X240999047Y65830666D01*
X240808571Y65830666D01*
X240713333Y65783047D01*
X240665714Y65735428D01*
X240618095Y65640190D01*
X70880476Y46209238D02*
X71023333Y46161619D01*
X71261428Y46161619D01*
X71356666Y46209238D01*
X71404285Y46256857D01*
X71451904Y46352095D01*
X71451904Y46447333D01*
X71404285Y46542571D01*
X71356666Y46590190D01*
X71261428Y46637809D01*
X71070952Y46685428D01*
X70975714Y46733047D01*
X70928095Y46780666D01*
X70880476Y46875904D01*
X70880476Y46971142D01*
X70928095Y47066380D01*
X70975714Y47114000D01*
X71070952Y47161619D01*
X71309047Y47161619D01*
X71451904Y47114000D01*
X71785238Y47161619D02*
X72023333Y46161619D01*
X72213809Y46875904D01*
X72404285Y46161619D01*
X72642380Y47161619D01*
X73451904Y47161619D02*
X73261428Y47161619D01*
X73166190Y47114000D01*
X73118571Y47066380D01*
X73023333Y46923523D01*
X72975714Y46733047D01*
X72975714Y46352095D01*
X73023333Y46256857D01*
X73070952Y46209238D01*
X73166190Y46161619D01*
X73356666Y46161619D01*
X73451904Y46209238D01*
X73499523Y46256857D01*
X73547142Y46352095D01*
X73547142Y46590190D01*
X73499523Y46685428D01*
X73451904Y46733047D01*
X73356666Y46780666D01*
X73166190Y46780666D01*
X73070952Y46733047D01*
X73023333Y46685428D01*
X72975714Y46590190D01*
X74499523Y46161619D02*
X73928095Y46161619D01*
X74213809Y46161619D02*
X74213809Y47161619D01*
X74118571Y47018761D01*
X74023333Y46923523D01*
X73928095Y46875904D01*
X299470476Y27179238D02*
X299613333Y27131619D01*
X299851428Y27131619D01*
X299946666Y27179238D01*
X299994285Y27226857D01*
X300041904Y27322095D01*
X300041904Y27417333D01*
X299994285Y27512571D01*
X299946666Y27560190D01*
X299851428Y27607809D01*
X299660952Y27655428D01*
X299565714Y27703047D01*
X299518095Y27750666D01*
X299470476Y27845904D01*
X299470476Y27941142D01*
X299518095Y28036380D01*
X299565714Y28084000D01*
X299660952Y28131619D01*
X299899047Y28131619D01*
X300041904Y28084000D01*
X300375238Y28131619D02*
X300613333Y27131619D01*
X300803809Y27845904D01*
X300994285Y27131619D01*
X301232380Y28131619D01*
X301756190Y27703047D02*
X301660952Y27750666D01*
X301613333Y27798285D01*
X301565714Y27893523D01*
X301565714Y27941142D01*
X301613333Y28036380D01*
X301660952Y28084000D01*
X301756190Y28131619D01*
X301946666Y28131619D01*
X302041904Y28084000D01*
X302089523Y28036380D01*
X302137142Y27941142D01*
X302137142Y27893523D01*
X302089523Y27798285D01*
X302041904Y27750666D01*
X301946666Y27703047D01*
X301756190Y27703047D01*
X301660952Y27655428D01*
X301613333Y27607809D01*
X301565714Y27512571D01*
X301565714Y27322095D01*
X301613333Y27226857D01*
X301660952Y27179238D01*
X301756190Y27131619D01*
X301946666Y27131619D01*
X302041904Y27179238D01*
X302089523Y27226857D01*
X302137142Y27322095D01*
X302137142Y27512571D01*
X302089523Y27607809D01*
X302041904Y27655428D01*
X301946666Y27703047D01*
X302518095Y28036380D02*
X302565714Y28084000D01*
X302660952Y28131619D01*
X302899047Y28131619D01*
X302994285Y28084000D01*
X303041904Y28036380D01*
X303089523Y27941142D01*
X303089523Y27845904D01*
X303041904Y27703047D01*
X302470476Y27131619D01*
X303089523Y27131619D01*
X185190476Y103369238D02*
X185333333Y103321619D01*
X185571428Y103321619D01*
X185666666Y103369238D01*
X185714285Y103416857D01*
X185761904Y103512095D01*
X185761904Y103607333D01*
X185714285Y103702571D01*
X185666666Y103750190D01*
X185571428Y103797809D01*
X185380952Y103845428D01*
X185285714Y103893047D01*
X185238095Y103940666D01*
X185190476Y104035904D01*
X185190476Y104131142D01*
X185238095Y104226380D01*
X185285714Y104274000D01*
X185380952Y104321619D01*
X185619047Y104321619D01*
X185761904Y104274000D01*
X186095238Y104321619D02*
X186333333Y103321619D01*
X186523809Y104035904D01*
X186714285Y103321619D01*
X186952380Y104321619D01*
X187285714Y104226380D02*
X187333333Y104274000D01*
X187428571Y104321619D01*
X187666666Y104321619D01*
X187761904Y104274000D01*
X187809523Y104226380D01*
X187857142Y104131142D01*
X187857142Y104035904D01*
X187809523Y103893047D01*
X187238095Y103321619D01*
X187857142Y103321619D01*
X188714285Y103988285D02*
X188714285Y103321619D01*
X188476190Y104369238D02*
X188238095Y103654952D01*
X188857142Y103654952D01*
X128040476Y46219238D02*
X128183333Y46171619D01*
X128421428Y46171619D01*
X128516666Y46219238D01*
X128564285Y46266857D01*
X128611904Y46362095D01*
X128611904Y46457333D01*
X128564285Y46552571D01*
X128516666Y46600190D01*
X128421428Y46647809D01*
X128230952Y46695428D01*
X128135714Y46743047D01*
X128088095Y46790666D01*
X128040476Y46885904D01*
X128040476Y46981142D01*
X128088095Y47076380D01*
X128135714Y47124000D01*
X128230952Y47171619D01*
X128469047Y47171619D01*
X128611904Y47124000D01*
X128945238Y47171619D02*
X129183333Y46171619D01*
X129373809Y46885904D01*
X129564285Y46171619D01*
X129802380Y47171619D01*
X130611904Y47171619D02*
X130421428Y47171619D01*
X130326190Y47124000D01*
X130278571Y47076380D01*
X130183333Y46933523D01*
X130135714Y46743047D01*
X130135714Y46362095D01*
X130183333Y46266857D01*
X130230952Y46219238D01*
X130326190Y46171619D01*
X130516666Y46171619D01*
X130611904Y46219238D01*
X130659523Y46266857D01*
X130707142Y46362095D01*
X130707142Y46600190D01*
X130659523Y46695428D01*
X130611904Y46743047D01*
X130516666Y46790666D01*
X130326190Y46790666D01*
X130230952Y46743047D01*
X130183333Y46695428D01*
X130135714Y46600190D01*
X131564285Y46838285D02*
X131564285Y46171619D01*
X131326190Y47219238D02*
X131088095Y46504952D01*
X131707142Y46504952D01*
X51850476Y46219238D02*
X51993333Y46171619D01*
X52231428Y46171619D01*
X52326666Y46219238D01*
X52374285Y46266857D01*
X52421904Y46362095D01*
X52421904Y46457333D01*
X52374285Y46552571D01*
X52326666Y46600190D01*
X52231428Y46647809D01*
X52040952Y46695428D01*
X51945714Y46743047D01*
X51898095Y46790666D01*
X51850476Y46885904D01*
X51850476Y46981142D01*
X51898095Y47076380D01*
X51945714Y47124000D01*
X52040952Y47171619D01*
X52279047Y47171619D01*
X52421904Y47124000D01*
X52755238Y47171619D02*
X52993333Y46171619D01*
X53183809Y46885904D01*
X53374285Y46171619D01*
X53612380Y47171619D01*
X54421904Y47171619D02*
X54231428Y47171619D01*
X54136190Y47124000D01*
X54088571Y47076380D01*
X53993333Y46933523D01*
X53945714Y46743047D01*
X53945714Y46362095D01*
X53993333Y46266857D01*
X54040952Y46219238D01*
X54136190Y46171619D01*
X54326666Y46171619D01*
X54421904Y46219238D01*
X54469523Y46266857D01*
X54517142Y46362095D01*
X54517142Y46600190D01*
X54469523Y46695428D01*
X54421904Y46743047D01*
X54326666Y46790666D01*
X54136190Y46790666D01*
X54040952Y46743047D01*
X53993333Y46695428D01*
X53945714Y46600190D01*
X55136190Y47171619D02*
X55231428Y47171619D01*
X55326666Y47124000D01*
X55374285Y47076380D01*
X55421904Y46981142D01*
X55469523Y46790666D01*
X55469523Y46552571D01*
X55421904Y46362095D01*
X55374285Y46266857D01*
X55326666Y46219238D01*
X55231428Y46171619D01*
X55136190Y46171619D01*
X55040952Y46219238D01*
X54993333Y46266857D01*
X54945714Y46362095D01*
X54898095Y46552571D01*
X54898095Y46790666D01*
X54945714Y46981142D01*
X54993333Y47076380D01*
X55040952Y47124000D01*
X55136190Y47171619D01*
X280450476Y27149238D02*
X280593333Y27101619D01*
X280831428Y27101619D01*
X280926666Y27149238D01*
X280974285Y27196857D01*
X281021904Y27292095D01*
X281021904Y27387333D01*
X280974285Y27482571D01*
X280926666Y27530190D01*
X280831428Y27577809D01*
X280640952Y27625428D01*
X280545714Y27673047D01*
X280498095Y27720666D01*
X280450476Y27815904D01*
X280450476Y27911142D01*
X280498095Y28006380D01*
X280545714Y28054000D01*
X280640952Y28101619D01*
X280879047Y28101619D01*
X281021904Y28054000D01*
X281355238Y28101619D02*
X281593333Y27101619D01*
X281783809Y27815904D01*
X281974285Y27101619D01*
X282212380Y28101619D01*
X282736190Y27673047D02*
X282640952Y27720666D01*
X282593333Y27768285D01*
X282545714Y27863523D01*
X282545714Y27911142D01*
X282593333Y28006380D01*
X282640952Y28054000D01*
X282736190Y28101619D01*
X282926666Y28101619D01*
X283021904Y28054000D01*
X283069523Y28006380D01*
X283117142Y27911142D01*
X283117142Y27863523D01*
X283069523Y27768285D01*
X283021904Y27720666D01*
X282926666Y27673047D01*
X282736190Y27673047D01*
X282640952Y27625428D01*
X282593333Y27577809D01*
X282545714Y27482571D01*
X282545714Y27292095D01*
X282593333Y27196857D01*
X282640952Y27149238D01*
X282736190Y27101619D01*
X282926666Y27101619D01*
X283021904Y27149238D01*
X283069523Y27196857D01*
X283117142Y27292095D01*
X283117142Y27482571D01*
X283069523Y27577809D01*
X283021904Y27625428D01*
X282926666Y27673047D01*
X284069523Y27101619D02*
X283498095Y27101619D01*
X283783809Y27101619D02*
X283783809Y28101619D01*
X283688571Y27958761D01*
X283593333Y27863523D01*
X283498095Y27815904D01*
X108980476Y103379238D02*
X109123333Y103331619D01*
X109361428Y103331619D01*
X109456666Y103379238D01*
X109504285Y103426857D01*
X109551904Y103522095D01*
X109551904Y103617333D01*
X109504285Y103712571D01*
X109456666Y103760190D01*
X109361428Y103807809D01*
X109170952Y103855428D01*
X109075714Y103903047D01*
X109028095Y103950666D01*
X108980476Y104045904D01*
X108980476Y104141142D01*
X109028095Y104236380D01*
X109075714Y104284000D01*
X109170952Y104331619D01*
X109409047Y104331619D01*
X109551904Y104284000D01*
X109885238Y104331619D02*
X110123333Y103331619D01*
X110313809Y104045904D01*
X110504285Y103331619D01*
X110742380Y104331619D01*
X111075714Y104236380D02*
X111123333Y104284000D01*
X111218571Y104331619D01*
X111456666Y104331619D01*
X111551904Y104284000D01*
X111599523Y104236380D01*
X111647142Y104141142D01*
X111647142Y104045904D01*
X111599523Y103903047D01*
X111028095Y103331619D01*
X111647142Y103331619D01*
X112266190Y104331619D02*
X112361428Y104331619D01*
X112456666Y104284000D01*
X112504285Y104236380D01*
X112551904Y104141142D01*
X112599523Y103950666D01*
X112599523Y103712571D01*
X112551904Y103522095D01*
X112504285Y103426857D01*
X112456666Y103379238D01*
X112361428Y103331619D01*
X112266190Y103331619D01*
X112170952Y103379238D01*
X112123333Y103426857D01*
X112075714Y103522095D01*
X112028095Y103712571D01*
X112028095Y103950666D01*
X112075714Y104141142D01*
X112123333Y104236380D01*
X112170952Y104284000D01*
X112266190Y104331619D01*
X104230476Y65259238D02*
X104373333Y65211619D01*
X104611428Y65211619D01*
X104706666Y65259238D01*
X104754285Y65306857D01*
X104801904Y65402095D01*
X104801904Y65497333D01*
X104754285Y65592571D01*
X104706666Y65640190D01*
X104611428Y65687809D01*
X104420952Y65735428D01*
X104325714Y65783047D01*
X104278095Y65830666D01*
X104230476Y65925904D01*
X104230476Y66021142D01*
X104278095Y66116380D01*
X104325714Y66164000D01*
X104420952Y66211619D01*
X104659047Y66211619D01*
X104801904Y66164000D01*
X105135238Y66211619D02*
X105373333Y65211619D01*
X105563809Y65925904D01*
X105754285Y65211619D01*
X105992380Y66211619D01*
X106801904Y65878285D02*
X106801904Y65211619D01*
X106563809Y66259238D02*
X106325714Y65544952D01*
X106944761Y65544952D01*
X107373333Y65211619D02*
X107563809Y65211619D01*
X107659047Y65259238D01*
X107706666Y65306857D01*
X107801904Y65449714D01*
X107849523Y65640190D01*
X107849523Y66021142D01*
X107801904Y66116380D01*
X107754285Y66164000D01*
X107659047Y66211619D01*
X107468571Y66211619D01*
X107373333Y66164000D01*
X107325714Y66116380D01*
X107278095Y66021142D01*
X107278095Y65783047D01*
X107325714Y65687809D01*
X107373333Y65640190D01*
X107468571Y65592571D01*
X107659047Y65592571D01*
X107754285Y65640190D01*
X107801904Y65687809D01*
X107849523Y65783047D01*
X275680476Y84339238D02*
X275823333Y84291619D01*
X276061428Y84291619D01*
X276156666Y84339238D01*
X276204285Y84386857D01*
X276251904Y84482095D01*
X276251904Y84577333D01*
X276204285Y84672571D01*
X276156666Y84720190D01*
X276061428Y84767809D01*
X275870952Y84815428D01*
X275775714Y84863047D01*
X275728095Y84910666D01*
X275680476Y85005904D01*
X275680476Y85101142D01*
X275728095Y85196380D01*
X275775714Y85244000D01*
X275870952Y85291619D01*
X276109047Y85291619D01*
X276251904Y85244000D01*
X276585238Y85291619D02*
X276823333Y84291619D01*
X277013809Y85005904D01*
X277204285Y84291619D01*
X277442380Y85291619D01*
X278251904Y84958285D02*
X278251904Y84291619D01*
X278013809Y85339238D02*
X277775714Y84624952D01*
X278394761Y84624952D01*
X278680476Y85291619D02*
X279299523Y85291619D01*
X278966190Y84910666D01*
X279109047Y84910666D01*
X279204285Y84863047D01*
X279251904Y84815428D01*
X279299523Y84720190D01*
X279299523Y84482095D01*
X279251904Y84386857D01*
X279204285Y84339238D01*
X279109047Y84291619D01*
X278823333Y84291619D01*
X278728095Y84339238D01*
X278680476Y84386857D01*
X99450476Y84319238D02*
X99593333Y84271619D01*
X99831428Y84271619D01*
X99926666Y84319238D01*
X99974285Y84366857D01*
X100021904Y84462095D01*
X100021904Y84557333D01*
X99974285Y84652571D01*
X99926666Y84700190D01*
X99831428Y84747809D01*
X99640952Y84795428D01*
X99545714Y84843047D01*
X99498095Y84890666D01*
X99450476Y84985904D01*
X99450476Y85081142D01*
X99498095Y85176380D01*
X99545714Y85224000D01*
X99640952Y85271619D01*
X99879047Y85271619D01*
X100021904Y85224000D01*
X100355238Y85271619D02*
X100593333Y84271619D01*
X100783809Y84985904D01*
X100974285Y84271619D01*
X101212380Y85271619D01*
X101498095Y85271619D02*
X102117142Y85271619D01*
X101783809Y84890666D01*
X101926666Y84890666D01*
X102021904Y84843047D01*
X102069523Y84795428D01*
X102117142Y84700190D01*
X102117142Y84462095D01*
X102069523Y84366857D01*
X102021904Y84319238D01*
X101926666Y84271619D01*
X101640952Y84271619D01*
X101545714Y84319238D01*
X101498095Y84366857D01*
X102974285Y84938285D02*
X102974285Y84271619D01*
X102736190Y85319238D02*
X102498095Y84604952D01*
X103117142Y84604952D01*
X199490476Y65289238D02*
X199633333Y65241619D01*
X199871428Y65241619D01*
X199966666Y65289238D01*
X200014285Y65336857D01*
X200061904Y65432095D01*
X200061904Y65527333D01*
X200014285Y65622571D01*
X199966666Y65670190D01*
X199871428Y65717809D01*
X199680952Y65765428D01*
X199585714Y65813047D01*
X199538095Y65860666D01*
X199490476Y65955904D01*
X199490476Y66051142D01*
X199538095Y66146380D01*
X199585714Y66194000D01*
X199680952Y66241619D01*
X199919047Y66241619D01*
X200061904Y66194000D01*
X200395238Y66241619D02*
X200633333Y65241619D01*
X200823809Y65955904D01*
X201014285Y65241619D01*
X201252380Y66241619D01*
X202109523Y66241619D02*
X201633333Y66241619D01*
X201585714Y65765428D01*
X201633333Y65813047D01*
X201728571Y65860666D01*
X201966666Y65860666D01*
X202061904Y65813047D01*
X202109523Y65765428D01*
X202157142Y65670190D01*
X202157142Y65432095D01*
X202109523Y65336857D01*
X202061904Y65289238D01*
X201966666Y65241619D01*
X201728571Y65241619D01*
X201633333Y65289238D01*
X201585714Y65336857D01*
X203014285Y65908285D02*
X203014285Y65241619D01*
X202776190Y66289238D02*
X202538095Y65574952D01*
X203157142Y65574952D01*
X251860476Y84319238D02*
X252003333Y84271619D01*
X252241428Y84271619D01*
X252336666Y84319238D01*
X252384285Y84366857D01*
X252431904Y84462095D01*
X252431904Y84557333D01*
X252384285Y84652571D01*
X252336666Y84700190D01*
X252241428Y84747809D01*
X252050952Y84795428D01*
X251955714Y84843047D01*
X251908095Y84890666D01*
X251860476Y84985904D01*
X251860476Y85081142D01*
X251908095Y85176380D01*
X251955714Y85224000D01*
X252050952Y85271619D01*
X252289047Y85271619D01*
X252431904Y85224000D01*
X252765238Y85271619D02*
X253003333Y84271619D01*
X253193809Y84985904D01*
X253384285Y84271619D01*
X253622380Y85271619D01*
X254431904Y84938285D02*
X254431904Y84271619D01*
X254193809Y85319238D02*
X253955714Y84604952D01*
X254574761Y84604952D01*
X254908095Y85176380D02*
X254955714Y85224000D01*
X255050952Y85271619D01*
X255289047Y85271619D01*
X255384285Y85224000D01*
X255431904Y85176380D01*
X255479523Y85081142D01*
X255479523Y84985904D01*
X255431904Y84843047D01*
X254860476Y84271619D01*
X255479523Y84271619D01*
X61370476Y84329238D02*
X61513333Y84281619D01*
X61751428Y84281619D01*
X61846666Y84329238D01*
X61894285Y84376857D01*
X61941904Y84472095D01*
X61941904Y84567333D01*
X61894285Y84662571D01*
X61846666Y84710190D01*
X61751428Y84757809D01*
X61560952Y84805428D01*
X61465714Y84853047D01*
X61418095Y84900666D01*
X61370476Y84995904D01*
X61370476Y85091142D01*
X61418095Y85186380D01*
X61465714Y85234000D01*
X61560952Y85281619D01*
X61799047Y85281619D01*
X61941904Y85234000D01*
X62275238Y85281619D02*
X62513333Y84281619D01*
X62703809Y84995904D01*
X62894285Y84281619D01*
X63132380Y85281619D01*
X63418095Y85281619D02*
X64037142Y85281619D01*
X63703809Y84900666D01*
X63846666Y84900666D01*
X63941904Y84853047D01*
X63989523Y84805428D01*
X64037142Y84710190D01*
X64037142Y84472095D01*
X63989523Y84376857D01*
X63941904Y84329238D01*
X63846666Y84281619D01*
X63560952Y84281619D01*
X63465714Y84329238D01*
X63418095Y84376857D01*
X64418095Y85186380D02*
X64465714Y85234000D01*
X64560952Y85281619D01*
X64799047Y85281619D01*
X64894285Y85234000D01*
X64941904Y85186380D01*
X64989523Y85091142D01*
X64989523Y84995904D01*
X64941904Y84853047D01*
X64370476Y84281619D01*
X64989523Y84281619D01*
X251840476Y122429238D02*
X251983333Y122381619D01*
X252221428Y122381619D01*
X252316666Y122429238D01*
X252364285Y122476857D01*
X252411904Y122572095D01*
X252411904Y122667333D01*
X252364285Y122762571D01*
X252316666Y122810190D01*
X252221428Y122857809D01*
X252030952Y122905428D01*
X251935714Y122953047D01*
X251888095Y123000666D01*
X251840476Y123095904D01*
X251840476Y123191142D01*
X251888095Y123286380D01*
X251935714Y123334000D01*
X252030952Y123381619D01*
X252269047Y123381619D01*
X252411904Y123334000D01*
X252745238Y123381619D02*
X252983333Y122381619D01*
X253173809Y123095904D01*
X253364285Y122381619D01*
X253602380Y123381619D01*
X254507142Y122381619D02*
X253935714Y122381619D01*
X254221428Y122381619D02*
X254221428Y123381619D01*
X254126190Y123238761D01*
X254030952Y123143523D01*
X253935714Y123095904D01*
X254888095Y123286380D02*
X254935714Y123334000D01*
X255030952Y123381619D01*
X255269047Y123381619D01*
X255364285Y123334000D01*
X255411904Y123286380D01*
X255459523Y123191142D01*
X255459523Y123095904D01*
X255411904Y122953047D01*
X254840476Y122381619D01*
X255459523Y122381619D01*
X128030476Y103379238D02*
X128173333Y103331619D01*
X128411428Y103331619D01*
X128506666Y103379238D01*
X128554285Y103426857D01*
X128601904Y103522095D01*
X128601904Y103617333D01*
X128554285Y103712571D01*
X128506666Y103760190D01*
X128411428Y103807809D01*
X128220952Y103855428D01*
X128125714Y103903047D01*
X128078095Y103950666D01*
X128030476Y104045904D01*
X128030476Y104141142D01*
X128078095Y104236380D01*
X128125714Y104284000D01*
X128220952Y104331619D01*
X128459047Y104331619D01*
X128601904Y104284000D01*
X128935238Y104331619D02*
X129173333Y103331619D01*
X129363809Y104045904D01*
X129554285Y103331619D01*
X129792380Y104331619D01*
X130125714Y104236380D02*
X130173333Y104284000D01*
X130268571Y104331619D01*
X130506666Y104331619D01*
X130601904Y104284000D01*
X130649523Y104236380D01*
X130697142Y104141142D01*
X130697142Y104045904D01*
X130649523Y103903047D01*
X130078095Y103331619D01*
X130697142Y103331619D01*
X131649523Y103331619D02*
X131078095Y103331619D01*
X131363809Y103331619D02*
X131363809Y104331619D01*
X131268571Y104188761D01*
X131173333Y104093523D01*
X131078095Y104045904D01*
X299460476Y65249238D02*
X299603333Y65201619D01*
X299841428Y65201619D01*
X299936666Y65249238D01*
X299984285Y65296857D01*
X300031904Y65392095D01*
X300031904Y65487333D01*
X299984285Y65582571D01*
X299936666Y65630190D01*
X299841428Y65677809D01*
X299650952Y65725428D01*
X299555714Y65773047D01*
X299508095Y65820666D01*
X299460476Y65915904D01*
X299460476Y66011142D01*
X299508095Y66106380D01*
X299555714Y66154000D01*
X299650952Y66201619D01*
X299889047Y66201619D01*
X300031904Y66154000D01*
X300365238Y66201619D02*
X300603333Y65201619D01*
X300793809Y65915904D01*
X300984285Y65201619D01*
X301222380Y66201619D01*
X302079523Y66201619D02*
X301603333Y66201619D01*
X301555714Y65725428D01*
X301603333Y65773047D01*
X301698571Y65820666D01*
X301936666Y65820666D01*
X302031904Y65773047D01*
X302079523Y65725428D01*
X302127142Y65630190D01*
X302127142Y65392095D01*
X302079523Y65296857D01*
X302031904Y65249238D01*
X301936666Y65201619D01*
X301698571Y65201619D01*
X301603333Y65249238D01*
X301555714Y65296857D01*
X302698571Y65773047D02*
X302603333Y65820666D01*
X302555714Y65868285D01*
X302508095Y65963523D01*
X302508095Y66011142D01*
X302555714Y66106380D01*
X302603333Y66154000D01*
X302698571Y66201619D01*
X302889047Y66201619D01*
X302984285Y66154000D01*
X303031904Y66106380D01*
X303079523Y66011142D01*
X303079523Y65963523D01*
X303031904Y65868285D01*
X302984285Y65820666D01*
X302889047Y65773047D01*
X302698571Y65773047D01*
X302603333Y65725428D01*
X302555714Y65677809D01*
X302508095Y65582571D01*
X302508095Y65392095D01*
X302555714Y65296857D01*
X302603333Y65249238D01*
X302698571Y65201619D01*
X302889047Y65201619D01*
X302984285Y65249238D01*
X303031904Y65296857D01*
X303079523Y65392095D01*
X303079523Y65582571D01*
X303031904Y65677809D01*
X302984285Y65725428D01*
X302889047Y65773047D01*
X204230476Y46209238D02*
X204373333Y46161619D01*
X204611428Y46161619D01*
X204706666Y46209238D01*
X204754285Y46256857D01*
X204801904Y46352095D01*
X204801904Y46447333D01*
X204754285Y46542571D01*
X204706666Y46590190D01*
X204611428Y46637809D01*
X204420952Y46685428D01*
X204325714Y46733047D01*
X204278095Y46780666D01*
X204230476Y46875904D01*
X204230476Y46971142D01*
X204278095Y47066380D01*
X204325714Y47114000D01*
X204420952Y47161619D01*
X204659047Y47161619D01*
X204801904Y47114000D01*
X205135238Y47161619D02*
X205373333Y46161619D01*
X205563809Y46875904D01*
X205754285Y46161619D01*
X205992380Y47161619D01*
X206801904Y47161619D02*
X206611428Y47161619D01*
X206516190Y47114000D01*
X206468571Y47066380D01*
X206373333Y46923523D01*
X206325714Y46733047D01*
X206325714Y46352095D01*
X206373333Y46256857D01*
X206420952Y46209238D01*
X206516190Y46161619D01*
X206706666Y46161619D01*
X206801904Y46209238D01*
X206849523Y46256857D01*
X206897142Y46352095D01*
X206897142Y46590190D01*
X206849523Y46685428D01*
X206801904Y46733047D01*
X206706666Y46780666D01*
X206516190Y46780666D01*
X206420952Y46733047D01*
X206373333Y46685428D01*
X206325714Y46590190D01*
X207468571Y46733047D02*
X207373333Y46780666D01*
X207325714Y46828285D01*
X207278095Y46923523D01*
X207278095Y46971142D01*
X207325714Y47066380D01*
X207373333Y47114000D01*
X207468571Y47161619D01*
X207659047Y47161619D01*
X207754285Y47114000D01*
X207801904Y47066380D01*
X207849523Y46971142D01*
X207849523Y46923523D01*
X207801904Y46828285D01*
X207754285Y46780666D01*
X207659047Y46733047D01*
X207468571Y46733047D01*
X207373333Y46685428D01*
X207325714Y46637809D01*
X207278095Y46542571D01*
X207278095Y46352095D01*
X207325714Y46256857D01*
X207373333Y46209238D01*
X207468571Y46161619D01*
X207659047Y46161619D01*
X207754285Y46209238D01*
X207801904Y46256857D01*
X207849523Y46352095D01*
X207849523Y46542571D01*
X207801904Y46637809D01*
X207754285Y46685428D01*
X207659047Y46733047D01*
X166576666Y122389238D02*
X166719523Y122341619D01*
X166957619Y122341619D01*
X167052857Y122389238D01*
X167100476Y122436857D01*
X167148095Y122532095D01*
X167148095Y122627333D01*
X167100476Y122722571D01*
X167052857Y122770190D01*
X166957619Y122817809D01*
X166767142Y122865428D01*
X166671904Y122913047D01*
X166624285Y122960666D01*
X166576666Y123055904D01*
X166576666Y123151142D01*
X166624285Y123246380D01*
X166671904Y123294000D01*
X166767142Y123341619D01*
X167005238Y123341619D01*
X167148095Y123294000D01*
X167481428Y123341619D02*
X167719523Y122341619D01*
X167910000Y123055904D01*
X168100476Y122341619D01*
X168338571Y123341619D01*
X168862380Y122913047D02*
X168767142Y122960666D01*
X168719523Y123008285D01*
X168671904Y123103523D01*
X168671904Y123151142D01*
X168719523Y123246380D01*
X168767142Y123294000D01*
X168862380Y123341619D01*
X169052857Y123341619D01*
X169148095Y123294000D01*
X169195714Y123246380D01*
X169243333Y123151142D01*
X169243333Y123103523D01*
X169195714Y123008285D01*
X169148095Y122960666D01*
X169052857Y122913047D01*
X168862380Y122913047D01*
X168767142Y122865428D01*
X168719523Y122817809D01*
X168671904Y122722571D01*
X168671904Y122532095D01*
X168719523Y122436857D01*
X168767142Y122389238D01*
X168862380Y122341619D01*
X169052857Y122341619D01*
X169148095Y122389238D01*
X169195714Y122436857D01*
X169243333Y122532095D01*
X169243333Y122722571D01*
X169195714Y122817809D01*
X169148095Y122865428D01*
X169052857Y122913047D01*
X16130476Y27169238D02*
X16273333Y27121619D01*
X16511428Y27121619D01*
X16606666Y27169238D01*
X16654285Y27216857D01*
X16701904Y27312095D01*
X16701904Y27407333D01*
X16654285Y27502571D01*
X16606666Y27550190D01*
X16511428Y27597809D01*
X16320952Y27645428D01*
X16225714Y27693047D01*
X16178095Y27740666D01*
X16130476Y27835904D01*
X16130476Y27931142D01*
X16178095Y28026380D01*
X16225714Y28074000D01*
X16320952Y28121619D01*
X16559047Y28121619D01*
X16701904Y28074000D01*
X17035238Y28121619D02*
X17273333Y27121619D01*
X17463809Y27835904D01*
X17654285Y27121619D01*
X17892380Y28121619D01*
X18178095Y28121619D02*
X18844761Y28121619D01*
X18416190Y27121619D01*
X19654285Y27788285D02*
X19654285Y27121619D01*
X19416190Y28169238D02*
X19178095Y27454952D01*
X19797142Y27454952D01*
X109000476Y46209238D02*
X109143333Y46161619D01*
X109381428Y46161619D01*
X109476666Y46209238D01*
X109524285Y46256857D01*
X109571904Y46352095D01*
X109571904Y46447333D01*
X109524285Y46542571D01*
X109476666Y46590190D01*
X109381428Y46637809D01*
X109190952Y46685428D01*
X109095714Y46733047D01*
X109048095Y46780666D01*
X109000476Y46875904D01*
X109000476Y46971142D01*
X109048095Y47066380D01*
X109095714Y47114000D01*
X109190952Y47161619D01*
X109429047Y47161619D01*
X109571904Y47114000D01*
X109905238Y47161619D02*
X110143333Y46161619D01*
X110333809Y46875904D01*
X110524285Y46161619D01*
X110762380Y47161619D01*
X111571904Y47161619D02*
X111381428Y47161619D01*
X111286190Y47114000D01*
X111238571Y47066380D01*
X111143333Y46923523D01*
X111095714Y46733047D01*
X111095714Y46352095D01*
X111143333Y46256857D01*
X111190952Y46209238D01*
X111286190Y46161619D01*
X111476666Y46161619D01*
X111571904Y46209238D01*
X111619523Y46256857D01*
X111667142Y46352095D01*
X111667142Y46590190D01*
X111619523Y46685428D01*
X111571904Y46733047D01*
X111476666Y46780666D01*
X111286190Y46780666D01*
X111190952Y46733047D01*
X111143333Y46685428D01*
X111095714Y46590190D01*
X112000476Y47161619D02*
X112619523Y47161619D01*
X112286190Y46780666D01*
X112429047Y46780666D01*
X112524285Y46733047D01*
X112571904Y46685428D01*
X112619523Y46590190D01*
X112619523Y46352095D01*
X112571904Y46256857D01*
X112524285Y46209238D01*
X112429047Y46161619D01*
X112143333Y46161619D01*
X112048095Y46209238D01*
X112000476Y46256857D01*
X66110476Y27169238D02*
X66253333Y27121619D01*
X66491428Y27121619D01*
X66586666Y27169238D01*
X66634285Y27216857D01*
X66681904Y27312095D01*
X66681904Y27407333D01*
X66634285Y27502571D01*
X66586666Y27550190D01*
X66491428Y27597809D01*
X66300952Y27645428D01*
X66205714Y27693047D01*
X66158095Y27740666D01*
X66110476Y27835904D01*
X66110476Y27931142D01*
X66158095Y28026380D01*
X66205714Y28074000D01*
X66300952Y28121619D01*
X66539047Y28121619D01*
X66681904Y28074000D01*
X67015238Y28121619D02*
X67253333Y27121619D01*
X67443809Y27835904D01*
X67634285Y27121619D01*
X67872380Y28121619D01*
X68158095Y28121619D02*
X68824761Y28121619D01*
X68396190Y27121619D01*
X69634285Y28121619D02*
X69443809Y28121619D01*
X69348571Y28074000D01*
X69300952Y28026380D01*
X69205714Y27883523D01*
X69158095Y27693047D01*
X69158095Y27312095D01*
X69205714Y27216857D01*
X69253333Y27169238D01*
X69348571Y27121619D01*
X69539047Y27121619D01*
X69634285Y27169238D01*
X69681904Y27216857D01*
X69729523Y27312095D01*
X69729523Y27550190D01*
X69681904Y27645428D01*
X69634285Y27693047D01*
X69539047Y27740666D01*
X69348571Y27740666D01*
X69253333Y27693047D01*
X69205714Y27645428D01*
X69158095Y27550190D01*
X70870476Y103359238D02*
X71013333Y103311619D01*
X71251428Y103311619D01*
X71346666Y103359238D01*
X71394285Y103406857D01*
X71441904Y103502095D01*
X71441904Y103597333D01*
X71394285Y103692571D01*
X71346666Y103740190D01*
X71251428Y103787809D01*
X71060952Y103835428D01*
X70965714Y103883047D01*
X70918095Y103930666D01*
X70870476Y104025904D01*
X70870476Y104121142D01*
X70918095Y104216380D01*
X70965714Y104264000D01*
X71060952Y104311619D01*
X71299047Y104311619D01*
X71441904Y104264000D01*
X71775238Y104311619D02*
X72013333Y103311619D01*
X72203809Y104025904D01*
X72394285Y103311619D01*
X72632380Y104311619D01*
X73537142Y103311619D02*
X72965714Y103311619D01*
X73251428Y103311619D02*
X73251428Y104311619D01*
X73156190Y104168761D01*
X73060952Y104073523D01*
X72965714Y104025904D01*
X74108571Y103883047D02*
X74013333Y103930666D01*
X73965714Y103978285D01*
X73918095Y104073523D01*
X73918095Y104121142D01*
X73965714Y104216380D01*
X74013333Y104264000D01*
X74108571Y104311619D01*
X74299047Y104311619D01*
X74394285Y104264000D01*
X74441904Y104216380D01*
X74489523Y104121142D01*
X74489523Y104073523D01*
X74441904Y103978285D01*
X74394285Y103930666D01*
X74299047Y103883047D01*
X74108571Y103883047D01*
X74013333Y103835428D01*
X73965714Y103787809D01*
X73918095Y103692571D01*
X73918095Y103502095D01*
X73965714Y103406857D01*
X74013333Y103359238D01*
X74108571Y103311619D01*
X74299047Y103311619D01*
X74394285Y103359238D01*
X74441904Y103406857D01*
X74489523Y103502095D01*
X74489523Y103692571D01*
X74441904Y103787809D01*
X74394285Y103835428D01*
X74299047Y103883047D01*
X139950476Y27179238D02*
X140093333Y27131619D01*
X140331428Y27131619D01*
X140426666Y27179238D01*
X140474285Y27226857D01*
X140521904Y27322095D01*
X140521904Y27417333D01*
X140474285Y27512571D01*
X140426666Y27560190D01*
X140331428Y27607809D01*
X140140952Y27655428D01*
X140045714Y27703047D01*
X139998095Y27750666D01*
X139950476Y27845904D01*
X139950476Y27941142D01*
X139998095Y28036380D01*
X140045714Y28084000D01*
X140140952Y28131619D01*
X140379047Y28131619D01*
X140521904Y28084000D01*
X140855238Y28131619D02*
X141093333Y27131619D01*
X141283809Y27845904D01*
X141474285Y27131619D01*
X141712380Y28131619D01*
X141998095Y28131619D02*
X142664761Y28131619D01*
X142236190Y27131619D01*
X142950476Y28131619D02*
X143617142Y28131619D01*
X143188571Y27131619D01*
X118500476Y84289238D02*
X118643333Y84241619D01*
X118881428Y84241619D01*
X118976666Y84289238D01*
X119024285Y84336857D01*
X119071904Y84432095D01*
X119071904Y84527333D01*
X119024285Y84622571D01*
X118976666Y84670190D01*
X118881428Y84717809D01*
X118690952Y84765428D01*
X118595714Y84813047D01*
X118548095Y84860666D01*
X118500476Y84955904D01*
X118500476Y85051142D01*
X118548095Y85146380D01*
X118595714Y85194000D01*
X118690952Y85241619D01*
X118929047Y85241619D01*
X119071904Y85194000D01*
X119405238Y85241619D02*
X119643333Y84241619D01*
X119833809Y84955904D01*
X120024285Y84241619D01*
X120262380Y85241619D01*
X120548095Y85241619D02*
X121167142Y85241619D01*
X120833809Y84860666D01*
X120976666Y84860666D01*
X121071904Y84813047D01*
X121119523Y84765428D01*
X121167142Y84670190D01*
X121167142Y84432095D01*
X121119523Y84336857D01*
X121071904Y84289238D01*
X120976666Y84241619D01*
X120690952Y84241619D01*
X120595714Y84289238D01*
X120548095Y84336857D01*
X122071904Y85241619D02*
X121595714Y85241619D01*
X121548095Y84765428D01*
X121595714Y84813047D01*
X121690952Y84860666D01*
X121929047Y84860666D01*
X122024285Y84813047D01*
X122071904Y84765428D01*
X122119523Y84670190D01*
X122119523Y84432095D01*
X122071904Y84336857D01*
X122024285Y84289238D01*
X121929047Y84241619D01*
X121690952Y84241619D01*
X121595714Y84289238D01*
X121548095Y84336857D01*
X142300476Y65289238D02*
X142443333Y65241619D01*
X142681428Y65241619D01*
X142776666Y65289238D01*
X142824285Y65336857D01*
X142871904Y65432095D01*
X142871904Y65527333D01*
X142824285Y65622571D01*
X142776666Y65670190D01*
X142681428Y65717809D01*
X142490952Y65765428D01*
X142395714Y65813047D01*
X142348095Y65860666D01*
X142300476Y65955904D01*
X142300476Y66051142D01*
X142348095Y66146380D01*
X142395714Y66194000D01*
X142490952Y66241619D01*
X142729047Y66241619D01*
X142871904Y66194000D01*
X143205238Y66241619D02*
X143443333Y65241619D01*
X143633809Y65955904D01*
X143824285Y65241619D01*
X144062380Y66241619D01*
X144919523Y66241619D02*
X144443333Y66241619D01*
X144395714Y65765428D01*
X144443333Y65813047D01*
X144538571Y65860666D01*
X144776666Y65860666D01*
X144871904Y65813047D01*
X144919523Y65765428D01*
X144967142Y65670190D01*
X144967142Y65432095D01*
X144919523Y65336857D01*
X144871904Y65289238D01*
X144776666Y65241619D01*
X144538571Y65241619D01*
X144443333Y65289238D01*
X144395714Y65336857D01*
X145919523Y65241619D02*
X145348095Y65241619D01*
X145633809Y65241619D02*
X145633809Y66241619D01*
X145538571Y66098761D01*
X145443333Y66003523D01*
X145348095Y65955904D01*
X166150476Y103379238D02*
X166293333Y103331619D01*
X166531428Y103331619D01*
X166626666Y103379238D01*
X166674285Y103426857D01*
X166721904Y103522095D01*
X166721904Y103617333D01*
X166674285Y103712571D01*
X166626666Y103760190D01*
X166531428Y103807809D01*
X166340952Y103855428D01*
X166245714Y103903047D01*
X166198095Y103950666D01*
X166150476Y104045904D01*
X166150476Y104141142D01*
X166198095Y104236380D01*
X166245714Y104284000D01*
X166340952Y104331619D01*
X166579047Y104331619D01*
X166721904Y104284000D01*
X167055238Y104331619D02*
X167293333Y103331619D01*
X167483809Y104045904D01*
X167674285Y103331619D01*
X167912380Y104331619D01*
X168245714Y104236380D02*
X168293333Y104284000D01*
X168388571Y104331619D01*
X168626666Y104331619D01*
X168721904Y104284000D01*
X168769523Y104236380D01*
X168817142Y104141142D01*
X168817142Y104045904D01*
X168769523Y103903047D01*
X168198095Y103331619D01*
X168817142Y103331619D01*
X169150476Y104331619D02*
X169769523Y104331619D01*
X169436190Y103950666D01*
X169579047Y103950666D01*
X169674285Y103903047D01*
X169721904Y103855428D01*
X169769523Y103760190D01*
X169769523Y103522095D01*
X169721904Y103426857D01*
X169674285Y103379238D01*
X169579047Y103331619D01*
X169293333Y103331619D01*
X169198095Y103379238D01*
X169150476Y103426857D01*
X204240476Y103369238D02*
X204383333Y103321619D01*
X204621428Y103321619D01*
X204716666Y103369238D01*
X204764285Y103416857D01*
X204811904Y103512095D01*
X204811904Y103607333D01*
X204764285Y103702571D01*
X204716666Y103750190D01*
X204621428Y103797809D01*
X204430952Y103845428D01*
X204335714Y103893047D01*
X204288095Y103940666D01*
X204240476Y104035904D01*
X204240476Y104131142D01*
X204288095Y104226380D01*
X204335714Y104274000D01*
X204430952Y104321619D01*
X204669047Y104321619D01*
X204811904Y104274000D01*
X205145238Y104321619D02*
X205383333Y103321619D01*
X205573809Y104035904D01*
X205764285Y103321619D01*
X206002380Y104321619D01*
X206335714Y104226380D02*
X206383333Y104274000D01*
X206478571Y104321619D01*
X206716666Y104321619D01*
X206811904Y104274000D01*
X206859523Y104226380D01*
X206907142Y104131142D01*
X206907142Y104035904D01*
X206859523Y103893047D01*
X206288095Y103321619D01*
X206907142Y103321619D01*
X207811904Y104321619D02*
X207335714Y104321619D01*
X207288095Y103845428D01*
X207335714Y103893047D01*
X207430952Y103940666D01*
X207669047Y103940666D01*
X207764285Y103893047D01*
X207811904Y103845428D01*
X207859523Y103750190D01*
X207859523Y103512095D01*
X207811904Y103416857D01*
X207764285Y103369238D01*
X207669047Y103321619D01*
X207430952Y103321619D01*
X207335714Y103369238D01*
X207288095Y103416857D01*
X232800476Y122429238D02*
X232943333Y122381619D01*
X233181428Y122381619D01*
X233276666Y122429238D01*
X233324285Y122476857D01*
X233371904Y122572095D01*
X233371904Y122667333D01*
X233324285Y122762571D01*
X233276666Y122810190D01*
X233181428Y122857809D01*
X232990952Y122905428D01*
X232895714Y122953047D01*
X232848095Y123000666D01*
X232800476Y123095904D01*
X232800476Y123191142D01*
X232848095Y123286380D01*
X232895714Y123334000D01*
X232990952Y123381619D01*
X233229047Y123381619D01*
X233371904Y123334000D01*
X233705238Y123381619D02*
X233943333Y122381619D01*
X234133809Y123095904D01*
X234324285Y122381619D01*
X234562380Y123381619D01*
X235467142Y122381619D02*
X234895714Y122381619D01*
X235181428Y122381619D02*
X235181428Y123381619D01*
X235086190Y123238761D01*
X234990952Y123143523D01*
X234895714Y123095904D01*
X236419523Y122381619D02*
X235848095Y122381619D01*
X236133809Y122381619D02*
X236133809Y123381619D01*
X236038571Y123238761D01*
X235943333Y123143523D01*
X235848095Y123095904D01*
X89930476Y46219238D02*
X90073333Y46171619D01*
X90311428Y46171619D01*
X90406666Y46219238D01*
X90454285Y46266857D01*
X90501904Y46362095D01*
X90501904Y46457333D01*
X90454285Y46552571D01*
X90406666Y46600190D01*
X90311428Y46647809D01*
X90120952Y46695428D01*
X90025714Y46743047D01*
X89978095Y46790666D01*
X89930476Y46885904D01*
X89930476Y46981142D01*
X89978095Y47076380D01*
X90025714Y47124000D01*
X90120952Y47171619D01*
X90359047Y47171619D01*
X90501904Y47124000D01*
X90835238Y47171619D02*
X91073333Y46171619D01*
X91263809Y46885904D01*
X91454285Y46171619D01*
X91692380Y47171619D01*
X92501904Y47171619D02*
X92311428Y47171619D01*
X92216190Y47124000D01*
X92168571Y47076380D01*
X92073333Y46933523D01*
X92025714Y46743047D01*
X92025714Y46362095D01*
X92073333Y46266857D01*
X92120952Y46219238D01*
X92216190Y46171619D01*
X92406666Y46171619D01*
X92501904Y46219238D01*
X92549523Y46266857D01*
X92597142Y46362095D01*
X92597142Y46600190D01*
X92549523Y46695428D01*
X92501904Y46743047D01*
X92406666Y46790666D01*
X92216190Y46790666D01*
X92120952Y46743047D01*
X92073333Y46695428D01*
X92025714Y46600190D01*
X92978095Y47076380D02*
X93025714Y47124000D01*
X93120952Y47171619D01*
X93359047Y47171619D01*
X93454285Y47124000D01*
X93501904Y47076380D01*
X93549523Y46981142D01*
X93549523Y46885904D01*
X93501904Y46743047D01*
X92930476Y46171619D01*
X93549523Y46171619D01*
X85180476Y65249238D02*
X85323333Y65201619D01*
X85561428Y65201619D01*
X85656666Y65249238D01*
X85704285Y65296857D01*
X85751904Y65392095D01*
X85751904Y65487333D01*
X85704285Y65582571D01*
X85656666Y65630190D01*
X85561428Y65677809D01*
X85370952Y65725428D01*
X85275714Y65773047D01*
X85228095Y65820666D01*
X85180476Y65915904D01*
X85180476Y66011142D01*
X85228095Y66106380D01*
X85275714Y66154000D01*
X85370952Y66201619D01*
X85609047Y66201619D01*
X85751904Y66154000D01*
X86085238Y66201619D02*
X86323333Y65201619D01*
X86513809Y65915904D01*
X86704285Y65201619D01*
X86942380Y66201619D01*
X87751904Y65868285D02*
X87751904Y65201619D01*
X87513809Y66249238D02*
X87275714Y65534952D01*
X87894761Y65534952D01*
X88418571Y65773047D02*
X88323333Y65820666D01*
X88275714Y65868285D01*
X88228095Y65963523D01*
X88228095Y66011142D01*
X88275714Y66106380D01*
X88323333Y66154000D01*
X88418571Y66201619D01*
X88609047Y66201619D01*
X88704285Y66154000D01*
X88751904Y66106380D01*
X88799523Y66011142D01*
X88799523Y65963523D01*
X88751904Y65868285D01*
X88704285Y65820666D01*
X88609047Y65773047D01*
X88418571Y65773047D01*
X88323333Y65725428D01*
X88275714Y65677809D01*
X88228095Y65582571D01*
X88228095Y65392095D01*
X88275714Y65296857D01*
X88323333Y65249238D01*
X88418571Y65201619D01*
X88609047Y65201619D01*
X88704285Y65249238D01*
X88751904Y65296857D01*
X88799523Y65392095D01*
X88799523Y65582571D01*
X88751904Y65677809D01*
X88704285Y65725428D01*
X88609047Y65773047D01*
X13730476Y103379238D02*
X13873333Y103331619D01*
X14111428Y103331619D01*
X14206666Y103379238D01*
X14254285Y103426857D01*
X14301904Y103522095D01*
X14301904Y103617333D01*
X14254285Y103712571D01*
X14206666Y103760190D01*
X14111428Y103807809D01*
X13920952Y103855428D01*
X13825714Y103903047D01*
X13778095Y103950666D01*
X13730476Y104045904D01*
X13730476Y104141142D01*
X13778095Y104236380D01*
X13825714Y104284000D01*
X13920952Y104331619D01*
X14159047Y104331619D01*
X14301904Y104284000D01*
X14635238Y104331619D02*
X14873333Y103331619D01*
X15063809Y104045904D01*
X15254285Y103331619D01*
X15492380Y104331619D01*
X16397142Y103331619D02*
X15825714Y103331619D01*
X16111428Y103331619D02*
X16111428Y104331619D01*
X16016190Y104188761D01*
X15920952Y104093523D01*
X15825714Y104045904D01*
X17301904Y104331619D02*
X16825714Y104331619D01*
X16778095Y103855428D01*
X16825714Y103903047D01*
X16920952Y103950666D01*
X17159047Y103950666D01*
X17254285Y103903047D01*
X17301904Y103855428D01*
X17349523Y103760190D01*
X17349523Y103522095D01*
X17301904Y103426857D01*
X17254285Y103379238D01*
X17159047Y103331619D01*
X16920952Y103331619D01*
X16825714Y103379238D01*
X16778095Y103426857D01*
X89920476Y103369238D02*
X90063333Y103321619D01*
X90301428Y103321619D01*
X90396666Y103369238D01*
X90444285Y103416857D01*
X90491904Y103512095D01*
X90491904Y103607333D01*
X90444285Y103702571D01*
X90396666Y103750190D01*
X90301428Y103797809D01*
X90110952Y103845428D01*
X90015714Y103893047D01*
X89968095Y103940666D01*
X89920476Y104035904D01*
X89920476Y104131142D01*
X89968095Y104226380D01*
X90015714Y104274000D01*
X90110952Y104321619D01*
X90349047Y104321619D01*
X90491904Y104274000D01*
X90825238Y104321619D02*
X91063333Y103321619D01*
X91253809Y104035904D01*
X91444285Y103321619D01*
X91682380Y104321619D01*
X92587142Y103321619D02*
X92015714Y103321619D01*
X92301428Y103321619D02*
X92301428Y104321619D01*
X92206190Y104178761D01*
X92110952Y104083523D01*
X92015714Y104035904D01*
X93063333Y103321619D02*
X93253809Y103321619D01*
X93349047Y103369238D01*
X93396666Y103416857D01*
X93491904Y103559714D01*
X93539523Y103750190D01*
X93539523Y104131142D01*
X93491904Y104226380D01*
X93444285Y104274000D01*
X93349047Y104321619D01*
X93158571Y104321619D01*
X93063333Y104274000D01*
X93015714Y104226380D01*
X92968095Y104131142D01*
X92968095Y103893047D01*
X93015714Y103797809D01*
X93063333Y103750190D01*
X93158571Y103702571D01*
X93349047Y103702571D01*
X93444285Y103750190D01*
X93491904Y103797809D01*
X93539523Y103893047D01*
X166130476Y46219238D02*
X166273333Y46171619D01*
X166511428Y46171619D01*
X166606666Y46219238D01*
X166654285Y46266857D01*
X166701904Y46362095D01*
X166701904Y46457333D01*
X166654285Y46552571D01*
X166606666Y46600190D01*
X166511428Y46647809D01*
X166320952Y46695428D01*
X166225714Y46743047D01*
X166178095Y46790666D01*
X166130476Y46885904D01*
X166130476Y46981142D01*
X166178095Y47076380D01*
X166225714Y47124000D01*
X166320952Y47171619D01*
X166559047Y47171619D01*
X166701904Y47124000D01*
X167035238Y47171619D02*
X167273333Y46171619D01*
X167463809Y46885904D01*
X167654285Y46171619D01*
X167892380Y47171619D01*
X168701904Y47171619D02*
X168511428Y47171619D01*
X168416190Y47124000D01*
X168368571Y47076380D01*
X168273333Y46933523D01*
X168225714Y46743047D01*
X168225714Y46362095D01*
X168273333Y46266857D01*
X168320952Y46219238D01*
X168416190Y46171619D01*
X168606666Y46171619D01*
X168701904Y46219238D01*
X168749523Y46266857D01*
X168797142Y46362095D01*
X168797142Y46600190D01*
X168749523Y46695428D01*
X168701904Y46743047D01*
X168606666Y46790666D01*
X168416190Y46790666D01*
X168320952Y46743047D01*
X168273333Y46695428D01*
X168225714Y46600190D01*
X169654285Y47171619D02*
X169463809Y47171619D01*
X169368571Y47124000D01*
X169320952Y47076380D01*
X169225714Y46933523D01*
X169178095Y46743047D01*
X169178095Y46362095D01*
X169225714Y46266857D01*
X169273333Y46219238D01*
X169368571Y46171619D01*
X169559047Y46171619D01*
X169654285Y46219238D01*
X169701904Y46266857D01*
X169749523Y46362095D01*
X169749523Y46600190D01*
X169701904Y46695428D01*
X169654285Y46743047D01*
X169559047Y46790666D01*
X169368571Y46790666D01*
X169273333Y46743047D01*
X169225714Y46695428D01*
X169178095Y46600190D01*
X80410476Y84299238D02*
X80553333Y84251619D01*
X80791428Y84251619D01*
X80886666Y84299238D01*
X80934285Y84346857D01*
X80981904Y84442095D01*
X80981904Y84537333D01*
X80934285Y84632571D01*
X80886666Y84680190D01*
X80791428Y84727809D01*
X80600952Y84775428D01*
X80505714Y84823047D01*
X80458095Y84870666D01*
X80410476Y84965904D01*
X80410476Y85061142D01*
X80458095Y85156380D01*
X80505714Y85204000D01*
X80600952Y85251619D01*
X80839047Y85251619D01*
X80981904Y85204000D01*
X81315238Y85251619D02*
X81553333Y84251619D01*
X81743809Y84965904D01*
X81934285Y84251619D01*
X82172380Y85251619D01*
X82458095Y85251619D02*
X83077142Y85251619D01*
X82743809Y84870666D01*
X82886666Y84870666D01*
X82981904Y84823047D01*
X83029523Y84775428D01*
X83077142Y84680190D01*
X83077142Y84442095D01*
X83029523Y84346857D01*
X82981904Y84299238D01*
X82886666Y84251619D01*
X82600952Y84251619D01*
X82505714Y84299238D01*
X82458095Y84346857D01*
X83410476Y85251619D02*
X84029523Y85251619D01*
X83696190Y84870666D01*
X83839047Y84870666D01*
X83934285Y84823047D01*
X83981904Y84775428D01*
X84029523Y84680190D01*
X84029523Y84442095D01*
X83981904Y84346857D01*
X83934285Y84299238D01*
X83839047Y84251619D01*
X83553333Y84251619D01*
X83458095Y84299238D01*
X83410476Y84346857D01*
X128516666Y122429238D02*
X128659523Y122381619D01*
X128897619Y122381619D01*
X128992857Y122429238D01*
X129040476Y122476857D01*
X129088095Y122572095D01*
X129088095Y122667333D01*
X129040476Y122762571D01*
X128992857Y122810190D01*
X128897619Y122857809D01*
X128707142Y122905428D01*
X128611904Y122953047D01*
X128564285Y123000666D01*
X128516666Y123095904D01*
X128516666Y123191142D01*
X128564285Y123286380D01*
X128611904Y123334000D01*
X128707142Y123381619D01*
X128945238Y123381619D01*
X129088095Y123334000D01*
X129421428Y123381619D02*
X129659523Y122381619D01*
X129850000Y123095904D01*
X130040476Y122381619D01*
X130278571Y123381619D01*
X131088095Y123381619D02*
X130897619Y123381619D01*
X130802380Y123334000D01*
X130754761Y123286380D01*
X130659523Y123143523D01*
X130611904Y122953047D01*
X130611904Y122572095D01*
X130659523Y122476857D01*
X130707142Y122429238D01*
X130802380Y122381619D01*
X130992857Y122381619D01*
X131088095Y122429238D01*
X131135714Y122476857D01*
X131183333Y122572095D01*
X131183333Y122810190D01*
X131135714Y122905428D01*
X131088095Y122953047D01*
X130992857Y123000666D01*
X130802380Y123000666D01*
X130707142Y122953047D01*
X130659523Y122905428D01*
X130611904Y122810190D01*
X147546666Y122409238D02*
X147689523Y122361619D01*
X147927619Y122361619D01*
X148022857Y122409238D01*
X148070476Y122456857D01*
X148118095Y122552095D01*
X148118095Y122647333D01*
X148070476Y122742571D01*
X148022857Y122790190D01*
X147927619Y122837809D01*
X147737142Y122885428D01*
X147641904Y122933047D01*
X147594285Y122980666D01*
X147546666Y123075904D01*
X147546666Y123171142D01*
X147594285Y123266380D01*
X147641904Y123314000D01*
X147737142Y123361619D01*
X147975238Y123361619D01*
X148118095Y123314000D01*
X148451428Y123361619D02*
X148689523Y122361619D01*
X148880000Y123075904D01*
X149070476Y122361619D01*
X149308571Y123361619D01*
X149594285Y123361619D02*
X150260952Y123361619D01*
X149832380Y122361619D01*
X268540476Y65249238D02*
X268683333Y65201619D01*
X268921428Y65201619D01*
X269016666Y65249238D01*
X269064285Y65296857D01*
X269111904Y65392095D01*
X269111904Y65487333D01*
X269064285Y65582571D01*
X269016666Y65630190D01*
X268921428Y65677809D01*
X268730952Y65725428D01*
X268635714Y65773047D01*
X268588095Y65820666D01*
X268540476Y65915904D01*
X268540476Y66011142D01*
X268588095Y66106380D01*
X268635714Y66154000D01*
X268730952Y66201619D01*
X268969047Y66201619D01*
X269111904Y66154000D01*
X269445238Y66201619D02*
X269683333Y65201619D01*
X269873809Y65915904D01*
X270064285Y65201619D01*
X270302380Y66201619D01*
X271159523Y66201619D02*
X270683333Y66201619D01*
X270635714Y65725428D01*
X270683333Y65773047D01*
X270778571Y65820666D01*
X271016666Y65820666D01*
X271111904Y65773047D01*
X271159523Y65725428D01*
X271207142Y65630190D01*
X271207142Y65392095D01*
X271159523Y65296857D01*
X271111904Y65249238D01*
X271016666Y65201619D01*
X270778571Y65201619D01*
X270683333Y65249238D01*
X270635714Y65296857D01*
X271540476Y66201619D02*
X272207142Y66201619D01*
X271778571Y65201619D01*
X242330476Y103389238D02*
X242473333Y103341619D01*
X242711428Y103341619D01*
X242806666Y103389238D01*
X242854285Y103436857D01*
X242901904Y103532095D01*
X242901904Y103627333D01*
X242854285Y103722571D01*
X242806666Y103770190D01*
X242711428Y103817809D01*
X242520952Y103865428D01*
X242425714Y103913047D01*
X242378095Y103960666D01*
X242330476Y104055904D01*
X242330476Y104151142D01*
X242378095Y104246380D01*
X242425714Y104294000D01*
X242520952Y104341619D01*
X242759047Y104341619D01*
X242901904Y104294000D01*
X243235238Y104341619D02*
X243473333Y103341619D01*
X243663809Y104055904D01*
X243854285Y103341619D01*
X244092380Y104341619D01*
X244425714Y104246380D02*
X244473333Y104294000D01*
X244568571Y104341619D01*
X244806666Y104341619D01*
X244901904Y104294000D01*
X244949523Y104246380D01*
X244997142Y104151142D01*
X244997142Y104055904D01*
X244949523Y103913047D01*
X244378095Y103341619D01*
X244997142Y103341619D01*
X245330476Y104341619D02*
X245997142Y104341619D01*
X245568571Y103341619D01*
X299490476Y122449238D02*
X299633333Y122401619D01*
X299871428Y122401619D01*
X299966666Y122449238D01*
X300014285Y122496857D01*
X300061904Y122592095D01*
X300061904Y122687333D01*
X300014285Y122782571D01*
X299966666Y122830190D01*
X299871428Y122877809D01*
X299680952Y122925428D01*
X299585714Y122973047D01*
X299538095Y123020666D01*
X299490476Y123115904D01*
X299490476Y123211142D01*
X299538095Y123306380D01*
X299585714Y123354000D01*
X299680952Y123401619D01*
X299919047Y123401619D01*
X300061904Y123354000D01*
X300395238Y123401619D02*
X300633333Y122401619D01*
X300823809Y123115904D01*
X301014285Y122401619D01*
X301252380Y123401619D01*
X302157142Y122401619D02*
X301585714Y122401619D01*
X301871428Y122401619D02*
X301871428Y123401619D01*
X301776190Y123258761D01*
X301680952Y123163523D01*
X301585714Y123115904D01*
X303014285Y123068285D02*
X303014285Y122401619D01*
X302776190Y123449238D02*
X302538095Y122734952D01*
X303157142Y122734952D01*
X218520476Y65249238D02*
X218663333Y65201619D01*
X218901428Y65201619D01*
X218996666Y65249238D01*
X219044285Y65296857D01*
X219091904Y65392095D01*
X219091904Y65487333D01*
X219044285Y65582571D01*
X218996666Y65630190D01*
X218901428Y65677809D01*
X218710952Y65725428D01*
X218615714Y65773047D01*
X218568095Y65820666D01*
X218520476Y65915904D01*
X218520476Y66011142D01*
X218568095Y66106380D01*
X218615714Y66154000D01*
X218710952Y66201619D01*
X218949047Y66201619D01*
X219091904Y66154000D01*
X219425238Y66201619D02*
X219663333Y65201619D01*
X219853809Y65915904D01*
X220044285Y65201619D01*
X220282380Y66201619D01*
X221139523Y66201619D02*
X220663333Y66201619D01*
X220615714Y65725428D01*
X220663333Y65773047D01*
X220758571Y65820666D01*
X220996666Y65820666D01*
X221091904Y65773047D01*
X221139523Y65725428D01*
X221187142Y65630190D01*
X221187142Y65392095D01*
X221139523Y65296857D01*
X221091904Y65249238D01*
X220996666Y65201619D01*
X220758571Y65201619D01*
X220663333Y65249238D01*
X220615714Y65296857D01*
X222091904Y66201619D02*
X221615714Y66201619D01*
X221568095Y65725428D01*
X221615714Y65773047D01*
X221710952Y65820666D01*
X221949047Y65820666D01*
X222044285Y65773047D01*
X222091904Y65725428D01*
X222139523Y65630190D01*
X222139523Y65392095D01*
X222091904Y65296857D01*
X222044285Y65249238D01*
X221949047Y65201619D01*
X221710952Y65201619D01*
X221615714Y65249238D01*
X221568095Y65296857D01*
X270910476Y103369238D02*
X271053333Y103321619D01*
X271291428Y103321619D01*
X271386666Y103369238D01*
X271434285Y103416857D01*
X271481904Y103512095D01*
X271481904Y103607333D01*
X271434285Y103702571D01*
X271386666Y103750190D01*
X271291428Y103797809D01*
X271100952Y103845428D01*
X271005714Y103893047D01*
X270958095Y103940666D01*
X270910476Y104035904D01*
X270910476Y104131142D01*
X270958095Y104226380D01*
X271005714Y104274000D01*
X271100952Y104321619D01*
X271339047Y104321619D01*
X271481904Y104274000D01*
X271815238Y104321619D02*
X272053333Y103321619D01*
X272243809Y104035904D01*
X272434285Y103321619D01*
X272672380Y104321619D01*
X273005714Y104226380D02*
X273053333Y104274000D01*
X273148571Y104321619D01*
X273386666Y104321619D01*
X273481904Y104274000D01*
X273529523Y104226380D01*
X273577142Y104131142D01*
X273577142Y104035904D01*
X273529523Y103893047D01*
X272958095Y103321619D01*
X273577142Y103321619D01*
X274148571Y103893047D02*
X274053333Y103940666D01*
X274005714Y103988285D01*
X273958095Y104083523D01*
X273958095Y104131142D01*
X274005714Y104226380D01*
X274053333Y104274000D01*
X274148571Y104321619D01*
X274339047Y104321619D01*
X274434285Y104274000D01*
X274481904Y104226380D01*
X274529523Y104131142D01*
X274529523Y104083523D01*
X274481904Y103988285D01*
X274434285Y103940666D01*
X274339047Y103893047D01*
X274148571Y103893047D01*
X274053333Y103845428D01*
X274005714Y103797809D01*
X273958095Y103702571D01*
X273958095Y103512095D01*
X274005714Y103416857D01*
X274053333Y103369238D01*
X274148571Y103321619D01*
X274339047Y103321619D01*
X274434285Y103369238D01*
X274481904Y103416857D01*
X274529523Y103512095D01*
X274529523Y103702571D01*
X274481904Y103797809D01*
X274434285Y103845428D01*
X274339047Y103893047D01*
X213750476Y122419238D02*
X213893333Y122371619D01*
X214131428Y122371619D01*
X214226666Y122419238D01*
X214274285Y122466857D01*
X214321904Y122562095D01*
X214321904Y122657333D01*
X214274285Y122752571D01*
X214226666Y122800190D01*
X214131428Y122847809D01*
X213940952Y122895428D01*
X213845714Y122943047D01*
X213798095Y122990666D01*
X213750476Y123085904D01*
X213750476Y123181142D01*
X213798095Y123276380D01*
X213845714Y123324000D01*
X213940952Y123371619D01*
X214179047Y123371619D01*
X214321904Y123324000D01*
X214655238Y123371619D02*
X214893333Y122371619D01*
X215083809Y123085904D01*
X215274285Y122371619D01*
X215512380Y123371619D01*
X216417142Y122371619D02*
X215845714Y122371619D01*
X216131428Y122371619D02*
X216131428Y123371619D01*
X216036190Y123228761D01*
X215940952Y123133523D01*
X215845714Y123085904D01*
X217036190Y123371619D02*
X217131428Y123371619D01*
X217226666Y123324000D01*
X217274285Y123276380D01*
X217321904Y123181142D01*
X217369523Y122990666D01*
X217369523Y122752571D01*
X217321904Y122562095D01*
X217274285Y122466857D01*
X217226666Y122419238D01*
X217131428Y122371619D01*
X217036190Y122371619D01*
X216940952Y122419238D01*
X216893333Y122466857D01*
X216845714Y122562095D01*
X216798095Y122752571D01*
X216798095Y122990666D01*
X216845714Y123181142D01*
X216893333Y123276380D01*
X216940952Y123324000D01*
X217036190Y123371619D01*
X147080476Y103369238D02*
X147223333Y103321619D01*
X147461428Y103321619D01*
X147556666Y103369238D01*
X147604285Y103416857D01*
X147651904Y103512095D01*
X147651904Y103607333D01*
X147604285Y103702571D01*
X147556666Y103750190D01*
X147461428Y103797809D01*
X147270952Y103845428D01*
X147175714Y103893047D01*
X147128095Y103940666D01*
X147080476Y104035904D01*
X147080476Y104131142D01*
X147128095Y104226380D01*
X147175714Y104274000D01*
X147270952Y104321619D01*
X147509047Y104321619D01*
X147651904Y104274000D01*
X147985238Y104321619D02*
X148223333Y103321619D01*
X148413809Y104035904D01*
X148604285Y103321619D01*
X148842380Y104321619D01*
X149175714Y104226380D02*
X149223333Y104274000D01*
X149318571Y104321619D01*
X149556666Y104321619D01*
X149651904Y104274000D01*
X149699523Y104226380D01*
X149747142Y104131142D01*
X149747142Y104035904D01*
X149699523Y103893047D01*
X149128095Y103321619D01*
X149747142Y103321619D01*
X150128095Y104226380D02*
X150175714Y104274000D01*
X150270952Y104321619D01*
X150509047Y104321619D01*
X150604285Y104274000D01*
X150651904Y104226380D01*
X150699523Y104131142D01*
X150699523Y104035904D01*
X150651904Y103893047D01*
X150080476Y103321619D01*
X150699523Y103321619D01*
X299480476Y103359238D02*
X299623333Y103311619D01*
X299861428Y103311619D01*
X299956666Y103359238D01*
X300004285Y103406857D01*
X300051904Y103502095D01*
X300051904Y103597333D01*
X300004285Y103692571D01*
X299956666Y103740190D01*
X299861428Y103787809D01*
X299670952Y103835428D01*
X299575714Y103883047D01*
X299528095Y103930666D01*
X299480476Y104025904D01*
X299480476Y104121142D01*
X299528095Y104216380D01*
X299575714Y104264000D01*
X299670952Y104311619D01*
X299909047Y104311619D01*
X300051904Y104264000D01*
X300385238Y104311619D02*
X300623333Y103311619D01*
X300813809Y104025904D01*
X301004285Y103311619D01*
X301242380Y104311619D01*
X301575714Y104216380D02*
X301623333Y104264000D01*
X301718571Y104311619D01*
X301956666Y104311619D01*
X302051904Y104264000D01*
X302099523Y104216380D01*
X302147142Y104121142D01*
X302147142Y104025904D01*
X302099523Y103883047D01*
X301528095Y103311619D01*
X302147142Y103311619D01*
X302623333Y103311619D02*
X302813809Y103311619D01*
X302909047Y103359238D01*
X302956666Y103406857D01*
X303051904Y103549714D01*
X303099523Y103740190D01*
X303099523Y104121142D01*
X303051904Y104216380D01*
X303004285Y104264000D01*
X302909047Y104311619D01*
X302718571Y104311619D01*
X302623333Y104264000D01*
X302575714Y104216380D01*
X302528095Y104121142D01*
X302528095Y103883047D01*
X302575714Y103787809D01*
X302623333Y103740190D01*
X302718571Y103692571D01*
X302909047Y103692571D01*
X303004285Y103740190D01*
X303051904Y103787809D01*
X303099523Y103883047D01*
X175670476Y84309238D02*
X175813333Y84261619D01*
X176051428Y84261619D01*
X176146666Y84309238D01*
X176194285Y84356857D01*
X176241904Y84452095D01*
X176241904Y84547333D01*
X176194285Y84642571D01*
X176146666Y84690190D01*
X176051428Y84737809D01*
X175860952Y84785428D01*
X175765714Y84833047D01*
X175718095Y84880666D01*
X175670476Y84975904D01*
X175670476Y85071142D01*
X175718095Y85166380D01*
X175765714Y85214000D01*
X175860952Y85261619D01*
X176099047Y85261619D01*
X176241904Y85214000D01*
X176575238Y85261619D02*
X176813333Y84261619D01*
X177003809Y84975904D01*
X177194285Y84261619D01*
X177432380Y85261619D01*
X177718095Y85261619D02*
X178337142Y85261619D01*
X178003809Y84880666D01*
X178146666Y84880666D01*
X178241904Y84833047D01*
X178289523Y84785428D01*
X178337142Y84690190D01*
X178337142Y84452095D01*
X178289523Y84356857D01*
X178241904Y84309238D01*
X178146666Y84261619D01*
X177860952Y84261619D01*
X177765714Y84309238D01*
X177718095Y84356857D01*
X178908571Y84833047D02*
X178813333Y84880666D01*
X178765714Y84928285D01*
X178718095Y85023523D01*
X178718095Y85071142D01*
X178765714Y85166380D01*
X178813333Y85214000D01*
X178908571Y85261619D01*
X179099047Y85261619D01*
X179194285Y85214000D01*
X179241904Y85166380D01*
X179289523Y85071142D01*
X179289523Y85023523D01*
X179241904Y84928285D01*
X179194285Y84880666D01*
X179099047Y84833047D01*
X178908571Y84833047D01*
X178813333Y84785428D01*
X178765714Y84737809D01*
X178718095Y84642571D01*
X178718095Y84452095D01*
X178765714Y84356857D01*
X178813333Y84309238D01*
X178908571Y84261619D01*
X179099047Y84261619D01*
X179194285Y84309238D01*
X179241904Y84356857D01*
X179289523Y84452095D01*
X179289523Y84642571D01*
X179241904Y84737809D01*
X179194285Y84785428D01*
X179099047Y84833047D01*
X20880476Y65279238D02*
X21023333Y65231619D01*
X21261428Y65231619D01*
X21356666Y65279238D01*
X21404285Y65326857D01*
X21451904Y65422095D01*
X21451904Y65517333D01*
X21404285Y65612571D01*
X21356666Y65660190D01*
X21261428Y65707809D01*
X21070952Y65755428D01*
X20975714Y65803047D01*
X20928095Y65850666D01*
X20880476Y65945904D01*
X20880476Y66041142D01*
X20928095Y66136380D01*
X20975714Y66184000D01*
X21070952Y66231619D01*
X21309047Y66231619D01*
X21451904Y66184000D01*
X21785238Y66231619D02*
X22023333Y65231619D01*
X22213809Y65945904D01*
X22404285Y65231619D01*
X22642380Y66231619D01*
X23451904Y65898285D02*
X23451904Y65231619D01*
X23213809Y66279238D02*
X22975714Y65564952D01*
X23594761Y65564952D01*
X24451904Y66231619D02*
X23975714Y66231619D01*
X23928095Y65755428D01*
X23975714Y65803047D01*
X24070952Y65850666D01*
X24309047Y65850666D01*
X24404285Y65803047D01*
X24451904Y65755428D01*
X24499523Y65660190D01*
X24499523Y65422095D01*
X24451904Y65326857D01*
X24404285Y65279238D01*
X24309047Y65231619D01*
X24070952Y65231619D01*
X23975714Y65279238D01*
X23928095Y65326857D01*
X194700476Y84339238D02*
X194843333Y84291619D01*
X195081428Y84291619D01*
X195176666Y84339238D01*
X195224285Y84386857D01*
X195271904Y84482095D01*
X195271904Y84577333D01*
X195224285Y84672571D01*
X195176666Y84720190D01*
X195081428Y84767809D01*
X194890952Y84815428D01*
X194795714Y84863047D01*
X194748095Y84910666D01*
X194700476Y85005904D01*
X194700476Y85101142D01*
X194748095Y85196380D01*
X194795714Y85244000D01*
X194890952Y85291619D01*
X195129047Y85291619D01*
X195271904Y85244000D01*
X195605238Y85291619D02*
X195843333Y84291619D01*
X196033809Y85005904D01*
X196224285Y84291619D01*
X196462380Y85291619D01*
X196748095Y85291619D02*
X197367142Y85291619D01*
X197033809Y84910666D01*
X197176666Y84910666D01*
X197271904Y84863047D01*
X197319523Y84815428D01*
X197367142Y84720190D01*
X197367142Y84482095D01*
X197319523Y84386857D01*
X197271904Y84339238D01*
X197176666Y84291619D01*
X196890952Y84291619D01*
X196795714Y84339238D01*
X196748095Y84386857D01*
X197843333Y84291619D02*
X198033809Y84291619D01*
X198129047Y84339238D01*
X198176666Y84386857D01*
X198271904Y84529714D01*
X198319523Y84720190D01*
X198319523Y85101142D01*
X198271904Y85196380D01*
X198224285Y85244000D01*
X198129047Y85291619D01*
X197938571Y85291619D01*
X197843333Y85244000D01*
X197795714Y85196380D01*
X197748095Y85101142D01*
X197748095Y84863047D01*
X197795714Y84767809D01*
X197843333Y84720190D01*
X197938571Y84672571D01*
X198129047Y84672571D01*
X198224285Y84720190D01*
X198271904Y84767809D01*
X198319523Y84863047D01*
X223280476Y103359238D02*
X223423333Y103311619D01*
X223661428Y103311619D01*
X223756666Y103359238D01*
X223804285Y103406857D01*
X223851904Y103502095D01*
X223851904Y103597333D01*
X223804285Y103692571D01*
X223756666Y103740190D01*
X223661428Y103787809D01*
X223470952Y103835428D01*
X223375714Y103883047D01*
X223328095Y103930666D01*
X223280476Y104025904D01*
X223280476Y104121142D01*
X223328095Y104216380D01*
X223375714Y104264000D01*
X223470952Y104311619D01*
X223709047Y104311619D01*
X223851904Y104264000D01*
X224185238Y104311619D02*
X224423333Y103311619D01*
X224613809Y104025904D01*
X224804285Y103311619D01*
X225042380Y104311619D01*
X225375714Y104216380D02*
X225423333Y104264000D01*
X225518571Y104311619D01*
X225756666Y104311619D01*
X225851904Y104264000D01*
X225899523Y104216380D01*
X225947142Y104121142D01*
X225947142Y104025904D01*
X225899523Y103883047D01*
X225328095Y103311619D01*
X225947142Y103311619D01*
X226804285Y104311619D02*
X226613809Y104311619D01*
X226518571Y104264000D01*
X226470952Y104216380D01*
X226375714Y104073523D01*
X226328095Y103883047D01*
X226328095Y103502095D01*
X226375714Y103406857D01*
X226423333Y103359238D01*
X226518571Y103311619D01*
X226709047Y103311619D01*
X226804285Y103359238D01*
X226851904Y103406857D01*
X226899523Y103502095D01*
X226899523Y103740190D01*
X226851904Y103835428D01*
X226804285Y103883047D01*
X226709047Y103930666D01*
X226518571Y103930666D01*
X226423333Y103883047D01*
X226375714Y103835428D01*
X226328095Y103740190D01*
X213750476Y27179238D02*
X213893333Y27131619D01*
X214131428Y27131619D01*
X214226666Y27179238D01*
X214274285Y27226857D01*
X214321904Y27322095D01*
X214321904Y27417333D01*
X214274285Y27512571D01*
X214226666Y27560190D01*
X214131428Y27607809D01*
X213940952Y27655428D01*
X213845714Y27703047D01*
X213798095Y27750666D01*
X213750476Y27845904D01*
X213750476Y27941142D01*
X213798095Y28036380D01*
X213845714Y28084000D01*
X213940952Y28131619D01*
X214179047Y28131619D01*
X214321904Y28084000D01*
X214655238Y28131619D02*
X214893333Y27131619D01*
X215083809Y27845904D01*
X215274285Y27131619D01*
X215512380Y28131619D01*
X215798095Y28131619D02*
X216464761Y28131619D01*
X216036190Y27131619D01*
X216988571Y27703047D02*
X216893333Y27750666D01*
X216845714Y27798285D01*
X216798095Y27893523D01*
X216798095Y27941142D01*
X216845714Y28036380D01*
X216893333Y28084000D01*
X216988571Y28131619D01*
X217179047Y28131619D01*
X217274285Y28084000D01*
X217321904Y28036380D01*
X217369523Y27941142D01*
X217369523Y27893523D01*
X217321904Y27798285D01*
X217274285Y27750666D01*
X217179047Y27703047D01*
X216988571Y27703047D01*
X216893333Y27655428D01*
X216845714Y27607809D01*
X216798095Y27512571D01*
X216798095Y27322095D01*
X216845714Y27226857D01*
X216893333Y27179238D01*
X216988571Y27131619D01*
X217179047Y27131619D01*
X217274285Y27179238D01*
X217321904Y27226857D01*
X217369523Y27322095D01*
X217369523Y27512571D01*
X217321904Y27607809D01*
X217274285Y27655428D01*
X217179047Y27703047D01*
X42310476Y84339238D02*
X42453333Y84291619D01*
X42691428Y84291619D01*
X42786666Y84339238D01*
X42834285Y84386857D01*
X42881904Y84482095D01*
X42881904Y84577333D01*
X42834285Y84672571D01*
X42786666Y84720190D01*
X42691428Y84767809D01*
X42500952Y84815428D01*
X42405714Y84863047D01*
X42358095Y84910666D01*
X42310476Y85005904D01*
X42310476Y85101142D01*
X42358095Y85196380D01*
X42405714Y85244000D01*
X42500952Y85291619D01*
X42739047Y85291619D01*
X42881904Y85244000D01*
X43215238Y85291619D02*
X43453333Y84291619D01*
X43643809Y85005904D01*
X43834285Y84291619D01*
X44072380Y85291619D01*
X44358095Y85291619D02*
X44977142Y85291619D01*
X44643809Y84910666D01*
X44786666Y84910666D01*
X44881904Y84863047D01*
X44929523Y84815428D01*
X44977142Y84720190D01*
X44977142Y84482095D01*
X44929523Y84386857D01*
X44881904Y84339238D01*
X44786666Y84291619D01*
X44500952Y84291619D01*
X44405714Y84339238D01*
X44358095Y84386857D01*
X45929523Y84291619D02*
X45358095Y84291619D01*
X45643809Y84291619D02*
X45643809Y85291619D01*
X45548571Y85148761D01*
X45453333Y85053523D01*
X45358095Y85005904D01*
X147090476Y46229238D02*
X147233333Y46181619D01*
X147471428Y46181619D01*
X147566666Y46229238D01*
X147614285Y46276857D01*
X147661904Y46372095D01*
X147661904Y46467333D01*
X147614285Y46562571D01*
X147566666Y46610190D01*
X147471428Y46657809D01*
X147280952Y46705428D01*
X147185714Y46753047D01*
X147138095Y46800666D01*
X147090476Y46895904D01*
X147090476Y46991142D01*
X147138095Y47086380D01*
X147185714Y47134000D01*
X147280952Y47181619D01*
X147519047Y47181619D01*
X147661904Y47134000D01*
X147995238Y47181619D02*
X148233333Y46181619D01*
X148423809Y46895904D01*
X148614285Y46181619D01*
X148852380Y47181619D01*
X149661904Y47181619D02*
X149471428Y47181619D01*
X149376190Y47134000D01*
X149328571Y47086380D01*
X149233333Y46943523D01*
X149185714Y46753047D01*
X149185714Y46372095D01*
X149233333Y46276857D01*
X149280952Y46229238D01*
X149376190Y46181619D01*
X149566666Y46181619D01*
X149661904Y46229238D01*
X149709523Y46276857D01*
X149757142Y46372095D01*
X149757142Y46610190D01*
X149709523Y46705428D01*
X149661904Y46753047D01*
X149566666Y46800666D01*
X149376190Y46800666D01*
X149280952Y46753047D01*
X149233333Y46705428D01*
X149185714Y46610190D01*
X150661904Y47181619D02*
X150185714Y47181619D01*
X150138095Y46705428D01*
X150185714Y46753047D01*
X150280952Y46800666D01*
X150519047Y46800666D01*
X150614285Y46753047D01*
X150661904Y46705428D01*
X150709523Y46610190D01*
X150709523Y46372095D01*
X150661904Y46276857D01*
X150614285Y46229238D01*
X150519047Y46181619D01*
X150280952Y46181619D01*
X150185714Y46229238D01*
X150138095Y46276857D01*
X185646666Y122389238D02*
X185789523Y122341619D01*
X186027619Y122341619D01*
X186122857Y122389238D01*
X186170476Y122436857D01*
X186218095Y122532095D01*
X186218095Y122627333D01*
X186170476Y122722571D01*
X186122857Y122770190D01*
X186027619Y122817809D01*
X185837142Y122865428D01*
X185741904Y122913047D01*
X185694285Y122960666D01*
X185646666Y123055904D01*
X185646666Y123151142D01*
X185694285Y123246380D01*
X185741904Y123294000D01*
X185837142Y123341619D01*
X186075238Y123341619D01*
X186218095Y123294000D01*
X186551428Y123341619D02*
X186789523Y122341619D01*
X186980000Y123055904D01*
X187170476Y122341619D01*
X187408571Y123341619D01*
X187837142Y122341619D02*
X188027619Y122341619D01*
X188122857Y122389238D01*
X188170476Y122436857D01*
X188265714Y122579714D01*
X188313333Y122770190D01*
X188313333Y123151142D01*
X188265714Y123246380D01*
X188218095Y123294000D01*
X188122857Y123341619D01*
X187932380Y123341619D01*
X187837142Y123294000D01*
X187789523Y123246380D01*
X187741904Y123151142D01*
X187741904Y122913047D01*
X187789523Y122817809D01*
X187837142Y122770190D01*
X187932380Y122722571D01*
X188122857Y122722571D01*
X188218095Y122770190D01*
X188265714Y122817809D01*
X188313333Y122913047D01*
X47080476Y65289238D02*
X47223333Y65241619D01*
X47461428Y65241619D01*
X47556666Y65289238D01*
X47604285Y65336857D01*
X47651904Y65432095D01*
X47651904Y65527333D01*
X47604285Y65622571D01*
X47556666Y65670190D01*
X47461428Y65717809D01*
X47270952Y65765428D01*
X47175714Y65813047D01*
X47128095Y65860666D01*
X47080476Y65955904D01*
X47080476Y66051142D01*
X47128095Y66146380D01*
X47175714Y66194000D01*
X47270952Y66241619D01*
X47509047Y66241619D01*
X47651904Y66194000D01*
X47985238Y66241619D02*
X48223333Y65241619D01*
X48413809Y65955904D01*
X48604285Y65241619D01*
X48842380Y66241619D01*
X49651904Y65908285D02*
X49651904Y65241619D01*
X49413809Y66289238D02*
X49175714Y65574952D01*
X49794761Y65574952D01*
X50604285Y66241619D02*
X50413809Y66241619D01*
X50318571Y66194000D01*
X50270952Y66146380D01*
X50175714Y66003523D01*
X50128095Y65813047D01*
X50128095Y65432095D01*
X50175714Y65336857D01*
X50223333Y65289238D01*
X50318571Y65241619D01*
X50509047Y65241619D01*
X50604285Y65289238D01*
X50651904Y65336857D01*
X50699523Y65432095D01*
X50699523Y65670190D01*
X50651904Y65765428D01*
X50604285Y65813047D01*
X50509047Y65860666D01*
X50318571Y65860666D01*
X50223333Y65813047D01*
X50175714Y65765428D01*
X50128095Y65670190D01*
X213750476Y84329238D02*
X213893333Y84281619D01*
X214131428Y84281619D01*
X214226666Y84329238D01*
X214274285Y84376857D01*
X214321904Y84472095D01*
X214321904Y84567333D01*
X214274285Y84662571D01*
X214226666Y84710190D01*
X214131428Y84757809D01*
X213940952Y84805428D01*
X213845714Y84853047D01*
X213798095Y84900666D01*
X213750476Y84995904D01*
X213750476Y85091142D01*
X213798095Y85186380D01*
X213845714Y85234000D01*
X213940952Y85281619D01*
X214179047Y85281619D01*
X214321904Y85234000D01*
X214655238Y85281619D02*
X214893333Y84281619D01*
X215083809Y84995904D01*
X215274285Y84281619D01*
X215512380Y85281619D01*
X216321904Y84948285D02*
X216321904Y84281619D01*
X216083809Y85329238D02*
X215845714Y84614952D01*
X216464761Y84614952D01*
X217036190Y85281619D02*
X217131428Y85281619D01*
X217226666Y85234000D01*
X217274285Y85186380D01*
X217321904Y85091142D01*
X217369523Y84900666D01*
X217369523Y84662571D01*
X217321904Y84472095D01*
X217274285Y84376857D01*
X217226666Y84329238D01*
X217131428Y84281619D01*
X217036190Y84281619D01*
X216940952Y84329238D01*
X216893333Y84376857D01*
X216845714Y84472095D01*
X216798095Y84662571D01*
X216798095Y84900666D01*
X216845714Y85091142D01*
X216893333Y85186380D01*
X216940952Y85234000D01*
X217036190Y85281619D01*
X42796666Y122409238D02*
X42939523Y122361619D01*
X43177619Y122361619D01*
X43272857Y122409238D01*
X43320476Y122456857D01*
X43368095Y122552095D01*
X43368095Y122647333D01*
X43320476Y122742571D01*
X43272857Y122790190D01*
X43177619Y122837809D01*
X42987142Y122885428D01*
X42891904Y122933047D01*
X42844285Y122980666D01*
X42796666Y123075904D01*
X42796666Y123171142D01*
X42844285Y123266380D01*
X42891904Y123314000D01*
X42987142Y123361619D01*
X43225238Y123361619D01*
X43368095Y123314000D01*
X43701428Y123361619D02*
X43939523Y122361619D01*
X44130000Y123075904D01*
X44320476Y122361619D01*
X44558571Y123361619D01*
X44891904Y123266380D02*
X44939523Y123314000D01*
X45034761Y123361619D01*
X45272857Y123361619D01*
X45368095Y123314000D01*
X45415714Y123266380D01*
X45463333Y123171142D01*
X45463333Y123075904D01*
X45415714Y122933047D01*
X44844285Y122361619D01*
X45463333Y122361619D01*
X61826666Y122409238D02*
X61969523Y122361619D01*
X62207619Y122361619D01*
X62302857Y122409238D01*
X62350476Y122456857D01*
X62398095Y122552095D01*
X62398095Y122647333D01*
X62350476Y122742571D01*
X62302857Y122790190D01*
X62207619Y122837809D01*
X62017142Y122885428D01*
X61921904Y122933047D01*
X61874285Y122980666D01*
X61826666Y123075904D01*
X61826666Y123171142D01*
X61874285Y123266380D01*
X61921904Y123314000D01*
X62017142Y123361619D01*
X62255238Y123361619D01*
X62398095Y123314000D01*
X62731428Y123361619D02*
X62969523Y122361619D01*
X63160000Y123075904D01*
X63350476Y122361619D01*
X63588571Y123361619D01*
X63874285Y123361619D02*
X64493333Y123361619D01*
X64160000Y122980666D01*
X64302857Y122980666D01*
X64398095Y122933047D01*
X64445714Y122885428D01*
X64493333Y122790190D01*
X64493333Y122552095D01*
X64445714Y122456857D01*
X64398095Y122409238D01*
X64302857Y122361619D01*
X64017142Y122361619D01*
X63921904Y122409238D01*
X63874285Y122456857D01*
X51830476Y103359238D02*
X51973333Y103311619D01*
X52211428Y103311619D01*
X52306666Y103359238D01*
X52354285Y103406857D01*
X52401904Y103502095D01*
X52401904Y103597333D01*
X52354285Y103692571D01*
X52306666Y103740190D01*
X52211428Y103787809D01*
X52020952Y103835428D01*
X51925714Y103883047D01*
X51878095Y103930666D01*
X51830476Y104025904D01*
X51830476Y104121142D01*
X51878095Y104216380D01*
X51925714Y104264000D01*
X52020952Y104311619D01*
X52259047Y104311619D01*
X52401904Y104264000D01*
X52735238Y104311619D02*
X52973333Y103311619D01*
X53163809Y104025904D01*
X53354285Y103311619D01*
X53592380Y104311619D01*
X54497142Y103311619D02*
X53925714Y103311619D01*
X54211428Y103311619D02*
X54211428Y104311619D01*
X54116190Y104168761D01*
X54020952Y104073523D01*
X53925714Y104025904D01*
X54830476Y104311619D02*
X55497142Y104311619D01*
X55068571Y103311619D01*
X299490476Y84309238D02*
X299633333Y84261619D01*
X299871428Y84261619D01*
X299966666Y84309238D01*
X300014285Y84356857D01*
X300061904Y84452095D01*
X300061904Y84547333D01*
X300014285Y84642571D01*
X299966666Y84690190D01*
X299871428Y84737809D01*
X299680952Y84785428D01*
X299585714Y84833047D01*
X299538095Y84880666D01*
X299490476Y84975904D01*
X299490476Y85071142D01*
X299538095Y85166380D01*
X299585714Y85214000D01*
X299680952Y85261619D01*
X299919047Y85261619D01*
X300061904Y85214000D01*
X300395238Y85261619D02*
X300633333Y84261619D01*
X300823809Y84975904D01*
X301014285Y84261619D01*
X301252380Y85261619D01*
X302061904Y84928285D02*
X302061904Y84261619D01*
X301823809Y85309238D02*
X301585714Y84594952D01*
X302204761Y84594952D01*
X303014285Y84928285D02*
X303014285Y84261619D01*
X302776190Y85309238D02*
X302538095Y84594952D01*
X303157142Y84594952D01*
X156610476Y84319238D02*
X156753333Y84271619D01*
X156991428Y84271619D01*
X157086666Y84319238D01*
X157134285Y84366857D01*
X157181904Y84462095D01*
X157181904Y84557333D01*
X157134285Y84652571D01*
X157086666Y84700190D01*
X156991428Y84747809D01*
X156800952Y84795428D01*
X156705714Y84843047D01*
X156658095Y84890666D01*
X156610476Y84985904D01*
X156610476Y85081142D01*
X156658095Y85176380D01*
X156705714Y85224000D01*
X156800952Y85271619D01*
X157039047Y85271619D01*
X157181904Y85224000D01*
X157515238Y85271619D02*
X157753333Y84271619D01*
X157943809Y84985904D01*
X158134285Y84271619D01*
X158372380Y85271619D01*
X158658095Y85271619D02*
X159277142Y85271619D01*
X158943809Y84890666D01*
X159086666Y84890666D01*
X159181904Y84843047D01*
X159229523Y84795428D01*
X159277142Y84700190D01*
X159277142Y84462095D01*
X159229523Y84366857D01*
X159181904Y84319238D01*
X159086666Y84271619D01*
X158800952Y84271619D01*
X158705714Y84319238D01*
X158658095Y84366857D01*
X159610476Y85271619D02*
X160277142Y85271619D01*
X159848571Y84271619D01*
X239950476Y27169238D02*
X240093333Y27121619D01*
X240331428Y27121619D01*
X240426666Y27169238D01*
X240474285Y27216857D01*
X240521904Y27312095D01*
X240521904Y27407333D01*
X240474285Y27502571D01*
X240426666Y27550190D01*
X240331428Y27597809D01*
X240140952Y27645428D01*
X240045714Y27693047D01*
X239998095Y27740666D01*
X239950476Y27835904D01*
X239950476Y27931142D01*
X239998095Y28026380D01*
X240045714Y28074000D01*
X240140952Y28121619D01*
X240379047Y28121619D01*
X240521904Y28074000D01*
X240855238Y28121619D02*
X241093333Y27121619D01*
X241283809Y27835904D01*
X241474285Y27121619D01*
X241712380Y28121619D01*
X241998095Y28121619D02*
X242664761Y28121619D01*
X242236190Y27121619D01*
X243093333Y27121619D02*
X243283809Y27121619D01*
X243379047Y27169238D01*
X243426666Y27216857D01*
X243521904Y27359714D01*
X243569523Y27550190D01*
X243569523Y27931142D01*
X243521904Y28026380D01*
X243474285Y28074000D01*
X243379047Y28121619D01*
X243188571Y28121619D01*
X243093333Y28074000D01*
X243045714Y28026380D01*
X242998095Y27931142D01*
X242998095Y27693047D01*
X243045714Y27597809D01*
X243093333Y27550190D01*
X243188571Y27502571D01*
X243379047Y27502571D01*
X243474285Y27550190D01*
X243521904Y27597809D01*
X243569523Y27693047D01*
X80866666Y122419238D02*
X81009523Y122371619D01*
X81247619Y122371619D01*
X81342857Y122419238D01*
X81390476Y122466857D01*
X81438095Y122562095D01*
X81438095Y122657333D01*
X81390476Y122752571D01*
X81342857Y122800190D01*
X81247619Y122847809D01*
X81057142Y122895428D01*
X80961904Y122943047D01*
X80914285Y122990666D01*
X80866666Y123085904D01*
X80866666Y123181142D01*
X80914285Y123276380D01*
X80961904Y123324000D01*
X81057142Y123371619D01*
X81295238Y123371619D01*
X81438095Y123324000D01*
X81771428Y123371619D02*
X82009523Y122371619D01*
X82200000Y123085904D01*
X82390476Y122371619D01*
X82628571Y123371619D01*
X83438095Y123038285D02*
X83438095Y122371619D01*
X83200000Y123419238D02*
X82961904Y122704952D01*
X83580952Y122704952D01*
X99926666Y122419238D02*
X100069523Y122371619D01*
X100307619Y122371619D01*
X100402857Y122419238D01*
X100450476Y122466857D01*
X100498095Y122562095D01*
X100498095Y122657333D01*
X100450476Y122752571D01*
X100402857Y122800190D01*
X100307619Y122847809D01*
X100117142Y122895428D01*
X100021904Y122943047D01*
X99974285Y122990666D01*
X99926666Y123085904D01*
X99926666Y123181142D01*
X99974285Y123276380D01*
X100021904Y123324000D01*
X100117142Y123371619D01*
X100355238Y123371619D01*
X100498095Y123324000D01*
X100831428Y123371619D02*
X101069523Y122371619D01*
X101260000Y123085904D01*
X101450476Y122371619D01*
X101688571Y123371619D01*
X102545714Y123371619D02*
X102069523Y123371619D01*
X102021904Y122895428D01*
X102069523Y122943047D01*
X102164761Y122990666D01*
X102402857Y122990666D01*
X102498095Y122943047D01*
X102545714Y122895428D01*
X102593333Y122800190D01*
X102593333Y122562095D01*
X102545714Y122466857D01*
X102498095Y122419238D01*
X102402857Y122371619D01*
X102164761Y122371619D01*
X102069523Y122419238D01*
X102021904Y122466857D01*
X32770476Y103349238D02*
X32913333Y103301619D01*
X33151428Y103301619D01*
X33246666Y103349238D01*
X33294285Y103396857D01*
X33341904Y103492095D01*
X33341904Y103587333D01*
X33294285Y103682571D01*
X33246666Y103730190D01*
X33151428Y103777809D01*
X32960952Y103825428D01*
X32865714Y103873047D01*
X32818095Y103920666D01*
X32770476Y104015904D01*
X32770476Y104111142D01*
X32818095Y104206380D01*
X32865714Y104254000D01*
X32960952Y104301619D01*
X33199047Y104301619D01*
X33341904Y104254000D01*
X33675238Y104301619D02*
X33913333Y103301619D01*
X34103809Y104015904D01*
X34294285Y103301619D01*
X34532380Y104301619D01*
X35437142Y103301619D02*
X34865714Y103301619D01*
X35151428Y103301619D02*
X35151428Y104301619D01*
X35056190Y104158761D01*
X34960952Y104063523D01*
X34865714Y104015904D01*
X36294285Y104301619D02*
X36103809Y104301619D01*
X36008571Y104254000D01*
X35960952Y104206380D01*
X35865714Y104063523D01*
X35818095Y103873047D01*
X35818095Y103492095D01*
X35865714Y103396857D01*
X35913333Y103349238D01*
X36008571Y103301619D01*
X36199047Y103301619D01*
X36294285Y103349238D01*
X36341904Y103396857D01*
X36389523Y103492095D01*
X36389523Y103730190D01*
X36341904Y103825428D01*
X36294285Y103873047D01*
X36199047Y103920666D01*
X36008571Y103920666D01*
X35913333Y103873047D01*
X35865714Y103825428D01*
X35818095Y103730190D01*
X18500476Y84319238D02*
X18643333Y84271619D01*
X18881428Y84271619D01*
X18976666Y84319238D01*
X19024285Y84366857D01*
X19071904Y84462095D01*
X19071904Y84557333D01*
X19024285Y84652571D01*
X18976666Y84700190D01*
X18881428Y84747809D01*
X18690952Y84795428D01*
X18595714Y84843047D01*
X18548095Y84890666D01*
X18500476Y84985904D01*
X18500476Y85081142D01*
X18548095Y85176380D01*
X18595714Y85224000D01*
X18690952Y85271619D01*
X18929047Y85271619D01*
X19071904Y85224000D01*
X19405238Y85271619D02*
X19643333Y84271619D01*
X19833809Y84985904D01*
X20024285Y84271619D01*
X20262380Y85271619D01*
X20548095Y85271619D02*
X21167142Y85271619D01*
X20833809Y84890666D01*
X20976666Y84890666D01*
X21071904Y84843047D01*
X21119523Y84795428D01*
X21167142Y84700190D01*
X21167142Y84462095D01*
X21119523Y84366857D01*
X21071904Y84319238D01*
X20976666Y84271619D01*
X20690952Y84271619D01*
X20595714Y84319238D01*
X20548095Y84366857D01*
X21786190Y85271619D02*
X21881428Y85271619D01*
X21976666Y85224000D01*
X22024285Y85176380D01*
X22071904Y85081142D01*
X22119523Y84890666D01*
X22119523Y84652571D01*
X22071904Y84462095D01*
X22024285Y84366857D01*
X21976666Y84319238D01*
X21881428Y84271619D01*
X21786190Y84271619D01*
X21690952Y84319238D01*
X21643333Y84366857D01*
X21595714Y84462095D01*
X21548095Y84652571D01*
X21548095Y84890666D01*
X21595714Y85081142D01*
X21643333Y85176380D01*
X21690952Y85224000D01*
X21786190Y85271619D01*
X161370476Y65279238D02*
X161513333Y65231619D01*
X161751428Y65231619D01*
X161846666Y65279238D01*
X161894285Y65326857D01*
X161941904Y65422095D01*
X161941904Y65517333D01*
X161894285Y65612571D01*
X161846666Y65660190D01*
X161751428Y65707809D01*
X161560952Y65755428D01*
X161465714Y65803047D01*
X161418095Y65850666D01*
X161370476Y65945904D01*
X161370476Y66041142D01*
X161418095Y66136380D01*
X161465714Y66184000D01*
X161560952Y66231619D01*
X161799047Y66231619D01*
X161941904Y66184000D01*
X162275238Y66231619D02*
X162513333Y65231619D01*
X162703809Y65945904D01*
X162894285Y65231619D01*
X163132380Y66231619D01*
X163989523Y66231619D02*
X163513333Y66231619D01*
X163465714Y65755428D01*
X163513333Y65803047D01*
X163608571Y65850666D01*
X163846666Y65850666D01*
X163941904Y65803047D01*
X163989523Y65755428D01*
X164037142Y65660190D01*
X164037142Y65422095D01*
X163989523Y65326857D01*
X163941904Y65279238D01*
X163846666Y65231619D01*
X163608571Y65231619D01*
X163513333Y65279238D01*
X163465714Y65326857D01*
X164418095Y66136380D02*
X164465714Y66184000D01*
X164560952Y66231619D01*
X164799047Y66231619D01*
X164894285Y66184000D01*
X164941904Y66136380D01*
X164989523Y66041142D01*
X164989523Y65945904D01*
X164941904Y65803047D01*
X164370476Y65231619D01*
X164989523Y65231619D01*
X66120476Y65279238D02*
X66263333Y65231619D01*
X66501428Y65231619D01*
X66596666Y65279238D01*
X66644285Y65326857D01*
X66691904Y65422095D01*
X66691904Y65517333D01*
X66644285Y65612571D01*
X66596666Y65660190D01*
X66501428Y65707809D01*
X66310952Y65755428D01*
X66215714Y65803047D01*
X66168095Y65850666D01*
X66120476Y65945904D01*
X66120476Y66041142D01*
X66168095Y66136380D01*
X66215714Y66184000D01*
X66310952Y66231619D01*
X66549047Y66231619D01*
X66691904Y66184000D01*
X67025238Y66231619D02*
X67263333Y65231619D01*
X67453809Y65945904D01*
X67644285Y65231619D01*
X67882380Y66231619D01*
X68691904Y65898285D02*
X68691904Y65231619D01*
X68453809Y66279238D02*
X68215714Y65564952D01*
X68834761Y65564952D01*
X69120476Y66231619D02*
X69787142Y66231619D01*
X69358571Y65231619D01*
X123290476Y65269238D02*
X123433333Y65221619D01*
X123671428Y65221619D01*
X123766666Y65269238D01*
X123814285Y65316857D01*
X123861904Y65412095D01*
X123861904Y65507333D01*
X123814285Y65602571D01*
X123766666Y65650190D01*
X123671428Y65697809D01*
X123480952Y65745428D01*
X123385714Y65793047D01*
X123338095Y65840666D01*
X123290476Y65935904D01*
X123290476Y66031142D01*
X123338095Y66126380D01*
X123385714Y66174000D01*
X123480952Y66221619D01*
X123719047Y66221619D01*
X123861904Y66174000D01*
X124195238Y66221619D02*
X124433333Y65221619D01*
X124623809Y65935904D01*
X124814285Y65221619D01*
X125052380Y66221619D01*
X125909523Y66221619D02*
X125433333Y66221619D01*
X125385714Y65745428D01*
X125433333Y65793047D01*
X125528571Y65840666D01*
X125766666Y65840666D01*
X125861904Y65793047D01*
X125909523Y65745428D01*
X125957142Y65650190D01*
X125957142Y65412095D01*
X125909523Y65316857D01*
X125861904Y65269238D01*
X125766666Y65221619D01*
X125528571Y65221619D01*
X125433333Y65269238D01*
X125385714Y65316857D01*
X126576190Y66221619D02*
X126671428Y66221619D01*
X126766666Y66174000D01*
X126814285Y66126380D01*
X126861904Y66031142D01*
X126909523Y65840666D01*
X126909523Y65602571D01*
X126861904Y65412095D01*
X126814285Y65316857D01*
X126766666Y65269238D01*
X126671428Y65221619D01*
X126576190Y65221619D01*
X126480952Y65269238D01*
X126433333Y65316857D01*
X126385714Y65412095D01*
X126338095Y65602571D01*
X126338095Y65840666D01*
X126385714Y66031142D01*
X126433333Y66126380D01*
X126480952Y66174000D01*
X126576190Y66221619D01*
X223290476Y46199238D02*
X223433333Y46151619D01*
X223671428Y46151619D01*
X223766666Y46199238D01*
X223814285Y46246857D01*
X223861904Y46342095D01*
X223861904Y46437333D01*
X223814285Y46532571D01*
X223766666Y46580190D01*
X223671428Y46627809D01*
X223480952Y46675428D01*
X223385714Y46723047D01*
X223338095Y46770666D01*
X223290476Y46865904D01*
X223290476Y46961142D01*
X223338095Y47056380D01*
X223385714Y47104000D01*
X223480952Y47151619D01*
X223719047Y47151619D01*
X223861904Y47104000D01*
X224195238Y47151619D02*
X224433333Y46151619D01*
X224623809Y46865904D01*
X224814285Y46151619D01*
X225052380Y47151619D01*
X225861904Y47151619D02*
X225671428Y47151619D01*
X225576190Y47104000D01*
X225528571Y47056380D01*
X225433333Y46913523D01*
X225385714Y46723047D01*
X225385714Y46342095D01*
X225433333Y46246857D01*
X225480952Y46199238D01*
X225576190Y46151619D01*
X225766666Y46151619D01*
X225861904Y46199238D01*
X225909523Y46246857D01*
X225957142Y46342095D01*
X225957142Y46580190D01*
X225909523Y46675428D01*
X225861904Y46723047D01*
X225766666Y46770666D01*
X225576190Y46770666D01*
X225480952Y46723047D01*
X225433333Y46675428D01*
X225385714Y46580190D01*
X226433333Y46151619D02*
X226623809Y46151619D01*
X226719047Y46199238D01*
X226766666Y46246857D01*
X226861904Y46389714D01*
X226909523Y46580190D01*
X226909523Y46961142D01*
X226861904Y47056380D01*
X226814285Y47104000D01*
X226719047Y47151619D01*
X226528571Y47151619D01*
X226433333Y47104000D01*
X226385714Y47056380D01*
X226338095Y46961142D01*
X226338095Y46723047D01*
X226385714Y46627809D01*
X226433333Y46580190D01*
X226528571Y46532571D01*
X226719047Y46532571D01*
X226814285Y46580190D01*
X226861904Y46627809D01*
X226909523Y46723047D01*
M02*
