M48
; DRILL file {KiCad (5.1.9)-1} date 05/27/22 18:47:21
; FORMAT={-:-/ absolute / inch / decimal}
; #@! TF.CreationDate,2022-05-27T18:47:21+02:00
; #@! TF.GenerationSoftware,Kicad,Pcbnew,(5.1.9)-1
; #@! TF.FileFunction,Plated,1,2,PTH
FMAT,2
INCH
T1C0.0157
T2C0.0236
T3C0.0433
T4C0.0591
%
G90
G05
T1
X0.4724Y3.0315
X0.4724Y2.2835
X0.4724Y1.5354
X0.6693Y1.5354
X0.675Y2.205
X0.86Y2.44
X0.8661Y3.8189
X0.9299Y4.5531
X1.0236Y3.8189
X1.0236Y3.0315
X1.1024Y2.2835
X1.1138Y4.5614
X1.1811Y3.0315
X1.2Y1.9
X1.2205Y1.5354
X1.2626Y0.9291
X1.3059Y4.5614
X1.3386Y3.0315
X1.3386Y2.2835
X1.4173Y1.5354
X1.4961Y3.0315
X1.5748Y2.2835
X1.6142Y3.8189
X1.6142Y1.5354
X1.71Y2.225
X1.7717Y3.8189
X1.8504Y1.5354
X1.88Y2.465
X1.9291Y3.0315
X1.9937Y4.5693
X2.0457Y0.9118
X2.0866Y3.0315
X2.126Y2.2835
X2.2177Y4.5614
X2.2441Y3.0315
X2.3Y1.15
X2.3228Y2.2835
X2.3228Y1.5354
X2.3622Y3.8189
X2.45Y2.23
X2.5197Y3.8189
X2.5197Y1.5354
X2.52Y0.685
X2.64Y2.455
X2.645Y1.01
X2.6772Y3.0315
X2.7299Y4.5693
X2.8346Y3.0315
X2.8346Y2.2835
X2.9059Y4.5772
X2.95Y1.1
X2.9921Y2.2835
X3.0315Y3.0315
X3.0709Y1.5354
X3.0709Y0.7874
X3.1102Y3.8189
X3.1102Y2.2835
X3.225Y2.245
X3.2677Y3.8189
X3.3465Y1.5354
X3.35Y0.75
X3.375Y2.46
X3.4252Y3.0315
X3.46Y0.54
X3.4898Y4.5772
X3.6Y0.85
X3.622Y3.0315
X3.6339Y4.5772
X3.6614Y2.2835
X3.7795Y3.0315
X3.8189Y3.8189
X3.8189Y1.5354
X3.8583Y2.2835
X3.9Y0.8
X3.9764Y3.8189
X4.0945Y1.5354
X4.15Y2.46
X4.15Y0.85
X4.1732Y3.0315
X4.2177Y4.5772
X4.3701Y3.0315
X4.3701Y2.2835
X4.3858Y4.5693
X4.4Y0.75
X4.4898Y4.5614
X4.5276Y3.0315
X4.5669Y3.8189
X4.5669Y2.2835
X4.5669Y1.5354
X4.6457Y0.7874
X4.6579Y4.5693
X4.7Y2.24
X4.7Y0.54
X4.7244Y3.8189
X4.7858Y4.5693
X4.8031Y1.5354
X4.9Y2.445
X4.9213Y3.0315
X4.95Y1.15
X5.1181Y3.0315
X5.1181Y2.2835
X5.2756Y3.0315
X5.315Y1.5354
X5.3543Y3.8189
X5.3543Y2.2835
X5.3846Y4.5969
X5.4Y1.0
X5.4Y0.95
X5.4724Y1.5354
X5.5Y1.05
X5.5Y1.0
X5.5Y0.95
X5.5118Y3.8189
X5.5339Y4.6051
X5.55Y1.1
X5.635Y2.465
X5.7Y3.35
X5.7Y1.85
X5.7087Y3.0315
X5.8268Y3.0315
X5.8661Y2.2835
X5.9Y2.7
X5.911Y0.7953
X5.9449Y3.0315
X6.0Y1.15
X6.0Y0.9222
X6.063Y1.5354
X6.1024Y3.8189
X6.1024Y2.2835
X6.1346Y4.6051
X6.25Y4.05
X6.25Y1.15
X6.2559Y0.711
X6.2591Y0.6118
X6.2598Y3.8189
X6.2756Y4.6051
X6.3177Y0.8555
X6.3428Y0.9278
X6.35Y1.25
X6.4Y0.89
X6.45Y1.3
X6.4567Y3.0315
X6.5Y1.95
X6.55Y1.25
X6.55Y1.2
X6.55Y1.0
X6.6142Y3.0315
X6.6535Y2.2835
X6.7Y1.3
X6.75Y1.95
X6.7717Y3.0315
X6.8Y0.9278
X6.8031Y1.4642
X6.811Y3.8189
X6.811Y2.2835
X6.83Y1.69
X6.85Y0.7
X6.852Y1.0339
X6.8929Y4.5969
X6.93Y1.58
X6.937Y0.8811
X6.95Y2.65
X6.951Y1.1
X6.9685Y3.8189
X6.99Y1.325
X7.0335Y4.6173
X7.0587Y0.8886
X7.0937Y0.9563
X7.1Y0.7953
X7.135Y0.9067
X7.15Y0.95
X7.15Y0.7571
X7.15Y0.7
X7.18Y1.46
X7.2441Y3.0315
X7.25Y1.1
X7.25Y0.85
X7.3Y2.65
X7.4409Y2.2835
X7.45Y0.95
X7.4803Y3.0315
X7.5Y1.2
X7.5114Y1.2965
X7.5485Y0.5553
X7.5591Y3.8189
X7.5591Y1.5354
X7.5984Y2.2835
X7.6Y3.35
X7.6Y0.95
X7.6472Y4.7252
X7.65Y1.15
X7.6555Y4.6673
X7.6555Y4.572
X7.6878Y3.4126
X7.695Y4.425
X7.7Y3.25
X7.7012Y4.5055
X7.75Y4.25
X7.75Y1.2
X7.7669Y2.698
X7.7953Y3.8189
X7.8079Y4.5047
X7.8079Y4.4515
X7.8413Y4.5047
X7.8413Y4.4515
X7.85Y4.15
X7.8748Y4.5047
X7.8748Y4.4515
X7.9083Y4.5047
X7.9083Y4.4515
X7.9134Y0.6693
X7.93Y1.38
X7.9406Y1.887
X7.9417Y4.5047
X7.9417Y4.4515
X7.9752Y4.5047
X7.9752Y4.4515
X8.0Y4.215
X8.0087Y4.5047
X8.0087Y4.4515
X8.0315Y3.0315
X8.0421Y4.5047
X8.0421Y4.4515
X8.1102Y2.2835
X8.1185Y0.8291
X8.125Y4.37
X8.1445Y4.522
X8.1705Y0.6969
X8.1736Y4.713
X8.1736Y4.6134
X8.1921Y0.8437
X8.1925Y0.9587
X8.2283Y3.0315
X8.25Y4.15
X8.3071Y3.8189
X8.3071Y2.2835
X8.3465Y1.5354
X8.445Y2.235
X8.4646Y3.8189
X8.5039Y1.5354
X8.645Y2.445
X8.7402Y3.0315
X8.7496Y4.5803
X8.8976Y2.2835
X8.9236Y4.572
X8.9764Y3.0315
X9.0126Y0.8917
X9.0551Y3.8189
X9.0551Y2.2835
X9.0551Y1.5354
X9.2Y2.225
X9.252Y3.8189
X9.252Y1.5354
X9.395Y2.455
X9.4882Y3.0315
X9.4953Y4.5843
X9.6528Y4.5843
X9.685Y3.0315
X9.685Y2.2835
X9.8425Y3.8189
X9.8425Y1.5354
X9.9039Y0.8949
X9.9213Y2.2835
X10.0Y3.8189
X10.0787Y1.5354
X10.1181Y2.2835
X10.1575Y3.8189
X10.1969Y3.0315
X10.2417Y4.5677
X10.315Y3.8189
X10.3543Y3.0315
X10.3909Y4.572
X10.3937Y2.2835
X10.5118Y3.0315
X10.5906Y1.5354
X10.7197Y0.9213
X10.8268Y1.5354
X10.8661Y2.2835
X10.9449Y3.8189
X10.9917Y4.572
X11.0236Y2.2835
X11.1024Y3.8189
X11.1417Y3.0315
X11.1701Y4.576
X11.2205Y2.2835
X11.2598Y3.8189
X11.2992Y1.5354
X11.3441Y4.576
X11.378Y3.0315
X11.4173Y2.2835
X11.4469Y0.8854
X11.4961Y3.8189
X11.522Y4.5843
X11.5748Y2.2835
X11.6142Y3.0315
X11.6142Y1.5354
X12.0472Y4.5669
X12.0472Y3.8189
T3
X4.9189Y0.9161
X4.9189Y0.6602
X5.0961Y0.9161
X5.0961Y0.6602
T4
X0.4618Y3.876
X0.4622Y4.6252
X0.5563Y0.8756
X0.6496Y3.1256
X0.7118Y3.976
X0.7122Y4.7252
X0.7433Y2.376
X0.8063Y0.9756
X0.837Y1.626
X0.8996Y3.2256
X0.9933Y2.476
X1.087Y1.726
X1.2114Y3.8748
X1.4614Y3.9748
X1.4933Y0.8752
X1.587Y3.1264
X1.5874Y4.6252
X1.7433Y0.9752
X1.7748Y2.3764
X1.837Y3.2264
X1.8374Y4.7252
X1.9618Y3.8752
X1.9626Y1.6256
X2.0248Y2.4764
X2.2118Y3.9752
X2.2126Y1.7256
X2.3366Y4.6252
X2.3374Y3.126
X2.524Y0.8756
X2.5244Y2.376
X2.5866Y4.7252
X2.5874Y3.226
X2.7114Y3.8752
X2.7118Y1.6252
X2.774Y0.9756
X2.7744Y2.476
X2.9614Y3.9752
X2.9618Y1.7252
X3.0862Y4.6256
X3.087Y3.1248
X3.2748Y2.3748
X3.3362Y4.7256
X3.337Y3.2248
X3.4614Y3.8756
X3.4618Y1.6256
X3.5248Y2.4748
X3.7114Y3.9756
X3.7118Y1.7256
X3.8366Y4.6256
X3.8366Y3.1256
X4.0248Y2.3752
X4.0866Y4.7256
X4.0866Y3.2256
X4.2118Y3.876
X4.2126Y1.6252
X4.2748Y2.4752
X4.4618Y3.976
X4.4626Y1.7252
X4.5866Y3.1244
X4.7752Y2.3756
X4.8366Y3.2244
X4.9618Y3.876
X4.9622Y4.626
X4.9622Y1.6256
X5.0252Y2.4756
X5.2118Y3.976
X5.2122Y4.726
X5.2122Y1.7256
X5.3362Y3.1256
X5.4311Y0.876
X5.5236Y2.3764
X5.5862Y3.2256
X5.6811Y0.976
X5.7114Y4.6252
X5.7118Y3.8756
X5.7122Y1.626
X5.7736Y2.4764
X5.9614Y4.7252
X5.9618Y3.9756
X5.9622Y1.726
X6.087Y3.1256
X6.2744Y2.376
X6.337Y3.2256
X6.4606Y4.6244
X6.4618Y1.6256
X6.4626Y3.876
X6.5244Y2.476
X6.7106Y4.7244
X6.7118Y1.7256
X6.7126Y3.976
X6.8374Y3.1252
X7.0248Y2.3756
X7.0874Y3.2252
X7.2114Y4.6244
X7.2122Y3.8756
X7.2122Y1.6256
X7.2748Y2.4756
X7.4614Y4.7244
X7.4622Y3.9756
X7.4622Y1.7256
X7.5866Y3.1264
X7.7752Y2.3764
X7.8366Y3.2264
X7.9618Y1.6252
X7.9622Y3.8756
X8.0252Y2.4764
X8.2118Y1.7252
X8.2122Y3.9756
X8.3366Y4.6256
X8.3366Y3.126
X8.3366Y0.876
X8.5244Y2.3748
X8.5866Y4.7256
X8.5866Y3.226
X8.5866Y0.976
X8.7118Y3.8752
X8.7122Y1.6248
X8.7744Y2.4748
X8.9618Y3.9752
X8.9622Y1.7248
X9.0866Y4.626
X9.087Y3.126
X9.2744Y2.3752
X9.3366Y4.726
X9.337Y3.226
X9.3681Y0.8756
X9.4618Y3.8764
X9.4622Y1.6248
X9.5244Y2.4752
X9.6181Y0.9756
X9.7118Y3.9764
X9.7122Y1.7248
X9.8362Y4.626
X9.837Y3.1256
X10.0862Y4.726
X10.087Y3.2256
X10.2114Y0.876
X10.2122Y1.6256
X10.4614Y0.976
X10.4622Y1.7256
X10.4937Y2.3748
X10.587Y4.6252
X10.587Y3.8756
X10.7437Y2.4748
X10.7748Y3.1264
X10.837Y4.7252
X10.837Y3.9756
X10.9618Y1.6256
X10.9626Y0.8748
X11.0248Y3.2264
X11.2118Y1.7256
X11.2126Y0.9748
X11.711Y2.3748
X11.7114Y0.876
X11.7118Y3.8752
X11.7118Y1.6264
X11.7122Y4.6268
X11.7122Y3.1252
X11.961Y2.4748
X11.9614Y0.976
X11.9618Y3.9752
X11.9618Y1.7264
X11.9622Y4.7268
X11.9622Y3.2252
T2
G00X7.7547Y4.6074
M15
G01X7.7547Y4.6389
M16
G05
G00X7.7547Y4.4606
M15
G01X7.7547Y4.5196
M16
G05
G00X8.0953Y4.6074
M15
G01X8.0953Y4.6389
M16
G05
G00X8.0953Y4.4606
M15
G01X8.0953Y4.5196
M16
G05
T0
M30
