%FSLAX45Y45*%
G04 Gerber Fmt 4.5, Leading zero omitted, Abs format (unit mm)*
G04 Created by KiCad (PCBNEW 5.0.1) date Wed 20 Mar 2019 17:56:22 CET*
%MOMM*%
%LPD*%
G01*
G04 APERTURE LIST*
%ADD10C,0.150000*%
%ADD11C,0.200000*%
%ADD12C,0.300000*%
G04 APERTURE END LIST*
D10*
X839000Y1251000D02*
X839000Y12209000D01*
X30837000Y1251000D02*
X839000Y1251000D01*
X30837000Y12210000D02*
X30837000Y1251000D01*
X840000Y12210000D02*
X30837000Y12210000D01*
D11*
X2796000Y2021000D02*
X2836000Y1981000D01*
X2836000Y2021000D02*
X2796000Y1981000D01*
X3187000Y2380000D02*
X3227000Y2340000D01*
X3227000Y2380000D02*
X3187000Y2340000D01*
X5176000Y2336000D02*
X5216000Y2296000D01*
X5216000Y2336000D02*
X5176000Y2296000D01*
X6876000Y4633000D02*
X6916000Y4593000D01*
X6916000Y4633000D02*
X6876000Y4593000D01*
X8785000Y4726000D02*
X8825000Y4686000D01*
X8825000Y4726000D02*
X8785000Y4686000D01*
X10700000Y4811000D02*
X10740000Y4771000D01*
X10740000Y4811000D02*
X10700000Y4771000D01*
X12581000Y4897000D02*
X12621000Y4857000D01*
X12621000Y4897000D02*
X12581000Y4857000D01*
X13851000Y1728000D02*
X13891000Y1688000D01*
X13891000Y1728000D02*
X13851000Y1688000D01*
X14116000Y9037000D02*
X14156000Y8997000D01*
X14156000Y9037000D02*
X14116000Y8997000D01*
X14206000Y10985000D02*
X14246000Y10945000D01*
X14246000Y10985000D02*
X14206000Y10945000D01*
X14496000Y4985000D02*
X14536000Y4945000D01*
X14536000Y4985000D02*
X14496000Y4945000D01*
X14994000Y2040000D02*
X15034000Y2000000D01*
X15034000Y2040000D02*
X14994000Y2000000D01*
X15122000Y7164000D02*
X15162000Y7124000D01*
X15162000Y7164000D02*
X15122000Y7124000D01*
X15149000Y1423000D02*
X15189000Y1383000D01*
X15189000Y1423000D02*
X15149000Y1383000D01*
X15177000Y1639000D02*
X15217000Y1599000D01*
X15217000Y1639000D02*
X15177000Y1599000D01*
X15518000Y5261000D02*
X15558000Y5221000D01*
X15558000Y5261000D02*
X15518000Y5221000D01*
X15870000Y1826000D02*
X15910000Y1786000D01*
X15910000Y1826000D02*
X15870000Y1786000D01*
X15878000Y1574000D02*
X15918000Y1534000D01*
X15918000Y1574000D02*
X15878000Y1534000D01*
X15953000Y3038000D02*
X15993000Y2998000D01*
X15993000Y3038000D02*
X15953000Y2998000D01*
X15955000Y2768000D02*
X15995000Y2728000D01*
X15995000Y2768000D02*
X15955000Y2728000D01*
X16027000Y2193000D02*
X16067000Y2153000D01*
X16067000Y2193000D02*
X16027000Y2153000D01*
X16234000Y2638000D02*
X16274000Y2598000D01*
X16274000Y2638000D02*
X16234000Y2598000D01*
X16330000Y2728000D02*
X16370000Y2688000D01*
X16370000Y2728000D02*
X16330000Y2688000D01*
X16374000Y1884000D02*
X16414000Y1844000D01*
X16414000Y1884000D02*
X16374000Y1844000D01*
X16446000Y2819000D02*
X16486000Y2779000D01*
X16486000Y2819000D02*
X16446000Y2779000D01*
X16522000Y1903000D02*
X16562000Y1863000D01*
X16562000Y1903000D02*
X16522000Y1863000D01*
X16569000Y2921000D02*
X16609000Y2881000D01*
X16609000Y2921000D02*
X16569000Y2881000D01*
X16707000Y2998000D02*
X16747000Y2958000D01*
X16747000Y2998000D02*
X16707000Y2958000D01*
X16738000Y1921000D02*
X16778000Y1881000D01*
X16778000Y1921000D02*
X16738000Y1881000D01*
X16893000Y1533000D02*
X16933000Y1493000D01*
X16933000Y1533000D02*
X16893000Y1493000D01*
X17039000Y3509000D02*
X17079000Y3469000D01*
X17079000Y3509000D02*
X17039000Y3469000D01*
X17260000Y3739000D02*
X17300000Y3699000D01*
X17300000Y3739000D02*
X17260000Y3699000D01*
X17384000Y2646000D02*
X17424000Y2606000D01*
X17424000Y2646000D02*
X17384000Y2606000D01*
X17417000Y3369000D02*
X17457000Y3329000D01*
X17457000Y3369000D02*
X17417000Y3329000D01*
X17437000Y1820000D02*
X17477000Y1780000D01*
X17477000Y1820000D02*
X17437000Y1780000D01*
X17551000Y2528000D02*
X17591000Y2488000D01*
X17591000Y2528000D02*
X17551000Y2488000D01*
X17600000Y2258000D02*
X17640000Y2218000D01*
X17640000Y2258000D02*
X17600000Y2218000D01*
X17649000Y3770000D02*
X17689000Y3730000D01*
X17689000Y3770000D02*
X17649000Y3730000D01*
X17721000Y3382000D02*
X17761000Y3342000D01*
X17761000Y3382000D02*
X17721000Y3342000D01*
X17909000Y2277000D02*
X17949000Y2237000D01*
X17949000Y2277000D02*
X17909000Y2237000D01*
X17934000Y1835000D02*
X17974000Y1795000D01*
X17974000Y1835000D02*
X17934000Y1795000D01*
X17982000Y2662000D02*
X18022000Y2622000D01*
X18022000Y2662000D02*
X17982000Y2622000D01*
X18103000Y2323000D02*
X18143000Y2283000D01*
X18143000Y2323000D02*
X18103000Y2283000D01*
X18210000Y2749000D02*
X18250000Y2709000D01*
X18250000Y2749000D02*
X18210000Y2709000D01*
X18280000Y2443000D02*
X18320000Y2403000D01*
X18320000Y2443000D02*
X18280000Y2403000D01*
X18689000Y3509000D02*
X18729000Y3469000D01*
X18729000Y3509000D02*
X18689000Y3469000D01*
X18732000Y8147000D02*
X18772000Y8107000D01*
X18772000Y8147000D02*
X18732000Y8107000D01*
X18867000Y1545000D02*
X18907000Y1505000D01*
X18907000Y1545000D02*
X18867000Y1505000D01*
X19059000Y3313000D02*
X19099000Y3273000D01*
X19099000Y3313000D02*
X19059000Y3273000D01*
X19072000Y1796000D02*
X19112000Y1756000D01*
X19112000Y1796000D02*
X19072000Y1756000D01*
X19249000Y10304000D02*
X19289000Y10264000D01*
X19289000Y10304000D02*
X19249000Y10264000D01*
X19314000Y3013000D02*
X19354000Y2973000D01*
X19354000Y3013000D02*
X19314000Y2973000D01*
X19507000Y8688000D02*
X19547000Y8648000D01*
X19547000Y8688000D02*
X19507000Y8648000D01*
X19708000Y6873000D02*
X19748000Y6833000D01*
X19748000Y6873000D02*
X19708000Y6833000D01*
X19803000Y11343000D02*
X19843000Y11303000D01*
X19843000Y11343000D02*
X19803000Y11303000D01*
X19879000Y10707000D02*
X19919000Y10667000D01*
X19919000Y10707000D02*
X19879000Y10667000D01*
X20097000Y10698000D02*
X20137000Y10658000D01*
X20137000Y10698000D02*
X20097000Y10658000D01*
X20149000Y4813000D02*
X20189000Y4773000D01*
X20189000Y4813000D02*
X20149000Y4773000D01*
X20586000Y3427000D02*
X20626000Y3387000D01*
X20626000Y3427000D02*
X20586000Y3387000D01*
X20598000Y2814000D02*
X20638000Y2774000D01*
X20638000Y2814000D02*
X20598000Y2774000D01*
X20601000Y2126000D02*
X20641000Y2086000D01*
X20641000Y2126000D02*
X20601000Y2086000D01*
X20733000Y1790000D02*
X20773000Y1750000D01*
X20773000Y1790000D02*
X20733000Y1750000D01*
X20788000Y2163000D02*
X20828000Y2123000D01*
X20828000Y2163000D02*
X20788000Y2123000D01*
X20789000Y2455000D02*
X20829000Y2415000D01*
X20829000Y2455000D02*
X20789000Y2415000D01*
X22872000Y2285000D02*
X22912000Y2245000D01*
X22912000Y2285000D02*
X22872000Y2245000D01*
X25136000Y2293000D02*
X25176000Y2253000D01*
X25176000Y2293000D02*
X25136000Y2253000D01*
X27208000Y2360000D02*
X27248000Y2320000D01*
X27248000Y2360000D02*
X27208000Y2320000D01*
X29055000Y2269000D02*
X29095000Y2229000D01*
X29095000Y2269000D02*
X29055000Y2229000D01*
X19887500Y11652000D02*
G75*
G03X19887500Y11652000I-32500J0D01*
G01*
X19832500Y11672000D02*
X19832500Y11632000D01*
X19877500Y11672000D02*
X19877500Y11632000D01*
X19832500Y11632000D02*
G75*
G03X19877500Y11632000I22500J0D01*
G01*
X19877500Y11672000D02*
G75*
G03X19832500Y11672000I-22500J0D01*
G01*
X20371500Y11652000D02*
G75*
G03X20371500Y11652000I-32500J0D01*
G01*
X20316500Y11672000D02*
X20316500Y11632000D01*
X20361500Y11672000D02*
X20361500Y11632000D01*
X20316500Y11632000D02*
G75*
G03X20361500Y11632000I22500J0D01*
G01*
X20361500Y11672000D02*
G75*
G03X20316500Y11672000I-22500J0D01*
G01*
X19824000Y11987000D02*
X19824000Y11917000D01*
X19789000Y11952000D02*
X19859000Y11952000D01*
X19799000Y11977000D02*
X19799000Y11927000D01*
X19849000Y11977000D02*
X19849000Y11927000D01*
X19799000Y11927000D02*
G75*
G03X19849000Y11927000I25000J0D01*
G01*
X19849000Y11977000D02*
G75*
G03X19799000Y11977000I-25000J0D01*
G01*
X20370000Y11987000D02*
X20370000Y11917000D01*
X20335000Y11952000D02*
X20405000Y11952000D01*
X20345000Y11977000D02*
X20345000Y11927000D01*
X20395000Y11977000D02*
X20395000Y11927000D01*
X20345000Y11927000D02*
G75*
G03X20395000Y11927000I25000J0D01*
G01*
X20395000Y11977000D02*
G75*
G03X20345000Y11977000I-25000J0D01*
G01*
X12532891Y2288109D02*
X12532891Y2365891D01*
X12455109Y2365891D01*
X12455109Y2288109D01*
X12532891Y2288109D01*
X12532891Y1638109D02*
X12532891Y1715891D01*
X12455109Y1715891D01*
X12455109Y1638109D01*
X12532891Y1638109D01*
X12982891Y2288109D02*
X12982891Y2365891D01*
X12905109Y2365891D01*
X12905109Y2288109D01*
X12982891Y2288109D01*
X12982891Y1638109D02*
X12982891Y1715891D01*
X12905109Y1715891D01*
X12905109Y1638109D01*
X12982891Y1638109D01*
X3793000Y2148000D02*
X3868000Y2223000D01*
X3793000Y2298000D01*
X3718000Y2223000D01*
X3793000Y2148000D01*
X4428000Y2402000D02*
X4503000Y2477000D01*
X4428000Y2552000D01*
X4353000Y2477000D01*
X4428000Y2402000D01*
X19749000Y5961000D02*
X19824000Y6036000D01*
X19749000Y6111000D01*
X19674000Y6036000D01*
X19749000Y5961000D01*
X20384000Y6215000D02*
X20459000Y6290000D01*
X20384000Y6365000D01*
X20309000Y6290000D01*
X20384000Y6215000D01*
X11650000Y7861000D02*
X11725000Y7936000D01*
X11650000Y8011000D01*
X11575000Y7936000D01*
X11650000Y7861000D01*
X12285000Y8115000D02*
X12360000Y8190000D01*
X12285000Y8265000D01*
X12210000Y8190000D01*
X12285000Y8115000D01*
X12604000Y11675000D02*
X12679000Y11750000D01*
X12604000Y11825000D01*
X12529000Y11750000D01*
X12604000Y11675000D01*
X13239000Y11929000D02*
X13314000Y12004000D01*
X13239000Y12079000D01*
X13164000Y12004000D01*
X13239000Y11929000D01*
X27843000Y4054000D02*
X27918000Y4129000D01*
X27843000Y4204000D01*
X27768000Y4129000D01*
X27843000Y4054000D01*
X28478000Y4308000D02*
X28553000Y4383000D01*
X28478000Y4458000D01*
X28403000Y4383000D01*
X28478000Y4308000D01*
X21175000Y2150000D02*
X21250000Y2225000D01*
X21175000Y2300000D01*
X21100000Y2225000D01*
X21175000Y2150000D01*
X21810000Y2404000D02*
X21885000Y2479000D01*
X21810000Y2554000D01*
X21735000Y2479000D01*
X21810000Y2404000D01*
X1888000Y5960000D02*
X1963000Y6035000D01*
X1888000Y6110000D01*
X1813000Y6035000D01*
X1888000Y5960000D01*
X2523000Y6214000D02*
X2598000Y6289000D01*
X2523000Y6364000D01*
X2448000Y6289000D01*
X2523000Y6214000D01*
X7839000Y11674000D02*
X7914000Y11749000D01*
X7839000Y11824000D01*
X7764000Y11749000D01*
X7839000Y11674000D01*
X8474000Y11928000D02*
X8549000Y12003000D01*
X8474000Y12078000D01*
X8399000Y12003000D01*
X8474000Y11928000D01*
X4031000Y7866000D02*
X4106000Y7941000D01*
X4031000Y8016000D01*
X3956000Y7941000D01*
X4031000Y7866000D01*
X4666000Y8120000D02*
X4741000Y8195000D01*
X4666000Y8270000D01*
X4591000Y8195000D01*
X4666000Y8120000D01*
X6887000Y9768000D02*
X6962000Y9843000D01*
X6887000Y9918000D01*
X6812000Y9843000D01*
X6887000Y9768000D01*
X7522000Y10022000D02*
X7597000Y10097000D01*
X7522000Y10172000D01*
X7447000Y10097000D01*
X7522000Y10022000D01*
X25937000Y2150000D02*
X26012000Y2225000D01*
X25937000Y2300000D01*
X25862000Y2225000D01*
X25937000Y2150000D01*
X26572000Y2404000D02*
X26647000Y2479000D01*
X26572000Y2554000D01*
X26497000Y2479000D01*
X26572000Y2404000D01*
X6888000Y4053000D02*
X6963000Y4128000D01*
X6888000Y4203000D01*
X6813000Y4128000D01*
X6888000Y4053000D01*
X7523000Y4307000D02*
X7598000Y4382000D01*
X7523000Y4457000D01*
X7448000Y4382000D01*
X7523000Y4307000D01*
X24984000Y11675000D02*
X25059000Y11750000D01*
X24984000Y11825000D01*
X24909000Y11750000D01*
X24984000Y11675000D01*
X25619000Y11929000D02*
X25694000Y12004000D01*
X25619000Y12079000D01*
X25544000Y12004000D01*
X25619000Y11929000D01*
X17367000Y7863000D02*
X17442000Y7938000D01*
X17367000Y8013000D01*
X17292000Y7938000D01*
X17367000Y7863000D01*
X18002000Y8117000D02*
X18077000Y8192000D01*
X18002000Y8267000D01*
X17927000Y8192000D01*
X18002000Y8117000D01*
X1413000Y2149000D02*
X1488000Y2224000D01*
X1413000Y2299000D01*
X1338000Y2224000D01*
X1413000Y2149000D01*
X2048000Y2403000D02*
X2123000Y2478000D01*
X2048000Y2553000D01*
X1973000Y2478000D01*
X2048000Y2403000D01*
X21175000Y11674000D02*
X21250000Y11749000D01*
X21175000Y11824000D01*
X21100000Y11749000D01*
X21175000Y11674000D01*
X21810000Y11928000D02*
X21885000Y12003000D01*
X21810000Y12078000D01*
X21735000Y12003000D01*
X21810000Y11928000D01*
X18317000Y11671000D02*
X18392000Y11746000D01*
X18317000Y11821000D01*
X18242000Y11746000D01*
X18317000Y11671000D01*
X18952000Y11925000D02*
X19027000Y12000000D01*
X18952000Y12075000D01*
X18877000Y12000000D01*
X18952000Y11925000D01*
X5937000Y7865000D02*
X6012000Y7940000D01*
X5937000Y8015000D01*
X5862000Y7940000D01*
X5937000Y7865000D01*
X6572000Y8119000D02*
X6647000Y8194000D01*
X6572000Y8269000D01*
X6497000Y8194000D01*
X6572000Y8119000D01*
X14508000Y9769000D02*
X14583000Y9844000D01*
X14508000Y9919000D01*
X14433000Y9844000D01*
X14508000Y9769000D01*
X15143000Y10023000D02*
X15218000Y10098000D01*
X15143000Y10173000D01*
X15068000Y10098000D01*
X15143000Y10023000D01*
X4983000Y9768000D02*
X5058000Y9843000D01*
X4983000Y9918000D01*
X4908000Y9843000D01*
X4983000Y9768000D01*
X5618000Y10022000D02*
X5693000Y10097000D01*
X5618000Y10172000D01*
X5543000Y10097000D01*
X5618000Y10022000D01*
X13795000Y2150000D02*
X13870000Y2225000D01*
X13795000Y2300000D01*
X13720000Y2225000D01*
X13795000Y2150000D01*
X14430000Y2404000D02*
X14505000Y2479000D01*
X14430000Y2554000D01*
X14355000Y2479000D01*
X14430000Y2404000D01*
X21175000Y7865000D02*
X21250000Y7940000D01*
X21175000Y8015000D01*
X21100000Y7940000D01*
X21175000Y7865000D01*
X21810000Y8119000D02*
X21885000Y8194000D01*
X21810000Y8269000D01*
X21735000Y8194000D01*
X21810000Y8119000D01*
X17843000Y5959000D02*
X17918000Y6034000D01*
X17843000Y6109000D01*
X17768000Y6034000D01*
X17843000Y5959000D01*
X18478000Y6213000D02*
X18553000Y6288000D01*
X18478000Y6363000D01*
X18403000Y6288000D01*
X18478000Y6213000D01*
X12603000Y9770000D02*
X12678000Y9845000D01*
X12603000Y9920000D01*
X12528000Y9845000D01*
X12603000Y9770000D01*
X13238000Y10024000D02*
X13313000Y10099000D01*
X13238000Y10174000D01*
X13163000Y10099000D01*
X13238000Y10024000D01*
X8318000Y5957000D02*
X8393000Y6032000D01*
X8318000Y6107000D01*
X8243000Y6032000D01*
X8318000Y5957000D01*
X8953000Y6211000D02*
X9028000Y6286000D01*
X8953000Y6361000D01*
X8878000Y6286000D01*
X8953000Y6211000D01*
X24986000Y7864000D02*
X25061000Y7939000D01*
X24986000Y8014000D01*
X24911000Y7939000D01*
X24986000Y7864000D01*
X25621000Y8118000D02*
X25696000Y8193000D01*
X25621000Y8268000D01*
X25546000Y8193000D01*
X25621000Y8118000D01*
X2126000Y4055000D02*
X2201000Y4130000D01*
X2126000Y4205000D01*
X2051000Y4130000D01*
X2126000Y4055000D01*
X2761000Y4309000D02*
X2836000Y4384000D01*
X2761000Y4459000D01*
X2686000Y4384000D01*
X2761000Y4309000D01*
X8792000Y9769000D02*
X8867000Y9844000D01*
X8792000Y9919000D01*
X8717000Y9844000D01*
X8792000Y9769000D01*
X9427000Y10023000D02*
X9502000Y10098000D01*
X9427000Y10173000D01*
X9352000Y10098000D01*
X9427000Y10023000D01*
X14509000Y4055000D02*
X14584000Y4130000D01*
X14509000Y4205000D01*
X14434000Y4130000D01*
X14509000Y4055000D01*
X15144000Y4309000D02*
X15219000Y4384000D01*
X15144000Y4459000D01*
X15069000Y4384000D01*
X15144000Y4309000D01*
X1173000Y9770000D02*
X1248000Y9845000D01*
X1173000Y9920000D01*
X1098000Y9845000D01*
X1173000Y9770000D01*
X1808000Y10024000D02*
X1883000Y10099000D01*
X1808000Y10174000D01*
X1733000Y10099000D01*
X1808000Y10024000D01*
X4508000Y5961000D02*
X4583000Y6036000D01*
X4508000Y6111000D01*
X4433000Y6036000D01*
X4508000Y5961000D01*
X5143000Y6215000D02*
X5218000Y6290000D01*
X5143000Y6365000D01*
X5068000Y6290000D01*
X5143000Y6215000D01*
X22129000Y4052000D02*
X22204000Y4127000D01*
X22129000Y4202000D01*
X22054000Y4127000D01*
X22129000Y4052000D01*
X22764000Y4306000D02*
X22839000Y4381000D01*
X22764000Y4456000D01*
X22689000Y4381000D01*
X22764000Y4306000D01*
X27845000Y2147000D02*
X27920000Y2222000D01*
X27845000Y2297000D01*
X27770000Y2222000D01*
X27845000Y2147000D01*
X28480000Y2401000D02*
X28555000Y2476000D01*
X28480000Y2551000D01*
X28405000Y2476000D01*
X28480000Y2401000D01*
X16415000Y9770000D02*
X16490000Y9845000D01*
X16415000Y9920000D01*
X16340000Y9845000D01*
X16415000Y9770000D01*
X17050000Y10024000D02*
X17125000Y10099000D01*
X17050000Y10174000D01*
X16975000Y10099000D01*
X17050000Y10024000D01*
X23080000Y11675000D02*
X23155000Y11750000D01*
X23080000Y11825000D01*
X23005000Y11750000D01*
X23080000Y11675000D01*
X23715000Y11929000D02*
X23790000Y12004000D01*
X23715000Y12079000D01*
X23640000Y12004000D01*
X23715000Y11929000D01*
X1174000Y11673000D02*
X1249000Y11748000D01*
X1174000Y11823000D01*
X1099000Y11748000D01*
X1174000Y11673000D01*
X1809000Y11927000D02*
X1884000Y12002000D01*
X1809000Y12077000D01*
X1734000Y12002000D01*
X1809000Y11927000D01*
X4985000Y4054000D02*
X5060000Y4129000D01*
X4985000Y4204000D01*
X4910000Y4129000D01*
X4985000Y4054000D01*
X5620000Y4308000D02*
X5695000Y4383000D01*
X5620000Y4458000D01*
X5545000Y4383000D01*
X5620000Y4308000D01*
X18319000Y9769000D02*
X18394000Y9844000D01*
X18319000Y9919000D01*
X18244000Y9844000D01*
X18319000Y9769000D01*
X18954000Y10023000D02*
X19029000Y10098000D01*
X18954000Y10173000D01*
X18879000Y10098000D01*
X18954000Y10023000D01*
X24033000Y9771000D02*
X24108000Y9846000D01*
X24033000Y9921000D01*
X23958000Y9846000D01*
X24033000Y9771000D01*
X24668000Y10025000D02*
X24743000Y10100000D01*
X24668000Y10175000D01*
X24593000Y10100000D01*
X24668000Y10025000D01*
X29747000Y2150000D02*
X29822000Y2225000D01*
X29747000Y2300000D01*
X29672000Y2225000D01*
X29747000Y2150000D01*
X30382000Y2404000D02*
X30457000Y2479000D01*
X30382000Y2554000D01*
X30307000Y2479000D01*
X30382000Y2404000D01*
X10223000Y5958000D02*
X10298000Y6033000D01*
X10223000Y6108000D01*
X10148000Y6033000D01*
X10223000Y5958000D01*
X10858000Y6212000D02*
X10933000Y6287000D01*
X10858000Y6362000D01*
X10783000Y6287000D01*
X10858000Y6212000D01*
X22128000Y9768000D02*
X22203000Y9843000D01*
X22128000Y9918000D01*
X22053000Y9843000D01*
X22128000Y9768000D01*
X22763000Y10022000D02*
X22838000Y10097000D01*
X22763000Y10172000D01*
X22688000Y10097000D01*
X22763000Y10022000D01*
X5935000Y11673000D02*
X6010000Y11748000D01*
X5935000Y11823000D01*
X5860000Y11748000D01*
X5935000Y11673000D01*
X6570000Y11927000D02*
X6645000Y12002000D01*
X6570000Y12077000D01*
X6495000Y12002000D01*
X6570000Y11927000D01*
X6411000Y2149000D02*
X6486000Y2224000D01*
X6411000Y2299000D01*
X6336000Y2224000D01*
X6411000Y2149000D01*
X7046000Y2403000D02*
X7121000Y2478000D01*
X7046000Y2553000D01*
X6971000Y2478000D01*
X7046000Y2403000D01*
X26891000Y9769000D02*
X26966000Y9844000D01*
X26891000Y9919000D01*
X26816000Y9844000D01*
X26891000Y9769000D01*
X27526000Y10023000D02*
X27601000Y10098000D01*
X27526000Y10173000D01*
X27451000Y10098000D01*
X27526000Y10023000D01*
X26891000Y11673000D02*
X26966000Y11748000D01*
X26891000Y11823000D01*
X26816000Y11748000D01*
X26891000Y11673000D01*
X27526000Y11927000D02*
X27601000Y12002000D01*
X27526000Y12077000D01*
X27451000Y12002000D01*
X27526000Y11927000D01*
X29748000Y4056000D02*
X29823000Y4131000D01*
X29748000Y4206000D01*
X29673000Y4131000D01*
X29748000Y4056000D01*
X30383000Y4310000D02*
X30458000Y4385000D01*
X30383000Y4460000D01*
X30308000Y4385000D01*
X30383000Y4310000D01*
X23557000Y5958000D02*
X23632000Y6033000D01*
X23557000Y6108000D01*
X23482000Y6033000D01*
X23557000Y5958000D01*
X24192000Y6212000D02*
X24267000Y6287000D01*
X24192000Y6362000D01*
X24117000Y6287000D01*
X24192000Y6212000D01*
X10700000Y4053000D02*
X10775000Y4128000D01*
X10700000Y4203000D01*
X10625000Y4128000D01*
X10700000Y4053000D01*
X11335000Y4307000D02*
X11410000Y4382000D01*
X11335000Y4457000D01*
X11260000Y4382000D01*
X11335000Y4307000D01*
X15937000Y5960000D02*
X16012000Y6035000D01*
X15937000Y6110000D01*
X15862000Y6035000D01*
X15937000Y5960000D01*
X16572000Y6214000D02*
X16647000Y6289000D01*
X16572000Y6364000D01*
X16497000Y6289000D01*
X16572000Y6214000D01*
X23081000Y7865000D02*
X23156000Y7940000D01*
X23081000Y8015000D01*
X23006000Y7940000D01*
X23081000Y7865000D01*
X23716000Y8119000D02*
X23791000Y8194000D01*
X23716000Y8269000D01*
X23641000Y8194000D01*
X23716000Y8119000D01*
X4032000Y11673000D02*
X4107000Y11748000D01*
X4032000Y11823000D01*
X3957000Y11748000D01*
X4032000Y11673000D01*
X4667000Y11927000D02*
X4742000Y12002000D01*
X4667000Y12077000D01*
X4592000Y12002000D01*
X4667000Y11927000D01*
X20224000Y9769000D02*
X20299000Y9844000D01*
X20224000Y9919000D01*
X20149000Y9844000D01*
X20224000Y9769000D01*
X20859000Y10023000D02*
X20934000Y10098000D01*
X20859000Y10173000D01*
X20784000Y10098000D01*
X20859000Y10023000D01*
X23795000Y2149000D02*
X23870000Y2224000D01*
X23795000Y2299000D01*
X23720000Y2224000D01*
X23795000Y2149000D01*
X24430000Y2403000D02*
X24505000Y2478000D01*
X24430000Y2553000D01*
X24355000Y2478000D01*
X24430000Y2403000D01*
X3077000Y9767000D02*
X3152000Y9842000D01*
X3077000Y9917000D01*
X3002000Y9842000D01*
X3077000Y9767000D01*
X3712000Y10021000D02*
X3787000Y10096000D01*
X3712000Y10171000D01*
X3637000Y10096000D01*
X3712000Y10021000D01*
X13554000Y7864000D02*
X13629000Y7939000D01*
X13554000Y8014000D01*
X13479000Y7939000D01*
X13554000Y7864000D01*
X14189000Y8118000D02*
X14264000Y8193000D01*
X14189000Y8268000D01*
X14114000Y8193000D01*
X14189000Y8118000D01*
X18319000Y4054000D02*
X18394000Y4129000D01*
X18319000Y4204000D01*
X18244000Y4129000D01*
X18319000Y4054000D01*
X18954000Y4308000D02*
X19029000Y4383000D01*
X18954000Y4458000D01*
X18879000Y4383000D01*
X18954000Y4308000D01*
X12604000Y4054000D02*
X12679000Y4129000D01*
X12604000Y4204000D01*
X12529000Y4129000D01*
X12604000Y4054000D01*
X13239000Y4308000D02*
X13314000Y4383000D01*
X13239000Y4458000D01*
X13164000Y4383000D01*
X13239000Y4308000D01*
X20223000Y4053000D02*
X20298000Y4128000D01*
X20223000Y4203000D01*
X20148000Y4128000D01*
X20223000Y4053000D01*
X20858000Y4307000D02*
X20933000Y4382000D01*
X20858000Y4457000D01*
X20783000Y4382000D01*
X20858000Y4307000D01*
X6412000Y5960000D02*
X6487000Y6035000D01*
X6412000Y6110000D01*
X6337000Y6035000D01*
X6412000Y5960000D01*
X7047000Y6214000D02*
X7122000Y6289000D01*
X7047000Y6364000D01*
X6972000Y6289000D01*
X7047000Y6214000D01*
X10698000Y9770000D02*
X10773000Y9845000D01*
X10698000Y9920000D01*
X10623000Y9845000D01*
X10698000Y9770000D01*
X11333000Y10024000D02*
X11408000Y10099000D01*
X11333000Y10174000D01*
X11258000Y10099000D01*
X11333000Y10024000D01*
X24034000Y4052000D02*
X24109000Y4127000D01*
X24034000Y4202000D01*
X23959000Y4127000D01*
X24034000Y4052000D01*
X24669000Y4306000D02*
X24744000Y4381000D01*
X24669000Y4456000D01*
X24594000Y4381000D01*
X24669000Y4306000D01*
X7841000Y7862000D02*
X7916000Y7937000D01*
X7841000Y8012000D01*
X7766000Y7937000D01*
X7841000Y7862000D01*
X8476000Y8116000D02*
X8551000Y8191000D01*
X8476000Y8266000D01*
X8401000Y8191000D01*
X8476000Y8116000D01*
X21652000Y5957000D02*
X21727000Y6032000D01*
X21652000Y6107000D01*
X21577000Y6032000D01*
X21652000Y5957000D01*
X22287000Y6211000D02*
X22362000Y6286000D01*
X22287000Y6361000D01*
X22212000Y6286000D01*
X22287000Y6211000D01*
X15461000Y7864000D02*
X15536000Y7939000D01*
X15461000Y8014000D01*
X15386000Y7939000D01*
X15461000Y7864000D01*
X16096000Y8118000D02*
X16171000Y8193000D01*
X16096000Y8268000D01*
X16021000Y8193000D01*
X16096000Y8118000D01*
X29746000Y5957000D02*
X29821000Y6032000D01*
X29746000Y6107000D01*
X29671000Y6032000D01*
X29746000Y5957000D01*
X30381000Y6211000D02*
X30456000Y6286000D01*
X30381000Y6361000D01*
X30306000Y6286000D01*
X30381000Y6211000D01*
X8793000Y4054000D02*
X8868000Y4129000D01*
X8793000Y4204000D01*
X8718000Y4129000D01*
X8793000Y4054000D01*
X9428000Y4308000D02*
X9503000Y4383000D01*
X9428000Y4458000D01*
X9353000Y4383000D01*
X9428000Y4308000D01*
X26654000Y5957000D02*
X26729000Y6032000D01*
X26654000Y6107000D01*
X26579000Y6032000D01*
X26654000Y5957000D01*
X27289000Y6211000D02*
X27364000Y6286000D01*
X27289000Y6361000D01*
X27214000Y6286000D01*
X27289000Y6211000D01*
X16410000Y11671000D02*
X16485000Y11746000D01*
X16410000Y11821000D01*
X16335000Y11746000D01*
X16410000Y11671000D01*
X17045000Y11925000D02*
X17120000Y12000000D01*
X17045000Y12075000D01*
X16970000Y12000000D01*
X17045000Y11925000D01*
X16413000Y4054000D02*
X16488000Y4129000D01*
X16413000Y4204000D01*
X16338000Y4129000D01*
X16413000Y4054000D01*
X17048000Y4308000D02*
X17123000Y4383000D01*
X17048000Y4458000D01*
X16973000Y4383000D01*
X17048000Y4308000D01*
X14507000Y11673000D02*
X14582000Y11748000D01*
X14507000Y11823000D01*
X14432000Y11748000D01*
X14507000Y11673000D01*
X15142000Y11927000D02*
X15217000Y12002000D01*
X15142000Y12077000D01*
X15067000Y12002000D01*
X15142000Y11927000D01*
X9745000Y7864000D02*
X9820000Y7939000D01*
X9745000Y8014000D01*
X9670000Y7939000D01*
X9745000Y7864000D01*
X10380000Y8118000D02*
X10455000Y8193000D01*
X10380000Y8268000D01*
X10305000Y8193000D01*
X10380000Y8118000D01*
X1650000Y7864000D02*
X1725000Y7939000D01*
X1650000Y8014000D01*
X1575000Y7939000D01*
X1650000Y7864000D01*
X2285000Y8118000D02*
X2360000Y8193000D01*
X2285000Y8268000D01*
X2210000Y8193000D01*
X2285000Y8118000D01*
X14030000Y5961000D02*
X14105000Y6036000D01*
X14030000Y6111000D01*
X13955000Y6036000D01*
X14030000Y5961000D01*
X14665000Y6215000D02*
X14740000Y6290000D01*
X14665000Y6365000D01*
X14590000Y6290000D01*
X14665000Y6215000D01*
X29749000Y7863000D02*
X29824000Y7938000D01*
X29749000Y8013000D01*
X29674000Y7938000D01*
X29749000Y7863000D01*
X30384000Y8117000D02*
X30459000Y8192000D01*
X30384000Y8267000D01*
X30309000Y8192000D01*
X30384000Y8117000D01*
X9745000Y11674000D02*
X9820000Y11749000D01*
X9745000Y11824000D01*
X9670000Y11749000D01*
X9745000Y11674000D01*
X10380000Y11928000D02*
X10455000Y12003000D01*
X10380000Y12078000D01*
X10305000Y12003000D01*
X10380000Y11928000D01*
X29749000Y11677000D02*
X29824000Y11752000D01*
X29749000Y11827000D01*
X29674000Y11752000D01*
X29749000Y11677000D01*
X30384000Y11931000D02*
X30459000Y12006000D01*
X30384000Y12081000D01*
X30309000Y12006000D01*
X30384000Y11931000D01*
X19270000Y7866000D02*
X19345000Y7941000D01*
X19270000Y8016000D01*
X19195000Y7941000D01*
X19270000Y7866000D01*
X19905000Y8120000D02*
X19980000Y8195000D01*
X19905000Y8270000D01*
X19830000Y8195000D01*
X19905000Y8120000D01*
X12129000Y5959000D02*
X12204000Y6034000D01*
X12129000Y6109000D01*
X12054000Y6034000D01*
X12129000Y5959000D01*
X12764000Y6213000D02*
X12839000Y6288000D01*
X12764000Y6363000D01*
X12689000Y6288000D01*
X12764000Y6213000D01*
X25939000Y4054000D02*
X26014000Y4129000D01*
X25939000Y4204000D01*
X25864000Y4129000D01*
X25939000Y4054000D01*
X26574000Y4308000D02*
X26649000Y4383000D01*
X26574000Y4458000D01*
X26499000Y4383000D01*
X26574000Y4308000D01*
X27368000Y7866000D02*
X27443000Y7941000D01*
X27368000Y8016000D01*
X27293000Y7941000D01*
X27368000Y7866000D01*
X28003000Y8120000D02*
X28078000Y8195000D01*
X28003000Y8270000D01*
X27928000Y8195000D01*
X28003000Y8120000D01*
X29748000Y9768000D02*
X29823000Y9843000D01*
X29748000Y9918000D01*
X29673000Y9843000D01*
X29748000Y9768000D01*
X30383000Y10022000D02*
X30458000Y10097000D01*
X30383000Y10172000D01*
X30308000Y10097000D01*
X30383000Y10022000D01*
X14211000Y5982000D02*
X14611000Y5582000D01*
X14611000Y5982000D02*
X14211000Y5582000D01*
X14611000Y5782000D02*
G75*
G03X14611000Y5782000I-200000J0D01*
G01*
X29930000Y7884000D02*
X30330000Y7484000D01*
X30330000Y7884000D02*
X29930000Y7484000D01*
X30330000Y7684000D02*
G75*
G03X30330000Y7684000I-200000J0D01*
G01*
X9926000Y11695000D02*
X10326000Y11295000D01*
X10326000Y11695000D02*
X9926000Y11295000D01*
X10326000Y11495000D02*
G75*
G03X10326000Y11495000I-200000J0D01*
G01*
X29930000Y11698000D02*
X30330000Y11298000D01*
X30330000Y11698000D02*
X29930000Y11298000D01*
X30330000Y11498000D02*
G75*
G03X30330000Y11498000I-200000J0D01*
G01*
X19451000Y7887000D02*
X19851000Y7487000D01*
X19851000Y7887000D02*
X19451000Y7487000D01*
X19851000Y7687000D02*
G75*
G03X19851000Y7687000I-200000J0D01*
G01*
X12310000Y5980000D02*
X12710000Y5580000D01*
X12710000Y5980000D02*
X12310000Y5580000D01*
X12710000Y5780000D02*
G75*
G03X12710000Y5780000I-200000J0D01*
G01*
X26120000Y4075000D02*
X26520000Y3675000D01*
X26520000Y4075000D02*
X26120000Y3675000D01*
X26520000Y3875000D02*
G75*
G03X26520000Y3875000I-200000J0D01*
G01*
X27549000Y7887000D02*
X27949000Y7487000D01*
X27949000Y7887000D02*
X27549000Y7487000D01*
X27949000Y7687000D02*
G75*
G03X27949000Y7687000I-200000J0D01*
G01*
X29929000Y9789000D02*
X30329000Y9389000D01*
X30329000Y9789000D02*
X29929000Y9389000D01*
X30329000Y9589000D02*
G75*
G03X30329000Y9589000I-200000J0D01*
G01*
X3974000Y2169000D02*
X4374000Y1769000D01*
X4374000Y2169000D02*
X3974000Y1769000D01*
X4374000Y1969000D02*
G75*
G03X4374000Y1969000I-200000J0D01*
G01*
X19930000Y5982000D02*
X20330000Y5582000D01*
X20330000Y5982000D02*
X19930000Y5582000D01*
X20330000Y5782000D02*
G75*
G03X20330000Y5782000I-200000J0D01*
G01*
X11831000Y7882000D02*
X12231000Y7482000D01*
X12231000Y7882000D02*
X11831000Y7482000D01*
X12231000Y7682000D02*
G75*
G03X12231000Y7682000I-200000J0D01*
G01*
X12785000Y11696000D02*
X13185000Y11296000D01*
X13185000Y11696000D02*
X12785000Y11296000D01*
X13185000Y11496000D02*
G75*
G03X13185000Y11496000I-200000J0D01*
G01*
X28024000Y4075000D02*
X28424000Y3675000D01*
X28424000Y4075000D02*
X28024000Y3675000D01*
X28424000Y3875000D02*
G75*
G03X28424000Y3875000I-200000J0D01*
G01*
X21356000Y2171000D02*
X21756000Y1771000D01*
X21756000Y2171000D02*
X21356000Y1771000D01*
X21756000Y1971000D02*
G75*
G03X21756000Y1971000I-200000J0D01*
G01*
X2069000Y5981000D02*
X2469000Y5581000D01*
X2469000Y5981000D02*
X2069000Y5581000D01*
X2469000Y5781000D02*
G75*
G03X2469000Y5781000I-200000J0D01*
G01*
X8020000Y11695000D02*
X8420000Y11295000D01*
X8420000Y11695000D02*
X8020000Y11295000D01*
X8420000Y11495000D02*
G75*
G03X8420000Y11495000I-200000J0D01*
G01*
X4212000Y7887000D02*
X4612000Y7487000D01*
X4612000Y7887000D02*
X4212000Y7487000D01*
X4612000Y7687000D02*
G75*
G03X4612000Y7687000I-200000J0D01*
G01*
X7068000Y9789000D02*
X7468000Y9389000D01*
X7468000Y9789000D02*
X7068000Y9389000D01*
X7468000Y9589000D02*
G75*
G03X7468000Y9589000I-200000J0D01*
G01*
X26118000Y2171000D02*
X26518000Y1771000D01*
X26518000Y2171000D02*
X26118000Y1771000D01*
X26518000Y1971000D02*
G75*
G03X26518000Y1971000I-200000J0D01*
G01*
X7069000Y4074000D02*
X7469000Y3674000D01*
X7469000Y4074000D02*
X7069000Y3674000D01*
X7469000Y3874000D02*
G75*
G03X7469000Y3874000I-200000J0D01*
G01*
X25165000Y11696000D02*
X25565000Y11296000D01*
X25565000Y11696000D02*
X25165000Y11296000D01*
X25565000Y11496000D02*
G75*
G03X25565000Y11496000I-200000J0D01*
G01*
X17548000Y7884000D02*
X17948000Y7484000D01*
X17948000Y7884000D02*
X17548000Y7484000D01*
X17948000Y7684000D02*
G75*
G03X17948000Y7684000I-200000J0D01*
G01*
X1594000Y2170000D02*
X1994000Y1770000D01*
X1994000Y2170000D02*
X1594000Y1770000D01*
X1994000Y1970000D02*
G75*
G03X1994000Y1970000I-200000J0D01*
G01*
X21356000Y11695000D02*
X21756000Y11295000D01*
X21756000Y11695000D02*
X21356000Y11295000D01*
X21756000Y11495000D02*
G75*
G03X21756000Y11495000I-200000J0D01*
G01*
X18498000Y11692000D02*
X18898000Y11292000D01*
X18898000Y11692000D02*
X18498000Y11292000D01*
X18898000Y11492000D02*
G75*
G03X18898000Y11492000I-200000J0D01*
G01*
X6118000Y7886000D02*
X6518000Y7486000D01*
X6518000Y7886000D02*
X6118000Y7486000D01*
X6518000Y7686000D02*
G75*
G03X6518000Y7686000I-200000J0D01*
G01*
X14689000Y9790000D02*
X15089000Y9390000D01*
X15089000Y9790000D02*
X14689000Y9390000D01*
X15089000Y9590000D02*
G75*
G03X15089000Y9590000I-200000J0D01*
G01*
X5164000Y9789000D02*
X5564000Y9389000D01*
X5564000Y9789000D02*
X5164000Y9389000D01*
X5564000Y9589000D02*
G75*
G03X5564000Y9589000I-200000J0D01*
G01*
X13976000Y2171000D02*
X14376000Y1771000D01*
X14376000Y2171000D02*
X13976000Y1771000D01*
X14376000Y1971000D02*
G75*
G03X14376000Y1971000I-200000J0D01*
G01*
X21356000Y7886000D02*
X21756000Y7486000D01*
X21756000Y7886000D02*
X21356000Y7486000D01*
X21756000Y7686000D02*
G75*
G03X21756000Y7686000I-200000J0D01*
G01*
X18024000Y5980000D02*
X18424000Y5580000D01*
X18424000Y5980000D02*
X18024000Y5580000D01*
X18424000Y5780000D02*
G75*
G03X18424000Y5780000I-200000J0D01*
G01*
X12784000Y9791000D02*
X13184000Y9391000D01*
X13184000Y9791000D02*
X12784000Y9391000D01*
X13184000Y9591000D02*
G75*
G03X13184000Y9591000I-200000J0D01*
G01*
X8499000Y5978000D02*
X8899000Y5578000D01*
X8899000Y5978000D02*
X8499000Y5578000D01*
X8899000Y5778000D02*
G75*
G03X8899000Y5778000I-200000J0D01*
G01*
X25167000Y7885000D02*
X25567000Y7485000D01*
X25567000Y7885000D02*
X25167000Y7485000D01*
X25567000Y7685000D02*
G75*
G03X25567000Y7685000I-200000J0D01*
G01*
X2307000Y4076000D02*
X2707000Y3676000D01*
X2707000Y4076000D02*
X2307000Y3676000D01*
X2707000Y3876000D02*
G75*
G03X2707000Y3876000I-200000J0D01*
G01*
X8973000Y9790000D02*
X9373000Y9390000D01*
X9373000Y9790000D02*
X8973000Y9390000D01*
X9373000Y9590000D02*
G75*
G03X9373000Y9590000I-200000J0D01*
G01*
X14690000Y4076000D02*
X15090000Y3676000D01*
X15090000Y4076000D02*
X14690000Y3676000D01*
X15090000Y3876000D02*
G75*
G03X15090000Y3876000I-200000J0D01*
G01*
X1354000Y9791000D02*
X1754000Y9391000D01*
X1754000Y9791000D02*
X1354000Y9391000D01*
X1754000Y9591000D02*
G75*
G03X1754000Y9591000I-200000J0D01*
G01*
X4689000Y5982000D02*
X5089000Y5582000D01*
X5089000Y5982000D02*
X4689000Y5582000D01*
X5089000Y5782000D02*
G75*
G03X5089000Y5782000I-200000J0D01*
G01*
X22310000Y4073000D02*
X22710000Y3673000D01*
X22710000Y4073000D02*
X22310000Y3673000D01*
X22710000Y3873000D02*
G75*
G03X22710000Y3873000I-200000J0D01*
G01*
X28026000Y2168000D02*
X28426000Y1768000D01*
X28426000Y2168000D02*
X28026000Y1768000D01*
X28426000Y1968000D02*
G75*
G03X28426000Y1968000I-200000J0D01*
G01*
X16596000Y9791000D02*
X16996000Y9391000D01*
X16996000Y9791000D02*
X16596000Y9391000D01*
X16996000Y9591000D02*
G75*
G03X16996000Y9591000I-200000J0D01*
G01*
X23261000Y11696000D02*
X23661000Y11296000D01*
X23661000Y11696000D02*
X23261000Y11296000D01*
X23661000Y11496000D02*
G75*
G03X23661000Y11496000I-200000J0D01*
G01*
X1355000Y11694000D02*
X1755000Y11294000D01*
X1755000Y11694000D02*
X1355000Y11294000D01*
X1755000Y11494000D02*
G75*
G03X1755000Y11494000I-200000J0D01*
G01*
X5166000Y4075000D02*
X5566000Y3675000D01*
X5566000Y4075000D02*
X5166000Y3675000D01*
X5566000Y3875000D02*
G75*
G03X5566000Y3875000I-200000J0D01*
G01*
X18500000Y9790000D02*
X18900000Y9390000D01*
X18900000Y9790000D02*
X18500000Y9390000D01*
X18900000Y9590000D02*
G75*
G03X18900000Y9590000I-200000J0D01*
G01*
X24214000Y9792000D02*
X24614000Y9392000D01*
X24614000Y9792000D02*
X24214000Y9392000D01*
X24614000Y9592000D02*
G75*
G03X24614000Y9592000I-200000J0D01*
G01*
X29928000Y2171000D02*
X30328000Y1771000D01*
X30328000Y2171000D02*
X29928000Y1771000D01*
X30328000Y1971000D02*
G75*
G03X30328000Y1971000I-200000J0D01*
G01*
X10404000Y5979000D02*
X10804000Y5579000D01*
X10804000Y5979000D02*
X10404000Y5579000D01*
X10804000Y5779000D02*
G75*
G03X10804000Y5779000I-200000J0D01*
G01*
X22309000Y9789000D02*
X22709000Y9389000D01*
X22709000Y9789000D02*
X22309000Y9389000D01*
X22709000Y9589000D02*
G75*
G03X22709000Y9589000I-200000J0D01*
G01*
X6116000Y11694000D02*
X6516000Y11294000D01*
X6516000Y11694000D02*
X6116000Y11294000D01*
X6516000Y11494000D02*
G75*
G03X6516000Y11494000I-200000J0D01*
G01*
X6592000Y2170000D02*
X6992000Y1770000D01*
X6992000Y2170000D02*
X6592000Y1770000D01*
X6992000Y1970000D02*
G75*
G03X6992000Y1970000I-200000J0D01*
G01*
X27072000Y9790000D02*
X27472000Y9390000D01*
X27472000Y9790000D02*
X27072000Y9390000D01*
X27472000Y9590000D02*
G75*
G03X27472000Y9590000I-200000J0D01*
G01*
X27072000Y11694000D02*
X27472000Y11294000D01*
X27472000Y11694000D02*
X27072000Y11294000D01*
X27472000Y11494000D02*
G75*
G03X27472000Y11494000I-200000J0D01*
G01*
X29929000Y4077000D02*
X30329000Y3677000D01*
X30329000Y4077000D02*
X29929000Y3677000D01*
X30329000Y3877000D02*
G75*
G03X30329000Y3877000I-200000J0D01*
G01*
X23738000Y5979000D02*
X24138000Y5579000D01*
X24138000Y5979000D02*
X23738000Y5579000D01*
X24138000Y5779000D02*
G75*
G03X24138000Y5779000I-200000J0D01*
G01*
X10881000Y4074000D02*
X11281000Y3674000D01*
X11281000Y4074000D02*
X10881000Y3674000D01*
X11281000Y3874000D02*
G75*
G03X11281000Y3874000I-200000J0D01*
G01*
X16118000Y5981000D02*
X16518000Y5581000D01*
X16518000Y5981000D02*
X16118000Y5581000D01*
X16518000Y5781000D02*
G75*
G03X16518000Y5781000I-200000J0D01*
G01*
X23262000Y7886000D02*
X23662000Y7486000D01*
X23662000Y7886000D02*
X23262000Y7486000D01*
X23662000Y7686000D02*
G75*
G03X23662000Y7686000I-200000J0D01*
G01*
X4213000Y11694000D02*
X4613000Y11294000D01*
X4613000Y11694000D02*
X4213000Y11294000D01*
X4613000Y11494000D02*
G75*
G03X4613000Y11494000I-200000J0D01*
G01*
X20405000Y9790000D02*
X20805000Y9390000D01*
X20805000Y9790000D02*
X20405000Y9390000D01*
X20805000Y9590000D02*
G75*
G03X20805000Y9590000I-200000J0D01*
G01*
X23976000Y2170000D02*
X24376000Y1770000D01*
X24376000Y2170000D02*
X23976000Y1770000D01*
X24376000Y1970000D02*
G75*
G03X24376000Y1970000I-200000J0D01*
G01*
X3258000Y9788000D02*
X3658000Y9388000D01*
X3658000Y9788000D02*
X3258000Y9388000D01*
X3658000Y9588000D02*
G75*
G03X3658000Y9588000I-200000J0D01*
G01*
X13735000Y7885000D02*
X14135000Y7485000D01*
X14135000Y7885000D02*
X13735000Y7485000D01*
X14135000Y7685000D02*
G75*
G03X14135000Y7685000I-200000J0D01*
G01*
X18500000Y4075000D02*
X18900000Y3675000D01*
X18900000Y4075000D02*
X18500000Y3675000D01*
X18900000Y3875000D02*
G75*
G03X18900000Y3875000I-200000J0D01*
G01*
X12785000Y4075000D02*
X13185000Y3675000D01*
X13185000Y4075000D02*
X12785000Y3675000D01*
X13185000Y3875000D02*
G75*
G03X13185000Y3875000I-200000J0D01*
G01*
X20404000Y4074000D02*
X20804000Y3674000D01*
X20804000Y4074000D02*
X20404000Y3674000D01*
X20804000Y3874000D02*
G75*
G03X20804000Y3874000I-200000J0D01*
G01*
X6593000Y5981000D02*
X6993000Y5581000D01*
X6993000Y5981000D02*
X6593000Y5581000D01*
X6993000Y5781000D02*
G75*
G03X6993000Y5781000I-200000J0D01*
G01*
X10879000Y9791000D02*
X11279000Y9391000D01*
X11279000Y9791000D02*
X10879000Y9391000D01*
X11279000Y9591000D02*
G75*
G03X11279000Y9591000I-200000J0D01*
G01*
X24215000Y4073000D02*
X24615000Y3673000D01*
X24615000Y4073000D02*
X24215000Y3673000D01*
X24615000Y3873000D02*
G75*
G03X24615000Y3873000I-200000J0D01*
G01*
X8022000Y7883000D02*
X8422000Y7483000D01*
X8422000Y7883000D02*
X8022000Y7483000D01*
X8422000Y7683000D02*
G75*
G03X8422000Y7683000I-200000J0D01*
G01*
X21833000Y5978000D02*
X22233000Y5578000D01*
X22233000Y5978000D02*
X21833000Y5578000D01*
X22233000Y5778000D02*
G75*
G03X22233000Y5778000I-200000J0D01*
G01*
X15642000Y7885000D02*
X16042000Y7485000D01*
X16042000Y7885000D02*
X15642000Y7485000D01*
X16042000Y7685000D02*
G75*
G03X16042000Y7685000I-200000J0D01*
G01*
X29927000Y5978000D02*
X30327000Y5578000D01*
X30327000Y5978000D02*
X29927000Y5578000D01*
X30327000Y5778000D02*
G75*
G03X30327000Y5778000I-200000J0D01*
G01*
X8974000Y4075000D02*
X9374000Y3675000D01*
X9374000Y4075000D02*
X8974000Y3675000D01*
X9374000Y3875000D02*
G75*
G03X9374000Y3875000I-200000J0D01*
G01*
X26835000Y5978000D02*
X27235000Y5578000D01*
X27235000Y5978000D02*
X26835000Y5578000D01*
X27235000Y5778000D02*
G75*
G03X27235000Y5778000I-200000J0D01*
G01*
X16591000Y11692000D02*
X16991000Y11292000D01*
X16991000Y11692000D02*
X16591000Y11292000D01*
X16991000Y11492000D02*
G75*
G03X16991000Y11492000I-200000J0D01*
G01*
X16594000Y4075000D02*
X16994000Y3675000D01*
X16994000Y4075000D02*
X16594000Y3675000D01*
X16994000Y3875000D02*
G75*
G03X16994000Y3875000I-200000J0D01*
G01*
X14688000Y11694000D02*
X15088000Y11294000D01*
X15088000Y11694000D02*
X14688000Y11294000D01*
X15088000Y11494000D02*
G75*
G03X15088000Y11494000I-200000J0D01*
G01*
X9926000Y7885000D02*
X10326000Y7485000D01*
X10326000Y7885000D02*
X9926000Y7485000D01*
X10326000Y7685000D02*
G75*
G03X10326000Y7685000I-200000J0D01*
G01*
X1831000Y7885000D02*
X2231000Y7485000D01*
X2231000Y7885000D02*
X1831000Y7485000D01*
X2231000Y7685000D02*
G75*
G03X2231000Y7685000I-200000J0D01*
G01*
D12*
X1117928Y777786D02*
X1117928Y1077786D01*
X1189357Y1077786D01*
X1232214Y1063500D01*
X1260786Y1034928D01*
X1275071Y1006357D01*
X1289357Y949214D01*
X1289357Y906357D01*
X1275071Y849214D01*
X1260786Y820643D01*
X1232214Y792071D01*
X1189357Y777786D01*
X1117928Y777786D01*
X1417928Y777786D02*
X1417928Y977786D01*
X1417928Y920643D02*
X1432214Y949214D01*
X1446500Y963500D01*
X1475071Y977786D01*
X1503643Y977786D01*
X1603643Y777786D02*
X1603643Y977786D01*
X1603643Y1077786D02*
X1589357Y1063500D01*
X1603643Y1049214D01*
X1617928Y1063500D01*
X1603643Y1077786D01*
X1603643Y1049214D01*
X1789357Y777786D02*
X1760786Y792071D01*
X1746500Y820643D01*
X1746500Y1077786D01*
X1946500Y777786D02*
X1917928Y792071D01*
X1903643Y820643D01*
X1903643Y1077786D01*
X2289357Y777786D02*
X2289357Y1077786D01*
X2389357Y863500D01*
X2489357Y1077786D01*
X2489357Y777786D01*
X2760786Y777786D02*
X2760786Y934928D01*
X2746500Y963500D01*
X2717928Y977786D01*
X2660786Y977786D01*
X2632214Y963500D01*
X2760786Y792071D02*
X2732214Y777786D01*
X2660786Y777786D01*
X2632214Y792071D01*
X2617928Y820643D01*
X2617928Y849214D01*
X2632214Y877786D01*
X2660786Y892071D01*
X2732214Y892071D01*
X2760786Y906357D01*
X2903643Y977786D02*
X2903643Y677786D01*
X2903643Y963500D02*
X2932214Y977786D01*
X2989357Y977786D01*
X3017928Y963500D01*
X3032214Y949214D01*
X3046500Y920643D01*
X3046500Y834928D01*
X3032214Y806357D01*
X3017928Y792071D01*
X2989357Y777786D01*
X2932214Y777786D01*
X2903643Y792071D01*
X3175071Y806357D02*
X3189357Y792071D01*
X3175071Y777786D01*
X3160786Y792071D01*
X3175071Y806357D01*
X3175071Y777786D01*
X3175071Y963500D02*
X3189357Y949214D01*
X3175071Y934928D01*
X3160786Y949214D01*
X3175071Y963500D01*
X3175071Y934928D01*
X791500Y303500D02*
X831500Y263500D01*
X831500Y303500D02*
X791500Y263500D01*
X1175071Y447786D02*
X1203643Y447786D01*
X1232214Y433500D01*
X1246500Y419214D01*
X1260786Y390643D01*
X1275071Y333500D01*
X1275071Y262071D01*
X1260786Y204928D01*
X1246500Y176357D01*
X1232214Y162071D01*
X1203643Y147786D01*
X1175071Y147786D01*
X1146500Y162071D01*
X1132214Y176357D01*
X1117928Y204928D01*
X1103643Y262071D01*
X1103643Y333500D01*
X1117928Y390643D01*
X1132214Y419214D01*
X1146500Y433500D01*
X1175071Y447786D01*
X1403643Y176357D02*
X1417928Y162071D01*
X1403643Y147786D01*
X1389357Y162071D01*
X1403643Y176357D01*
X1403643Y147786D01*
X1675071Y347786D02*
X1675071Y147786D01*
X1603643Y462071D02*
X1532214Y247786D01*
X1717928Y247786D01*
X1889357Y447786D02*
X1917928Y447786D01*
X1946500Y433500D01*
X1960786Y419214D01*
X1975071Y390643D01*
X1989357Y333500D01*
X1989357Y262071D01*
X1975071Y204928D01*
X1960786Y176357D01*
X1946500Y162071D01*
X1917928Y147786D01*
X1889357Y147786D01*
X1860786Y162071D01*
X1846500Y176357D01*
X1832214Y204928D01*
X1817928Y262071D01*
X1817928Y333500D01*
X1832214Y390643D01*
X1846500Y419214D01*
X1860786Y433500D01*
X1889357Y447786D01*
X2117928Y147786D02*
X2117928Y347786D01*
X2117928Y319214D02*
X2132214Y333500D01*
X2160786Y347786D01*
X2203643Y347786D01*
X2232214Y333500D01*
X2246500Y304928D01*
X2246500Y147786D01*
X2246500Y304928D02*
X2260786Y333500D01*
X2289357Y347786D01*
X2332214Y347786D01*
X2360786Y333500D01*
X2375071Y304928D01*
X2375071Y147786D01*
X2517928Y147786D02*
X2517928Y347786D01*
X2517928Y319214D02*
X2532214Y333500D01*
X2560786Y347786D01*
X2603643Y347786D01*
X2632214Y333500D01*
X2646500Y304928D01*
X2646500Y147786D01*
X2646500Y304928D02*
X2660786Y333500D01*
X2689357Y347786D01*
X2732214Y347786D01*
X2760786Y333500D01*
X2775071Y304928D01*
X2775071Y147786D01*
X3360786Y462071D02*
X3103643Y76357D01*
X3746500Y447786D02*
X3775071Y447786D01*
X3803643Y433500D01*
X3817928Y419214D01*
X3832214Y390643D01*
X3846500Y333500D01*
X3846500Y262071D01*
X3832214Y204928D01*
X3817928Y176357D01*
X3803643Y162071D01*
X3775071Y147786D01*
X3746500Y147786D01*
X3717928Y162071D01*
X3703643Y176357D01*
X3689357Y204928D01*
X3675071Y262071D01*
X3675071Y333500D01*
X3689357Y390643D01*
X3703643Y419214D01*
X3717928Y433500D01*
X3746500Y447786D01*
X3975071Y176357D02*
X3989357Y162071D01*
X3975071Y147786D01*
X3960786Y162071D01*
X3975071Y176357D01*
X3975071Y147786D01*
X4175071Y447786D02*
X4203643Y447786D01*
X4232214Y433500D01*
X4246500Y419214D01*
X4260786Y390643D01*
X4275071Y333500D01*
X4275071Y262071D01*
X4260786Y204928D01*
X4246500Y176357D01*
X4232214Y162071D01*
X4203643Y147786D01*
X4175071Y147786D01*
X4146500Y162071D01*
X4132214Y176357D01*
X4117928Y204928D01*
X4103643Y262071D01*
X4103643Y333500D01*
X4117928Y390643D01*
X4132214Y419214D01*
X4146500Y433500D01*
X4175071Y447786D01*
X4560786Y147786D02*
X4389357Y147786D01*
X4475071Y147786D02*
X4475071Y447786D01*
X4446500Y404928D01*
X4417928Y376357D01*
X4389357Y362071D01*
X4817928Y447786D02*
X4760786Y447786D01*
X4732214Y433500D01*
X4717928Y419214D01*
X4689357Y376357D01*
X4675071Y319214D01*
X4675071Y204928D01*
X4689357Y176357D01*
X4703643Y162071D01*
X4732214Y147786D01*
X4789357Y147786D01*
X4817928Y162071D01*
X4832214Y176357D01*
X4846500Y204928D01*
X4846500Y276357D01*
X4832214Y304928D01*
X4817928Y319214D01*
X4789357Y333500D01*
X4732214Y333500D01*
X4703643Y319214D01*
X4689357Y304928D01*
X4675071Y276357D01*
X4960786Y447786D02*
X4960786Y390643D01*
X5075071Y447786D02*
X5075071Y390643D01*
X5517928Y33500D02*
X5503643Y47786D01*
X5475071Y90643D01*
X5460786Y119214D01*
X5446500Y162071D01*
X5432214Y233500D01*
X5432214Y290643D01*
X5446500Y362071D01*
X5460786Y404928D01*
X5475071Y433500D01*
X5503643Y476357D01*
X5517928Y490643D01*
X5760786Y447786D02*
X5703643Y447786D01*
X5675071Y433500D01*
X5660786Y419214D01*
X5632214Y376357D01*
X5617928Y319214D01*
X5617928Y204928D01*
X5632214Y176357D01*
X5646500Y162071D01*
X5675071Y147786D01*
X5732214Y147786D01*
X5760786Y162071D01*
X5775071Y176357D01*
X5789357Y204928D01*
X5789357Y276357D01*
X5775071Y304928D01*
X5760786Y319214D01*
X5732214Y333500D01*
X5675071Y333500D01*
X5646500Y319214D01*
X5632214Y304928D01*
X5617928Y276357D01*
X5960786Y319214D02*
X5932214Y333500D01*
X5917928Y347786D01*
X5903643Y376357D01*
X5903643Y390643D01*
X5917928Y419214D01*
X5932214Y433500D01*
X5960786Y447786D01*
X6017928Y447786D01*
X6046500Y433500D01*
X6060786Y419214D01*
X6075071Y390643D01*
X6075071Y376357D01*
X6060786Y347786D01*
X6046500Y333500D01*
X6017928Y319214D01*
X5960786Y319214D01*
X5932214Y304928D01*
X5917928Y290643D01*
X5903643Y262071D01*
X5903643Y204928D01*
X5917928Y176357D01*
X5932214Y162071D01*
X5960786Y147786D01*
X6017928Y147786D01*
X6046500Y162071D01*
X6060786Y176357D01*
X6075071Y204928D01*
X6075071Y262071D01*
X6060786Y290643D01*
X6046500Y304928D01*
X6017928Y319214D01*
X6432214Y147786D02*
X6432214Y447786D01*
X6560786Y147786D02*
X6560786Y304928D01*
X6546500Y333500D01*
X6517928Y347786D01*
X6475071Y347786D01*
X6446500Y333500D01*
X6432214Y319214D01*
X6746500Y147786D02*
X6717928Y162071D01*
X6703643Y176357D01*
X6689357Y204928D01*
X6689357Y290643D01*
X6703643Y319214D01*
X6717928Y333500D01*
X6746500Y347786D01*
X6789357Y347786D01*
X6817928Y333500D01*
X6832214Y319214D01*
X6846500Y290643D01*
X6846500Y204928D01*
X6832214Y176357D01*
X6817928Y162071D01*
X6789357Y147786D01*
X6746500Y147786D01*
X7017928Y147786D02*
X6989357Y162071D01*
X6975071Y190643D01*
X6975071Y447786D01*
X7246500Y162071D02*
X7217928Y147786D01*
X7160786Y147786D01*
X7132214Y162071D01*
X7117928Y190643D01*
X7117928Y304928D01*
X7132214Y333500D01*
X7160786Y347786D01*
X7217928Y347786D01*
X7246500Y333500D01*
X7260786Y304928D01*
X7260786Y276357D01*
X7117928Y247786D01*
X7375071Y162071D02*
X7403643Y147786D01*
X7460786Y147786D01*
X7489357Y162071D01*
X7503643Y190643D01*
X7503643Y204928D01*
X7489357Y233500D01*
X7460786Y247786D01*
X7417928Y247786D01*
X7389357Y262071D01*
X7375071Y290643D01*
X7375071Y304928D01*
X7389357Y333500D01*
X7417928Y347786D01*
X7460786Y347786D01*
X7489357Y333500D01*
X7603643Y33500D02*
X7617928Y47786D01*
X7646500Y90643D01*
X7660786Y119214D01*
X7675071Y162071D01*
X7689357Y233500D01*
X7689357Y290643D01*
X7675071Y362071D01*
X7660786Y404928D01*
X7646500Y433500D01*
X7617928Y476357D01*
X7603643Y490643D01*
X831500Y-112500D02*
G75*
G03X831500Y-112500I-32500J0D01*
G01*
X1175071Y51786D02*
X1203643Y51786D01*
X1232214Y37500D01*
X1246500Y23214D01*
X1260786Y-5357D01*
X1275071Y-62500D01*
X1275071Y-133929D01*
X1260786Y-191071D01*
X1246500Y-219643D01*
X1232214Y-233929D01*
X1203643Y-248214D01*
X1175071Y-248214D01*
X1146500Y-233929D01*
X1132214Y-219643D01*
X1117928Y-191071D01*
X1103643Y-133929D01*
X1103643Y-62500D01*
X1117928Y-5357D01*
X1132214Y23214D01*
X1146500Y37500D01*
X1175071Y51786D01*
X1403643Y-219643D02*
X1417928Y-233929D01*
X1403643Y-248214D01*
X1389357Y-233929D01*
X1403643Y-219643D01*
X1403643Y-248214D01*
X1675071Y51786D02*
X1617928Y51786D01*
X1589357Y37500D01*
X1575071Y23214D01*
X1546500Y-19643D01*
X1532214Y-76786D01*
X1532214Y-191071D01*
X1546500Y-219643D01*
X1560786Y-233929D01*
X1589357Y-248214D01*
X1646500Y-248214D01*
X1675071Y-233929D01*
X1689357Y-219643D01*
X1703643Y-191071D01*
X1703643Y-119643D01*
X1689357Y-91071D01*
X1675071Y-76786D01*
X1646500Y-62500D01*
X1589357Y-62500D01*
X1560786Y-76786D01*
X1546500Y-91071D01*
X1532214Y-119643D01*
X1975071Y51786D02*
X1832214Y51786D01*
X1817928Y-91071D01*
X1832214Y-76786D01*
X1860786Y-62500D01*
X1932214Y-62500D01*
X1960786Y-76786D01*
X1975071Y-91071D01*
X1989357Y-119643D01*
X1989357Y-191071D01*
X1975071Y-219643D01*
X1960786Y-233929D01*
X1932214Y-248214D01*
X1860786Y-248214D01*
X1832214Y-233929D01*
X1817928Y-219643D01*
X2117928Y-248214D02*
X2117928Y-48214D01*
X2117928Y-76786D02*
X2132214Y-62500D01*
X2160786Y-48214D01*
X2203643Y-48214D01*
X2232214Y-62500D01*
X2246500Y-91071D01*
X2246500Y-248214D01*
X2246500Y-91071D02*
X2260786Y-62500D01*
X2289357Y-48214D01*
X2332214Y-48214D01*
X2360786Y-62500D01*
X2375071Y-91071D01*
X2375071Y-248214D01*
X2517928Y-248214D02*
X2517928Y-48214D01*
X2517928Y-76786D02*
X2532214Y-62500D01*
X2560786Y-48214D01*
X2603643Y-48214D01*
X2632214Y-62500D01*
X2646500Y-91071D01*
X2646500Y-248214D01*
X2646500Y-91071D02*
X2660786Y-62500D01*
X2689357Y-48214D01*
X2732214Y-48214D01*
X2760786Y-62500D01*
X2775071Y-91071D01*
X2775071Y-248214D01*
X3360786Y66071D02*
X3103643Y-319643D01*
X3746500Y51786D02*
X3775071Y51786D01*
X3803643Y37500D01*
X3817928Y23214D01*
X3832214Y-5357D01*
X3846500Y-62500D01*
X3846500Y-133929D01*
X3832214Y-191071D01*
X3817928Y-219643D01*
X3803643Y-233929D01*
X3775071Y-248214D01*
X3746500Y-248214D01*
X3717928Y-233929D01*
X3703643Y-219643D01*
X3689357Y-191071D01*
X3675071Y-133929D01*
X3675071Y-62500D01*
X3689357Y-5357D01*
X3703643Y23214D01*
X3717928Y37500D01*
X3746500Y51786D01*
X3975071Y-219643D02*
X3989357Y-233929D01*
X3975071Y-248214D01*
X3960786Y-233929D01*
X3975071Y-219643D01*
X3975071Y-248214D01*
X4175071Y51786D02*
X4203643Y51786D01*
X4232214Y37500D01*
X4246500Y23214D01*
X4260786Y-5357D01*
X4275071Y-62500D01*
X4275071Y-133929D01*
X4260786Y-191071D01*
X4246500Y-219643D01*
X4232214Y-233929D01*
X4203643Y-248214D01*
X4175071Y-248214D01*
X4146500Y-233929D01*
X4132214Y-219643D01*
X4117928Y-191071D01*
X4103643Y-133929D01*
X4103643Y-62500D01*
X4117928Y-5357D01*
X4132214Y23214D01*
X4146500Y37500D01*
X4175071Y51786D01*
X4389357Y23214D02*
X4403643Y37500D01*
X4432214Y51786D01*
X4503643Y51786D01*
X4532214Y37500D01*
X4546500Y23214D01*
X4560786Y-5357D01*
X4560786Y-33929D01*
X4546500Y-76786D01*
X4375071Y-248214D01*
X4560786Y-248214D01*
X4817928Y51786D02*
X4760786Y51786D01*
X4732214Y37500D01*
X4717928Y23214D01*
X4689357Y-19643D01*
X4675071Y-76786D01*
X4675071Y-191071D01*
X4689357Y-219643D01*
X4703643Y-233929D01*
X4732214Y-248214D01*
X4789357Y-248214D01*
X4817928Y-233929D01*
X4832214Y-219643D01*
X4846500Y-191071D01*
X4846500Y-119643D01*
X4832214Y-91071D01*
X4817928Y-76786D01*
X4789357Y-62500D01*
X4732214Y-62500D01*
X4703643Y-76786D01*
X4689357Y-91071D01*
X4675071Y-119643D01*
X4960786Y51786D02*
X4960786Y-5357D01*
X5075071Y51786D02*
X5075071Y-5357D01*
X5517928Y-362500D02*
X5503643Y-348214D01*
X5475071Y-305357D01*
X5460786Y-276786D01*
X5446500Y-233929D01*
X5432214Y-162500D01*
X5432214Y-105357D01*
X5446500Y-33929D01*
X5460786Y8928D01*
X5475071Y37500D01*
X5503643Y80357D01*
X5517928Y94643D01*
X5689357Y51786D02*
X5717928Y51786D01*
X5746500Y37500D01*
X5760786Y23214D01*
X5775071Y-5357D01*
X5789357Y-62500D01*
X5789357Y-133929D01*
X5775071Y-191071D01*
X5760786Y-219643D01*
X5746500Y-233929D01*
X5717928Y-248214D01*
X5689357Y-248214D01*
X5660786Y-233929D01*
X5646500Y-219643D01*
X5632214Y-191071D01*
X5617928Y-133929D01*
X5617928Y-62500D01*
X5632214Y-5357D01*
X5646500Y23214D01*
X5660786Y37500D01*
X5689357Y51786D01*
X6146500Y-248214D02*
X6146500Y51786D01*
X6275071Y-248214D02*
X6275071Y-91071D01*
X6260786Y-62500D01*
X6232214Y-48214D01*
X6189357Y-48214D01*
X6160786Y-62500D01*
X6146500Y-76786D01*
X6460786Y-248214D02*
X6432214Y-233929D01*
X6417928Y-219643D01*
X6403643Y-191071D01*
X6403643Y-105357D01*
X6417928Y-76786D01*
X6432214Y-62500D01*
X6460786Y-48214D01*
X6503643Y-48214D01*
X6532214Y-62500D01*
X6546500Y-76786D01*
X6560786Y-105357D01*
X6560786Y-191071D01*
X6546500Y-219643D01*
X6532214Y-233929D01*
X6503643Y-248214D01*
X6460786Y-248214D01*
X6732214Y-248214D02*
X6703643Y-233929D01*
X6689357Y-205357D01*
X6689357Y51786D01*
X6960786Y-233929D02*
X6932214Y-248214D01*
X6875071Y-248214D01*
X6846500Y-233929D01*
X6832214Y-205357D01*
X6832214Y-91071D01*
X6846500Y-62500D01*
X6875071Y-48214D01*
X6932214Y-48214D01*
X6960786Y-62500D01*
X6975071Y-91071D01*
X6975071Y-119643D01*
X6832214Y-148214D01*
X7089357Y-233929D02*
X7117928Y-248214D01*
X7175071Y-248214D01*
X7203643Y-233929D01*
X7217928Y-205357D01*
X7217928Y-191071D01*
X7203643Y-162500D01*
X7175071Y-148214D01*
X7132214Y-148214D01*
X7103643Y-133929D01*
X7089357Y-105357D01*
X7089357Y-91071D01*
X7103643Y-62500D01*
X7132214Y-48214D01*
X7175071Y-48214D01*
X7203643Y-62500D01*
X7575071Y-133929D02*
X7803643Y-133929D01*
X7689357Y-248214D02*
X7689357Y-19643D01*
X8160786Y23214D02*
X8175071Y37500D01*
X8203643Y51786D01*
X8275071Y51786D01*
X8303643Y37500D01*
X8317928Y23214D01*
X8332214Y-5357D01*
X8332214Y-33929D01*
X8317928Y-76786D01*
X8146500Y-248214D01*
X8332214Y-248214D01*
X8675071Y-233929D02*
X8703643Y-248214D01*
X8760786Y-248214D01*
X8789357Y-233929D01*
X8803643Y-205357D01*
X8803643Y-191071D01*
X8789357Y-162500D01*
X8760786Y-148214D01*
X8717928Y-148214D01*
X8689357Y-133929D01*
X8675071Y-105357D01*
X8675071Y-91071D01*
X8689357Y-62500D01*
X8717928Y-48214D01*
X8760786Y-48214D01*
X8789357Y-62500D01*
X8975071Y-248214D02*
X8946500Y-233929D01*
X8932214Y-205357D01*
X8932214Y51786D01*
X9132214Y-248214D02*
X9103643Y-233929D01*
X9089357Y-219643D01*
X9075071Y-191071D01*
X9075071Y-105357D01*
X9089357Y-76786D01*
X9103643Y-62500D01*
X9132214Y-48214D01*
X9175071Y-48214D01*
X9203643Y-62500D01*
X9217928Y-76786D01*
X9232214Y-105357D01*
X9232214Y-191071D01*
X9217928Y-219643D01*
X9203643Y-233929D01*
X9175071Y-248214D01*
X9132214Y-248214D01*
X9317928Y-48214D02*
X9432214Y-48214D01*
X9360786Y51786D02*
X9360786Y-205357D01*
X9375071Y-233929D01*
X9403643Y-248214D01*
X9432214Y-248214D01*
X9517928Y-233929D02*
X9546500Y-248214D01*
X9603643Y-248214D01*
X9632214Y-233929D01*
X9646500Y-205357D01*
X9646500Y-191071D01*
X9632214Y-162500D01*
X9603643Y-148214D01*
X9560786Y-148214D01*
X9532214Y-133929D01*
X9517928Y-105357D01*
X9517928Y-91071D01*
X9532214Y-62500D01*
X9560786Y-48214D01*
X9603643Y-48214D01*
X9632214Y-62500D01*
X9746500Y-362500D02*
X9760786Y-348214D01*
X9789357Y-305357D01*
X9803643Y-276786D01*
X9817928Y-233929D01*
X9832214Y-162500D01*
X9832214Y-105357D01*
X9817928Y-33929D01*
X9803643Y8928D01*
X9789357Y37500D01*
X9760786Y80357D01*
X9746500Y94643D01*
X796500Y-473500D02*
X796500Y-543500D01*
X761500Y-508500D02*
X831500Y-508500D01*
X1175071Y-344214D02*
X1203643Y-344214D01*
X1232214Y-358500D01*
X1246500Y-372786D01*
X1260786Y-401357D01*
X1275071Y-458500D01*
X1275071Y-529929D01*
X1260786Y-587072D01*
X1246500Y-615643D01*
X1232214Y-629929D01*
X1203643Y-644214D01*
X1175071Y-644214D01*
X1146500Y-629929D01*
X1132214Y-615643D01*
X1117928Y-587072D01*
X1103643Y-529929D01*
X1103643Y-458500D01*
X1117928Y-401357D01*
X1132214Y-372786D01*
X1146500Y-358500D01*
X1175071Y-344214D01*
X1403643Y-615643D02*
X1417928Y-629929D01*
X1403643Y-644214D01*
X1389357Y-629929D01*
X1403643Y-615643D01*
X1403643Y-644214D01*
X1517928Y-344214D02*
X1717928Y-344214D01*
X1589357Y-644214D01*
X1889357Y-344214D02*
X1917928Y-344214D01*
X1946500Y-358500D01*
X1960786Y-372786D01*
X1975071Y-401357D01*
X1989357Y-458500D01*
X1989357Y-529929D01*
X1975071Y-587072D01*
X1960786Y-615643D01*
X1946500Y-629929D01*
X1917928Y-644214D01*
X1889357Y-644214D01*
X1860786Y-629929D01*
X1846500Y-615643D01*
X1832214Y-587072D01*
X1817928Y-529929D01*
X1817928Y-458500D01*
X1832214Y-401357D01*
X1846500Y-372786D01*
X1860786Y-358500D01*
X1889357Y-344214D01*
X2117928Y-644214D02*
X2117928Y-444214D01*
X2117928Y-472786D02*
X2132214Y-458500D01*
X2160786Y-444214D01*
X2203643Y-444214D01*
X2232214Y-458500D01*
X2246500Y-487071D01*
X2246500Y-644214D01*
X2246500Y-487071D02*
X2260786Y-458500D01*
X2289357Y-444214D01*
X2332214Y-444214D01*
X2360786Y-458500D01*
X2375071Y-487071D01*
X2375071Y-644214D01*
X2517928Y-644214D02*
X2517928Y-444214D01*
X2517928Y-472786D02*
X2532214Y-458500D01*
X2560786Y-444214D01*
X2603643Y-444214D01*
X2632214Y-458500D01*
X2646500Y-487071D01*
X2646500Y-644214D01*
X2646500Y-487071D02*
X2660786Y-458500D01*
X2689357Y-444214D01*
X2732214Y-444214D01*
X2760786Y-458500D01*
X2775071Y-487071D01*
X2775071Y-644214D01*
X3360786Y-329929D02*
X3103643Y-715643D01*
X3746500Y-344214D02*
X3775071Y-344214D01*
X3803643Y-358500D01*
X3817928Y-372786D01*
X3832214Y-401357D01*
X3846500Y-458500D01*
X3846500Y-529929D01*
X3832214Y-587072D01*
X3817928Y-615643D01*
X3803643Y-629929D01*
X3775071Y-644214D01*
X3746500Y-644214D01*
X3717928Y-629929D01*
X3703643Y-615643D01*
X3689357Y-587072D01*
X3675071Y-529929D01*
X3675071Y-458500D01*
X3689357Y-401357D01*
X3703643Y-372786D01*
X3717928Y-358500D01*
X3746500Y-344214D01*
X3975071Y-615643D02*
X3989357Y-629929D01*
X3975071Y-644214D01*
X3960786Y-629929D01*
X3975071Y-615643D01*
X3975071Y-644214D01*
X4175071Y-344214D02*
X4203643Y-344214D01*
X4232214Y-358500D01*
X4246500Y-372786D01*
X4260786Y-401357D01*
X4275071Y-458500D01*
X4275071Y-529929D01*
X4260786Y-587072D01*
X4246500Y-615643D01*
X4232214Y-629929D01*
X4203643Y-644214D01*
X4175071Y-644214D01*
X4146500Y-629929D01*
X4132214Y-615643D01*
X4117928Y-587072D01*
X4103643Y-529929D01*
X4103643Y-458500D01*
X4117928Y-401357D01*
X4132214Y-372786D01*
X4146500Y-358500D01*
X4175071Y-344214D01*
X4389357Y-372786D02*
X4403643Y-358500D01*
X4432214Y-344214D01*
X4503643Y-344214D01*
X4532214Y-358500D01*
X4546500Y-372786D01*
X4560786Y-401357D01*
X4560786Y-429929D01*
X4546500Y-472786D01*
X4375071Y-644214D01*
X4560786Y-644214D01*
X4732214Y-472786D02*
X4703643Y-458500D01*
X4689357Y-444214D01*
X4675071Y-415643D01*
X4675071Y-401357D01*
X4689357Y-372786D01*
X4703643Y-358500D01*
X4732214Y-344214D01*
X4789357Y-344214D01*
X4817928Y-358500D01*
X4832214Y-372786D01*
X4846500Y-401357D01*
X4846500Y-415643D01*
X4832214Y-444214D01*
X4817928Y-458500D01*
X4789357Y-472786D01*
X4732214Y-472786D01*
X4703643Y-487071D01*
X4689357Y-501357D01*
X4675071Y-529929D01*
X4675071Y-587072D01*
X4689357Y-615643D01*
X4703643Y-629929D01*
X4732214Y-644214D01*
X4789357Y-644214D01*
X4817928Y-629929D01*
X4832214Y-615643D01*
X4846500Y-587072D01*
X4846500Y-529929D01*
X4832214Y-501357D01*
X4817928Y-487071D01*
X4789357Y-472786D01*
X4960786Y-344214D02*
X4960786Y-401357D01*
X5075071Y-344214D02*
X5075071Y-401357D01*
X5517928Y-758500D02*
X5503643Y-744214D01*
X5475071Y-701357D01*
X5460786Y-672786D01*
X5446500Y-629929D01*
X5432214Y-558500D01*
X5432214Y-501357D01*
X5446500Y-429929D01*
X5460786Y-387071D01*
X5475071Y-358500D01*
X5503643Y-315643D01*
X5517928Y-301357D01*
X5689357Y-344214D02*
X5717928Y-344214D01*
X5746500Y-358500D01*
X5760786Y-372786D01*
X5775071Y-401357D01*
X5789357Y-458500D01*
X5789357Y-529929D01*
X5775071Y-587072D01*
X5760786Y-615643D01*
X5746500Y-629929D01*
X5717928Y-644214D01*
X5689357Y-644214D01*
X5660786Y-629929D01*
X5646500Y-615643D01*
X5632214Y-587072D01*
X5617928Y-529929D01*
X5617928Y-458500D01*
X5632214Y-401357D01*
X5646500Y-372786D01*
X5660786Y-358500D01*
X5689357Y-344214D01*
X6146500Y-644214D02*
X6146500Y-344214D01*
X6275071Y-644214D02*
X6275071Y-487071D01*
X6260786Y-458500D01*
X6232214Y-444214D01*
X6189357Y-444214D01*
X6160786Y-458500D01*
X6146500Y-472786D01*
X6460786Y-644214D02*
X6432214Y-629929D01*
X6417928Y-615643D01*
X6403643Y-587072D01*
X6403643Y-501357D01*
X6417928Y-472786D01*
X6432214Y-458500D01*
X6460786Y-444214D01*
X6503643Y-444214D01*
X6532214Y-458500D01*
X6546500Y-472786D01*
X6560786Y-501357D01*
X6560786Y-587072D01*
X6546500Y-615643D01*
X6532214Y-629929D01*
X6503643Y-644214D01*
X6460786Y-644214D01*
X6732214Y-644214D02*
X6703643Y-629929D01*
X6689357Y-601357D01*
X6689357Y-344214D01*
X6960786Y-629929D02*
X6932214Y-644214D01*
X6875071Y-644214D01*
X6846500Y-629929D01*
X6832214Y-601357D01*
X6832214Y-487071D01*
X6846500Y-458500D01*
X6875071Y-444214D01*
X6932214Y-444214D01*
X6960786Y-458500D01*
X6975071Y-487071D01*
X6975071Y-515643D01*
X6832214Y-544214D01*
X7089357Y-629929D02*
X7117928Y-644214D01*
X7175071Y-644214D01*
X7203643Y-629929D01*
X7217928Y-601357D01*
X7217928Y-587072D01*
X7203643Y-558500D01*
X7175071Y-544214D01*
X7132214Y-544214D01*
X7103643Y-529929D01*
X7089357Y-501357D01*
X7089357Y-487071D01*
X7103643Y-458500D01*
X7132214Y-444214D01*
X7175071Y-444214D01*
X7203643Y-458500D01*
X7575071Y-529929D02*
X7803643Y-529929D01*
X7689357Y-644214D02*
X7689357Y-415643D01*
X8160786Y-372786D02*
X8175071Y-358500D01*
X8203643Y-344214D01*
X8275071Y-344214D01*
X8303643Y-358500D01*
X8317928Y-372786D01*
X8332214Y-401357D01*
X8332214Y-429929D01*
X8317928Y-472786D01*
X8146500Y-644214D01*
X8332214Y-644214D01*
X8675071Y-629929D02*
X8703643Y-644214D01*
X8760786Y-644214D01*
X8789357Y-629929D01*
X8803643Y-601357D01*
X8803643Y-587072D01*
X8789357Y-558500D01*
X8760786Y-544214D01*
X8717928Y-544214D01*
X8689357Y-529929D01*
X8675071Y-501357D01*
X8675071Y-487071D01*
X8689357Y-458500D01*
X8717928Y-444214D01*
X8760786Y-444214D01*
X8789357Y-458500D01*
X8975071Y-644214D02*
X8946500Y-629929D01*
X8932214Y-601357D01*
X8932214Y-344214D01*
X9132214Y-644214D02*
X9103643Y-629929D01*
X9089357Y-615643D01*
X9075071Y-587072D01*
X9075071Y-501357D01*
X9089357Y-472786D01*
X9103643Y-458500D01*
X9132214Y-444214D01*
X9175071Y-444214D01*
X9203643Y-458500D01*
X9217928Y-472786D01*
X9232214Y-501357D01*
X9232214Y-587072D01*
X9217928Y-615643D01*
X9203643Y-629929D01*
X9175071Y-644214D01*
X9132214Y-644214D01*
X9317928Y-444214D02*
X9432214Y-444214D01*
X9360786Y-344214D02*
X9360786Y-601357D01*
X9375071Y-629929D01*
X9403643Y-644214D01*
X9432214Y-644214D01*
X9517928Y-629929D02*
X9546500Y-644214D01*
X9603643Y-644214D01*
X9632214Y-629929D01*
X9646500Y-601357D01*
X9646500Y-587072D01*
X9632214Y-558500D01*
X9603643Y-544214D01*
X9560786Y-544214D01*
X9532214Y-529929D01*
X9517928Y-501357D01*
X9517928Y-487071D01*
X9532214Y-458500D01*
X9560786Y-444214D01*
X9603643Y-444214D01*
X9632214Y-458500D01*
X9746500Y-758500D02*
X9760786Y-744214D01*
X9789357Y-701357D01*
X9803643Y-672786D01*
X9817928Y-629929D01*
X9832214Y-558500D01*
X9832214Y-501357D01*
X9817928Y-429929D01*
X9803643Y-387071D01*
X9789357Y-358500D01*
X9760786Y-315643D01*
X9746500Y-301357D01*
X815391Y-943391D02*
X815391Y-865609D01*
X737609Y-865609D01*
X737609Y-943391D01*
X815391Y-943391D01*
X1275071Y-1040214D02*
X1103643Y-1040214D01*
X1189357Y-1040214D02*
X1189357Y-740214D01*
X1160786Y-783071D01*
X1132214Y-811643D01*
X1103643Y-825929D01*
X1403643Y-1011643D02*
X1417928Y-1025929D01*
X1403643Y-1040214D01*
X1389357Y-1025929D01*
X1403643Y-1011643D01*
X1403643Y-1040214D01*
X1703643Y-1040214D02*
X1532214Y-1040214D01*
X1617928Y-1040214D02*
X1617928Y-740214D01*
X1589357Y-783071D01*
X1560786Y-811643D01*
X1532214Y-825929D01*
X1889357Y-740214D02*
X1917928Y-740214D01*
X1946500Y-754500D01*
X1960786Y-768786D01*
X1975071Y-797357D01*
X1989357Y-854500D01*
X1989357Y-925929D01*
X1975071Y-983071D01*
X1960786Y-1011643D01*
X1946500Y-1025929D01*
X1917928Y-1040214D01*
X1889357Y-1040214D01*
X1860786Y-1025929D01*
X1846500Y-1011643D01*
X1832214Y-983071D01*
X1817928Y-925929D01*
X1817928Y-854500D01*
X1832214Y-797357D01*
X1846500Y-768786D01*
X1860786Y-754500D01*
X1889357Y-740214D01*
X2117928Y-1040214D02*
X2117928Y-840214D01*
X2117928Y-868786D02*
X2132214Y-854500D01*
X2160786Y-840214D01*
X2203643Y-840214D01*
X2232214Y-854500D01*
X2246500Y-883071D01*
X2246500Y-1040214D01*
X2246500Y-883071D02*
X2260786Y-854500D01*
X2289357Y-840214D01*
X2332214Y-840214D01*
X2360786Y-854500D01*
X2375071Y-883071D01*
X2375071Y-1040214D01*
X2517928Y-1040214D02*
X2517928Y-840214D01*
X2517928Y-868786D02*
X2532214Y-854500D01*
X2560786Y-840214D01*
X2603643Y-840214D01*
X2632214Y-854500D01*
X2646500Y-883071D01*
X2646500Y-1040214D01*
X2646500Y-883071D02*
X2660786Y-854500D01*
X2689357Y-840214D01*
X2732214Y-840214D01*
X2760786Y-854500D01*
X2775071Y-883071D01*
X2775071Y-1040214D01*
X3360786Y-725929D02*
X3103643Y-1111643D01*
X3746500Y-740214D02*
X3775071Y-740214D01*
X3803643Y-754500D01*
X3817928Y-768786D01*
X3832214Y-797357D01*
X3846500Y-854500D01*
X3846500Y-925929D01*
X3832214Y-983071D01*
X3817928Y-1011643D01*
X3803643Y-1025929D01*
X3775071Y-1040214D01*
X3746500Y-1040214D01*
X3717928Y-1025929D01*
X3703643Y-1011643D01*
X3689357Y-983071D01*
X3675071Y-925929D01*
X3675071Y-854500D01*
X3689357Y-797357D01*
X3703643Y-768786D01*
X3717928Y-754500D01*
X3746500Y-740214D01*
X3975071Y-1011643D02*
X3989357Y-1025929D01*
X3975071Y-1040214D01*
X3960786Y-1025929D01*
X3975071Y-1011643D01*
X3975071Y-1040214D01*
X4175071Y-740214D02*
X4203643Y-740214D01*
X4232214Y-754500D01*
X4246500Y-768786D01*
X4260786Y-797357D01*
X4275071Y-854500D01*
X4275071Y-925929D01*
X4260786Y-983071D01*
X4246500Y-1011643D01*
X4232214Y-1025929D01*
X4203643Y-1040214D01*
X4175071Y-1040214D01*
X4146500Y-1025929D01*
X4132214Y-1011643D01*
X4117928Y-983071D01*
X4103643Y-925929D01*
X4103643Y-854500D01*
X4117928Y-797357D01*
X4132214Y-768786D01*
X4146500Y-754500D01*
X4175071Y-740214D01*
X4532214Y-840214D02*
X4532214Y-1040214D01*
X4460786Y-725929D02*
X4389357Y-940214D01*
X4575071Y-940214D01*
X4660786Y-740214D02*
X4846500Y-740214D01*
X4746500Y-854500D01*
X4789357Y-854500D01*
X4817928Y-868786D01*
X4832214Y-883071D01*
X4846500Y-911643D01*
X4846500Y-983071D01*
X4832214Y-1011643D01*
X4817928Y-1025929D01*
X4789357Y-1040214D01*
X4703643Y-1040214D01*
X4675071Y-1025929D01*
X4660786Y-1011643D01*
X4960786Y-740214D02*
X4960786Y-797357D01*
X5075071Y-740214D02*
X5075071Y-797357D01*
X5517928Y-1154500D02*
X5503643Y-1140214D01*
X5475071Y-1097357D01*
X5460786Y-1068786D01*
X5446500Y-1025929D01*
X5432214Y-954500D01*
X5432214Y-897357D01*
X5446500Y-825929D01*
X5460786Y-783071D01*
X5475071Y-754500D01*
X5503643Y-711643D01*
X5517928Y-697357D01*
X5760786Y-840214D02*
X5760786Y-1040214D01*
X5689357Y-725929D02*
X5617928Y-940214D01*
X5803643Y-940214D01*
X6146500Y-1040214D02*
X6146500Y-740214D01*
X6275071Y-1040214D02*
X6275071Y-883071D01*
X6260786Y-854500D01*
X6232214Y-840214D01*
X6189357Y-840214D01*
X6160786Y-854500D01*
X6146500Y-868786D01*
X6460786Y-1040214D02*
X6432214Y-1025929D01*
X6417928Y-1011643D01*
X6403643Y-983071D01*
X6403643Y-897357D01*
X6417928Y-868786D01*
X6432214Y-854500D01*
X6460786Y-840214D01*
X6503643Y-840214D01*
X6532214Y-854500D01*
X6546500Y-868786D01*
X6560786Y-897357D01*
X6560786Y-983071D01*
X6546500Y-1011643D01*
X6532214Y-1025929D01*
X6503643Y-1040214D01*
X6460786Y-1040214D01*
X6732214Y-1040214D02*
X6703643Y-1025929D01*
X6689357Y-997357D01*
X6689357Y-740214D01*
X6960786Y-1025929D02*
X6932214Y-1040214D01*
X6875071Y-1040214D01*
X6846500Y-1025929D01*
X6832214Y-997357D01*
X6832214Y-883071D01*
X6846500Y-854500D01*
X6875071Y-840214D01*
X6932214Y-840214D01*
X6960786Y-854500D01*
X6975071Y-883071D01*
X6975071Y-911643D01*
X6832214Y-940214D01*
X7089357Y-1025929D02*
X7117928Y-1040214D01*
X7175071Y-1040214D01*
X7203643Y-1025929D01*
X7217928Y-997357D01*
X7217928Y-983071D01*
X7203643Y-954500D01*
X7175071Y-940214D01*
X7132214Y-940214D01*
X7103643Y-925929D01*
X7089357Y-897357D01*
X7089357Y-883071D01*
X7103643Y-854500D01*
X7132214Y-840214D01*
X7175071Y-840214D01*
X7203643Y-854500D01*
X7317928Y-1154500D02*
X7332214Y-1140214D01*
X7360786Y-1097357D01*
X7375071Y-1068786D01*
X7389357Y-1025929D01*
X7403643Y-954500D01*
X7403643Y-897357D01*
X7389357Y-825929D01*
X7375071Y-783071D01*
X7360786Y-754500D01*
X7332214Y-711643D01*
X7317928Y-697357D01*
X756500Y-1375500D02*
X831500Y-1300500D01*
X756500Y-1225500D01*
X681500Y-1300500D01*
X756500Y-1375500D01*
X1275071Y-1436214D02*
X1103643Y-1436214D01*
X1189357Y-1436214D02*
X1189357Y-1136214D01*
X1160786Y-1179072D01*
X1132214Y-1207643D01*
X1103643Y-1221929D01*
X1403643Y-1407643D02*
X1417928Y-1421929D01*
X1403643Y-1436214D01*
X1389357Y-1421929D01*
X1403643Y-1407643D01*
X1403643Y-1436214D01*
X1689357Y-1136214D02*
X1546500Y-1136214D01*
X1532214Y-1279072D01*
X1546500Y-1264786D01*
X1575071Y-1250500D01*
X1646500Y-1250500D01*
X1675071Y-1264786D01*
X1689357Y-1279072D01*
X1703643Y-1307643D01*
X1703643Y-1379072D01*
X1689357Y-1407643D01*
X1675071Y-1421929D01*
X1646500Y-1436214D01*
X1575071Y-1436214D01*
X1546500Y-1421929D01*
X1532214Y-1407643D01*
X1889357Y-1136214D02*
X1917928Y-1136214D01*
X1946500Y-1150500D01*
X1960786Y-1164786D01*
X1975071Y-1193357D01*
X1989357Y-1250500D01*
X1989357Y-1321929D01*
X1975071Y-1379072D01*
X1960786Y-1407643D01*
X1946500Y-1421929D01*
X1917928Y-1436214D01*
X1889357Y-1436214D01*
X1860786Y-1421929D01*
X1846500Y-1407643D01*
X1832214Y-1379072D01*
X1817928Y-1321929D01*
X1817928Y-1250500D01*
X1832214Y-1193357D01*
X1846500Y-1164786D01*
X1860786Y-1150500D01*
X1889357Y-1136214D01*
X2117928Y-1436214D02*
X2117928Y-1236214D01*
X2117928Y-1264786D02*
X2132214Y-1250500D01*
X2160786Y-1236214D01*
X2203643Y-1236214D01*
X2232214Y-1250500D01*
X2246500Y-1279072D01*
X2246500Y-1436214D01*
X2246500Y-1279072D02*
X2260786Y-1250500D01*
X2289357Y-1236214D01*
X2332214Y-1236214D01*
X2360786Y-1250500D01*
X2375071Y-1279072D01*
X2375071Y-1436214D01*
X2517928Y-1436214D02*
X2517928Y-1236214D01*
X2517928Y-1264786D02*
X2532214Y-1250500D01*
X2560786Y-1236214D01*
X2603643Y-1236214D01*
X2632214Y-1250500D01*
X2646500Y-1279072D01*
X2646500Y-1436214D01*
X2646500Y-1279072D02*
X2660786Y-1250500D01*
X2689357Y-1236214D01*
X2732214Y-1236214D01*
X2760786Y-1250500D01*
X2775071Y-1279072D01*
X2775071Y-1436214D01*
X3360786Y-1121929D02*
X3103643Y-1507643D01*
X3746500Y-1136214D02*
X3775071Y-1136214D01*
X3803643Y-1150500D01*
X3817928Y-1164786D01*
X3832214Y-1193357D01*
X3846500Y-1250500D01*
X3846500Y-1321929D01*
X3832214Y-1379072D01*
X3817928Y-1407643D01*
X3803643Y-1421929D01*
X3775071Y-1436214D01*
X3746500Y-1436214D01*
X3717928Y-1421929D01*
X3703643Y-1407643D01*
X3689357Y-1379072D01*
X3675071Y-1321929D01*
X3675071Y-1250500D01*
X3689357Y-1193357D01*
X3703643Y-1164786D01*
X3717928Y-1150500D01*
X3746500Y-1136214D01*
X3975071Y-1407643D02*
X3989357Y-1421929D01*
X3975071Y-1436214D01*
X3960786Y-1421929D01*
X3975071Y-1407643D01*
X3975071Y-1436214D01*
X4175071Y-1136214D02*
X4203643Y-1136214D01*
X4232214Y-1150500D01*
X4246500Y-1164786D01*
X4260786Y-1193357D01*
X4275071Y-1250500D01*
X4275071Y-1321929D01*
X4260786Y-1379072D01*
X4246500Y-1407643D01*
X4232214Y-1421929D01*
X4203643Y-1436214D01*
X4175071Y-1436214D01*
X4146500Y-1421929D01*
X4132214Y-1407643D01*
X4117928Y-1379072D01*
X4103643Y-1321929D01*
X4103643Y-1250500D01*
X4117928Y-1193357D01*
X4132214Y-1164786D01*
X4146500Y-1150500D01*
X4175071Y-1136214D01*
X4546500Y-1136214D02*
X4403643Y-1136214D01*
X4389357Y-1279072D01*
X4403643Y-1264786D01*
X4432214Y-1250500D01*
X4503643Y-1250500D01*
X4532214Y-1264786D01*
X4546500Y-1279072D01*
X4560786Y-1307643D01*
X4560786Y-1379072D01*
X4546500Y-1407643D01*
X4532214Y-1421929D01*
X4503643Y-1436214D01*
X4432214Y-1436214D01*
X4403643Y-1421929D01*
X4389357Y-1407643D01*
X4703643Y-1436214D02*
X4760786Y-1436214D01*
X4789357Y-1421929D01*
X4803643Y-1407643D01*
X4832214Y-1364786D01*
X4846500Y-1307643D01*
X4846500Y-1193357D01*
X4832214Y-1164786D01*
X4817928Y-1150500D01*
X4789357Y-1136214D01*
X4732214Y-1136214D01*
X4703643Y-1150500D01*
X4689357Y-1164786D01*
X4675071Y-1193357D01*
X4675071Y-1264786D01*
X4689357Y-1293357D01*
X4703643Y-1307643D01*
X4732214Y-1321929D01*
X4789357Y-1321929D01*
X4817928Y-1307643D01*
X4832214Y-1293357D01*
X4846500Y-1264786D01*
X4960786Y-1136214D02*
X4960786Y-1193357D01*
X5075071Y-1136214D02*
X5075071Y-1193357D01*
X5517928Y-1550500D02*
X5503643Y-1536214D01*
X5475071Y-1493357D01*
X5460786Y-1464786D01*
X5446500Y-1421929D01*
X5432214Y-1350500D01*
X5432214Y-1293357D01*
X5446500Y-1221929D01*
X5460786Y-1179072D01*
X5475071Y-1150500D01*
X5503643Y-1107643D01*
X5517928Y-1093357D01*
X5789357Y-1436214D02*
X5617928Y-1436214D01*
X5703643Y-1436214D02*
X5703643Y-1136214D01*
X5675071Y-1179072D01*
X5646500Y-1207643D01*
X5617928Y-1221929D01*
X6046500Y-1136214D02*
X5989357Y-1136214D01*
X5960786Y-1150500D01*
X5946500Y-1164786D01*
X5917928Y-1207643D01*
X5903643Y-1264786D01*
X5903643Y-1379072D01*
X5917928Y-1407643D01*
X5932214Y-1421929D01*
X5960786Y-1436214D01*
X6017928Y-1436214D01*
X6046500Y-1421929D01*
X6060786Y-1407643D01*
X6075071Y-1379072D01*
X6075071Y-1307643D01*
X6060786Y-1279072D01*
X6046500Y-1264786D01*
X6017928Y-1250500D01*
X5960786Y-1250500D01*
X5932214Y-1264786D01*
X5917928Y-1279072D01*
X5903643Y-1307643D01*
X6332214Y-1236214D02*
X6332214Y-1436214D01*
X6260786Y-1121929D02*
X6189357Y-1336214D01*
X6375071Y-1336214D01*
X6717928Y-1436214D02*
X6717928Y-1136214D01*
X6846500Y-1436214D02*
X6846500Y-1279072D01*
X6832214Y-1250500D01*
X6803643Y-1236214D01*
X6760786Y-1236214D01*
X6732214Y-1250500D01*
X6717928Y-1264786D01*
X7032214Y-1436214D02*
X7003643Y-1421929D01*
X6989357Y-1407643D01*
X6975071Y-1379072D01*
X6975071Y-1293357D01*
X6989357Y-1264786D01*
X7003643Y-1250500D01*
X7032214Y-1236214D01*
X7075071Y-1236214D01*
X7103643Y-1250500D01*
X7117928Y-1264786D01*
X7132214Y-1293357D01*
X7132214Y-1379072D01*
X7117928Y-1407643D01*
X7103643Y-1421929D01*
X7075071Y-1436214D01*
X7032214Y-1436214D01*
X7303643Y-1436214D02*
X7275071Y-1421929D01*
X7260786Y-1393357D01*
X7260786Y-1136214D01*
X7532214Y-1421929D02*
X7503643Y-1436214D01*
X7446500Y-1436214D01*
X7417928Y-1421929D01*
X7403643Y-1393357D01*
X7403643Y-1279072D01*
X7417928Y-1250500D01*
X7446500Y-1236214D01*
X7503643Y-1236214D01*
X7532214Y-1250500D01*
X7546500Y-1279072D01*
X7546500Y-1307643D01*
X7403643Y-1336214D01*
X7660786Y-1421929D02*
X7689357Y-1436214D01*
X7746500Y-1436214D01*
X7775071Y-1421929D01*
X7789357Y-1393357D01*
X7789357Y-1379072D01*
X7775071Y-1350500D01*
X7746500Y-1336214D01*
X7703643Y-1336214D01*
X7675071Y-1321929D01*
X7660786Y-1293357D01*
X7660786Y-1279072D01*
X7675071Y-1250500D01*
X7703643Y-1236214D01*
X7746500Y-1236214D01*
X7775071Y-1250500D01*
X7889357Y-1550500D02*
X7903643Y-1536214D01*
X7932214Y-1493357D01*
X7946500Y-1464786D01*
X7960786Y-1421929D01*
X7975071Y-1350500D01*
X7975071Y-1293357D01*
X7960786Y-1221929D01*
X7946500Y-1179072D01*
X7932214Y-1150500D01*
X7903643Y-1107643D01*
X7889357Y-1093357D01*
X431500Y-1496500D02*
X831500Y-1896500D01*
X831500Y-1496500D02*
X431500Y-1896500D01*
X831500Y-1696500D02*
G75*
G03X831500Y-1696500I-200000J0D01*
G01*
X1246500Y-1632214D02*
X1246500Y-1832214D01*
X1175071Y-1517929D02*
X1103643Y-1732214D01*
X1289357Y-1732214D01*
X1403643Y-1803643D02*
X1417928Y-1817929D01*
X1403643Y-1832214D01*
X1389357Y-1817929D01*
X1403643Y-1803643D01*
X1403643Y-1832214D01*
X1603643Y-1532214D02*
X1632214Y-1532214D01*
X1660786Y-1546500D01*
X1675071Y-1560786D01*
X1689357Y-1589357D01*
X1703643Y-1646500D01*
X1703643Y-1717929D01*
X1689357Y-1775071D01*
X1675071Y-1803643D01*
X1660786Y-1817929D01*
X1632214Y-1832214D01*
X1603643Y-1832214D01*
X1575071Y-1817929D01*
X1560786Y-1803643D01*
X1546500Y-1775071D01*
X1532214Y-1717929D01*
X1532214Y-1646500D01*
X1546500Y-1589357D01*
X1560786Y-1560786D01*
X1575071Y-1546500D01*
X1603643Y-1532214D01*
X1889357Y-1532214D02*
X1917928Y-1532214D01*
X1946500Y-1546500D01*
X1960786Y-1560786D01*
X1975071Y-1589357D01*
X1989357Y-1646500D01*
X1989357Y-1717929D01*
X1975071Y-1775071D01*
X1960786Y-1803643D01*
X1946500Y-1817929D01*
X1917928Y-1832214D01*
X1889357Y-1832214D01*
X1860786Y-1817929D01*
X1846500Y-1803643D01*
X1832214Y-1775071D01*
X1817928Y-1717929D01*
X1817928Y-1646500D01*
X1832214Y-1589357D01*
X1846500Y-1560786D01*
X1860786Y-1546500D01*
X1889357Y-1532214D01*
X2117928Y-1832214D02*
X2117928Y-1632214D01*
X2117928Y-1660786D02*
X2132214Y-1646500D01*
X2160786Y-1632214D01*
X2203643Y-1632214D01*
X2232214Y-1646500D01*
X2246500Y-1675071D01*
X2246500Y-1832214D01*
X2246500Y-1675071D02*
X2260786Y-1646500D01*
X2289357Y-1632214D01*
X2332214Y-1632214D01*
X2360786Y-1646500D01*
X2375071Y-1675071D01*
X2375071Y-1832214D01*
X2517928Y-1832214D02*
X2517928Y-1632214D01*
X2517928Y-1660786D02*
X2532214Y-1646500D01*
X2560786Y-1632214D01*
X2603643Y-1632214D01*
X2632214Y-1646500D01*
X2646500Y-1675071D01*
X2646500Y-1832214D01*
X2646500Y-1675071D02*
X2660786Y-1646500D01*
X2689357Y-1632214D01*
X2732214Y-1632214D01*
X2760786Y-1646500D01*
X2775071Y-1675071D01*
X2775071Y-1832214D01*
X3360786Y-1517929D02*
X3103643Y-1903643D01*
X3746500Y-1532214D02*
X3775071Y-1532214D01*
X3803643Y-1546500D01*
X3817928Y-1560786D01*
X3832214Y-1589357D01*
X3846500Y-1646500D01*
X3846500Y-1717929D01*
X3832214Y-1775071D01*
X3817928Y-1803643D01*
X3803643Y-1817929D01*
X3775071Y-1832214D01*
X3746500Y-1832214D01*
X3717928Y-1817929D01*
X3703643Y-1803643D01*
X3689357Y-1775071D01*
X3675071Y-1717929D01*
X3675071Y-1646500D01*
X3689357Y-1589357D01*
X3703643Y-1560786D01*
X3717928Y-1546500D01*
X3746500Y-1532214D01*
X3975071Y-1803643D02*
X3989357Y-1817929D01*
X3975071Y-1832214D01*
X3960786Y-1817929D01*
X3975071Y-1803643D01*
X3975071Y-1832214D01*
X4275071Y-1832214D02*
X4103643Y-1832214D01*
X4189357Y-1832214D02*
X4189357Y-1532214D01*
X4160786Y-1575071D01*
X4132214Y-1603643D01*
X4103643Y-1617929D01*
X4546500Y-1532214D02*
X4403643Y-1532214D01*
X4389357Y-1675071D01*
X4403643Y-1660786D01*
X4432214Y-1646500D01*
X4503643Y-1646500D01*
X4532214Y-1660786D01*
X4546500Y-1675071D01*
X4560786Y-1703643D01*
X4560786Y-1775071D01*
X4546500Y-1803643D01*
X4532214Y-1817929D01*
X4503643Y-1832214D01*
X4432214Y-1832214D01*
X4403643Y-1817929D01*
X4389357Y-1803643D01*
X4660786Y-1532214D02*
X4860786Y-1532214D01*
X4732214Y-1832214D01*
X4960786Y-1532214D02*
X4960786Y-1589357D01*
X5075071Y-1532214D02*
X5075071Y-1589357D01*
X5517928Y-1946500D02*
X5503643Y-1932214D01*
X5475071Y-1889357D01*
X5460786Y-1860786D01*
X5446500Y-1817929D01*
X5432214Y-1746500D01*
X5432214Y-1689357D01*
X5446500Y-1617929D01*
X5460786Y-1575071D01*
X5475071Y-1546500D01*
X5503643Y-1503643D01*
X5517928Y-1489357D01*
X5675071Y-1660786D02*
X5646500Y-1646500D01*
X5632214Y-1632214D01*
X5617928Y-1603643D01*
X5617928Y-1589357D01*
X5632214Y-1560786D01*
X5646500Y-1546500D01*
X5675071Y-1532214D01*
X5732214Y-1532214D01*
X5760786Y-1546500D01*
X5775071Y-1560786D01*
X5789357Y-1589357D01*
X5789357Y-1603643D01*
X5775071Y-1632214D01*
X5760786Y-1646500D01*
X5732214Y-1660786D01*
X5675071Y-1660786D01*
X5646500Y-1675071D01*
X5632214Y-1689357D01*
X5617928Y-1717929D01*
X5617928Y-1775071D01*
X5632214Y-1803643D01*
X5646500Y-1817929D01*
X5675071Y-1832214D01*
X5732214Y-1832214D01*
X5760786Y-1817929D01*
X5775071Y-1803643D01*
X5789357Y-1775071D01*
X5789357Y-1717929D01*
X5775071Y-1689357D01*
X5760786Y-1675071D01*
X5732214Y-1660786D01*
X5903643Y-1560786D02*
X5917928Y-1546500D01*
X5946500Y-1532214D01*
X6017928Y-1532214D01*
X6046500Y-1546500D01*
X6060786Y-1560786D01*
X6075071Y-1589357D01*
X6075071Y-1617929D01*
X6060786Y-1660786D01*
X5889357Y-1832214D01*
X6075071Y-1832214D01*
X6432214Y-1832214D02*
X6432214Y-1532214D01*
X6560786Y-1832214D02*
X6560786Y-1675071D01*
X6546500Y-1646500D01*
X6517928Y-1632214D01*
X6475071Y-1632214D01*
X6446500Y-1646500D01*
X6432214Y-1660786D01*
X6746500Y-1832214D02*
X6717928Y-1817929D01*
X6703643Y-1803643D01*
X6689357Y-1775071D01*
X6689357Y-1689357D01*
X6703643Y-1660786D01*
X6717928Y-1646500D01*
X6746500Y-1632214D01*
X6789357Y-1632214D01*
X6817928Y-1646500D01*
X6832214Y-1660786D01*
X6846500Y-1689357D01*
X6846500Y-1775071D01*
X6832214Y-1803643D01*
X6817928Y-1817929D01*
X6789357Y-1832214D01*
X6746500Y-1832214D01*
X7017928Y-1832214D02*
X6989357Y-1817929D01*
X6975071Y-1789357D01*
X6975071Y-1532214D01*
X7246500Y-1817929D02*
X7217928Y-1832214D01*
X7160786Y-1832214D01*
X7132214Y-1817929D01*
X7117928Y-1789357D01*
X7117928Y-1675071D01*
X7132214Y-1646500D01*
X7160786Y-1632214D01*
X7217928Y-1632214D01*
X7246500Y-1646500D01*
X7260786Y-1675071D01*
X7260786Y-1703643D01*
X7117928Y-1732214D01*
X7375071Y-1817929D02*
X7403643Y-1832214D01*
X7460786Y-1832214D01*
X7489357Y-1817929D01*
X7503643Y-1789357D01*
X7503643Y-1775071D01*
X7489357Y-1746500D01*
X7460786Y-1732214D01*
X7417928Y-1732214D01*
X7389357Y-1717929D01*
X7375071Y-1689357D01*
X7375071Y-1675071D01*
X7389357Y-1646500D01*
X7417928Y-1632214D01*
X7460786Y-1632214D01*
X7489357Y-1646500D01*
X7603643Y-1946500D02*
X7617928Y-1932214D01*
X7646500Y-1889357D01*
X7660786Y-1860786D01*
X7675071Y-1817929D01*
X7689357Y-1746500D01*
X7689357Y-1689357D01*
X7675071Y-1617929D01*
X7660786Y-1575071D01*
X7646500Y-1546500D01*
X7617928Y-1503643D01*
X7603643Y-1489357D01*
X8146500Y-1946500D02*
X8132214Y-1932214D01*
X8103643Y-1889357D01*
X8089357Y-1860786D01*
X8075071Y-1817929D01*
X8060786Y-1746500D01*
X8060786Y-1689357D01*
X8075071Y-1617929D01*
X8089357Y-1575071D01*
X8103643Y-1546500D01*
X8132214Y-1503643D01*
X8146500Y-1489357D01*
X8260786Y-1632214D02*
X8260786Y-1832214D01*
X8260786Y-1660786D02*
X8275071Y-1646500D01*
X8303643Y-1632214D01*
X8346500Y-1632214D01*
X8375071Y-1646500D01*
X8389357Y-1675071D01*
X8389357Y-1832214D01*
X8575071Y-1832214D02*
X8546500Y-1817929D01*
X8532214Y-1803643D01*
X8517928Y-1775071D01*
X8517928Y-1689357D01*
X8532214Y-1660786D01*
X8546500Y-1646500D01*
X8575071Y-1632214D01*
X8617928Y-1632214D01*
X8646500Y-1646500D01*
X8660786Y-1660786D01*
X8675071Y-1689357D01*
X8675071Y-1775071D01*
X8660786Y-1803643D01*
X8646500Y-1817929D01*
X8617928Y-1832214D01*
X8575071Y-1832214D01*
X8760786Y-1632214D02*
X8875071Y-1632214D01*
X8803643Y-1532214D02*
X8803643Y-1789357D01*
X8817928Y-1817929D01*
X8846500Y-1832214D01*
X8875071Y-1832214D01*
X9203643Y-1632214D02*
X9203643Y-1932214D01*
X9203643Y-1646500D02*
X9232214Y-1632214D01*
X9289357Y-1632214D01*
X9317928Y-1646500D01*
X9332214Y-1660786D01*
X9346500Y-1689357D01*
X9346500Y-1775071D01*
X9332214Y-1803643D01*
X9317928Y-1817929D01*
X9289357Y-1832214D01*
X9232214Y-1832214D01*
X9203643Y-1817929D01*
X9517928Y-1832214D02*
X9489357Y-1817929D01*
X9475071Y-1789357D01*
X9475071Y-1532214D01*
X9760786Y-1832214D02*
X9760786Y-1675071D01*
X9746500Y-1646500D01*
X9717928Y-1632214D01*
X9660786Y-1632214D01*
X9632214Y-1646500D01*
X9760786Y-1817929D02*
X9732214Y-1832214D01*
X9660786Y-1832214D01*
X9632214Y-1817929D01*
X9617928Y-1789357D01*
X9617928Y-1760786D01*
X9632214Y-1732214D01*
X9660786Y-1717929D01*
X9732214Y-1717929D01*
X9760786Y-1703643D01*
X9860786Y-1632214D02*
X9975071Y-1632214D01*
X9903643Y-1532214D02*
X9903643Y-1789357D01*
X9917928Y-1817929D01*
X9946500Y-1832214D01*
X9975071Y-1832214D01*
X10189357Y-1817929D02*
X10160786Y-1832214D01*
X10103643Y-1832214D01*
X10075071Y-1817929D01*
X10060786Y-1789357D01*
X10060786Y-1675071D01*
X10075071Y-1646500D01*
X10103643Y-1632214D01*
X10160786Y-1632214D01*
X10189357Y-1646500D01*
X10203643Y-1675071D01*
X10203643Y-1703643D01*
X10060786Y-1732214D01*
X10460786Y-1832214D02*
X10460786Y-1532214D01*
X10460786Y-1817929D02*
X10432214Y-1832214D01*
X10375071Y-1832214D01*
X10346500Y-1817929D01*
X10332214Y-1803643D01*
X10317928Y-1775071D01*
X10317928Y-1689357D01*
X10332214Y-1660786D01*
X10346500Y-1646500D01*
X10375071Y-1632214D01*
X10432214Y-1632214D01*
X10460786Y-1646500D01*
X10575071Y-1946500D02*
X10589357Y-1932214D01*
X10617928Y-1889357D01*
X10632214Y-1860786D01*
X10646500Y-1817929D01*
X10660786Y-1746500D01*
X10660786Y-1689357D01*
X10646500Y-1617929D01*
X10632214Y-1575071D01*
X10617928Y-1546500D01*
X10589357Y-1503643D01*
X10575071Y-1489357D01*
M02*
