M48
;DRILL file {KiCad 5.0.1} date Wed 20 Mar 2019 17:56:16 CET
;FORMAT={-:-/ absolute / metric / decimal}
FMAT,2
METRIC,TZ
T1C0.400
T2C0.650
T3C0.700
T4C1.100
T5C1.500
T6C4.000
%
G90
G05
M71
T1
X28.16Y20.01
X32.07Y23.6
X51.96Y23.16
X68.96Y46.13
X88.05Y47.06
X107.2Y47.91
X126.01Y48.77
X138.71Y17.08
X141.36Y90.17
X142.26Y109.65
X145.16Y49.65
X150.14Y20.2
X151.42Y71.44
X151.69Y14.03
X151.97Y16.19
X155.38Y52.41
X158.9Y18.06
X158.98Y15.54
X159.73Y30.18
X159.75Y27.48
X160.47Y21.73
X162.54Y26.18
X163.5Y27.08
X163.94Y18.64
X164.66Y27.99
X165.42Y18.83
X165.89Y29.01
X167.27Y29.78
X167.58Y19.01
X169.13Y15.13
X170.59Y34.89
X172.8Y37.19
X174.04Y26.26
X174.37Y33.49
X174.57Y18.
X175.71Y25.08
X176.2Y22.38
X176.69Y37.5
X177.41Y33.62
X179.29Y22.57
X179.54Y18.15
X180.02Y26.42
X181.23Y23.03
X182.3Y27.29
X183.Y24.23
X187.09Y34.89
X187.52Y81.27
X188.87Y15.25
X190.79Y32.93
X190.92Y17.76
X192.69Y102.84
X193.34Y29.93
X195.27Y86.68
X197.28Y68.53
X198.23Y113.23
X198.99Y106.87
X201.17Y106.78
X201.69Y47.93
X206.06Y34.07
X206.18Y27.94
X206.21Y21.06
X207.53Y17.7
X208.08Y21.43
X208.09Y24.35
X228.92Y22.65
X251.56Y22.73
X272.28Y23.4
X290.75Y22.49
T4
X124.94Y23.27
X124.94Y16.77
X129.44Y23.27
X129.44Y16.77
T5
X37.93Y22.23
X44.28Y24.77
X197.49Y60.36
X203.84Y62.9
X116.5Y79.36
X122.85Y81.9
X126.04Y117.5
X132.39Y120.04
X278.43Y41.29
X284.78Y43.83
X211.75Y22.25
X218.1Y24.79
X18.88Y60.35
X25.23Y62.89
X78.39Y117.49
X84.74Y120.03
X40.31Y79.41
X46.66Y81.95
X68.87Y98.43
X75.22Y100.97
X259.37Y22.25
X265.72Y24.79
X68.88Y41.28
X75.23Y43.82
X249.84Y117.5
X256.19Y120.04
X173.67Y79.38
X180.02Y81.92
X14.13Y22.24
X20.48Y24.78
X211.75Y117.49
X218.1Y120.03
X183.17Y117.46
X189.52Y120.
X59.37Y79.4
X65.72Y81.94
X145.08Y98.44
X151.43Y100.98
X49.83Y98.43
X56.18Y100.97
X137.95Y22.25
X144.3Y24.79
X211.75Y79.4
X218.1Y81.94
X178.43Y60.34
X184.78Y62.88
X126.03Y98.45
X132.38Y100.99
X83.18Y60.32
X89.53Y62.86
X249.86Y79.39
X256.21Y81.93
X21.26Y41.3
X27.61Y43.84
X87.92Y98.44
X94.27Y100.98
X145.09Y41.3
X151.44Y43.84
X11.73Y98.45
X18.08Y100.99
X45.08Y60.36
X51.43Y62.9
X221.29Y41.27
X227.64Y43.81
X278.45Y22.22
X284.8Y24.76
X164.15Y98.45
X170.5Y100.99
X230.8Y117.5
X237.15Y120.04
X11.74Y117.48
X18.09Y120.02
X49.85Y41.29
X56.2Y43.83
X183.19Y98.44
X189.54Y100.98
X240.33Y98.46
X246.68Y101.
X297.47Y22.25
X303.82Y24.79
X102.23Y60.33
X108.58Y62.87
X221.28Y98.43
X227.63Y100.97
X59.35Y117.48
X65.7Y120.02
X64.11Y22.24
X70.46Y24.78
X268.91Y98.44
X275.26Y100.98
X268.91Y117.48
X275.26Y120.02
X297.48Y41.31
X303.83Y43.85
X235.57Y60.33
X241.92Y62.87
X107.Y41.28
X113.35Y43.82
X159.37Y60.35
X165.72Y62.89
X230.81Y79.4
X237.16Y81.94
X40.32Y117.48
X46.67Y120.02
X202.24Y98.44
X208.59Y100.98
X237.95Y22.24
X244.3Y24.78
X30.77Y98.42
X37.12Y100.96
X135.54Y79.39
X141.89Y81.93
X183.19Y41.29
X189.54Y43.83
X126.04Y41.29
X132.39Y43.83
X202.23Y41.28
X208.58Y43.82
X64.12Y60.35
X70.47Y62.89
X106.98Y98.45
X113.33Y100.99
X240.34Y41.27
X246.69Y43.81
X78.41Y79.37
X84.76Y81.91
X216.52Y60.32
X222.87Y62.86
X154.61Y79.39
X160.96Y81.93
X297.46Y60.32
X303.81Y62.86
X87.93Y41.29
X94.28Y43.83
X266.54Y60.32
X272.89Y62.86
X164.1Y117.46
X170.45Y120.
X164.13Y41.29
X170.48Y43.83
X145.07Y117.48
X151.42Y120.02
X97.45Y79.39
X103.8Y81.93
X16.5Y79.39
X22.85Y81.93
X140.3Y60.36
X146.65Y62.9
X297.49Y79.38
X303.84Y81.92
X97.45Y117.49
X103.8Y120.03
X297.49Y117.52
X303.84Y120.06
X192.7Y79.41
X199.05Y81.95
X121.29Y60.34
X127.64Y62.88
X259.39Y41.29
X265.74Y43.83
X273.68Y79.41
X280.03Y81.95
X297.48Y98.43
X303.83Y100.97
T6
X144.11Y57.82
X301.3Y76.84
X101.26Y114.95
X301.3Y114.98
X196.51Y76.87
X125.1Y57.8
X263.2Y38.75
X277.49Y76.87
X301.29Y95.89
X41.74Y19.69
X201.3Y57.82
X120.31Y76.82
X129.85Y114.96
X282.24Y38.75
X215.56Y19.71
X22.69Y57.81
X82.2Y114.95
X44.12Y76.87
X72.68Y95.89
X263.18Y19.71
X72.69Y38.74
X253.65Y114.96
X177.48Y76.84
X17.94Y19.7
X215.56Y114.95
X186.98Y114.92
X63.18Y76.86
X148.89Y95.9
X53.64Y95.89
X141.76Y19.71
X215.56Y76.86
X182.24Y57.8
X129.84Y95.91
X86.99Y57.78
X253.67Y76.85
X25.07Y38.76
X91.73Y95.9
X148.9Y38.76
X15.54Y95.91
X48.89Y57.82
X225.1Y38.73
X282.26Y19.68
X167.96Y95.91
X234.61Y114.96
X15.55Y114.94
X53.66Y38.75
X187.Y95.9
X244.14Y95.92
X301.28Y19.71
X106.04Y57.79
X225.09Y95.89
X63.16Y114.94
X67.92Y19.7
X272.72Y95.9
X272.72Y114.94
X301.29Y38.77
X239.38Y57.79
X110.81Y38.74
X163.18Y57.81
X234.62Y76.86
X44.13Y114.94
X206.05Y95.9
X241.76Y19.7
X34.58Y95.88
X139.35Y76.85
X187.Y38.75
X129.85Y38.75
X206.04Y38.74
X67.93Y57.81
X110.79Y95.91
X244.15Y38.73
X82.22Y76.83
X220.33Y57.78
X158.42Y76.85
X301.27Y57.78
X91.74Y38.75
X270.35Y57.78
X167.91Y114.92
X167.94Y38.75
X148.88Y114.94
X101.26Y76.85
X20.31Y76.85
T2
X198.55Y116.72G85X198.55Y116.32
G05
X203.39Y116.72G85X203.39Y116.32
G05
T3
X198.24Y119.77G85X198.24Y119.27
G05
X203.7Y119.77G85X203.7Y119.27
G05
T0
M30
