G04 #@! TF.GenerationSoftware,KiCad,Pcbnew,(5.1.9)-1*
G04 #@! TF.CreationDate,2022-05-27T18:47:02+02:00*
G04 #@! TF.ProjectId,sofaboard,736f6661-626f-4617-9264-2e6b69636164,rev?*
G04 #@! TF.SameCoordinates,Original*
G04 #@! TF.FileFunction,Legend,Bot*
G04 #@! TF.FilePolarity,Positive*
%FSLAX46Y46*%
G04 Gerber Fmt 4.6, Leading zero omitted, Abs format (unit mm)*
G04 Created by KiCad (PCBNEW (5.1.9)-1) date 2022-05-27 18:47:02*
%MOMM*%
%LPD*%
G01*
G04 APERTURE LIST*
%ADD10C,0.120000*%
%ADD11C,0.150000*%
G04 APERTURE END LIST*
D10*
X202725000Y109192936D02*
X202725000Y109647064D01*
X201255000Y109192936D02*
X201255000Y109647064D01*
X200715000Y109177936D02*
X200715000Y109632064D01*
X199245000Y109177936D02*
X199245000Y109632064D01*
X162255564Y27532000D02*
X161801436Y27532000D01*
X162255564Y26062000D02*
X161801436Y26062000D01*
X196188000Y109016436D02*
X196188000Y109470564D01*
X194718000Y109016436D02*
X194718000Y109470564D01*
X205205000Y109223436D02*
X205205000Y109677564D01*
X203735000Y109223436D02*
X203735000Y109677564D01*
X300440000Y12780000D02*
X300440000Y13710000D01*
X300440000Y15940000D02*
X300440000Y15010000D01*
X300440000Y15940000D02*
X302600000Y15940000D01*
X300440000Y12780000D02*
X301900000Y12780000D01*
X281480000Y12790000D02*
X281480000Y13720000D01*
X281480000Y15950000D02*
X281480000Y15020000D01*
X281480000Y15950000D02*
X283640000Y15950000D01*
X281480000Y12790000D02*
X282940000Y12790000D01*
X262430000Y12800000D02*
X262430000Y13730000D01*
X262430000Y15960000D02*
X262430000Y15030000D01*
X262430000Y15960000D02*
X264590000Y15960000D01*
X262430000Y12800000D02*
X263890000Y12800000D01*
X240840000Y12820000D02*
X240840000Y13750000D01*
X240840000Y15980000D02*
X240840000Y15050000D01*
X240840000Y15980000D02*
X243000000Y15980000D01*
X240840000Y12820000D02*
X242300000Y12820000D01*
X214830000Y12840000D02*
X214830000Y13770000D01*
X214830000Y16000000D02*
X214830000Y15070000D01*
X214830000Y16000000D02*
X216990000Y16000000D01*
X214830000Y12840000D02*
X216290000Y12840000D01*
X141210000Y12710000D02*
X141210000Y13640000D01*
X141210000Y15870000D02*
X141210000Y14940000D01*
X141210000Y15870000D02*
X143370000Y15870000D01*
X141210000Y12710000D02*
X142670000Y12710000D01*
X67030000Y12760000D02*
X67030000Y13690000D01*
X67030000Y15920000D02*
X67030000Y14990000D01*
X67030000Y15920000D02*
X69190000Y15920000D01*
X67030000Y12760000D02*
X68490000Y12760000D01*
X40780000Y12710000D02*
X40780000Y13640000D01*
X40780000Y15870000D02*
X40780000Y14940000D01*
X40780000Y15870000D02*
X42940000Y15870000D01*
X40780000Y12710000D02*
X42240000Y12710000D01*
X17230000Y12780000D02*
X17230000Y13710000D01*
X17230000Y15940000D02*
X17230000Y15010000D01*
X17230000Y15940000D02*
X19390000Y15940000D01*
X17230000Y12780000D02*
X18690000Y12780000D01*
X300650000Y31880000D02*
X300650000Y32810000D01*
X300650000Y35040000D02*
X300650000Y34110000D01*
X300650000Y35040000D02*
X302810000Y35040000D01*
X300650000Y31880000D02*
X302110000Y31880000D01*
X281570000Y31930000D02*
X281570000Y32860000D01*
X281570000Y35090000D02*
X281570000Y34160000D01*
X281570000Y35090000D02*
X283730000Y35090000D01*
X281570000Y31930000D02*
X283030000Y31930000D01*
X262490000Y31850000D02*
X262490000Y32780000D01*
X262490000Y35010000D02*
X262490000Y34080000D01*
X262490000Y35010000D02*
X264650000Y35010000D01*
X262490000Y31850000D02*
X263950000Y31850000D01*
X243430000Y31850000D02*
X243430000Y32780000D01*
X243430000Y35010000D02*
X243430000Y34080000D01*
X243430000Y35010000D02*
X245590000Y35010000D01*
X243430000Y31850000D02*
X244890000Y31850000D01*
X224440000Y31790000D02*
X224440000Y32720000D01*
X224440000Y34950000D02*
X224440000Y34020000D01*
X224440000Y34950000D02*
X226600000Y34950000D01*
X224440000Y31790000D02*
X225900000Y31790000D01*
X205310000Y31810000D02*
X205310000Y32740000D01*
X205310000Y34970000D02*
X205310000Y34040000D01*
X205310000Y34970000D02*
X207470000Y34970000D01*
X205310000Y31810000D02*
X206770000Y31810000D01*
X195740000Y37320000D02*
X195740000Y38250000D01*
X195740000Y40480000D02*
X195740000Y39550000D01*
X195740000Y40480000D02*
X197900000Y40480000D01*
X195740000Y37320000D02*
X197200000Y37320000D01*
X159260000Y38170000D02*
X159260000Y39100000D01*
X159260000Y41330000D02*
X159260000Y40400000D01*
X159260000Y41330000D02*
X161420000Y41330000D01*
X159260000Y38170000D02*
X160720000Y38170000D01*
X142090000Y31830000D02*
X142090000Y32760000D01*
X142090000Y34990000D02*
X142090000Y34060000D01*
X142090000Y34990000D02*
X144250000Y34990000D01*
X142090000Y31830000D02*
X143550000Y31830000D01*
X129260000Y31840000D02*
X129260000Y32770000D01*
X129260000Y35000000D02*
X129260000Y34070000D01*
X129260000Y35000000D02*
X131420000Y35000000D01*
X129260000Y31840000D02*
X130720000Y31840000D01*
X110060000Y32250000D02*
X110060000Y33180000D01*
X110060000Y35410000D02*
X110060000Y34480000D01*
X110060000Y35410000D02*
X112220000Y35410000D01*
X110060000Y32250000D02*
X111520000Y32250000D01*
X91030000Y31820000D02*
X91030000Y32750000D01*
X91030000Y34980000D02*
X91030000Y34050000D01*
X91030000Y34980000D02*
X93190000Y34980000D01*
X91030000Y31820000D02*
X92490000Y31820000D01*
X72060000Y31900000D02*
X72060000Y32830000D01*
X72060000Y35060000D02*
X72060000Y34130000D01*
X72060000Y35060000D02*
X74220000Y35060000D01*
X72060000Y31900000D02*
X73520000Y31900000D01*
X53000000Y31830000D02*
X53000000Y32760000D01*
X53000000Y34990000D02*
X53000000Y34060000D01*
X53000000Y34990000D02*
X55160000Y34990000D01*
X53000000Y31830000D02*
X54460000Y31830000D01*
X24220000Y31850000D02*
X24220000Y32780000D01*
X24220000Y35010000D02*
X24220000Y34080000D01*
X24220000Y35010000D02*
X26380000Y35010000D01*
X24220000Y31850000D02*
X25680000Y31850000D01*
X300500000Y50890000D02*
X300500000Y51820000D01*
X300500000Y54050000D02*
X300500000Y53120000D01*
X300500000Y54050000D02*
X302660000Y54050000D01*
X300500000Y50890000D02*
X301960000Y50890000D01*
X269550000Y50860000D02*
X269550000Y51790000D01*
X269550000Y54020000D02*
X269550000Y53090000D01*
X269550000Y54020000D02*
X271710000Y54020000D01*
X269550000Y50860000D02*
X271010000Y50860000D01*
X238590000Y50860000D02*
X238590000Y51790000D01*
X238590000Y54020000D02*
X238590000Y53090000D01*
X238590000Y54020000D02*
X240750000Y54020000D01*
X238590000Y50860000D02*
X240050000Y50860000D01*
X219640000Y50880000D02*
X219640000Y51810000D01*
X219640000Y54040000D02*
X219640000Y53110000D01*
X219640000Y54040000D02*
X221800000Y54040000D01*
X219640000Y50880000D02*
X221100000Y50880000D01*
X200560000Y50940000D02*
X200560000Y51870000D01*
X200560000Y54100000D02*
X200560000Y53170000D01*
X200560000Y54100000D02*
X202720000Y54100000D01*
X200560000Y50940000D02*
X202020000Y50940000D01*
X181300000Y50880000D02*
X181300000Y51810000D01*
X181300000Y54040000D02*
X181300000Y53110000D01*
X181300000Y54040000D02*
X183460000Y54040000D01*
X181300000Y50880000D02*
X182760000Y50880000D01*
X162310000Y50900000D02*
X162310000Y51830000D01*
X162310000Y54060000D02*
X162310000Y53130000D01*
X162310000Y54060000D02*
X164470000Y54060000D01*
X162310000Y50900000D02*
X163770000Y50900000D01*
X143410000Y50870000D02*
X143410000Y51800000D01*
X143410000Y54030000D02*
X143410000Y53100000D01*
X143410000Y54030000D02*
X145570000Y54030000D01*
X143410000Y50870000D02*
X144870000Y50870000D01*
X124360000Y50920000D02*
X124360000Y51850000D01*
X124360000Y54080000D02*
X124360000Y53150000D01*
X124360000Y54080000D02*
X126520000Y54080000D01*
X124360000Y50920000D02*
X125820000Y50920000D01*
X105220000Y50890000D02*
X105220000Y51820000D01*
X105220000Y54050000D02*
X105220000Y53120000D01*
X105220000Y54050000D02*
X107380000Y54050000D01*
X105220000Y50890000D02*
X106680000Y50890000D01*
X86230000Y50900000D02*
X86230000Y51830000D01*
X86230000Y54060000D02*
X86230000Y53130000D01*
X86230000Y54060000D02*
X88390000Y54060000D01*
X86230000Y50900000D02*
X87690000Y50900000D01*
X67020000Y50930000D02*
X67020000Y51860000D01*
X67020000Y54090000D02*
X67020000Y53160000D01*
X67020000Y54090000D02*
X69180000Y54090000D01*
X67020000Y50930000D02*
X68480000Y50930000D01*
X48230000Y50930000D02*
X48230000Y51860000D01*
X48230000Y54090000D02*
X48230000Y53160000D01*
X48230000Y54090000D02*
X50390000Y54090000D01*
X48230000Y50930000D02*
X49690000Y50930000D01*
X22000000Y50950000D02*
X22000000Y51880000D01*
X22000000Y54110000D02*
X22000000Y53180000D01*
X22000000Y54110000D02*
X24160000Y54110000D01*
X22000000Y50950000D02*
X23460000Y50950000D01*
X300560000Y69960000D02*
X300560000Y70890000D01*
X300560000Y73120000D02*
X300560000Y72190000D01*
X300560000Y73120000D02*
X302720000Y73120000D01*
X300560000Y69960000D02*
X302020000Y69960000D01*
X276500000Y70950000D02*
X276500000Y71880000D01*
X276500000Y74110000D02*
X276500000Y73180000D01*
X276500000Y74110000D02*
X278660000Y74110000D01*
X276500000Y70950000D02*
X277960000Y70950000D01*
X252870000Y69900000D02*
X252870000Y70830000D01*
X252870000Y73060000D02*
X252870000Y72130000D01*
X252870000Y73060000D02*
X255030000Y73060000D01*
X252870000Y69900000D02*
X254330000Y69900000D01*
X233830000Y69940000D02*
X233830000Y70870000D01*
X233830000Y73100000D02*
X233830000Y72170000D01*
X233830000Y73100000D02*
X235990000Y73100000D01*
X233830000Y69940000D02*
X235290000Y69940000D01*
X214980000Y69930000D02*
X214980000Y70860000D01*
X214980000Y73090000D02*
X214980000Y72160000D01*
X214980000Y73090000D02*
X217140000Y73090000D01*
X214980000Y69930000D02*
X216440000Y69930000D01*
X195780000Y69980000D02*
X195780000Y70910000D01*
X195780000Y73140000D02*
X195780000Y72210000D01*
X195780000Y73140000D02*
X197940000Y73140000D01*
X195780000Y69980000D02*
X197240000Y69980000D01*
X176640000Y69880000D02*
X176640000Y70810000D01*
X176640000Y73040000D02*
X176640000Y72110000D01*
X176640000Y73040000D02*
X178800000Y73040000D01*
X176640000Y69880000D02*
X178100000Y69880000D01*
X157640000Y69920000D02*
X157640000Y70850000D01*
X157640000Y73080000D02*
X157640000Y72150000D01*
X157640000Y73080000D02*
X159800000Y73080000D01*
X157640000Y69920000D02*
X159100000Y69920000D01*
X138750000Y69940000D02*
X138750000Y70870000D01*
X138750000Y73100000D02*
X138750000Y72170000D01*
X138750000Y73100000D02*
X140910000Y73100000D01*
X138750000Y69940000D02*
X140210000Y69940000D01*
X119780000Y69910000D02*
X119780000Y70840000D01*
X119780000Y73070000D02*
X119780000Y72140000D01*
X119780000Y73070000D02*
X121940000Y73070000D01*
X119780000Y69910000D02*
X121240000Y69910000D01*
X100320000Y69980000D02*
X100320000Y70910000D01*
X100320000Y73140000D02*
X100320000Y72210000D01*
X100320000Y73140000D02*
X102480000Y73140000D01*
X100320000Y69980000D02*
X101780000Y69980000D01*
X81430000Y69910000D02*
X81430000Y70840000D01*
X81430000Y73070000D02*
X81430000Y72140000D01*
X81430000Y73070000D02*
X83590000Y73070000D01*
X81430000Y69910000D02*
X82890000Y69910000D01*
X62420000Y69930000D02*
X62420000Y70860000D01*
X62420000Y73090000D02*
X62420000Y72160000D01*
X62420000Y73090000D02*
X64580000Y73090000D01*
X62420000Y69930000D02*
X63880000Y69930000D01*
X43310000Y69970000D02*
X43310000Y70900000D01*
X43310000Y73130000D02*
X43310000Y72200000D01*
X43310000Y73130000D02*
X45470000Y73130000D01*
X43310000Y69970000D02*
X44770000Y69970000D01*
X19500000Y69910000D02*
X19500000Y70840000D01*
X19500000Y73070000D02*
X19500000Y72140000D01*
X19500000Y73070000D02*
X21660000Y73070000D01*
X19500000Y69910000D02*
X20960000Y69910000D01*
X300500000Y89000000D02*
X300500000Y89930000D01*
X300500000Y92160000D02*
X300500000Y91230000D01*
X300500000Y92160000D02*
X302660000Y92160000D01*
X300500000Y89000000D02*
X301960000Y89000000D01*
X271930000Y89010000D02*
X271930000Y89940000D01*
X271930000Y92170000D02*
X271930000Y91240000D01*
X271930000Y92170000D02*
X274090000Y92170000D01*
X271930000Y89010000D02*
X273390000Y89010000D01*
X243430000Y89060000D02*
X243430000Y89990000D01*
X243430000Y92220000D02*
X243430000Y91290000D01*
X243430000Y92220000D02*
X245590000Y92220000D01*
X243430000Y89060000D02*
X244890000Y89060000D01*
X224310000Y89000000D02*
X224310000Y89930000D01*
X224310000Y92160000D02*
X224310000Y91230000D01*
X224310000Y92160000D02*
X226470000Y92160000D01*
X224310000Y89000000D02*
X225770000Y89000000D01*
X205220000Y88990000D02*
X205220000Y89920000D01*
X205220000Y92150000D02*
X205220000Y91220000D01*
X205220000Y92150000D02*
X207380000Y92150000D01*
X205220000Y88990000D02*
X206680000Y88990000D01*
X186100000Y89030000D02*
X186100000Y89960000D01*
X186100000Y92190000D02*
X186100000Y91260000D01*
X186100000Y92190000D02*
X188260000Y92190000D01*
X186100000Y89030000D02*
X187560000Y89030000D01*
X167060000Y88970000D02*
X167060000Y89900000D01*
X167060000Y92130000D02*
X167060000Y91200000D01*
X167060000Y92130000D02*
X169220000Y92130000D01*
X167060000Y88970000D02*
X168520000Y88970000D01*
X148110000Y89020000D02*
X148110000Y89950000D01*
X148110000Y92180000D02*
X148110000Y91250000D01*
X148110000Y92180000D02*
X150270000Y92180000D01*
X148110000Y89020000D02*
X149570000Y89020000D01*
X129030000Y89010000D02*
X129030000Y89940000D01*
X129030000Y92170000D02*
X129030000Y91240000D01*
X129030000Y92170000D02*
X131190000Y92170000D01*
X129030000Y89010000D02*
X130490000Y89010000D01*
X109950000Y89020000D02*
X109950000Y89950000D01*
X109950000Y92180000D02*
X109950000Y91250000D01*
X109950000Y92180000D02*
X112110000Y92180000D01*
X109950000Y89020000D02*
X111410000Y89020000D01*
X90840000Y89050000D02*
X90840000Y89980000D01*
X90840000Y92210000D02*
X90840000Y91280000D01*
X90840000Y92210000D02*
X93000000Y92210000D01*
X90840000Y89050000D02*
X92300000Y89050000D01*
X71930000Y89070000D02*
X71930000Y90000000D01*
X71930000Y92230000D02*
X71930000Y91300000D01*
X71930000Y92230000D02*
X74090000Y92230000D01*
X71930000Y89070000D02*
X73390000Y89070000D01*
X52850000Y88980000D02*
X52850000Y89910000D01*
X52850000Y92140000D02*
X52850000Y91210000D01*
X52850000Y92140000D02*
X55010000Y92140000D01*
X52850000Y88980000D02*
X54310000Y88980000D01*
X33810000Y89010000D02*
X33810000Y89940000D01*
X33810000Y92170000D02*
X33810000Y91240000D01*
X33810000Y92170000D02*
X35970000Y92170000D01*
X33810000Y89010000D02*
X35270000Y89010000D01*
X14740000Y89020000D02*
X14740000Y89950000D01*
X14740000Y92180000D02*
X14740000Y91250000D01*
X14740000Y92180000D02*
X16900000Y92180000D01*
X14740000Y89020000D02*
X16200000Y89020000D01*
X300680000Y108080000D02*
X300680000Y109010000D01*
X300680000Y111240000D02*
X300680000Y110310000D01*
X300680000Y111240000D02*
X302840000Y111240000D01*
X300680000Y108080000D02*
X302140000Y108080000D01*
X271920000Y108020000D02*
X271920000Y108950000D01*
X271920000Y111180000D02*
X271920000Y110250000D01*
X271920000Y111180000D02*
X274080000Y111180000D01*
X271920000Y108020000D02*
X273380000Y108020000D01*
X252920000Y108070000D02*
X252920000Y109000000D01*
X252920000Y111230000D02*
X252920000Y110300000D01*
X252920000Y111230000D02*
X255080000Y111230000D01*
X252920000Y108070000D02*
X254380000Y108070000D01*
X233680000Y108040000D02*
X233680000Y108970000D01*
X233680000Y111200000D02*
X233680000Y110270000D01*
X233680000Y111200000D02*
X235840000Y111200000D01*
X233680000Y108040000D02*
X235140000Y108040000D01*
X214790000Y108120000D02*
X214790000Y109050000D01*
X214790000Y111280000D02*
X214790000Y110350000D01*
X214790000Y111280000D02*
X216950000Y111280000D01*
X214790000Y108120000D02*
X216250000Y108120000D01*
X186210000Y108070000D02*
X186210000Y109000000D01*
X186210000Y111230000D02*
X186210000Y110300000D01*
X186210000Y111230000D02*
X188370000Y111230000D01*
X186210000Y108070000D02*
X187670000Y108070000D01*
X167400000Y108210000D02*
X167400000Y109140000D01*
X167400000Y111370000D02*
X167400000Y110440000D01*
X167400000Y111370000D02*
X169560000Y111370000D01*
X167400000Y108210000D02*
X168860000Y108210000D01*
X148140000Y108060000D02*
X148140000Y108990000D01*
X148140000Y111220000D02*
X148140000Y110290000D01*
X148140000Y111220000D02*
X150300000Y111220000D01*
X148140000Y108060000D02*
X149600000Y108060000D01*
X128970000Y108070000D02*
X128970000Y109000000D01*
X128970000Y111230000D02*
X128970000Y110300000D01*
X128970000Y111230000D02*
X131130000Y111230000D01*
X128970000Y108070000D02*
X130430000Y108070000D01*
X100450000Y108020000D02*
X100450000Y108950000D01*
X100450000Y111180000D02*
X100450000Y110250000D01*
X100450000Y111180000D02*
X102610000Y111180000D01*
X100450000Y108020000D02*
X101910000Y108020000D01*
X81490000Y108020000D02*
X81490000Y108950000D01*
X81490000Y111180000D02*
X81490000Y110250000D01*
X81490000Y111180000D02*
X83650000Y111180000D01*
X81490000Y108020000D02*
X82950000Y108020000D01*
X62360000Y108070000D02*
X62360000Y109000000D01*
X62360000Y111230000D02*
X62360000Y110300000D01*
X62360000Y111230000D02*
X64520000Y111230000D01*
X62360000Y108070000D02*
X63820000Y108070000D01*
X43320000Y108040000D02*
X43320000Y108970000D01*
X43320000Y111200000D02*
X43320000Y110270000D01*
X43320000Y111200000D02*
X45480000Y111200000D01*
X43320000Y108040000D02*
X44780000Y108040000D01*
X14750000Y108260000D02*
X14750000Y109190000D01*
X14750000Y111420000D02*
X14750000Y110490000D01*
X14750000Y111420000D02*
X16910000Y111420000D01*
X14750000Y108260000D02*
X16210000Y108260000D01*
X126440000Y23520000D02*
X127940000Y23520000D01*
X130440000Y22270000D02*
X130440000Y17770000D01*
X127940000Y16520000D02*
X126440000Y16520000D01*
X123940000Y17770000D02*
X123940000Y22270000D01*
X194098748Y19630000D02*
X194621252Y19630000D01*
X194098748Y18210000D02*
X194621252Y18210000D01*
X194118748Y17490000D02*
X194641252Y17490000D01*
X194118748Y16070000D02*
X194641252Y16070000D01*
X194123748Y21760000D02*
X194646252Y21760000D01*
X194123748Y20340000D02*
X194646252Y20340000D01*
X194103748Y15300000D02*
X194626252Y15300000D01*
X194103748Y13880000D02*
X194626252Y13880000D01*
D11*
X171455000Y16430000D02*
X170180000Y16430000D01*
X185805000Y15855000D02*
X185130000Y15855000D01*
X185805000Y30205000D02*
X185130000Y30205000D01*
X171455000Y30205000D02*
X172130000Y30205000D01*
X171455000Y15855000D02*
X172130000Y15855000D01*
X171455000Y30205000D02*
X171455000Y29530000D01*
X185805000Y30205000D02*
X185805000Y29530000D01*
X185805000Y15855000D02*
X185805000Y16530000D01*
X171455000Y15855000D02*
X171455000Y16430000D01*
D10*
X174757953Y34051789D02*
X175280457Y34051789D01*
X174757953Y32631789D02*
X175280457Y32631789D01*
X166876252Y21120000D02*
X166353748Y21120000D01*
X166876252Y22540000D02*
X166353748Y22540000D01*
X189893748Y21760000D02*
X190416252Y21760000D01*
X189893748Y20340000D02*
X190416252Y20340000D01*
X180360457Y32631789D02*
X179837953Y32631789D01*
X180360457Y34051789D02*
X179837953Y34051789D01*
X189993748Y15950000D02*
X190516252Y15950000D01*
X189993748Y14530000D02*
X190516252Y14530000D01*
D11*
X204092380Y109586666D02*
X203616190Y109920000D01*
X204092380Y110158095D02*
X203092380Y110158095D01*
X203092380Y109777142D01*
X203140000Y109681904D01*
X203187619Y109634285D01*
X203282857Y109586666D01*
X203425714Y109586666D01*
X203520952Y109634285D01*
X203568571Y109681904D01*
X203616190Y109777142D01*
X203616190Y110158095D01*
X203092380Y109253333D02*
X203092380Y108634285D01*
X203473333Y108967619D01*
X203473333Y108824761D01*
X203520952Y108729523D01*
X203568571Y108681904D01*
X203663809Y108634285D01*
X203901904Y108634285D01*
X203997142Y108681904D01*
X204044761Y108729523D01*
X204092380Y108824761D01*
X204092380Y109110476D01*
X204044761Y109205714D01*
X203997142Y109253333D01*
X202082380Y109571666D02*
X201606190Y109905000D01*
X202082380Y110143095D02*
X201082380Y110143095D01*
X201082380Y109762142D01*
X201130000Y109666904D01*
X201177619Y109619285D01*
X201272857Y109571666D01*
X201415714Y109571666D01*
X201510952Y109619285D01*
X201558571Y109666904D01*
X201606190Y109762142D01*
X201606190Y110143095D01*
X202082380Y108619285D02*
X202082380Y109190714D01*
X202082380Y108905000D02*
X201082380Y108905000D01*
X201225238Y109000238D01*
X201320476Y109095476D01*
X201368095Y109190714D01*
X162480880Y28613666D02*
X162004690Y28947000D01*
X162480880Y29185095D02*
X161480880Y29185095D01*
X161480880Y28804142D01*
X161528500Y28708904D01*
X161576119Y28661285D01*
X161671357Y28613666D01*
X161814214Y28613666D01*
X161909452Y28661285D01*
X161957071Y28708904D01*
X162004690Y28804142D01*
X162004690Y29185095D01*
X161480880Y27756523D02*
X161480880Y27947000D01*
X161528500Y28042238D01*
X161576119Y28089857D01*
X161718976Y28185095D01*
X161909452Y28232714D01*
X162290404Y28232714D01*
X162385642Y28185095D01*
X162433261Y28137476D01*
X162480880Y28042238D01*
X162480880Y27851761D01*
X162433261Y27756523D01*
X162385642Y27708904D01*
X162290404Y27661285D01*
X162052309Y27661285D01*
X161957071Y27708904D01*
X161909452Y27756523D01*
X161861833Y27851761D01*
X161861833Y28042238D01*
X161909452Y28137476D01*
X161957071Y28185095D01*
X162052309Y28232714D01*
X197555380Y109410166D02*
X197079190Y109743500D01*
X197555380Y109981595D02*
X196555380Y109981595D01*
X196555380Y109600642D01*
X196603000Y109505404D01*
X196650619Y109457785D01*
X196745857Y109410166D01*
X196888714Y109410166D01*
X196983952Y109457785D01*
X197031571Y109505404D01*
X197079190Y109600642D01*
X197079190Y109981595D01*
X196555380Y108505404D02*
X196555380Y108981595D01*
X197031571Y109029214D01*
X196983952Y108981595D01*
X196936333Y108886357D01*
X196936333Y108648261D01*
X196983952Y108553023D01*
X197031571Y108505404D01*
X197126809Y108457785D01*
X197364904Y108457785D01*
X197460142Y108505404D01*
X197507761Y108553023D01*
X197555380Y108648261D01*
X197555380Y108886357D01*
X197507761Y108981595D01*
X197460142Y109029214D01*
X206572380Y109617166D02*
X206096190Y109950500D01*
X206572380Y110188595D02*
X205572380Y110188595D01*
X205572380Y109807642D01*
X205620000Y109712404D01*
X205667619Y109664785D01*
X205762857Y109617166D01*
X205905714Y109617166D01*
X206000952Y109664785D01*
X206048571Y109712404D01*
X206096190Y109807642D01*
X206096190Y110188595D01*
X205905714Y108760023D02*
X206572380Y108760023D01*
X205524761Y108998119D02*
X206239047Y109236214D01*
X206239047Y108617166D01*
X179608526Y34904296D02*
X179945244Y34567578D01*
X179473839Y35510387D02*
X179608526Y34904296D01*
X179002435Y35038983D01*
X179103450Y33725785D02*
X179507511Y34129846D01*
X179305480Y33927815D02*
X178598374Y34634922D01*
X178766732Y34601250D01*
X178901419Y34601250D01*
X179002435Y34634922D01*
X302414285Y16407619D02*
X302414285Y17407619D01*
X302176190Y17407619D01*
X302033333Y17360000D01*
X301938095Y17264761D01*
X301890476Y17169523D01*
X301842857Y16979047D01*
X301842857Y16836190D01*
X301890476Y16645714D01*
X301938095Y16550476D01*
X302033333Y16455238D01*
X302176190Y16407619D01*
X302414285Y16407619D01*
X301271428Y16979047D02*
X301366666Y17026666D01*
X301414285Y17074285D01*
X301461904Y17169523D01*
X301461904Y17217142D01*
X301414285Y17312380D01*
X301366666Y17360000D01*
X301271428Y17407619D01*
X301080952Y17407619D01*
X300985714Y17360000D01*
X300938095Y17312380D01*
X300890476Y17217142D01*
X300890476Y17169523D01*
X300938095Y17074285D01*
X300985714Y17026666D01*
X301080952Y16979047D01*
X301271428Y16979047D01*
X301366666Y16931428D01*
X301414285Y16883809D01*
X301461904Y16788571D01*
X301461904Y16598095D01*
X301414285Y16502857D01*
X301366666Y16455238D01*
X301271428Y16407619D01*
X301080952Y16407619D01*
X300985714Y16455238D01*
X300938095Y16502857D01*
X300890476Y16598095D01*
X300890476Y16788571D01*
X300938095Y16883809D01*
X300985714Y16931428D01*
X301080952Y16979047D01*
X300509523Y17312380D02*
X300461904Y17360000D01*
X300366666Y17407619D01*
X300128571Y17407619D01*
X300033333Y17360000D01*
X299985714Y17312380D01*
X299938095Y17217142D01*
X299938095Y17121904D01*
X299985714Y16979047D01*
X300557142Y16407619D01*
X299938095Y16407619D01*
X283454285Y16417619D02*
X283454285Y17417619D01*
X283216190Y17417619D01*
X283073333Y17370000D01*
X282978095Y17274761D01*
X282930476Y17179523D01*
X282882857Y16989047D01*
X282882857Y16846190D01*
X282930476Y16655714D01*
X282978095Y16560476D01*
X283073333Y16465238D01*
X283216190Y16417619D01*
X283454285Y16417619D01*
X282311428Y16989047D02*
X282406666Y17036666D01*
X282454285Y17084285D01*
X282501904Y17179523D01*
X282501904Y17227142D01*
X282454285Y17322380D01*
X282406666Y17370000D01*
X282311428Y17417619D01*
X282120952Y17417619D01*
X282025714Y17370000D01*
X281978095Y17322380D01*
X281930476Y17227142D01*
X281930476Y17179523D01*
X281978095Y17084285D01*
X282025714Y17036666D01*
X282120952Y16989047D01*
X282311428Y16989047D01*
X282406666Y16941428D01*
X282454285Y16893809D01*
X282501904Y16798571D01*
X282501904Y16608095D01*
X282454285Y16512857D01*
X282406666Y16465238D01*
X282311428Y16417619D01*
X282120952Y16417619D01*
X282025714Y16465238D01*
X281978095Y16512857D01*
X281930476Y16608095D01*
X281930476Y16798571D01*
X281978095Y16893809D01*
X282025714Y16941428D01*
X282120952Y16989047D01*
X280978095Y16417619D02*
X281549523Y16417619D01*
X281263809Y16417619D02*
X281263809Y17417619D01*
X281359047Y17274761D01*
X281454285Y17179523D01*
X281549523Y17131904D01*
X264404285Y16427619D02*
X264404285Y17427619D01*
X264166190Y17427619D01*
X264023333Y17380000D01*
X263928095Y17284761D01*
X263880476Y17189523D01*
X263832857Y16999047D01*
X263832857Y16856190D01*
X263880476Y16665714D01*
X263928095Y16570476D01*
X264023333Y16475238D01*
X264166190Y16427619D01*
X264404285Y16427619D01*
X263261428Y16999047D02*
X263356666Y17046666D01*
X263404285Y17094285D01*
X263451904Y17189523D01*
X263451904Y17237142D01*
X263404285Y17332380D01*
X263356666Y17380000D01*
X263261428Y17427619D01*
X263070952Y17427619D01*
X262975714Y17380000D01*
X262928095Y17332380D01*
X262880476Y17237142D01*
X262880476Y17189523D01*
X262928095Y17094285D01*
X262975714Y17046666D01*
X263070952Y16999047D01*
X263261428Y16999047D01*
X263356666Y16951428D01*
X263404285Y16903809D01*
X263451904Y16808571D01*
X263451904Y16618095D01*
X263404285Y16522857D01*
X263356666Y16475238D01*
X263261428Y16427619D01*
X263070952Y16427619D01*
X262975714Y16475238D01*
X262928095Y16522857D01*
X262880476Y16618095D01*
X262880476Y16808571D01*
X262928095Y16903809D01*
X262975714Y16951428D01*
X263070952Y16999047D01*
X262261428Y17427619D02*
X262166190Y17427619D01*
X262070952Y17380000D01*
X262023333Y17332380D01*
X261975714Y17237142D01*
X261928095Y17046666D01*
X261928095Y16808571D01*
X261975714Y16618095D01*
X262023333Y16522857D01*
X262070952Y16475238D01*
X262166190Y16427619D01*
X262261428Y16427619D01*
X262356666Y16475238D01*
X262404285Y16522857D01*
X262451904Y16618095D01*
X262499523Y16808571D01*
X262499523Y17046666D01*
X262451904Y17237142D01*
X262404285Y17332380D01*
X262356666Y17380000D01*
X262261428Y17427619D01*
X242814285Y16447619D02*
X242814285Y17447619D01*
X242576190Y17447619D01*
X242433333Y17400000D01*
X242338095Y17304761D01*
X242290476Y17209523D01*
X242242857Y17019047D01*
X242242857Y16876190D01*
X242290476Y16685714D01*
X242338095Y16590476D01*
X242433333Y16495238D01*
X242576190Y16447619D01*
X242814285Y16447619D01*
X241909523Y17447619D02*
X241242857Y17447619D01*
X241671428Y16447619D01*
X240814285Y16447619D02*
X240623809Y16447619D01*
X240528571Y16495238D01*
X240480952Y16542857D01*
X240385714Y16685714D01*
X240338095Y16876190D01*
X240338095Y17257142D01*
X240385714Y17352380D01*
X240433333Y17400000D01*
X240528571Y17447619D01*
X240719047Y17447619D01*
X240814285Y17400000D01*
X240861904Y17352380D01*
X240909523Y17257142D01*
X240909523Y17019047D01*
X240861904Y16923809D01*
X240814285Y16876190D01*
X240719047Y16828571D01*
X240528571Y16828571D01*
X240433333Y16876190D01*
X240385714Y16923809D01*
X240338095Y17019047D01*
X216804285Y16467619D02*
X216804285Y17467619D01*
X216566190Y17467619D01*
X216423333Y17420000D01*
X216328095Y17324761D01*
X216280476Y17229523D01*
X216232857Y17039047D01*
X216232857Y16896190D01*
X216280476Y16705714D01*
X216328095Y16610476D01*
X216423333Y16515238D01*
X216566190Y16467619D01*
X216804285Y16467619D01*
X215899523Y17467619D02*
X215232857Y17467619D01*
X215661428Y16467619D01*
X214709047Y17039047D02*
X214804285Y17086666D01*
X214851904Y17134285D01*
X214899523Y17229523D01*
X214899523Y17277142D01*
X214851904Y17372380D01*
X214804285Y17420000D01*
X214709047Y17467619D01*
X214518571Y17467619D01*
X214423333Y17420000D01*
X214375714Y17372380D01*
X214328095Y17277142D01*
X214328095Y17229523D01*
X214375714Y17134285D01*
X214423333Y17086666D01*
X214518571Y17039047D01*
X214709047Y17039047D01*
X214804285Y16991428D01*
X214851904Y16943809D01*
X214899523Y16848571D01*
X214899523Y16658095D01*
X214851904Y16562857D01*
X214804285Y16515238D01*
X214709047Y16467619D01*
X214518571Y16467619D01*
X214423333Y16515238D01*
X214375714Y16562857D01*
X214328095Y16658095D01*
X214328095Y16848571D01*
X214375714Y16943809D01*
X214423333Y16991428D01*
X214518571Y17039047D01*
X143184285Y16337619D02*
X143184285Y17337619D01*
X142946190Y17337619D01*
X142803333Y17290000D01*
X142708095Y17194761D01*
X142660476Y17099523D01*
X142612857Y16909047D01*
X142612857Y16766190D01*
X142660476Y16575714D01*
X142708095Y16480476D01*
X142803333Y16385238D01*
X142946190Y16337619D01*
X143184285Y16337619D01*
X142279523Y17337619D02*
X141612857Y17337619D01*
X142041428Y16337619D01*
X141327142Y17337619D02*
X140660476Y17337619D01*
X141089047Y16337619D01*
X69004285Y16387619D02*
X69004285Y17387619D01*
X68766190Y17387619D01*
X68623333Y17340000D01*
X68528095Y17244761D01*
X68480476Y17149523D01*
X68432857Y16959047D01*
X68432857Y16816190D01*
X68480476Y16625714D01*
X68528095Y16530476D01*
X68623333Y16435238D01*
X68766190Y16387619D01*
X69004285Y16387619D01*
X68099523Y17387619D02*
X67432857Y17387619D01*
X67861428Y16387619D01*
X66623333Y17387619D02*
X66813809Y17387619D01*
X66909047Y17340000D01*
X66956666Y17292380D01*
X67051904Y17149523D01*
X67099523Y16959047D01*
X67099523Y16578095D01*
X67051904Y16482857D01*
X67004285Y16435238D01*
X66909047Y16387619D01*
X66718571Y16387619D01*
X66623333Y16435238D01*
X66575714Y16482857D01*
X66528095Y16578095D01*
X66528095Y16816190D01*
X66575714Y16911428D01*
X66623333Y16959047D01*
X66718571Y17006666D01*
X66909047Y17006666D01*
X67004285Y16959047D01*
X67051904Y16911428D01*
X67099523Y16816190D01*
X42754285Y16337619D02*
X42754285Y17337619D01*
X42516190Y17337619D01*
X42373333Y17290000D01*
X42278095Y17194761D01*
X42230476Y17099523D01*
X42182857Y16909047D01*
X42182857Y16766190D01*
X42230476Y16575714D01*
X42278095Y16480476D01*
X42373333Y16385238D01*
X42516190Y16337619D01*
X42754285Y16337619D01*
X41849523Y17337619D02*
X41182857Y17337619D01*
X41611428Y16337619D01*
X40325714Y17337619D02*
X40801904Y17337619D01*
X40849523Y16861428D01*
X40801904Y16909047D01*
X40706666Y16956666D01*
X40468571Y16956666D01*
X40373333Y16909047D01*
X40325714Y16861428D01*
X40278095Y16766190D01*
X40278095Y16528095D01*
X40325714Y16432857D01*
X40373333Y16385238D01*
X40468571Y16337619D01*
X40706666Y16337619D01*
X40801904Y16385238D01*
X40849523Y16432857D01*
X19204285Y16407619D02*
X19204285Y17407619D01*
X18966190Y17407619D01*
X18823333Y17360000D01*
X18728095Y17264761D01*
X18680476Y17169523D01*
X18632857Y16979047D01*
X18632857Y16836190D01*
X18680476Y16645714D01*
X18728095Y16550476D01*
X18823333Y16455238D01*
X18966190Y16407619D01*
X19204285Y16407619D01*
X18299523Y17407619D02*
X17632857Y17407619D01*
X18061428Y16407619D01*
X16823333Y17074285D02*
X16823333Y16407619D01*
X17061428Y17455238D02*
X17299523Y16740952D01*
X16680476Y16740952D01*
X302624285Y35507619D02*
X302624285Y36507619D01*
X302386190Y36507619D01*
X302243333Y36460000D01*
X302148095Y36364761D01*
X302100476Y36269523D01*
X302052857Y36079047D01*
X302052857Y35936190D01*
X302100476Y35745714D01*
X302148095Y35650476D01*
X302243333Y35555238D01*
X302386190Y35507619D01*
X302624285Y35507619D01*
X301719523Y36507619D02*
X301052857Y36507619D01*
X301481428Y35507619D01*
X300767142Y36507619D02*
X300148095Y36507619D01*
X300481428Y36126666D01*
X300338571Y36126666D01*
X300243333Y36079047D01*
X300195714Y36031428D01*
X300148095Y35936190D01*
X300148095Y35698095D01*
X300195714Y35602857D01*
X300243333Y35555238D01*
X300338571Y35507619D01*
X300624285Y35507619D01*
X300719523Y35555238D01*
X300767142Y35602857D01*
X283544285Y35557619D02*
X283544285Y36557619D01*
X283306190Y36557619D01*
X283163333Y36510000D01*
X283068095Y36414761D01*
X283020476Y36319523D01*
X282972857Y36129047D01*
X282972857Y35986190D01*
X283020476Y35795714D01*
X283068095Y35700476D01*
X283163333Y35605238D01*
X283306190Y35557619D01*
X283544285Y35557619D01*
X282639523Y36557619D02*
X281972857Y36557619D01*
X282401428Y35557619D01*
X281639523Y36462380D02*
X281591904Y36510000D01*
X281496666Y36557619D01*
X281258571Y36557619D01*
X281163333Y36510000D01*
X281115714Y36462380D01*
X281068095Y36367142D01*
X281068095Y36271904D01*
X281115714Y36129047D01*
X281687142Y35557619D01*
X281068095Y35557619D01*
X264464285Y35477619D02*
X264464285Y36477619D01*
X264226190Y36477619D01*
X264083333Y36430000D01*
X263988095Y36334761D01*
X263940476Y36239523D01*
X263892857Y36049047D01*
X263892857Y35906190D01*
X263940476Y35715714D01*
X263988095Y35620476D01*
X264083333Y35525238D01*
X264226190Y35477619D01*
X264464285Y35477619D01*
X263559523Y36477619D02*
X262892857Y36477619D01*
X263321428Y35477619D01*
X261988095Y35477619D02*
X262559523Y35477619D01*
X262273809Y35477619D02*
X262273809Y36477619D01*
X262369047Y36334761D01*
X262464285Y36239523D01*
X262559523Y36191904D01*
X245404285Y35477619D02*
X245404285Y36477619D01*
X245166190Y36477619D01*
X245023333Y36430000D01*
X244928095Y36334761D01*
X244880476Y36239523D01*
X244832857Y36049047D01*
X244832857Y35906190D01*
X244880476Y35715714D01*
X244928095Y35620476D01*
X245023333Y35525238D01*
X245166190Y35477619D01*
X245404285Y35477619D01*
X244499523Y36477619D02*
X243832857Y36477619D01*
X244261428Y35477619D01*
X243261428Y36477619D02*
X243166190Y36477619D01*
X243070952Y36430000D01*
X243023333Y36382380D01*
X242975714Y36287142D01*
X242928095Y36096666D01*
X242928095Y35858571D01*
X242975714Y35668095D01*
X243023333Y35572857D01*
X243070952Y35525238D01*
X243166190Y35477619D01*
X243261428Y35477619D01*
X243356666Y35525238D01*
X243404285Y35572857D01*
X243451904Y35668095D01*
X243499523Y35858571D01*
X243499523Y36096666D01*
X243451904Y36287142D01*
X243404285Y36382380D01*
X243356666Y36430000D01*
X243261428Y36477619D01*
X226414285Y35417619D02*
X226414285Y36417619D01*
X226176190Y36417619D01*
X226033333Y36370000D01*
X225938095Y36274761D01*
X225890476Y36179523D01*
X225842857Y35989047D01*
X225842857Y35846190D01*
X225890476Y35655714D01*
X225938095Y35560476D01*
X226033333Y35465238D01*
X226176190Y35417619D01*
X226414285Y35417619D01*
X224985714Y36417619D02*
X225176190Y36417619D01*
X225271428Y36370000D01*
X225319047Y36322380D01*
X225414285Y36179523D01*
X225461904Y35989047D01*
X225461904Y35608095D01*
X225414285Y35512857D01*
X225366666Y35465238D01*
X225271428Y35417619D01*
X225080952Y35417619D01*
X224985714Y35465238D01*
X224938095Y35512857D01*
X224890476Y35608095D01*
X224890476Y35846190D01*
X224938095Y35941428D01*
X224985714Y35989047D01*
X225080952Y36036666D01*
X225271428Y36036666D01*
X225366666Y35989047D01*
X225414285Y35941428D01*
X225461904Y35846190D01*
X224414285Y35417619D02*
X224223809Y35417619D01*
X224128571Y35465238D01*
X224080952Y35512857D01*
X223985714Y35655714D01*
X223938095Y35846190D01*
X223938095Y36227142D01*
X223985714Y36322380D01*
X224033333Y36370000D01*
X224128571Y36417619D01*
X224319047Y36417619D01*
X224414285Y36370000D01*
X224461904Y36322380D01*
X224509523Y36227142D01*
X224509523Y35989047D01*
X224461904Y35893809D01*
X224414285Y35846190D01*
X224319047Y35798571D01*
X224128571Y35798571D01*
X224033333Y35846190D01*
X223985714Y35893809D01*
X223938095Y35989047D01*
X207284285Y35437619D02*
X207284285Y36437619D01*
X207046190Y36437619D01*
X206903333Y36390000D01*
X206808095Y36294761D01*
X206760476Y36199523D01*
X206712857Y36009047D01*
X206712857Y35866190D01*
X206760476Y35675714D01*
X206808095Y35580476D01*
X206903333Y35485238D01*
X207046190Y35437619D01*
X207284285Y35437619D01*
X205855714Y36437619D02*
X206046190Y36437619D01*
X206141428Y36390000D01*
X206189047Y36342380D01*
X206284285Y36199523D01*
X206331904Y36009047D01*
X206331904Y35628095D01*
X206284285Y35532857D01*
X206236666Y35485238D01*
X206141428Y35437619D01*
X205950952Y35437619D01*
X205855714Y35485238D01*
X205808095Y35532857D01*
X205760476Y35628095D01*
X205760476Y35866190D01*
X205808095Y35961428D01*
X205855714Y36009047D01*
X205950952Y36056666D01*
X206141428Y36056666D01*
X206236666Y36009047D01*
X206284285Y35961428D01*
X206331904Y35866190D01*
X205189047Y36009047D02*
X205284285Y36056666D01*
X205331904Y36104285D01*
X205379523Y36199523D01*
X205379523Y36247142D01*
X205331904Y36342380D01*
X205284285Y36390000D01*
X205189047Y36437619D01*
X204998571Y36437619D01*
X204903333Y36390000D01*
X204855714Y36342380D01*
X204808095Y36247142D01*
X204808095Y36199523D01*
X204855714Y36104285D01*
X204903333Y36056666D01*
X204998571Y36009047D01*
X205189047Y36009047D01*
X205284285Y35961428D01*
X205331904Y35913809D01*
X205379523Y35818571D01*
X205379523Y35628095D01*
X205331904Y35532857D01*
X205284285Y35485238D01*
X205189047Y35437619D01*
X204998571Y35437619D01*
X204903333Y35485238D01*
X204855714Y35532857D01*
X204808095Y35628095D01*
X204808095Y35818571D01*
X204855714Y35913809D01*
X204903333Y35961428D01*
X204998571Y36009047D01*
X197714285Y40947619D02*
X197714285Y41947619D01*
X197476190Y41947619D01*
X197333333Y41900000D01*
X197238095Y41804761D01*
X197190476Y41709523D01*
X197142857Y41519047D01*
X197142857Y41376190D01*
X197190476Y41185714D01*
X197238095Y41090476D01*
X197333333Y40995238D01*
X197476190Y40947619D01*
X197714285Y40947619D01*
X196285714Y41947619D02*
X196476190Y41947619D01*
X196571428Y41900000D01*
X196619047Y41852380D01*
X196714285Y41709523D01*
X196761904Y41519047D01*
X196761904Y41138095D01*
X196714285Y41042857D01*
X196666666Y40995238D01*
X196571428Y40947619D01*
X196380952Y40947619D01*
X196285714Y40995238D01*
X196238095Y41042857D01*
X196190476Y41138095D01*
X196190476Y41376190D01*
X196238095Y41471428D01*
X196285714Y41519047D01*
X196380952Y41566666D01*
X196571428Y41566666D01*
X196666666Y41519047D01*
X196714285Y41471428D01*
X196761904Y41376190D01*
X195857142Y41947619D02*
X195190476Y41947619D01*
X195619047Y40947619D01*
X161234285Y41797619D02*
X161234285Y42797619D01*
X160996190Y42797619D01*
X160853333Y42750000D01*
X160758095Y42654761D01*
X160710476Y42559523D01*
X160662857Y42369047D01*
X160662857Y42226190D01*
X160710476Y42035714D01*
X160758095Y41940476D01*
X160853333Y41845238D01*
X160996190Y41797619D01*
X161234285Y41797619D01*
X159805714Y42797619D02*
X159996190Y42797619D01*
X160091428Y42750000D01*
X160139047Y42702380D01*
X160234285Y42559523D01*
X160281904Y42369047D01*
X160281904Y41988095D01*
X160234285Y41892857D01*
X160186666Y41845238D01*
X160091428Y41797619D01*
X159900952Y41797619D01*
X159805714Y41845238D01*
X159758095Y41892857D01*
X159710476Y41988095D01*
X159710476Y42226190D01*
X159758095Y42321428D01*
X159805714Y42369047D01*
X159900952Y42416666D01*
X160091428Y42416666D01*
X160186666Y42369047D01*
X160234285Y42321428D01*
X160281904Y42226190D01*
X158853333Y42797619D02*
X159043809Y42797619D01*
X159139047Y42750000D01*
X159186666Y42702380D01*
X159281904Y42559523D01*
X159329523Y42369047D01*
X159329523Y41988095D01*
X159281904Y41892857D01*
X159234285Y41845238D01*
X159139047Y41797619D01*
X158948571Y41797619D01*
X158853333Y41845238D01*
X158805714Y41892857D01*
X158758095Y41988095D01*
X158758095Y42226190D01*
X158805714Y42321428D01*
X158853333Y42369047D01*
X158948571Y42416666D01*
X159139047Y42416666D01*
X159234285Y42369047D01*
X159281904Y42321428D01*
X159329523Y42226190D01*
X144064285Y35457619D02*
X144064285Y36457619D01*
X143826190Y36457619D01*
X143683333Y36410000D01*
X143588095Y36314761D01*
X143540476Y36219523D01*
X143492857Y36029047D01*
X143492857Y35886190D01*
X143540476Y35695714D01*
X143588095Y35600476D01*
X143683333Y35505238D01*
X143826190Y35457619D01*
X144064285Y35457619D01*
X142635714Y36457619D02*
X142826190Y36457619D01*
X142921428Y36410000D01*
X142969047Y36362380D01*
X143064285Y36219523D01*
X143111904Y36029047D01*
X143111904Y35648095D01*
X143064285Y35552857D01*
X143016666Y35505238D01*
X142921428Y35457619D01*
X142730952Y35457619D01*
X142635714Y35505238D01*
X142588095Y35552857D01*
X142540476Y35648095D01*
X142540476Y35886190D01*
X142588095Y35981428D01*
X142635714Y36029047D01*
X142730952Y36076666D01*
X142921428Y36076666D01*
X143016666Y36029047D01*
X143064285Y35981428D01*
X143111904Y35886190D01*
X141635714Y36457619D02*
X142111904Y36457619D01*
X142159523Y35981428D01*
X142111904Y36029047D01*
X142016666Y36076666D01*
X141778571Y36076666D01*
X141683333Y36029047D01*
X141635714Y35981428D01*
X141588095Y35886190D01*
X141588095Y35648095D01*
X141635714Y35552857D01*
X141683333Y35505238D01*
X141778571Y35457619D01*
X142016666Y35457619D01*
X142111904Y35505238D01*
X142159523Y35552857D01*
X131234285Y35467619D02*
X131234285Y36467619D01*
X130996190Y36467619D01*
X130853333Y36420000D01*
X130758095Y36324761D01*
X130710476Y36229523D01*
X130662857Y36039047D01*
X130662857Y35896190D01*
X130710476Y35705714D01*
X130758095Y35610476D01*
X130853333Y35515238D01*
X130996190Y35467619D01*
X131234285Y35467619D01*
X129805714Y36467619D02*
X129996190Y36467619D01*
X130091428Y36420000D01*
X130139047Y36372380D01*
X130234285Y36229523D01*
X130281904Y36039047D01*
X130281904Y35658095D01*
X130234285Y35562857D01*
X130186666Y35515238D01*
X130091428Y35467619D01*
X129900952Y35467619D01*
X129805714Y35515238D01*
X129758095Y35562857D01*
X129710476Y35658095D01*
X129710476Y35896190D01*
X129758095Y35991428D01*
X129805714Y36039047D01*
X129900952Y36086666D01*
X130091428Y36086666D01*
X130186666Y36039047D01*
X130234285Y35991428D01*
X130281904Y35896190D01*
X128853333Y36134285D02*
X128853333Y35467619D01*
X129091428Y36515238D02*
X129329523Y35800952D01*
X128710476Y35800952D01*
X112034285Y35877619D02*
X112034285Y36877619D01*
X111796190Y36877619D01*
X111653333Y36830000D01*
X111558095Y36734761D01*
X111510476Y36639523D01*
X111462857Y36449047D01*
X111462857Y36306190D01*
X111510476Y36115714D01*
X111558095Y36020476D01*
X111653333Y35925238D01*
X111796190Y35877619D01*
X112034285Y35877619D01*
X110605714Y36877619D02*
X110796190Y36877619D01*
X110891428Y36830000D01*
X110939047Y36782380D01*
X111034285Y36639523D01*
X111081904Y36449047D01*
X111081904Y36068095D01*
X111034285Y35972857D01*
X110986666Y35925238D01*
X110891428Y35877619D01*
X110700952Y35877619D01*
X110605714Y35925238D01*
X110558095Y35972857D01*
X110510476Y36068095D01*
X110510476Y36306190D01*
X110558095Y36401428D01*
X110605714Y36449047D01*
X110700952Y36496666D01*
X110891428Y36496666D01*
X110986666Y36449047D01*
X111034285Y36401428D01*
X111081904Y36306190D01*
X110177142Y36877619D02*
X109558095Y36877619D01*
X109891428Y36496666D01*
X109748571Y36496666D01*
X109653333Y36449047D01*
X109605714Y36401428D01*
X109558095Y36306190D01*
X109558095Y36068095D01*
X109605714Y35972857D01*
X109653333Y35925238D01*
X109748571Y35877619D01*
X110034285Y35877619D01*
X110129523Y35925238D01*
X110177142Y35972857D01*
X93004285Y35447619D02*
X93004285Y36447619D01*
X92766190Y36447619D01*
X92623333Y36400000D01*
X92528095Y36304761D01*
X92480476Y36209523D01*
X92432857Y36019047D01*
X92432857Y35876190D01*
X92480476Y35685714D01*
X92528095Y35590476D01*
X92623333Y35495238D01*
X92766190Y35447619D01*
X93004285Y35447619D01*
X91575714Y36447619D02*
X91766190Y36447619D01*
X91861428Y36400000D01*
X91909047Y36352380D01*
X92004285Y36209523D01*
X92051904Y36019047D01*
X92051904Y35638095D01*
X92004285Y35542857D01*
X91956666Y35495238D01*
X91861428Y35447619D01*
X91670952Y35447619D01*
X91575714Y35495238D01*
X91528095Y35542857D01*
X91480476Y35638095D01*
X91480476Y35876190D01*
X91528095Y35971428D01*
X91575714Y36019047D01*
X91670952Y36066666D01*
X91861428Y36066666D01*
X91956666Y36019047D01*
X92004285Y35971428D01*
X92051904Y35876190D01*
X91099523Y36352380D02*
X91051904Y36400000D01*
X90956666Y36447619D01*
X90718571Y36447619D01*
X90623333Y36400000D01*
X90575714Y36352380D01*
X90528095Y36257142D01*
X90528095Y36161904D01*
X90575714Y36019047D01*
X91147142Y35447619D01*
X90528095Y35447619D01*
X74034285Y35527619D02*
X74034285Y36527619D01*
X73796190Y36527619D01*
X73653333Y36480000D01*
X73558095Y36384761D01*
X73510476Y36289523D01*
X73462857Y36099047D01*
X73462857Y35956190D01*
X73510476Y35765714D01*
X73558095Y35670476D01*
X73653333Y35575238D01*
X73796190Y35527619D01*
X74034285Y35527619D01*
X72605714Y36527619D02*
X72796190Y36527619D01*
X72891428Y36480000D01*
X72939047Y36432380D01*
X73034285Y36289523D01*
X73081904Y36099047D01*
X73081904Y35718095D01*
X73034285Y35622857D01*
X72986666Y35575238D01*
X72891428Y35527619D01*
X72700952Y35527619D01*
X72605714Y35575238D01*
X72558095Y35622857D01*
X72510476Y35718095D01*
X72510476Y35956190D01*
X72558095Y36051428D01*
X72605714Y36099047D01*
X72700952Y36146666D01*
X72891428Y36146666D01*
X72986666Y36099047D01*
X73034285Y36051428D01*
X73081904Y35956190D01*
X71558095Y35527619D02*
X72129523Y35527619D01*
X71843809Y35527619D02*
X71843809Y36527619D01*
X71939047Y36384761D01*
X72034285Y36289523D01*
X72129523Y36241904D01*
X54974285Y35457619D02*
X54974285Y36457619D01*
X54736190Y36457619D01*
X54593333Y36410000D01*
X54498095Y36314761D01*
X54450476Y36219523D01*
X54402857Y36029047D01*
X54402857Y35886190D01*
X54450476Y35695714D01*
X54498095Y35600476D01*
X54593333Y35505238D01*
X54736190Y35457619D01*
X54974285Y35457619D01*
X53545714Y36457619D02*
X53736190Y36457619D01*
X53831428Y36410000D01*
X53879047Y36362380D01*
X53974285Y36219523D01*
X54021904Y36029047D01*
X54021904Y35648095D01*
X53974285Y35552857D01*
X53926666Y35505238D01*
X53831428Y35457619D01*
X53640952Y35457619D01*
X53545714Y35505238D01*
X53498095Y35552857D01*
X53450476Y35648095D01*
X53450476Y35886190D01*
X53498095Y35981428D01*
X53545714Y36029047D01*
X53640952Y36076666D01*
X53831428Y36076666D01*
X53926666Y36029047D01*
X53974285Y35981428D01*
X54021904Y35886190D01*
X52831428Y36457619D02*
X52736190Y36457619D01*
X52640952Y36410000D01*
X52593333Y36362380D01*
X52545714Y36267142D01*
X52498095Y36076666D01*
X52498095Y35838571D01*
X52545714Y35648095D01*
X52593333Y35552857D01*
X52640952Y35505238D01*
X52736190Y35457619D01*
X52831428Y35457619D01*
X52926666Y35505238D01*
X52974285Y35552857D01*
X53021904Y35648095D01*
X53069523Y35838571D01*
X53069523Y36076666D01*
X53021904Y36267142D01*
X52974285Y36362380D01*
X52926666Y36410000D01*
X52831428Y36457619D01*
X26194285Y35477619D02*
X26194285Y36477619D01*
X25956190Y36477619D01*
X25813333Y36430000D01*
X25718095Y36334761D01*
X25670476Y36239523D01*
X25622857Y36049047D01*
X25622857Y35906190D01*
X25670476Y35715714D01*
X25718095Y35620476D01*
X25813333Y35525238D01*
X25956190Y35477619D01*
X26194285Y35477619D01*
X24718095Y36477619D02*
X25194285Y36477619D01*
X25241904Y36001428D01*
X25194285Y36049047D01*
X25099047Y36096666D01*
X24860952Y36096666D01*
X24765714Y36049047D01*
X24718095Y36001428D01*
X24670476Y35906190D01*
X24670476Y35668095D01*
X24718095Y35572857D01*
X24765714Y35525238D01*
X24860952Y35477619D01*
X25099047Y35477619D01*
X25194285Y35525238D01*
X25241904Y35572857D01*
X24194285Y35477619D02*
X24003809Y35477619D01*
X23908571Y35525238D01*
X23860952Y35572857D01*
X23765714Y35715714D01*
X23718095Y35906190D01*
X23718095Y36287142D01*
X23765714Y36382380D01*
X23813333Y36430000D01*
X23908571Y36477619D01*
X24099047Y36477619D01*
X24194285Y36430000D01*
X24241904Y36382380D01*
X24289523Y36287142D01*
X24289523Y36049047D01*
X24241904Y35953809D01*
X24194285Y35906190D01*
X24099047Y35858571D01*
X23908571Y35858571D01*
X23813333Y35906190D01*
X23765714Y35953809D01*
X23718095Y36049047D01*
X302474285Y54517619D02*
X302474285Y55517619D01*
X302236190Y55517619D01*
X302093333Y55470000D01*
X301998095Y55374761D01*
X301950476Y55279523D01*
X301902857Y55089047D01*
X301902857Y54946190D01*
X301950476Y54755714D01*
X301998095Y54660476D01*
X302093333Y54565238D01*
X302236190Y54517619D01*
X302474285Y54517619D01*
X300998095Y55517619D02*
X301474285Y55517619D01*
X301521904Y55041428D01*
X301474285Y55089047D01*
X301379047Y55136666D01*
X301140952Y55136666D01*
X301045714Y55089047D01*
X300998095Y55041428D01*
X300950476Y54946190D01*
X300950476Y54708095D01*
X300998095Y54612857D01*
X301045714Y54565238D01*
X301140952Y54517619D01*
X301379047Y54517619D01*
X301474285Y54565238D01*
X301521904Y54612857D01*
X300379047Y55089047D02*
X300474285Y55136666D01*
X300521904Y55184285D01*
X300569523Y55279523D01*
X300569523Y55327142D01*
X300521904Y55422380D01*
X300474285Y55470000D01*
X300379047Y55517619D01*
X300188571Y55517619D01*
X300093333Y55470000D01*
X300045714Y55422380D01*
X299998095Y55327142D01*
X299998095Y55279523D01*
X300045714Y55184285D01*
X300093333Y55136666D01*
X300188571Y55089047D01*
X300379047Y55089047D01*
X300474285Y55041428D01*
X300521904Y54993809D01*
X300569523Y54898571D01*
X300569523Y54708095D01*
X300521904Y54612857D01*
X300474285Y54565238D01*
X300379047Y54517619D01*
X300188571Y54517619D01*
X300093333Y54565238D01*
X300045714Y54612857D01*
X299998095Y54708095D01*
X299998095Y54898571D01*
X300045714Y54993809D01*
X300093333Y55041428D01*
X300188571Y55089047D01*
X271524285Y54487619D02*
X271524285Y55487619D01*
X271286190Y55487619D01*
X271143333Y55440000D01*
X271048095Y55344761D01*
X271000476Y55249523D01*
X270952857Y55059047D01*
X270952857Y54916190D01*
X271000476Y54725714D01*
X271048095Y54630476D01*
X271143333Y54535238D01*
X271286190Y54487619D01*
X271524285Y54487619D01*
X270048095Y55487619D02*
X270524285Y55487619D01*
X270571904Y55011428D01*
X270524285Y55059047D01*
X270429047Y55106666D01*
X270190952Y55106666D01*
X270095714Y55059047D01*
X270048095Y55011428D01*
X270000476Y54916190D01*
X270000476Y54678095D01*
X270048095Y54582857D01*
X270095714Y54535238D01*
X270190952Y54487619D01*
X270429047Y54487619D01*
X270524285Y54535238D01*
X270571904Y54582857D01*
X269667142Y55487619D02*
X269000476Y55487619D01*
X269429047Y54487619D01*
X240564285Y54487619D02*
X240564285Y55487619D01*
X240326190Y55487619D01*
X240183333Y55440000D01*
X240088095Y55344761D01*
X240040476Y55249523D01*
X239992857Y55059047D01*
X239992857Y54916190D01*
X240040476Y54725714D01*
X240088095Y54630476D01*
X240183333Y54535238D01*
X240326190Y54487619D01*
X240564285Y54487619D01*
X239088095Y55487619D02*
X239564285Y55487619D01*
X239611904Y55011428D01*
X239564285Y55059047D01*
X239469047Y55106666D01*
X239230952Y55106666D01*
X239135714Y55059047D01*
X239088095Y55011428D01*
X239040476Y54916190D01*
X239040476Y54678095D01*
X239088095Y54582857D01*
X239135714Y54535238D01*
X239230952Y54487619D01*
X239469047Y54487619D01*
X239564285Y54535238D01*
X239611904Y54582857D01*
X238183333Y55487619D02*
X238373809Y55487619D01*
X238469047Y55440000D01*
X238516666Y55392380D01*
X238611904Y55249523D01*
X238659523Y55059047D01*
X238659523Y54678095D01*
X238611904Y54582857D01*
X238564285Y54535238D01*
X238469047Y54487619D01*
X238278571Y54487619D01*
X238183333Y54535238D01*
X238135714Y54582857D01*
X238088095Y54678095D01*
X238088095Y54916190D01*
X238135714Y55011428D01*
X238183333Y55059047D01*
X238278571Y55106666D01*
X238469047Y55106666D01*
X238564285Y55059047D01*
X238611904Y55011428D01*
X238659523Y54916190D01*
X221614285Y54507619D02*
X221614285Y55507619D01*
X221376190Y55507619D01*
X221233333Y55460000D01*
X221138095Y55364761D01*
X221090476Y55269523D01*
X221042857Y55079047D01*
X221042857Y54936190D01*
X221090476Y54745714D01*
X221138095Y54650476D01*
X221233333Y54555238D01*
X221376190Y54507619D01*
X221614285Y54507619D01*
X220138095Y55507619D02*
X220614285Y55507619D01*
X220661904Y55031428D01*
X220614285Y55079047D01*
X220519047Y55126666D01*
X220280952Y55126666D01*
X220185714Y55079047D01*
X220138095Y55031428D01*
X220090476Y54936190D01*
X220090476Y54698095D01*
X220138095Y54602857D01*
X220185714Y54555238D01*
X220280952Y54507619D01*
X220519047Y54507619D01*
X220614285Y54555238D01*
X220661904Y54602857D01*
X219185714Y55507619D02*
X219661904Y55507619D01*
X219709523Y55031428D01*
X219661904Y55079047D01*
X219566666Y55126666D01*
X219328571Y55126666D01*
X219233333Y55079047D01*
X219185714Y55031428D01*
X219138095Y54936190D01*
X219138095Y54698095D01*
X219185714Y54602857D01*
X219233333Y54555238D01*
X219328571Y54507619D01*
X219566666Y54507619D01*
X219661904Y54555238D01*
X219709523Y54602857D01*
X202534285Y54567619D02*
X202534285Y55567619D01*
X202296190Y55567619D01*
X202153333Y55520000D01*
X202058095Y55424761D01*
X202010476Y55329523D01*
X201962857Y55139047D01*
X201962857Y54996190D01*
X202010476Y54805714D01*
X202058095Y54710476D01*
X202153333Y54615238D01*
X202296190Y54567619D01*
X202534285Y54567619D01*
X201058095Y55567619D02*
X201534285Y55567619D01*
X201581904Y55091428D01*
X201534285Y55139047D01*
X201439047Y55186666D01*
X201200952Y55186666D01*
X201105714Y55139047D01*
X201058095Y55091428D01*
X201010476Y54996190D01*
X201010476Y54758095D01*
X201058095Y54662857D01*
X201105714Y54615238D01*
X201200952Y54567619D01*
X201439047Y54567619D01*
X201534285Y54615238D01*
X201581904Y54662857D01*
X200153333Y55234285D02*
X200153333Y54567619D01*
X200391428Y55615238D02*
X200629523Y54900952D01*
X200010476Y54900952D01*
X183274285Y54507619D02*
X183274285Y55507619D01*
X183036190Y55507619D01*
X182893333Y55460000D01*
X182798095Y55364761D01*
X182750476Y55269523D01*
X182702857Y55079047D01*
X182702857Y54936190D01*
X182750476Y54745714D01*
X182798095Y54650476D01*
X182893333Y54555238D01*
X183036190Y54507619D01*
X183274285Y54507619D01*
X181798095Y55507619D02*
X182274285Y55507619D01*
X182321904Y55031428D01*
X182274285Y55079047D01*
X182179047Y55126666D01*
X181940952Y55126666D01*
X181845714Y55079047D01*
X181798095Y55031428D01*
X181750476Y54936190D01*
X181750476Y54698095D01*
X181798095Y54602857D01*
X181845714Y54555238D01*
X181940952Y54507619D01*
X182179047Y54507619D01*
X182274285Y54555238D01*
X182321904Y54602857D01*
X181417142Y55507619D02*
X180798095Y55507619D01*
X181131428Y55126666D01*
X180988571Y55126666D01*
X180893333Y55079047D01*
X180845714Y55031428D01*
X180798095Y54936190D01*
X180798095Y54698095D01*
X180845714Y54602857D01*
X180893333Y54555238D01*
X180988571Y54507619D01*
X181274285Y54507619D01*
X181369523Y54555238D01*
X181417142Y54602857D01*
X164284285Y54527619D02*
X164284285Y55527619D01*
X164046190Y55527619D01*
X163903333Y55480000D01*
X163808095Y55384761D01*
X163760476Y55289523D01*
X163712857Y55099047D01*
X163712857Y54956190D01*
X163760476Y54765714D01*
X163808095Y54670476D01*
X163903333Y54575238D01*
X164046190Y54527619D01*
X164284285Y54527619D01*
X162808095Y55527619D02*
X163284285Y55527619D01*
X163331904Y55051428D01*
X163284285Y55099047D01*
X163189047Y55146666D01*
X162950952Y55146666D01*
X162855714Y55099047D01*
X162808095Y55051428D01*
X162760476Y54956190D01*
X162760476Y54718095D01*
X162808095Y54622857D01*
X162855714Y54575238D01*
X162950952Y54527619D01*
X163189047Y54527619D01*
X163284285Y54575238D01*
X163331904Y54622857D01*
X162379523Y55432380D02*
X162331904Y55480000D01*
X162236666Y55527619D01*
X161998571Y55527619D01*
X161903333Y55480000D01*
X161855714Y55432380D01*
X161808095Y55337142D01*
X161808095Y55241904D01*
X161855714Y55099047D01*
X162427142Y54527619D01*
X161808095Y54527619D01*
X145384285Y54497619D02*
X145384285Y55497619D01*
X145146190Y55497619D01*
X145003333Y55450000D01*
X144908095Y55354761D01*
X144860476Y55259523D01*
X144812857Y55069047D01*
X144812857Y54926190D01*
X144860476Y54735714D01*
X144908095Y54640476D01*
X145003333Y54545238D01*
X145146190Y54497619D01*
X145384285Y54497619D01*
X143908095Y55497619D02*
X144384285Y55497619D01*
X144431904Y55021428D01*
X144384285Y55069047D01*
X144289047Y55116666D01*
X144050952Y55116666D01*
X143955714Y55069047D01*
X143908095Y55021428D01*
X143860476Y54926190D01*
X143860476Y54688095D01*
X143908095Y54592857D01*
X143955714Y54545238D01*
X144050952Y54497619D01*
X144289047Y54497619D01*
X144384285Y54545238D01*
X144431904Y54592857D01*
X142908095Y54497619D02*
X143479523Y54497619D01*
X143193809Y54497619D02*
X143193809Y55497619D01*
X143289047Y55354761D01*
X143384285Y55259523D01*
X143479523Y55211904D01*
X126334285Y54547619D02*
X126334285Y55547619D01*
X126096190Y55547619D01*
X125953333Y55500000D01*
X125858095Y55404761D01*
X125810476Y55309523D01*
X125762857Y55119047D01*
X125762857Y54976190D01*
X125810476Y54785714D01*
X125858095Y54690476D01*
X125953333Y54595238D01*
X126096190Y54547619D01*
X126334285Y54547619D01*
X124858095Y55547619D02*
X125334285Y55547619D01*
X125381904Y55071428D01*
X125334285Y55119047D01*
X125239047Y55166666D01*
X125000952Y55166666D01*
X124905714Y55119047D01*
X124858095Y55071428D01*
X124810476Y54976190D01*
X124810476Y54738095D01*
X124858095Y54642857D01*
X124905714Y54595238D01*
X125000952Y54547619D01*
X125239047Y54547619D01*
X125334285Y54595238D01*
X125381904Y54642857D01*
X124191428Y55547619D02*
X124096190Y55547619D01*
X124000952Y55500000D01*
X123953333Y55452380D01*
X123905714Y55357142D01*
X123858095Y55166666D01*
X123858095Y54928571D01*
X123905714Y54738095D01*
X123953333Y54642857D01*
X124000952Y54595238D01*
X124096190Y54547619D01*
X124191428Y54547619D01*
X124286666Y54595238D01*
X124334285Y54642857D01*
X124381904Y54738095D01*
X124429523Y54928571D01*
X124429523Y55166666D01*
X124381904Y55357142D01*
X124334285Y55452380D01*
X124286666Y55500000D01*
X124191428Y55547619D01*
X107194285Y54517619D02*
X107194285Y55517619D01*
X106956190Y55517619D01*
X106813333Y55470000D01*
X106718095Y55374761D01*
X106670476Y55279523D01*
X106622857Y55089047D01*
X106622857Y54946190D01*
X106670476Y54755714D01*
X106718095Y54660476D01*
X106813333Y54565238D01*
X106956190Y54517619D01*
X107194285Y54517619D01*
X105765714Y55184285D02*
X105765714Y54517619D01*
X106003809Y55565238D02*
X106241904Y54850952D01*
X105622857Y54850952D01*
X105194285Y54517619D02*
X105003809Y54517619D01*
X104908571Y54565238D01*
X104860952Y54612857D01*
X104765714Y54755714D01*
X104718095Y54946190D01*
X104718095Y55327142D01*
X104765714Y55422380D01*
X104813333Y55470000D01*
X104908571Y55517619D01*
X105099047Y55517619D01*
X105194285Y55470000D01*
X105241904Y55422380D01*
X105289523Y55327142D01*
X105289523Y55089047D01*
X105241904Y54993809D01*
X105194285Y54946190D01*
X105099047Y54898571D01*
X104908571Y54898571D01*
X104813333Y54946190D01*
X104765714Y54993809D01*
X104718095Y55089047D01*
X88204285Y54527619D02*
X88204285Y55527619D01*
X87966190Y55527619D01*
X87823333Y55480000D01*
X87728095Y55384761D01*
X87680476Y55289523D01*
X87632857Y55099047D01*
X87632857Y54956190D01*
X87680476Y54765714D01*
X87728095Y54670476D01*
X87823333Y54575238D01*
X87966190Y54527619D01*
X88204285Y54527619D01*
X86775714Y55194285D02*
X86775714Y54527619D01*
X87013809Y55575238D02*
X87251904Y54860952D01*
X86632857Y54860952D01*
X86109047Y55099047D02*
X86204285Y55146666D01*
X86251904Y55194285D01*
X86299523Y55289523D01*
X86299523Y55337142D01*
X86251904Y55432380D01*
X86204285Y55480000D01*
X86109047Y55527619D01*
X85918571Y55527619D01*
X85823333Y55480000D01*
X85775714Y55432380D01*
X85728095Y55337142D01*
X85728095Y55289523D01*
X85775714Y55194285D01*
X85823333Y55146666D01*
X85918571Y55099047D01*
X86109047Y55099047D01*
X86204285Y55051428D01*
X86251904Y55003809D01*
X86299523Y54908571D01*
X86299523Y54718095D01*
X86251904Y54622857D01*
X86204285Y54575238D01*
X86109047Y54527619D01*
X85918571Y54527619D01*
X85823333Y54575238D01*
X85775714Y54622857D01*
X85728095Y54718095D01*
X85728095Y54908571D01*
X85775714Y55003809D01*
X85823333Y55051428D01*
X85918571Y55099047D01*
X68994285Y54557619D02*
X68994285Y55557619D01*
X68756190Y55557619D01*
X68613333Y55510000D01*
X68518095Y55414761D01*
X68470476Y55319523D01*
X68422857Y55129047D01*
X68422857Y54986190D01*
X68470476Y54795714D01*
X68518095Y54700476D01*
X68613333Y54605238D01*
X68756190Y54557619D01*
X68994285Y54557619D01*
X67565714Y55224285D02*
X67565714Y54557619D01*
X67803809Y55605238D02*
X68041904Y54890952D01*
X67422857Y54890952D01*
X67137142Y55557619D02*
X66470476Y55557619D01*
X66899047Y54557619D01*
X50204285Y54557619D02*
X50204285Y55557619D01*
X49966190Y55557619D01*
X49823333Y55510000D01*
X49728095Y55414761D01*
X49680476Y55319523D01*
X49632857Y55129047D01*
X49632857Y54986190D01*
X49680476Y54795714D01*
X49728095Y54700476D01*
X49823333Y54605238D01*
X49966190Y54557619D01*
X50204285Y54557619D01*
X48775714Y55224285D02*
X48775714Y54557619D01*
X49013809Y55605238D02*
X49251904Y54890952D01*
X48632857Y54890952D01*
X47823333Y55557619D02*
X48013809Y55557619D01*
X48109047Y55510000D01*
X48156666Y55462380D01*
X48251904Y55319523D01*
X48299523Y55129047D01*
X48299523Y54748095D01*
X48251904Y54652857D01*
X48204285Y54605238D01*
X48109047Y54557619D01*
X47918571Y54557619D01*
X47823333Y54605238D01*
X47775714Y54652857D01*
X47728095Y54748095D01*
X47728095Y54986190D01*
X47775714Y55081428D01*
X47823333Y55129047D01*
X47918571Y55176666D01*
X48109047Y55176666D01*
X48204285Y55129047D01*
X48251904Y55081428D01*
X48299523Y54986190D01*
X23974285Y54577619D02*
X23974285Y55577619D01*
X23736190Y55577619D01*
X23593333Y55530000D01*
X23498095Y55434761D01*
X23450476Y55339523D01*
X23402857Y55149047D01*
X23402857Y55006190D01*
X23450476Y54815714D01*
X23498095Y54720476D01*
X23593333Y54625238D01*
X23736190Y54577619D01*
X23974285Y54577619D01*
X22545714Y55244285D02*
X22545714Y54577619D01*
X22783809Y55625238D02*
X23021904Y54910952D01*
X22402857Y54910952D01*
X21545714Y55577619D02*
X22021904Y55577619D01*
X22069523Y55101428D01*
X22021904Y55149047D01*
X21926666Y55196666D01*
X21688571Y55196666D01*
X21593333Y55149047D01*
X21545714Y55101428D01*
X21498095Y55006190D01*
X21498095Y54768095D01*
X21545714Y54672857D01*
X21593333Y54625238D01*
X21688571Y54577619D01*
X21926666Y54577619D01*
X22021904Y54625238D01*
X22069523Y54672857D01*
X302534285Y73587619D02*
X302534285Y74587619D01*
X302296190Y74587619D01*
X302153333Y74540000D01*
X302058095Y74444761D01*
X302010476Y74349523D01*
X301962857Y74159047D01*
X301962857Y74016190D01*
X302010476Y73825714D01*
X302058095Y73730476D01*
X302153333Y73635238D01*
X302296190Y73587619D01*
X302534285Y73587619D01*
X301105714Y74254285D02*
X301105714Y73587619D01*
X301343809Y74635238D02*
X301581904Y73920952D01*
X300962857Y73920952D01*
X300153333Y74254285D02*
X300153333Y73587619D01*
X300391428Y74635238D02*
X300629523Y73920952D01*
X300010476Y73920952D01*
X278474285Y74577619D02*
X278474285Y75577619D01*
X278236190Y75577619D01*
X278093333Y75530000D01*
X277998095Y75434761D01*
X277950476Y75339523D01*
X277902857Y75149047D01*
X277902857Y75006190D01*
X277950476Y74815714D01*
X277998095Y74720476D01*
X278093333Y74625238D01*
X278236190Y74577619D01*
X278474285Y74577619D01*
X277045714Y75244285D02*
X277045714Y74577619D01*
X277283809Y75625238D02*
X277521904Y74910952D01*
X276902857Y74910952D01*
X276617142Y75577619D02*
X275998095Y75577619D01*
X276331428Y75196666D01*
X276188571Y75196666D01*
X276093333Y75149047D01*
X276045714Y75101428D01*
X275998095Y75006190D01*
X275998095Y74768095D01*
X276045714Y74672857D01*
X276093333Y74625238D01*
X276188571Y74577619D01*
X276474285Y74577619D01*
X276569523Y74625238D01*
X276617142Y74672857D01*
X254844285Y73527619D02*
X254844285Y74527619D01*
X254606190Y74527619D01*
X254463333Y74480000D01*
X254368095Y74384761D01*
X254320476Y74289523D01*
X254272857Y74099047D01*
X254272857Y73956190D01*
X254320476Y73765714D01*
X254368095Y73670476D01*
X254463333Y73575238D01*
X254606190Y73527619D01*
X254844285Y73527619D01*
X253415714Y74194285D02*
X253415714Y73527619D01*
X253653809Y74575238D02*
X253891904Y73860952D01*
X253272857Y73860952D01*
X252939523Y74432380D02*
X252891904Y74480000D01*
X252796666Y74527619D01*
X252558571Y74527619D01*
X252463333Y74480000D01*
X252415714Y74432380D01*
X252368095Y74337142D01*
X252368095Y74241904D01*
X252415714Y74099047D01*
X252987142Y73527619D01*
X252368095Y73527619D01*
X235804285Y73567619D02*
X235804285Y74567619D01*
X235566190Y74567619D01*
X235423333Y74520000D01*
X235328095Y74424761D01*
X235280476Y74329523D01*
X235232857Y74139047D01*
X235232857Y73996190D01*
X235280476Y73805714D01*
X235328095Y73710476D01*
X235423333Y73615238D01*
X235566190Y73567619D01*
X235804285Y73567619D01*
X234375714Y74234285D02*
X234375714Y73567619D01*
X234613809Y74615238D02*
X234851904Y73900952D01*
X234232857Y73900952D01*
X233328095Y73567619D02*
X233899523Y73567619D01*
X233613809Y73567619D02*
X233613809Y74567619D01*
X233709047Y74424761D01*
X233804285Y74329523D01*
X233899523Y74281904D01*
X216954285Y73557619D02*
X216954285Y74557619D01*
X216716190Y74557619D01*
X216573333Y74510000D01*
X216478095Y74414761D01*
X216430476Y74319523D01*
X216382857Y74129047D01*
X216382857Y73986190D01*
X216430476Y73795714D01*
X216478095Y73700476D01*
X216573333Y73605238D01*
X216716190Y73557619D01*
X216954285Y73557619D01*
X215525714Y74224285D02*
X215525714Y73557619D01*
X215763809Y74605238D02*
X216001904Y73890952D01*
X215382857Y73890952D01*
X214811428Y74557619D02*
X214716190Y74557619D01*
X214620952Y74510000D01*
X214573333Y74462380D01*
X214525714Y74367142D01*
X214478095Y74176666D01*
X214478095Y73938571D01*
X214525714Y73748095D01*
X214573333Y73652857D01*
X214620952Y73605238D01*
X214716190Y73557619D01*
X214811428Y73557619D01*
X214906666Y73605238D01*
X214954285Y73652857D01*
X215001904Y73748095D01*
X215049523Y73938571D01*
X215049523Y74176666D01*
X215001904Y74367142D01*
X214954285Y74462380D01*
X214906666Y74510000D01*
X214811428Y74557619D01*
X197754285Y73607619D02*
X197754285Y74607619D01*
X197516190Y74607619D01*
X197373333Y74560000D01*
X197278095Y74464761D01*
X197230476Y74369523D01*
X197182857Y74179047D01*
X197182857Y74036190D01*
X197230476Y73845714D01*
X197278095Y73750476D01*
X197373333Y73655238D01*
X197516190Y73607619D01*
X197754285Y73607619D01*
X196849523Y74607619D02*
X196230476Y74607619D01*
X196563809Y74226666D01*
X196420952Y74226666D01*
X196325714Y74179047D01*
X196278095Y74131428D01*
X196230476Y74036190D01*
X196230476Y73798095D01*
X196278095Y73702857D01*
X196325714Y73655238D01*
X196420952Y73607619D01*
X196706666Y73607619D01*
X196801904Y73655238D01*
X196849523Y73702857D01*
X195754285Y73607619D02*
X195563809Y73607619D01*
X195468571Y73655238D01*
X195420952Y73702857D01*
X195325714Y73845714D01*
X195278095Y74036190D01*
X195278095Y74417142D01*
X195325714Y74512380D01*
X195373333Y74560000D01*
X195468571Y74607619D01*
X195659047Y74607619D01*
X195754285Y74560000D01*
X195801904Y74512380D01*
X195849523Y74417142D01*
X195849523Y74179047D01*
X195801904Y74083809D01*
X195754285Y74036190D01*
X195659047Y73988571D01*
X195468571Y73988571D01*
X195373333Y74036190D01*
X195325714Y74083809D01*
X195278095Y74179047D01*
X178614285Y73507619D02*
X178614285Y74507619D01*
X178376190Y74507619D01*
X178233333Y74460000D01*
X178138095Y74364761D01*
X178090476Y74269523D01*
X178042857Y74079047D01*
X178042857Y73936190D01*
X178090476Y73745714D01*
X178138095Y73650476D01*
X178233333Y73555238D01*
X178376190Y73507619D01*
X178614285Y73507619D01*
X177709523Y74507619D02*
X177090476Y74507619D01*
X177423809Y74126666D01*
X177280952Y74126666D01*
X177185714Y74079047D01*
X177138095Y74031428D01*
X177090476Y73936190D01*
X177090476Y73698095D01*
X177138095Y73602857D01*
X177185714Y73555238D01*
X177280952Y73507619D01*
X177566666Y73507619D01*
X177661904Y73555238D01*
X177709523Y73602857D01*
X176519047Y74079047D02*
X176614285Y74126666D01*
X176661904Y74174285D01*
X176709523Y74269523D01*
X176709523Y74317142D01*
X176661904Y74412380D01*
X176614285Y74460000D01*
X176519047Y74507619D01*
X176328571Y74507619D01*
X176233333Y74460000D01*
X176185714Y74412380D01*
X176138095Y74317142D01*
X176138095Y74269523D01*
X176185714Y74174285D01*
X176233333Y74126666D01*
X176328571Y74079047D01*
X176519047Y74079047D01*
X176614285Y74031428D01*
X176661904Y73983809D01*
X176709523Y73888571D01*
X176709523Y73698095D01*
X176661904Y73602857D01*
X176614285Y73555238D01*
X176519047Y73507619D01*
X176328571Y73507619D01*
X176233333Y73555238D01*
X176185714Y73602857D01*
X176138095Y73698095D01*
X176138095Y73888571D01*
X176185714Y73983809D01*
X176233333Y74031428D01*
X176328571Y74079047D01*
X159614285Y73547619D02*
X159614285Y74547619D01*
X159376190Y74547619D01*
X159233333Y74500000D01*
X159138095Y74404761D01*
X159090476Y74309523D01*
X159042857Y74119047D01*
X159042857Y73976190D01*
X159090476Y73785714D01*
X159138095Y73690476D01*
X159233333Y73595238D01*
X159376190Y73547619D01*
X159614285Y73547619D01*
X158709523Y74547619D02*
X158090476Y74547619D01*
X158423809Y74166666D01*
X158280952Y74166666D01*
X158185714Y74119047D01*
X158138095Y74071428D01*
X158090476Y73976190D01*
X158090476Y73738095D01*
X158138095Y73642857D01*
X158185714Y73595238D01*
X158280952Y73547619D01*
X158566666Y73547619D01*
X158661904Y73595238D01*
X158709523Y73642857D01*
X157757142Y74547619D02*
X157090476Y74547619D01*
X157519047Y73547619D01*
X140724285Y73567619D02*
X140724285Y74567619D01*
X140486190Y74567619D01*
X140343333Y74520000D01*
X140248095Y74424761D01*
X140200476Y74329523D01*
X140152857Y74139047D01*
X140152857Y73996190D01*
X140200476Y73805714D01*
X140248095Y73710476D01*
X140343333Y73615238D01*
X140486190Y73567619D01*
X140724285Y73567619D01*
X139819523Y74567619D02*
X139200476Y74567619D01*
X139533809Y74186666D01*
X139390952Y74186666D01*
X139295714Y74139047D01*
X139248095Y74091428D01*
X139200476Y73996190D01*
X139200476Y73758095D01*
X139248095Y73662857D01*
X139295714Y73615238D01*
X139390952Y73567619D01*
X139676666Y73567619D01*
X139771904Y73615238D01*
X139819523Y73662857D01*
X138343333Y74567619D02*
X138533809Y74567619D01*
X138629047Y74520000D01*
X138676666Y74472380D01*
X138771904Y74329523D01*
X138819523Y74139047D01*
X138819523Y73758095D01*
X138771904Y73662857D01*
X138724285Y73615238D01*
X138629047Y73567619D01*
X138438571Y73567619D01*
X138343333Y73615238D01*
X138295714Y73662857D01*
X138248095Y73758095D01*
X138248095Y73996190D01*
X138295714Y74091428D01*
X138343333Y74139047D01*
X138438571Y74186666D01*
X138629047Y74186666D01*
X138724285Y74139047D01*
X138771904Y74091428D01*
X138819523Y73996190D01*
X121754285Y73537619D02*
X121754285Y74537619D01*
X121516190Y74537619D01*
X121373333Y74490000D01*
X121278095Y74394761D01*
X121230476Y74299523D01*
X121182857Y74109047D01*
X121182857Y73966190D01*
X121230476Y73775714D01*
X121278095Y73680476D01*
X121373333Y73585238D01*
X121516190Y73537619D01*
X121754285Y73537619D01*
X120849523Y74537619D02*
X120230476Y74537619D01*
X120563809Y74156666D01*
X120420952Y74156666D01*
X120325714Y74109047D01*
X120278095Y74061428D01*
X120230476Y73966190D01*
X120230476Y73728095D01*
X120278095Y73632857D01*
X120325714Y73585238D01*
X120420952Y73537619D01*
X120706666Y73537619D01*
X120801904Y73585238D01*
X120849523Y73632857D01*
X119325714Y74537619D02*
X119801904Y74537619D01*
X119849523Y74061428D01*
X119801904Y74109047D01*
X119706666Y74156666D01*
X119468571Y74156666D01*
X119373333Y74109047D01*
X119325714Y74061428D01*
X119278095Y73966190D01*
X119278095Y73728095D01*
X119325714Y73632857D01*
X119373333Y73585238D01*
X119468571Y73537619D01*
X119706666Y73537619D01*
X119801904Y73585238D01*
X119849523Y73632857D01*
X102294285Y73607619D02*
X102294285Y74607619D01*
X102056190Y74607619D01*
X101913333Y74560000D01*
X101818095Y74464761D01*
X101770476Y74369523D01*
X101722857Y74179047D01*
X101722857Y74036190D01*
X101770476Y73845714D01*
X101818095Y73750476D01*
X101913333Y73655238D01*
X102056190Y73607619D01*
X102294285Y73607619D01*
X101389523Y74607619D02*
X100770476Y74607619D01*
X101103809Y74226666D01*
X100960952Y74226666D01*
X100865714Y74179047D01*
X100818095Y74131428D01*
X100770476Y74036190D01*
X100770476Y73798095D01*
X100818095Y73702857D01*
X100865714Y73655238D01*
X100960952Y73607619D01*
X101246666Y73607619D01*
X101341904Y73655238D01*
X101389523Y73702857D01*
X99913333Y74274285D02*
X99913333Y73607619D01*
X100151428Y74655238D02*
X100389523Y73940952D01*
X99770476Y73940952D01*
X83404285Y73537619D02*
X83404285Y74537619D01*
X83166190Y74537619D01*
X83023333Y74490000D01*
X82928095Y74394761D01*
X82880476Y74299523D01*
X82832857Y74109047D01*
X82832857Y73966190D01*
X82880476Y73775714D01*
X82928095Y73680476D01*
X83023333Y73585238D01*
X83166190Y73537619D01*
X83404285Y73537619D01*
X82499523Y74537619D02*
X81880476Y74537619D01*
X82213809Y74156666D01*
X82070952Y74156666D01*
X81975714Y74109047D01*
X81928095Y74061428D01*
X81880476Y73966190D01*
X81880476Y73728095D01*
X81928095Y73632857D01*
X81975714Y73585238D01*
X82070952Y73537619D01*
X82356666Y73537619D01*
X82451904Y73585238D01*
X82499523Y73632857D01*
X81547142Y74537619D02*
X80928095Y74537619D01*
X81261428Y74156666D01*
X81118571Y74156666D01*
X81023333Y74109047D01*
X80975714Y74061428D01*
X80928095Y73966190D01*
X80928095Y73728095D01*
X80975714Y73632857D01*
X81023333Y73585238D01*
X81118571Y73537619D01*
X81404285Y73537619D01*
X81499523Y73585238D01*
X81547142Y73632857D01*
X64394285Y73557619D02*
X64394285Y74557619D01*
X64156190Y74557619D01*
X64013333Y74510000D01*
X63918095Y74414761D01*
X63870476Y74319523D01*
X63822857Y74129047D01*
X63822857Y73986190D01*
X63870476Y73795714D01*
X63918095Y73700476D01*
X64013333Y73605238D01*
X64156190Y73557619D01*
X64394285Y73557619D01*
X63489523Y74557619D02*
X62870476Y74557619D01*
X63203809Y74176666D01*
X63060952Y74176666D01*
X62965714Y74129047D01*
X62918095Y74081428D01*
X62870476Y73986190D01*
X62870476Y73748095D01*
X62918095Y73652857D01*
X62965714Y73605238D01*
X63060952Y73557619D01*
X63346666Y73557619D01*
X63441904Y73605238D01*
X63489523Y73652857D01*
X62489523Y74462380D02*
X62441904Y74510000D01*
X62346666Y74557619D01*
X62108571Y74557619D01*
X62013333Y74510000D01*
X61965714Y74462380D01*
X61918095Y74367142D01*
X61918095Y74271904D01*
X61965714Y74129047D01*
X62537142Y73557619D01*
X61918095Y73557619D01*
X45284285Y73597619D02*
X45284285Y74597619D01*
X45046190Y74597619D01*
X44903333Y74550000D01*
X44808095Y74454761D01*
X44760476Y74359523D01*
X44712857Y74169047D01*
X44712857Y74026190D01*
X44760476Y73835714D01*
X44808095Y73740476D01*
X44903333Y73645238D01*
X45046190Y73597619D01*
X45284285Y73597619D01*
X44379523Y74597619D02*
X43760476Y74597619D01*
X44093809Y74216666D01*
X43950952Y74216666D01*
X43855714Y74169047D01*
X43808095Y74121428D01*
X43760476Y74026190D01*
X43760476Y73788095D01*
X43808095Y73692857D01*
X43855714Y73645238D01*
X43950952Y73597619D01*
X44236666Y73597619D01*
X44331904Y73645238D01*
X44379523Y73692857D01*
X42808095Y73597619D02*
X43379523Y73597619D01*
X43093809Y73597619D02*
X43093809Y74597619D01*
X43189047Y74454761D01*
X43284285Y74359523D01*
X43379523Y74311904D01*
X21474285Y73537619D02*
X21474285Y74537619D01*
X21236190Y74537619D01*
X21093333Y74490000D01*
X20998095Y74394761D01*
X20950476Y74299523D01*
X20902857Y74109047D01*
X20902857Y73966190D01*
X20950476Y73775714D01*
X20998095Y73680476D01*
X21093333Y73585238D01*
X21236190Y73537619D01*
X21474285Y73537619D01*
X20569523Y74537619D02*
X19950476Y74537619D01*
X20283809Y74156666D01*
X20140952Y74156666D01*
X20045714Y74109047D01*
X19998095Y74061428D01*
X19950476Y73966190D01*
X19950476Y73728095D01*
X19998095Y73632857D01*
X20045714Y73585238D01*
X20140952Y73537619D01*
X20426666Y73537619D01*
X20521904Y73585238D01*
X20569523Y73632857D01*
X19331428Y74537619D02*
X19236190Y74537619D01*
X19140952Y74490000D01*
X19093333Y74442380D01*
X19045714Y74347142D01*
X18998095Y74156666D01*
X18998095Y73918571D01*
X19045714Y73728095D01*
X19093333Y73632857D01*
X19140952Y73585238D01*
X19236190Y73537619D01*
X19331428Y73537619D01*
X19426666Y73585238D01*
X19474285Y73632857D01*
X19521904Y73728095D01*
X19569523Y73918571D01*
X19569523Y74156666D01*
X19521904Y74347142D01*
X19474285Y74442380D01*
X19426666Y74490000D01*
X19331428Y74537619D01*
X302474285Y92627619D02*
X302474285Y93627619D01*
X302236190Y93627619D01*
X302093333Y93580000D01*
X301998095Y93484761D01*
X301950476Y93389523D01*
X301902857Y93199047D01*
X301902857Y93056190D01*
X301950476Y92865714D01*
X301998095Y92770476D01*
X302093333Y92675238D01*
X302236190Y92627619D01*
X302474285Y92627619D01*
X301521904Y93532380D02*
X301474285Y93580000D01*
X301379047Y93627619D01*
X301140952Y93627619D01*
X301045714Y93580000D01*
X300998095Y93532380D01*
X300950476Y93437142D01*
X300950476Y93341904D01*
X300998095Y93199047D01*
X301569523Y92627619D01*
X300950476Y92627619D01*
X300474285Y92627619D02*
X300283809Y92627619D01*
X300188571Y92675238D01*
X300140952Y92722857D01*
X300045714Y92865714D01*
X299998095Y93056190D01*
X299998095Y93437142D01*
X300045714Y93532380D01*
X300093333Y93580000D01*
X300188571Y93627619D01*
X300379047Y93627619D01*
X300474285Y93580000D01*
X300521904Y93532380D01*
X300569523Y93437142D01*
X300569523Y93199047D01*
X300521904Y93103809D01*
X300474285Y93056190D01*
X300379047Y93008571D01*
X300188571Y93008571D01*
X300093333Y93056190D01*
X300045714Y93103809D01*
X299998095Y93199047D01*
X273904285Y92637619D02*
X273904285Y93637619D01*
X273666190Y93637619D01*
X273523333Y93590000D01*
X273428095Y93494761D01*
X273380476Y93399523D01*
X273332857Y93209047D01*
X273332857Y93066190D01*
X273380476Y92875714D01*
X273428095Y92780476D01*
X273523333Y92685238D01*
X273666190Y92637619D01*
X273904285Y92637619D01*
X272951904Y93542380D02*
X272904285Y93590000D01*
X272809047Y93637619D01*
X272570952Y93637619D01*
X272475714Y93590000D01*
X272428095Y93542380D01*
X272380476Y93447142D01*
X272380476Y93351904D01*
X272428095Y93209047D01*
X272999523Y92637619D01*
X272380476Y92637619D01*
X271809047Y93209047D02*
X271904285Y93256666D01*
X271951904Y93304285D01*
X271999523Y93399523D01*
X271999523Y93447142D01*
X271951904Y93542380D01*
X271904285Y93590000D01*
X271809047Y93637619D01*
X271618571Y93637619D01*
X271523333Y93590000D01*
X271475714Y93542380D01*
X271428095Y93447142D01*
X271428095Y93399523D01*
X271475714Y93304285D01*
X271523333Y93256666D01*
X271618571Y93209047D01*
X271809047Y93209047D01*
X271904285Y93161428D01*
X271951904Y93113809D01*
X271999523Y93018571D01*
X271999523Y92828095D01*
X271951904Y92732857D01*
X271904285Y92685238D01*
X271809047Y92637619D01*
X271618571Y92637619D01*
X271523333Y92685238D01*
X271475714Y92732857D01*
X271428095Y92828095D01*
X271428095Y93018571D01*
X271475714Y93113809D01*
X271523333Y93161428D01*
X271618571Y93209047D01*
X245404285Y92687619D02*
X245404285Y93687619D01*
X245166190Y93687619D01*
X245023333Y93640000D01*
X244928095Y93544761D01*
X244880476Y93449523D01*
X244832857Y93259047D01*
X244832857Y93116190D01*
X244880476Y92925714D01*
X244928095Y92830476D01*
X245023333Y92735238D01*
X245166190Y92687619D01*
X245404285Y92687619D01*
X244451904Y93592380D02*
X244404285Y93640000D01*
X244309047Y93687619D01*
X244070952Y93687619D01*
X243975714Y93640000D01*
X243928095Y93592380D01*
X243880476Y93497142D01*
X243880476Y93401904D01*
X243928095Y93259047D01*
X244499523Y92687619D01*
X243880476Y92687619D01*
X243547142Y93687619D02*
X242880476Y93687619D01*
X243309047Y92687619D01*
X226284285Y92627619D02*
X226284285Y93627619D01*
X226046190Y93627619D01*
X225903333Y93580000D01*
X225808095Y93484761D01*
X225760476Y93389523D01*
X225712857Y93199047D01*
X225712857Y93056190D01*
X225760476Y92865714D01*
X225808095Y92770476D01*
X225903333Y92675238D01*
X226046190Y92627619D01*
X226284285Y92627619D01*
X225331904Y93532380D02*
X225284285Y93580000D01*
X225189047Y93627619D01*
X224950952Y93627619D01*
X224855714Y93580000D01*
X224808095Y93532380D01*
X224760476Y93437142D01*
X224760476Y93341904D01*
X224808095Y93199047D01*
X225379523Y92627619D01*
X224760476Y92627619D01*
X223903333Y93627619D02*
X224093809Y93627619D01*
X224189047Y93580000D01*
X224236666Y93532380D01*
X224331904Y93389523D01*
X224379523Y93199047D01*
X224379523Y92818095D01*
X224331904Y92722857D01*
X224284285Y92675238D01*
X224189047Y92627619D01*
X223998571Y92627619D01*
X223903333Y92675238D01*
X223855714Y92722857D01*
X223808095Y92818095D01*
X223808095Y93056190D01*
X223855714Y93151428D01*
X223903333Y93199047D01*
X223998571Y93246666D01*
X224189047Y93246666D01*
X224284285Y93199047D01*
X224331904Y93151428D01*
X224379523Y93056190D01*
X207194285Y92617619D02*
X207194285Y93617619D01*
X206956190Y93617619D01*
X206813333Y93570000D01*
X206718095Y93474761D01*
X206670476Y93379523D01*
X206622857Y93189047D01*
X206622857Y93046190D01*
X206670476Y92855714D01*
X206718095Y92760476D01*
X206813333Y92665238D01*
X206956190Y92617619D01*
X207194285Y92617619D01*
X206241904Y93522380D02*
X206194285Y93570000D01*
X206099047Y93617619D01*
X205860952Y93617619D01*
X205765714Y93570000D01*
X205718095Y93522380D01*
X205670476Y93427142D01*
X205670476Y93331904D01*
X205718095Y93189047D01*
X206289523Y92617619D01*
X205670476Y92617619D01*
X204765714Y93617619D02*
X205241904Y93617619D01*
X205289523Y93141428D01*
X205241904Y93189047D01*
X205146666Y93236666D01*
X204908571Y93236666D01*
X204813333Y93189047D01*
X204765714Y93141428D01*
X204718095Y93046190D01*
X204718095Y92808095D01*
X204765714Y92712857D01*
X204813333Y92665238D01*
X204908571Y92617619D01*
X205146666Y92617619D01*
X205241904Y92665238D01*
X205289523Y92712857D01*
X188074285Y92657619D02*
X188074285Y93657619D01*
X187836190Y93657619D01*
X187693333Y93610000D01*
X187598095Y93514761D01*
X187550476Y93419523D01*
X187502857Y93229047D01*
X187502857Y93086190D01*
X187550476Y92895714D01*
X187598095Y92800476D01*
X187693333Y92705238D01*
X187836190Y92657619D01*
X188074285Y92657619D01*
X187121904Y93562380D02*
X187074285Y93610000D01*
X186979047Y93657619D01*
X186740952Y93657619D01*
X186645714Y93610000D01*
X186598095Y93562380D01*
X186550476Y93467142D01*
X186550476Y93371904D01*
X186598095Y93229047D01*
X187169523Y92657619D01*
X186550476Y92657619D01*
X185693333Y93324285D02*
X185693333Y92657619D01*
X185931428Y93705238D02*
X186169523Y92990952D01*
X185550476Y92990952D01*
X169034285Y92597619D02*
X169034285Y93597619D01*
X168796190Y93597619D01*
X168653333Y93550000D01*
X168558095Y93454761D01*
X168510476Y93359523D01*
X168462857Y93169047D01*
X168462857Y93026190D01*
X168510476Y92835714D01*
X168558095Y92740476D01*
X168653333Y92645238D01*
X168796190Y92597619D01*
X169034285Y92597619D01*
X168081904Y93502380D02*
X168034285Y93550000D01*
X167939047Y93597619D01*
X167700952Y93597619D01*
X167605714Y93550000D01*
X167558095Y93502380D01*
X167510476Y93407142D01*
X167510476Y93311904D01*
X167558095Y93169047D01*
X168129523Y92597619D01*
X167510476Y92597619D01*
X167177142Y93597619D02*
X166558095Y93597619D01*
X166891428Y93216666D01*
X166748571Y93216666D01*
X166653333Y93169047D01*
X166605714Y93121428D01*
X166558095Y93026190D01*
X166558095Y92788095D01*
X166605714Y92692857D01*
X166653333Y92645238D01*
X166748571Y92597619D01*
X167034285Y92597619D01*
X167129523Y92645238D01*
X167177142Y92692857D01*
X150084285Y92647619D02*
X150084285Y93647619D01*
X149846190Y93647619D01*
X149703333Y93600000D01*
X149608095Y93504761D01*
X149560476Y93409523D01*
X149512857Y93219047D01*
X149512857Y93076190D01*
X149560476Y92885714D01*
X149608095Y92790476D01*
X149703333Y92695238D01*
X149846190Y92647619D01*
X150084285Y92647619D01*
X149131904Y93552380D02*
X149084285Y93600000D01*
X148989047Y93647619D01*
X148750952Y93647619D01*
X148655714Y93600000D01*
X148608095Y93552380D01*
X148560476Y93457142D01*
X148560476Y93361904D01*
X148608095Y93219047D01*
X149179523Y92647619D01*
X148560476Y92647619D01*
X148179523Y93552380D02*
X148131904Y93600000D01*
X148036666Y93647619D01*
X147798571Y93647619D01*
X147703333Y93600000D01*
X147655714Y93552380D01*
X147608095Y93457142D01*
X147608095Y93361904D01*
X147655714Y93219047D01*
X148227142Y92647619D01*
X147608095Y92647619D01*
X131004285Y92637619D02*
X131004285Y93637619D01*
X130766190Y93637619D01*
X130623333Y93590000D01*
X130528095Y93494761D01*
X130480476Y93399523D01*
X130432857Y93209047D01*
X130432857Y93066190D01*
X130480476Y92875714D01*
X130528095Y92780476D01*
X130623333Y92685238D01*
X130766190Y92637619D01*
X131004285Y92637619D01*
X130051904Y93542380D02*
X130004285Y93590000D01*
X129909047Y93637619D01*
X129670952Y93637619D01*
X129575714Y93590000D01*
X129528095Y93542380D01*
X129480476Y93447142D01*
X129480476Y93351904D01*
X129528095Y93209047D01*
X130099523Y92637619D01*
X129480476Y92637619D01*
X128528095Y92637619D02*
X129099523Y92637619D01*
X128813809Y92637619D02*
X128813809Y93637619D01*
X128909047Y93494761D01*
X129004285Y93399523D01*
X129099523Y93351904D01*
X111924285Y92647619D02*
X111924285Y93647619D01*
X111686190Y93647619D01*
X111543333Y93600000D01*
X111448095Y93504761D01*
X111400476Y93409523D01*
X111352857Y93219047D01*
X111352857Y93076190D01*
X111400476Y92885714D01*
X111448095Y92790476D01*
X111543333Y92695238D01*
X111686190Y92647619D01*
X111924285Y92647619D01*
X110971904Y93552380D02*
X110924285Y93600000D01*
X110829047Y93647619D01*
X110590952Y93647619D01*
X110495714Y93600000D01*
X110448095Y93552380D01*
X110400476Y93457142D01*
X110400476Y93361904D01*
X110448095Y93219047D01*
X111019523Y92647619D01*
X110400476Y92647619D01*
X109781428Y93647619D02*
X109686190Y93647619D01*
X109590952Y93600000D01*
X109543333Y93552380D01*
X109495714Y93457142D01*
X109448095Y93266666D01*
X109448095Y93028571D01*
X109495714Y92838095D01*
X109543333Y92742857D01*
X109590952Y92695238D01*
X109686190Y92647619D01*
X109781428Y92647619D01*
X109876666Y92695238D01*
X109924285Y92742857D01*
X109971904Y92838095D01*
X110019523Y93028571D01*
X110019523Y93266666D01*
X109971904Y93457142D01*
X109924285Y93552380D01*
X109876666Y93600000D01*
X109781428Y93647619D01*
X92814285Y92677619D02*
X92814285Y93677619D01*
X92576190Y93677619D01*
X92433333Y93630000D01*
X92338095Y93534761D01*
X92290476Y93439523D01*
X92242857Y93249047D01*
X92242857Y93106190D01*
X92290476Y92915714D01*
X92338095Y92820476D01*
X92433333Y92725238D01*
X92576190Y92677619D01*
X92814285Y92677619D01*
X91290476Y92677619D02*
X91861904Y92677619D01*
X91576190Y92677619D02*
X91576190Y93677619D01*
X91671428Y93534761D01*
X91766666Y93439523D01*
X91861904Y93391904D01*
X90814285Y92677619D02*
X90623809Y92677619D01*
X90528571Y92725238D01*
X90480952Y92772857D01*
X90385714Y92915714D01*
X90338095Y93106190D01*
X90338095Y93487142D01*
X90385714Y93582380D01*
X90433333Y93630000D01*
X90528571Y93677619D01*
X90719047Y93677619D01*
X90814285Y93630000D01*
X90861904Y93582380D01*
X90909523Y93487142D01*
X90909523Y93249047D01*
X90861904Y93153809D01*
X90814285Y93106190D01*
X90719047Y93058571D01*
X90528571Y93058571D01*
X90433333Y93106190D01*
X90385714Y93153809D01*
X90338095Y93249047D01*
X73904285Y92697619D02*
X73904285Y93697619D01*
X73666190Y93697619D01*
X73523333Y93650000D01*
X73428095Y93554761D01*
X73380476Y93459523D01*
X73332857Y93269047D01*
X73332857Y93126190D01*
X73380476Y92935714D01*
X73428095Y92840476D01*
X73523333Y92745238D01*
X73666190Y92697619D01*
X73904285Y92697619D01*
X72380476Y92697619D02*
X72951904Y92697619D01*
X72666190Y92697619D02*
X72666190Y93697619D01*
X72761428Y93554761D01*
X72856666Y93459523D01*
X72951904Y93411904D01*
X71809047Y93269047D02*
X71904285Y93316666D01*
X71951904Y93364285D01*
X71999523Y93459523D01*
X71999523Y93507142D01*
X71951904Y93602380D01*
X71904285Y93650000D01*
X71809047Y93697619D01*
X71618571Y93697619D01*
X71523333Y93650000D01*
X71475714Y93602380D01*
X71428095Y93507142D01*
X71428095Y93459523D01*
X71475714Y93364285D01*
X71523333Y93316666D01*
X71618571Y93269047D01*
X71809047Y93269047D01*
X71904285Y93221428D01*
X71951904Y93173809D01*
X71999523Y93078571D01*
X71999523Y92888095D01*
X71951904Y92792857D01*
X71904285Y92745238D01*
X71809047Y92697619D01*
X71618571Y92697619D01*
X71523333Y92745238D01*
X71475714Y92792857D01*
X71428095Y92888095D01*
X71428095Y93078571D01*
X71475714Y93173809D01*
X71523333Y93221428D01*
X71618571Y93269047D01*
X54824285Y92607619D02*
X54824285Y93607619D01*
X54586190Y93607619D01*
X54443333Y93560000D01*
X54348095Y93464761D01*
X54300476Y93369523D01*
X54252857Y93179047D01*
X54252857Y93036190D01*
X54300476Y92845714D01*
X54348095Y92750476D01*
X54443333Y92655238D01*
X54586190Y92607619D01*
X54824285Y92607619D01*
X53300476Y92607619D02*
X53871904Y92607619D01*
X53586190Y92607619D02*
X53586190Y93607619D01*
X53681428Y93464761D01*
X53776666Y93369523D01*
X53871904Y93321904D01*
X52967142Y93607619D02*
X52300476Y93607619D01*
X52729047Y92607619D01*
X35784285Y92637619D02*
X35784285Y93637619D01*
X35546190Y93637619D01*
X35403333Y93590000D01*
X35308095Y93494761D01*
X35260476Y93399523D01*
X35212857Y93209047D01*
X35212857Y93066190D01*
X35260476Y92875714D01*
X35308095Y92780476D01*
X35403333Y92685238D01*
X35546190Y92637619D01*
X35784285Y92637619D01*
X34260476Y92637619D02*
X34831904Y92637619D01*
X34546190Y92637619D02*
X34546190Y93637619D01*
X34641428Y93494761D01*
X34736666Y93399523D01*
X34831904Y93351904D01*
X33403333Y93637619D02*
X33593809Y93637619D01*
X33689047Y93590000D01*
X33736666Y93542380D01*
X33831904Y93399523D01*
X33879523Y93209047D01*
X33879523Y92828095D01*
X33831904Y92732857D01*
X33784285Y92685238D01*
X33689047Y92637619D01*
X33498571Y92637619D01*
X33403333Y92685238D01*
X33355714Y92732857D01*
X33308095Y92828095D01*
X33308095Y93066190D01*
X33355714Y93161428D01*
X33403333Y93209047D01*
X33498571Y93256666D01*
X33689047Y93256666D01*
X33784285Y93209047D01*
X33831904Y93161428D01*
X33879523Y93066190D01*
X16714285Y92647619D02*
X16714285Y93647619D01*
X16476190Y93647619D01*
X16333333Y93600000D01*
X16238095Y93504761D01*
X16190476Y93409523D01*
X16142857Y93219047D01*
X16142857Y93076190D01*
X16190476Y92885714D01*
X16238095Y92790476D01*
X16333333Y92695238D01*
X16476190Y92647619D01*
X16714285Y92647619D01*
X15190476Y92647619D02*
X15761904Y92647619D01*
X15476190Y92647619D02*
X15476190Y93647619D01*
X15571428Y93504761D01*
X15666666Y93409523D01*
X15761904Y93361904D01*
X14285714Y93647619D02*
X14761904Y93647619D01*
X14809523Y93171428D01*
X14761904Y93219047D01*
X14666666Y93266666D01*
X14428571Y93266666D01*
X14333333Y93219047D01*
X14285714Y93171428D01*
X14238095Y93076190D01*
X14238095Y92838095D01*
X14285714Y92742857D01*
X14333333Y92695238D01*
X14428571Y92647619D01*
X14666666Y92647619D01*
X14761904Y92695238D01*
X14809523Y92742857D01*
X302654285Y111707619D02*
X302654285Y112707619D01*
X302416190Y112707619D01*
X302273333Y112660000D01*
X302178095Y112564761D01*
X302130476Y112469523D01*
X302082857Y112279047D01*
X302082857Y112136190D01*
X302130476Y111945714D01*
X302178095Y111850476D01*
X302273333Y111755238D01*
X302416190Y111707619D01*
X302654285Y111707619D01*
X301130476Y111707619D02*
X301701904Y111707619D01*
X301416190Y111707619D02*
X301416190Y112707619D01*
X301511428Y112564761D01*
X301606666Y112469523D01*
X301701904Y112421904D01*
X300273333Y112374285D02*
X300273333Y111707619D01*
X300511428Y112755238D02*
X300749523Y112040952D01*
X300130476Y112040952D01*
X273894285Y111647619D02*
X273894285Y112647619D01*
X273656190Y112647619D01*
X273513333Y112600000D01*
X273418095Y112504761D01*
X273370476Y112409523D01*
X273322857Y112219047D01*
X273322857Y112076190D01*
X273370476Y111885714D01*
X273418095Y111790476D01*
X273513333Y111695238D01*
X273656190Y111647619D01*
X273894285Y111647619D01*
X272370476Y111647619D02*
X272941904Y111647619D01*
X272656190Y111647619D02*
X272656190Y112647619D01*
X272751428Y112504761D01*
X272846666Y112409523D01*
X272941904Y112361904D01*
X272037142Y112647619D02*
X271418095Y112647619D01*
X271751428Y112266666D01*
X271608571Y112266666D01*
X271513333Y112219047D01*
X271465714Y112171428D01*
X271418095Y112076190D01*
X271418095Y111838095D01*
X271465714Y111742857D01*
X271513333Y111695238D01*
X271608571Y111647619D01*
X271894285Y111647619D01*
X271989523Y111695238D01*
X272037142Y111742857D01*
X254894285Y111697619D02*
X254894285Y112697619D01*
X254656190Y112697619D01*
X254513333Y112650000D01*
X254418095Y112554761D01*
X254370476Y112459523D01*
X254322857Y112269047D01*
X254322857Y112126190D01*
X254370476Y111935714D01*
X254418095Y111840476D01*
X254513333Y111745238D01*
X254656190Y111697619D01*
X254894285Y111697619D01*
X253370476Y111697619D02*
X253941904Y111697619D01*
X253656190Y111697619D02*
X253656190Y112697619D01*
X253751428Y112554761D01*
X253846666Y112459523D01*
X253941904Y112411904D01*
X252989523Y112602380D02*
X252941904Y112650000D01*
X252846666Y112697619D01*
X252608571Y112697619D01*
X252513333Y112650000D01*
X252465714Y112602380D01*
X252418095Y112507142D01*
X252418095Y112411904D01*
X252465714Y112269047D01*
X253037142Y111697619D01*
X252418095Y111697619D01*
X235654285Y111667619D02*
X235654285Y112667619D01*
X235416190Y112667619D01*
X235273333Y112620000D01*
X235178095Y112524761D01*
X235130476Y112429523D01*
X235082857Y112239047D01*
X235082857Y112096190D01*
X235130476Y111905714D01*
X235178095Y111810476D01*
X235273333Y111715238D01*
X235416190Y111667619D01*
X235654285Y111667619D01*
X234130476Y111667619D02*
X234701904Y111667619D01*
X234416190Y111667619D02*
X234416190Y112667619D01*
X234511428Y112524761D01*
X234606666Y112429523D01*
X234701904Y112381904D01*
X233178095Y111667619D02*
X233749523Y111667619D01*
X233463809Y111667619D02*
X233463809Y112667619D01*
X233559047Y112524761D01*
X233654285Y112429523D01*
X233749523Y112381904D01*
X216764285Y111747619D02*
X216764285Y112747619D01*
X216526190Y112747619D01*
X216383333Y112700000D01*
X216288095Y112604761D01*
X216240476Y112509523D01*
X216192857Y112319047D01*
X216192857Y112176190D01*
X216240476Y111985714D01*
X216288095Y111890476D01*
X216383333Y111795238D01*
X216526190Y111747619D01*
X216764285Y111747619D01*
X215240476Y111747619D02*
X215811904Y111747619D01*
X215526190Y111747619D02*
X215526190Y112747619D01*
X215621428Y112604761D01*
X215716666Y112509523D01*
X215811904Y112461904D01*
X214621428Y112747619D02*
X214526190Y112747619D01*
X214430952Y112700000D01*
X214383333Y112652380D01*
X214335714Y112557142D01*
X214288095Y112366666D01*
X214288095Y112128571D01*
X214335714Y111938095D01*
X214383333Y111842857D01*
X214430952Y111795238D01*
X214526190Y111747619D01*
X214621428Y111747619D01*
X214716666Y111795238D01*
X214764285Y111842857D01*
X214811904Y111938095D01*
X214859523Y112128571D01*
X214859523Y112366666D01*
X214811904Y112557142D01*
X214764285Y112652380D01*
X214716666Y112700000D01*
X214621428Y112747619D01*
X187708095Y111697619D02*
X187708095Y112697619D01*
X187470000Y112697619D01*
X187327142Y112650000D01*
X187231904Y112554761D01*
X187184285Y112459523D01*
X187136666Y112269047D01*
X187136666Y112126190D01*
X187184285Y111935714D01*
X187231904Y111840476D01*
X187327142Y111745238D01*
X187470000Y111697619D01*
X187708095Y111697619D01*
X186660476Y111697619D02*
X186470000Y111697619D01*
X186374761Y111745238D01*
X186327142Y111792857D01*
X186231904Y111935714D01*
X186184285Y112126190D01*
X186184285Y112507142D01*
X186231904Y112602380D01*
X186279523Y112650000D01*
X186374761Y112697619D01*
X186565238Y112697619D01*
X186660476Y112650000D01*
X186708095Y112602380D01*
X186755714Y112507142D01*
X186755714Y112269047D01*
X186708095Y112173809D01*
X186660476Y112126190D01*
X186565238Y112078571D01*
X186374761Y112078571D01*
X186279523Y112126190D01*
X186231904Y112173809D01*
X186184285Y112269047D01*
X168898095Y111837619D02*
X168898095Y112837619D01*
X168660000Y112837619D01*
X168517142Y112790000D01*
X168421904Y112694761D01*
X168374285Y112599523D01*
X168326666Y112409047D01*
X168326666Y112266190D01*
X168374285Y112075714D01*
X168421904Y111980476D01*
X168517142Y111885238D01*
X168660000Y111837619D01*
X168898095Y111837619D01*
X167755238Y112409047D02*
X167850476Y112456666D01*
X167898095Y112504285D01*
X167945714Y112599523D01*
X167945714Y112647142D01*
X167898095Y112742380D01*
X167850476Y112790000D01*
X167755238Y112837619D01*
X167564761Y112837619D01*
X167469523Y112790000D01*
X167421904Y112742380D01*
X167374285Y112647142D01*
X167374285Y112599523D01*
X167421904Y112504285D01*
X167469523Y112456666D01*
X167564761Y112409047D01*
X167755238Y112409047D01*
X167850476Y112361428D01*
X167898095Y112313809D01*
X167945714Y112218571D01*
X167945714Y112028095D01*
X167898095Y111932857D01*
X167850476Y111885238D01*
X167755238Y111837619D01*
X167564761Y111837619D01*
X167469523Y111885238D01*
X167421904Y111932857D01*
X167374285Y112028095D01*
X167374285Y112218571D01*
X167421904Y112313809D01*
X167469523Y112361428D01*
X167564761Y112409047D01*
X149638095Y111687619D02*
X149638095Y112687619D01*
X149400000Y112687619D01*
X149257142Y112640000D01*
X149161904Y112544761D01*
X149114285Y112449523D01*
X149066666Y112259047D01*
X149066666Y112116190D01*
X149114285Y111925714D01*
X149161904Y111830476D01*
X149257142Y111735238D01*
X149400000Y111687619D01*
X149638095Y111687619D01*
X148733333Y112687619D02*
X148066666Y112687619D01*
X148495238Y111687619D01*
X130468095Y111697619D02*
X130468095Y112697619D01*
X130230000Y112697619D01*
X130087142Y112650000D01*
X129991904Y112554761D01*
X129944285Y112459523D01*
X129896666Y112269047D01*
X129896666Y112126190D01*
X129944285Y111935714D01*
X129991904Y111840476D01*
X130087142Y111745238D01*
X130230000Y111697619D01*
X130468095Y111697619D01*
X129039523Y112697619D02*
X129230000Y112697619D01*
X129325238Y112650000D01*
X129372857Y112602380D01*
X129468095Y112459523D01*
X129515714Y112269047D01*
X129515714Y111888095D01*
X129468095Y111792857D01*
X129420476Y111745238D01*
X129325238Y111697619D01*
X129134761Y111697619D01*
X129039523Y111745238D01*
X128991904Y111792857D01*
X128944285Y111888095D01*
X128944285Y112126190D01*
X128991904Y112221428D01*
X129039523Y112269047D01*
X129134761Y112316666D01*
X129325238Y112316666D01*
X129420476Y112269047D01*
X129468095Y112221428D01*
X129515714Y112126190D01*
X101948095Y111647619D02*
X101948095Y112647619D01*
X101710000Y112647619D01*
X101567142Y112600000D01*
X101471904Y112504761D01*
X101424285Y112409523D01*
X101376666Y112219047D01*
X101376666Y112076190D01*
X101424285Y111885714D01*
X101471904Y111790476D01*
X101567142Y111695238D01*
X101710000Y111647619D01*
X101948095Y111647619D01*
X100471904Y112647619D02*
X100948095Y112647619D01*
X100995714Y112171428D01*
X100948095Y112219047D01*
X100852857Y112266666D01*
X100614761Y112266666D01*
X100519523Y112219047D01*
X100471904Y112171428D01*
X100424285Y112076190D01*
X100424285Y111838095D01*
X100471904Y111742857D01*
X100519523Y111695238D01*
X100614761Y111647619D01*
X100852857Y111647619D01*
X100948095Y111695238D01*
X100995714Y111742857D01*
X82988095Y111647619D02*
X82988095Y112647619D01*
X82750000Y112647619D01*
X82607142Y112600000D01*
X82511904Y112504761D01*
X82464285Y112409523D01*
X82416666Y112219047D01*
X82416666Y112076190D01*
X82464285Y111885714D01*
X82511904Y111790476D01*
X82607142Y111695238D01*
X82750000Y111647619D01*
X82988095Y111647619D01*
X81559523Y112314285D02*
X81559523Y111647619D01*
X81797619Y112695238D02*
X82035714Y111980952D01*
X81416666Y111980952D01*
X63858095Y111697619D02*
X63858095Y112697619D01*
X63620000Y112697619D01*
X63477142Y112650000D01*
X63381904Y112554761D01*
X63334285Y112459523D01*
X63286666Y112269047D01*
X63286666Y112126190D01*
X63334285Y111935714D01*
X63381904Y111840476D01*
X63477142Y111745238D01*
X63620000Y111697619D01*
X63858095Y111697619D01*
X62953333Y112697619D02*
X62334285Y112697619D01*
X62667619Y112316666D01*
X62524761Y112316666D01*
X62429523Y112269047D01*
X62381904Y112221428D01*
X62334285Y112126190D01*
X62334285Y111888095D01*
X62381904Y111792857D01*
X62429523Y111745238D01*
X62524761Y111697619D01*
X62810476Y111697619D01*
X62905714Y111745238D01*
X62953333Y111792857D01*
X44818095Y111667619D02*
X44818095Y112667619D01*
X44580000Y112667619D01*
X44437142Y112620000D01*
X44341904Y112524761D01*
X44294285Y112429523D01*
X44246666Y112239047D01*
X44246666Y112096190D01*
X44294285Y111905714D01*
X44341904Y111810476D01*
X44437142Y111715238D01*
X44580000Y111667619D01*
X44818095Y111667619D01*
X43865714Y112572380D02*
X43818095Y112620000D01*
X43722857Y112667619D01*
X43484761Y112667619D01*
X43389523Y112620000D01*
X43341904Y112572380D01*
X43294285Y112477142D01*
X43294285Y112381904D01*
X43341904Y112239047D01*
X43913333Y111667619D01*
X43294285Y111667619D01*
X16248095Y111887619D02*
X16248095Y112887619D01*
X16010000Y112887619D01*
X15867142Y112840000D01*
X15771904Y112744761D01*
X15724285Y112649523D01*
X15676666Y112459047D01*
X15676666Y112316190D01*
X15724285Y112125714D01*
X15771904Y112030476D01*
X15867142Y111935238D01*
X16010000Y111887619D01*
X16248095Y111887619D01*
X14724285Y111887619D02*
X15295714Y111887619D01*
X15010000Y111887619D02*
X15010000Y112887619D01*
X15105238Y112744761D01*
X15200476Y112649523D01*
X15295714Y112601904D01*
X131844761Y21829523D02*
X131892380Y21686666D01*
X131892380Y21448571D01*
X131844761Y21353333D01*
X131797142Y21305714D01*
X131701904Y21258095D01*
X131606666Y21258095D01*
X131511428Y21305714D01*
X131463809Y21353333D01*
X131416190Y21448571D01*
X131368571Y21639047D01*
X131320952Y21734285D01*
X131273333Y21781904D01*
X131178095Y21829523D01*
X131082857Y21829523D01*
X130987619Y21781904D01*
X130940000Y21734285D01*
X130892380Y21639047D01*
X130892380Y21400952D01*
X130940000Y21258095D01*
X130892380Y20924761D02*
X131892380Y20686666D01*
X131178095Y20496190D01*
X131892380Y20305714D01*
X130892380Y20067619D01*
X131320952Y19543809D02*
X131273333Y19639047D01*
X131225714Y19686666D01*
X131130476Y19734285D01*
X131082857Y19734285D01*
X130987619Y19686666D01*
X130940000Y19639047D01*
X130892380Y19543809D01*
X130892380Y19353333D01*
X130940000Y19258095D01*
X130987619Y19210476D01*
X131082857Y19162857D01*
X131130476Y19162857D01*
X131225714Y19210476D01*
X131273333Y19258095D01*
X131320952Y19353333D01*
X131320952Y19543809D01*
X131368571Y19639047D01*
X131416190Y19686666D01*
X131511428Y19734285D01*
X131701904Y19734285D01*
X131797142Y19686666D01*
X131844761Y19639047D01*
X131892380Y19543809D01*
X131892380Y19353333D01*
X131844761Y19258095D01*
X131797142Y19210476D01*
X131701904Y19162857D01*
X131511428Y19162857D01*
X131416190Y19210476D01*
X131368571Y19258095D01*
X131320952Y19353333D01*
X130892380Y18829523D02*
X130892380Y18210476D01*
X131273333Y18543809D01*
X131273333Y18400952D01*
X131320952Y18305714D01*
X131368571Y18258095D01*
X131463809Y18210476D01*
X131701904Y18210476D01*
X131797142Y18258095D01*
X131844761Y18305714D01*
X131892380Y18400952D01*
X131892380Y18686666D01*
X131844761Y18781904D01*
X131797142Y18829523D01*
X194526666Y16912857D02*
X194574285Y16865238D01*
X194717142Y16817619D01*
X194812380Y16817619D01*
X194955238Y16865238D01*
X195050476Y16960476D01*
X195098095Y17055714D01*
X195145714Y17246190D01*
X195145714Y17389047D01*
X195098095Y17579523D01*
X195050476Y17674761D01*
X194955238Y17770000D01*
X194812380Y17817619D01*
X194717142Y17817619D01*
X194574285Y17770000D01*
X194526666Y17722380D01*
X193669523Y17817619D02*
X193860000Y17817619D01*
X193955238Y17770000D01*
X194002857Y17722380D01*
X194098095Y17579523D01*
X194145714Y17389047D01*
X194145714Y17008095D01*
X194098095Y16912857D01*
X194050476Y16865238D01*
X193955238Y16817619D01*
X193764761Y16817619D01*
X193669523Y16865238D01*
X193621904Y16912857D01*
X193574285Y17008095D01*
X193574285Y17246190D01*
X193621904Y17341428D01*
X193669523Y17389047D01*
X193764761Y17436666D01*
X193955238Y17436666D01*
X194050476Y17389047D01*
X194098095Y17341428D01*
X194145714Y17246190D01*
X194546666Y14772857D02*
X194594285Y14725238D01*
X194737142Y14677619D01*
X194832380Y14677619D01*
X194975238Y14725238D01*
X195070476Y14820476D01*
X195118095Y14915714D01*
X195165714Y15106190D01*
X195165714Y15249047D01*
X195118095Y15439523D01*
X195070476Y15534761D01*
X194975238Y15630000D01*
X194832380Y15677619D01*
X194737142Y15677619D01*
X194594285Y15630000D01*
X194546666Y15582380D01*
X193594285Y14677619D02*
X194165714Y14677619D01*
X193880000Y14677619D02*
X193880000Y15677619D01*
X193975238Y15534761D01*
X194070476Y15439523D01*
X194165714Y15391904D01*
X194551666Y19042857D02*
X194599285Y18995238D01*
X194742142Y18947619D01*
X194837380Y18947619D01*
X194980238Y18995238D01*
X195075476Y19090476D01*
X195123095Y19185714D01*
X195170714Y19376190D01*
X195170714Y19519047D01*
X195123095Y19709523D01*
X195075476Y19804761D01*
X194980238Y19900000D01*
X194837380Y19947619D01*
X194742142Y19947619D01*
X194599285Y19900000D01*
X194551666Y19852380D01*
X194218333Y19947619D02*
X193551666Y19947619D01*
X193980238Y18947619D01*
X197706666Y14152857D02*
X197754285Y14105238D01*
X197897142Y14057619D01*
X197992380Y14057619D01*
X198135238Y14105238D01*
X198230476Y14200476D01*
X198278095Y14295714D01*
X198325714Y14486190D01*
X198325714Y14629047D01*
X198278095Y14819523D01*
X198230476Y14914761D01*
X198135238Y15010000D01*
X197992380Y15057619D01*
X197897142Y15057619D01*
X197754285Y15010000D01*
X197706666Y14962380D01*
X197135238Y14629047D02*
X197230476Y14676666D01*
X197278095Y14724285D01*
X197325714Y14819523D01*
X197325714Y14867142D01*
X197278095Y14962380D01*
X197230476Y15010000D01*
X197135238Y15057619D01*
X196944761Y15057619D01*
X196849523Y15010000D01*
X196801904Y14962380D01*
X196754285Y14867142D01*
X196754285Y14819523D01*
X196801904Y14724285D01*
X196849523Y14676666D01*
X196944761Y14629047D01*
X197135238Y14629047D01*
X197230476Y14581428D01*
X197278095Y14533809D01*
X197325714Y14438571D01*
X197325714Y14248095D01*
X197278095Y14152857D01*
X197230476Y14105238D01*
X197135238Y14057619D01*
X196944761Y14057619D01*
X196849523Y14105238D01*
X196801904Y14152857D01*
X196754285Y14248095D01*
X196754285Y14438571D01*
X196801904Y14533809D01*
X196849523Y14581428D01*
X196944761Y14629047D01*
X179391904Y14127619D02*
X179391904Y13318095D01*
X179344285Y13222857D01*
X179296666Y13175238D01*
X179201428Y13127619D01*
X179010952Y13127619D01*
X178915714Y13175238D01*
X178868095Y13222857D01*
X178820476Y13318095D01*
X178820476Y14127619D01*
X177820476Y13127619D02*
X178391904Y13127619D01*
X178106190Y13127619D02*
X178106190Y14127619D01*
X178201428Y13984761D01*
X178296666Y13889523D01*
X178391904Y13841904D01*
X175185871Y31334646D02*
X175233490Y31287027D01*
X175376347Y31239408D01*
X175471585Y31239408D01*
X175614443Y31287027D01*
X175709681Y31382265D01*
X175757300Y31477503D01*
X175804919Y31667979D01*
X175804919Y31810836D01*
X175757300Y32001312D01*
X175709681Y32096550D01*
X175614443Y32191789D01*
X175471585Y32239408D01*
X175376347Y32239408D01*
X175233490Y32191789D01*
X175185871Y32144169D01*
X174852538Y32239408D02*
X174233490Y32239408D01*
X174566824Y31858455D01*
X174423966Y31858455D01*
X174328728Y31810836D01*
X174281109Y31763217D01*
X174233490Y31667979D01*
X174233490Y31429884D01*
X174281109Y31334646D01*
X174328728Y31287027D01*
X174423966Y31239408D01*
X174709681Y31239408D01*
X174804919Y31287027D01*
X174852538Y31334646D01*
X166781666Y23122857D02*
X166829285Y23075238D01*
X166972142Y23027619D01*
X167067380Y23027619D01*
X167210238Y23075238D01*
X167305476Y23170476D01*
X167353095Y23265714D01*
X167400714Y23456190D01*
X167400714Y23599047D01*
X167353095Y23789523D01*
X167305476Y23884761D01*
X167210238Y23980000D01*
X167067380Y24027619D01*
X166972142Y24027619D01*
X166829285Y23980000D01*
X166781666Y23932380D01*
X165876904Y24027619D02*
X166353095Y24027619D01*
X166400714Y23551428D01*
X166353095Y23599047D01*
X166257857Y23646666D01*
X166019761Y23646666D01*
X165924523Y23599047D01*
X165876904Y23551428D01*
X165829285Y23456190D01*
X165829285Y23218095D01*
X165876904Y23122857D01*
X165924523Y23075238D01*
X166019761Y23027619D01*
X166257857Y23027619D01*
X166353095Y23075238D01*
X166400714Y23122857D01*
X190321666Y18947619D02*
X190655000Y19423809D01*
X190893095Y18947619D02*
X190893095Y19947619D01*
X190512142Y19947619D01*
X190416904Y19900000D01*
X190369285Y19852380D01*
X190321666Y19757142D01*
X190321666Y19614285D01*
X190369285Y19519047D01*
X190416904Y19471428D01*
X190512142Y19423809D01*
X190893095Y19423809D01*
X189940714Y19852380D02*
X189893095Y19900000D01*
X189797857Y19947619D01*
X189559761Y19947619D01*
X189464523Y19900000D01*
X189416904Y19852380D01*
X189369285Y19757142D01*
X189369285Y19661904D01*
X189416904Y19519047D01*
X189988333Y18947619D01*
X189369285Y18947619D01*
X180265871Y34634646D02*
X180313490Y34587027D01*
X180456347Y34539408D01*
X180551585Y34539408D01*
X180694443Y34587027D01*
X180789681Y34682265D01*
X180837300Y34777503D01*
X180884919Y34967979D01*
X180884919Y35110836D01*
X180837300Y35301312D01*
X180789681Y35396550D01*
X180694443Y35491789D01*
X180551585Y35539408D01*
X180456347Y35539408D01*
X180313490Y35491789D01*
X180265871Y35444169D01*
X179884919Y35444169D02*
X179837300Y35491789D01*
X179742062Y35539408D01*
X179503966Y35539408D01*
X179408728Y35491789D01*
X179361109Y35444169D01*
X179313490Y35348931D01*
X179313490Y35253693D01*
X179361109Y35110836D01*
X179932538Y34539408D01*
X179313490Y34539408D01*
X190421666Y13232857D02*
X190469285Y13185238D01*
X190612142Y13137619D01*
X190707380Y13137619D01*
X190850238Y13185238D01*
X190945476Y13280476D01*
X190993095Y13375714D01*
X191040714Y13566190D01*
X191040714Y13709047D01*
X190993095Y13899523D01*
X190945476Y13994761D01*
X190850238Y14090000D01*
X190707380Y14137619D01*
X190612142Y14137619D01*
X190469285Y14090000D01*
X190421666Y14042380D01*
X189564523Y13804285D02*
X189564523Y13137619D01*
X189802619Y14185238D02*
X190040714Y13470952D01*
X189421666Y13470952D01*
M02*
