G04 #@! TF.GenerationSoftware,KiCad,Pcbnew,5.0.1*
G04 #@! TF.CreationDate,2019-03-20T17:54:49+01:00*
G04 #@! TF.ProjectId,sofaboard,736F6661626F6172642E6B696361645F,rev?*
G04 #@! TF.SameCoordinates,Original*
G04 #@! TF.FileFunction,Legend,Bot*
G04 #@! TF.FilePolarity,Positive*
%FSLAX46Y46*%
G04 Gerber Fmt 4.6, Leading zero omitted, Abs format (unit mm)*
G04 Created by KiCad (PCBNEW 5.0.1) date Wed 20 Mar 2019 17:54:49 CET*
%MOMM*%
%LPD*%
G01*
G04 APERTURE LIST*
%ADD10C,0.120000*%
%ADD11C,0.150000*%
G04 APERTURE END LIST*
D10*
G04 #@! TO.C,D17*
X58910000Y89060000D02*
X50210000Y89060000D01*
X58910000Y92060000D02*
X58910000Y89060000D01*
X50210000Y92060000D02*
X58910000Y92060000D01*
G04 #@! TO.C,D60*
X59060000Y31910000D02*
X50360000Y31910000D01*
X59060000Y34910000D02*
X59060000Y31910000D01*
X50360000Y34910000D02*
X59060000Y34910000D01*
G04 #@! TO.C,D76*
X73090000Y12840000D02*
X64390000Y12840000D01*
X73090000Y15840000D02*
X73090000Y12840000D01*
X64390000Y15840000D02*
X73090000Y15840000D01*
G04 #@! TO.C,D36*
X136110000Y73020000D02*
X144810000Y73020000D01*
X144810000Y73020000D02*
X144810000Y70020000D01*
X144810000Y70020000D02*
X136110000Y70020000D01*
G04 #@! TO.C,D22*
X145470000Y92100000D02*
X154170000Y92100000D01*
X154170000Y92100000D02*
X154170000Y89100000D01*
X154170000Y89100000D02*
X145470000Y89100000D01*
G04 #@! TO.C,D63*
X107420000Y35330000D02*
X116120000Y35330000D01*
X116120000Y35330000D02*
X116120000Y32330000D01*
X116120000Y32330000D02*
X107420000Y32330000D01*
G04 #@! TO.C,D2*
X49380000Y108120000D02*
X40680000Y108120000D01*
X49380000Y111120000D02*
X49380000Y108120000D01*
X40680000Y111120000D02*
X49380000Y111120000D01*
G04 #@! TO.C,D69*
X221800000Y34870000D02*
X230500000Y34870000D01*
X230500000Y34870000D02*
X230500000Y31870000D01*
X230500000Y31870000D02*
X221800000Y31870000D01*
G04 #@! TO.C,SW83*
X123940000Y17770000D02*
X123940000Y22270000D01*
X127940000Y16520000D02*
X126440000Y16520000D01*
X130440000Y22270000D02*
X130440000Y17770000D01*
X126440000Y23520000D02*
X127940000Y23520000D01*
G04 #@! TO.C,D39*
X201840000Y70060000D02*
X193140000Y70060000D01*
X201840000Y73060000D02*
X201840000Y70060000D01*
X193140000Y73060000D02*
X201840000Y73060000D01*
G04 #@! TO.C,D50*
X130420000Y51000000D02*
X121720000Y51000000D01*
X130420000Y54000000D02*
X130420000Y51000000D01*
X121720000Y54000000D02*
X130420000Y54000000D01*
G04 #@! TO.C,D32*
X59780000Y73010000D02*
X68480000Y73010000D01*
X68480000Y73010000D02*
X68480000Y70010000D01*
X68480000Y70010000D02*
X59780000Y70010000D01*
G04 #@! TO.C,D58*
X306560000Y50970000D02*
X297860000Y50970000D01*
X306560000Y53970000D02*
X306560000Y50970000D01*
X297860000Y53970000D02*
X306560000Y53970000D01*
G04 #@! TO.C,D72*
X287630000Y32010000D02*
X278930000Y32010000D01*
X287630000Y35010000D02*
X287630000Y32010000D01*
X278930000Y35010000D02*
X287630000Y35010000D01*
G04 #@! TO.C,D65*
X139450000Y34910000D02*
X148150000Y34910000D01*
X148150000Y34910000D02*
X148150000Y31910000D01*
X148150000Y31910000D02*
X139450000Y31910000D01*
G04 #@! TO.C,D24*
X183460000Y92110000D02*
X192160000Y92110000D01*
X192160000Y92110000D02*
X192160000Y89110000D01*
X192160000Y89110000D02*
X183460000Y89110000D01*
G04 #@! TO.C,D55*
X217000000Y53960000D02*
X225700000Y53960000D01*
X225700000Y53960000D02*
X225700000Y50960000D01*
X225700000Y50960000D02*
X217000000Y50960000D01*
G04 #@! TO.C,D42*
X250230000Y72980000D02*
X258930000Y72980000D01*
X258930000Y72980000D02*
X258930000Y69980000D01*
X258930000Y69980000D02*
X250230000Y69980000D01*
G04 #@! TO.C,D27*
X240790000Y92140000D02*
X249490000Y92140000D01*
X249490000Y92140000D02*
X249490000Y89140000D01*
X249490000Y89140000D02*
X240790000Y89140000D01*
G04 #@! TO.C,D16*
X39870000Y89090000D02*
X31170000Y89090000D01*
X39870000Y92090000D02*
X39870000Y89090000D01*
X31170000Y92090000D02*
X39870000Y92090000D01*
G04 #@! TO.C,C6*
X194098748Y19630000D02*
X194621252Y19630000D01*
X194098748Y18210000D02*
X194621252Y18210000D01*
G04 #@! TO.C,D47*
X64380000Y54010000D02*
X73080000Y54010000D01*
X73080000Y54010000D02*
X73080000Y51010000D01*
X73080000Y51010000D02*
X64380000Y51010000D01*
G04 #@! TO.C,D81*
X278840000Y15870000D02*
X287540000Y15870000D01*
X287540000Y15870000D02*
X287540000Y12870000D01*
X287540000Y12870000D02*
X278840000Y12870000D01*
G04 #@! TO.C,D33*
X87490000Y69990000D02*
X78790000Y69990000D01*
X87490000Y72990000D02*
X87490000Y69990000D01*
X78790000Y72990000D02*
X87490000Y72990000D01*
G04 #@! TO.C,D74*
X23290000Y12860000D02*
X14590000Y12860000D01*
X23290000Y15860000D02*
X23290000Y12860000D01*
X14590000Y15860000D02*
X23290000Y15860000D01*
G04 #@! TO.C,D64*
X135320000Y31920000D02*
X126620000Y31920000D01*
X135320000Y34920000D02*
X135320000Y31920000D01*
X126620000Y34920000D02*
X135320000Y34920000D01*
G04 #@! TO.C,D28*
X277990000Y89090000D02*
X269290000Y89090000D01*
X277990000Y92090000D02*
X277990000Y89090000D01*
X269290000Y92090000D02*
X277990000Y92090000D01*
G04 #@! TO.C,D29*
X297860000Y92080000D02*
X306560000Y92080000D01*
X306560000Y92080000D02*
X306560000Y89080000D01*
X306560000Y89080000D02*
X297860000Y89080000D01*
G04 #@! TO.C,D52*
X168370000Y50980000D02*
X159670000Y50980000D01*
X168370000Y53980000D02*
X168370000Y50980000D01*
X159670000Y53980000D02*
X168370000Y53980000D01*
G04 #@! TO.C,D23*
X164420000Y92050000D02*
X173120000Y92050000D01*
X173120000Y92050000D02*
X173120000Y89050000D01*
X173120000Y89050000D02*
X164420000Y89050000D01*
G04 #@! TO.C,C1*
X194118748Y16070000D02*
X194641252Y16070000D01*
X194118748Y17490000D02*
X194641252Y17490000D01*
G04 #@! TO.C,D4*
X78850000Y111100000D02*
X87550000Y111100000D01*
X87550000Y111100000D02*
X87550000Y108100000D01*
X87550000Y108100000D02*
X78850000Y108100000D01*
G04 #@! TO.C,R3*
X202700000Y110428748D02*
X202700000Y110951252D01*
X201280000Y110428748D02*
X201280000Y110951252D01*
G04 #@! TO.C,D49*
X102580000Y53970000D02*
X111280000Y53970000D01*
X111280000Y53970000D02*
X111280000Y50970000D01*
X111280000Y50970000D02*
X102580000Y50970000D01*
G04 #@! TO.C,D30*
X25560000Y69990000D02*
X16860000Y69990000D01*
X25560000Y72990000D02*
X25560000Y69990000D01*
X16860000Y72990000D02*
X25560000Y72990000D01*
G04 #@! TO.C,D80*
X268490000Y12880000D02*
X259790000Y12880000D01*
X268490000Y15880000D02*
X268490000Y12880000D01*
X259790000Y15880000D02*
X268490000Y15880000D01*
G04 #@! TO.C,D8*
X173460000Y108290000D02*
X164760000Y108290000D01*
X173460000Y111290000D02*
X173460000Y108290000D01*
X164760000Y111290000D02*
X173460000Y111290000D01*
G04 #@! TO.C,D10*
X220850000Y108200000D02*
X212150000Y108200000D01*
X220850000Y111200000D02*
X220850000Y108200000D01*
X212150000Y111200000D02*
X220850000Y111200000D01*
G04 #@! TO.C,D26*
X221670000Y92080000D02*
X230370000Y92080000D01*
X230370000Y92080000D02*
X230370000Y89080000D01*
X230370000Y89080000D02*
X221670000Y89080000D01*
G04 #@! TO.C,D75*
X38140000Y15790000D02*
X46840000Y15790000D01*
X46840000Y15790000D02*
X46840000Y12790000D01*
X46840000Y12790000D02*
X38140000Y12790000D01*
G04 #@! TO.C,D18*
X69290000Y92150000D02*
X77990000Y92150000D01*
X77990000Y92150000D02*
X77990000Y89150000D01*
X77990000Y89150000D02*
X69290000Y89150000D01*
G04 #@! TO.C,D31*
X49370000Y70050000D02*
X40670000Y70050000D01*
X49370000Y73050000D02*
X49370000Y70050000D01*
X40670000Y73050000D02*
X49370000Y73050000D01*
G04 #@! TO.C,D11*
X239740000Y108120000D02*
X231040000Y108120000D01*
X239740000Y111120000D02*
X239740000Y108120000D01*
X231040000Y111120000D02*
X239740000Y111120000D01*
G04 #@! TO.C,D61*
X69420000Y34980000D02*
X78120000Y34980000D01*
X78120000Y34980000D02*
X78120000Y31980000D01*
X78120000Y31980000D02*
X69420000Y31980000D01*
G04 #@! TO.C,D62*
X97090000Y31900000D02*
X88390000Y31900000D01*
X97090000Y34900000D02*
X97090000Y31900000D01*
X88390000Y34900000D02*
X97090000Y34900000D01*
G04 #@! TO.C,D13*
X277980000Y108100000D02*
X269280000Y108100000D01*
X277980000Y111100000D02*
X277980000Y108100000D01*
X269280000Y111100000D02*
X277980000Y111100000D01*
G04 #@! TO.C,D12*
X250280000Y111150000D02*
X258980000Y111150000D01*
X258980000Y111150000D02*
X258980000Y108150000D01*
X258980000Y108150000D02*
X250280000Y108150000D01*
G04 #@! TO.C,D1*
X12110000Y111340000D02*
X20810000Y111340000D01*
X20810000Y111340000D02*
X20810000Y108340000D01*
X20810000Y108340000D02*
X12110000Y108340000D01*
G04 #@! TO.C,C7*
X194123748Y21760000D02*
X194646252Y21760000D01*
X194123748Y20340000D02*
X194646252Y20340000D01*
G04 #@! TO.C,R1*
X199270000Y110413748D02*
X199270000Y110936252D01*
X200690000Y110413748D02*
X200690000Y110936252D01*
G04 #@! TO.C,D71*
X259850000Y34930000D02*
X268550000Y34930000D01*
X268550000Y34930000D02*
X268550000Y31930000D01*
X268550000Y31930000D02*
X259850000Y31930000D01*
G04 #@! TO.C,D21*
X126390000Y92090000D02*
X135090000Y92090000D01*
X135090000Y92090000D02*
X135090000Y89090000D01*
X135090000Y89090000D02*
X126390000Y89090000D01*
G04 #@! TO.C,D38*
X174000000Y72960000D02*
X182700000Y72960000D01*
X182700000Y72960000D02*
X182700000Y69960000D01*
X182700000Y69960000D02*
X174000000Y69960000D01*
G04 #@! TO.C,D37*
X163700000Y70000000D02*
X155000000Y70000000D01*
X163700000Y73000000D02*
X163700000Y70000000D01*
X155000000Y73000000D02*
X163700000Y73000000D01*
G04 #@! TO.C,D59*
X21580000Y34930000D02*
X30280000Y34930000D01*
X30280000Y34930000D02*
X30280000Y31930000D01*
X30280000Y31930000D02*
X21580000Y31930000D01*
G04 #@! TO.C,C8*
X194103748Y13880000D02*
X194626252Y13880000D01*
X194103748Y15300000D02*
X194626252Y15300000D01*
G04 #@! TO.C,D73*
X298010000Y34960000D02*
X306710000Y34960000D01*
X306710000Y34960000D02*
X306710000Y31960000D01*
X306710000Y31960000D02*
X298010000Y31960000D01*
D11*
G04 #@! TO.C,U1*
X171455000Y15855000D02*
X171455000Y16430000D01*
X185805000Y15855000D02*
X185805000Y16530000D01*
X185805000Y30205000D02*
X185805000Y29530000D01*
X171455000Y30205000D02*
X171455000Y29530000D01*
X171455000Y15855000D02*
X172130000Y15855000D01*
X171455000Y30205000D02*
X172130000Y30205000D01*
X185805000Y30205000D02*
X185130000Y30205000D01*
X185805000Y15855000D02*
X185130000Y15855000D01*
X171455000Y16430000D02*
X170180000Y16430000D01*
D10*
G04 #@! TO.C,D5*
X106510000Y108100000D02*
X97810000Y108100000D01*
X106510000Y111100000D02*
X106510000Y108100000D01*
X97810000Y111100000D02*
X106510000Y111100000D01*
G04 #@! TO.C,C3*
X162050000Y18906252D02*
X162050000Y18383748D01*
X160630000Y18906252D02*
X160630000Y18383748D01*
G04 #@! TO.C,D6*
X126330000Y111150000D02*
X135030000Y111150000D01*
X135030000Y111150000D02*
X135030000Y108150000D01*
X135030000Y108150000D02*
X126330000Y108150000D01*
G04 #@! TO.C,D20*
X107310000Y92100000D02*
X116010000Y92100000D01*
X116010000Y92100000D02*
X116010000Y89100000D01*
X116010000Y89100000D02*
X107310000Y89100000D01*
G04 #@! TO.C,D48*
X92290000Y50980000D02*
X83590000Y50980000D01*
X92290000Y53980000D02*
X92290000Y50980000D01*
X83590000Y53980000D02*
X92290000Y53980000D01*
G04 #@! TO.C,D51*
X140770000Y53950000D02*
X149470000Y53950000D01*
X149470000Y53950000D02*
X149470000Y50950000D01*
X149470000Y50950000D02*
X140770000Y50950000D01*
G04 #@! TO.C,D25*
X211280000Y89070000D02*
X202580000Y89070000D01*
X211280000Y92070000D02*
X211280000Y89070000D01*
X202580000Y92070000D02*
X211280000Y92070000D01*
G04 #@! TO.C,D9*
X183570000Y111150000D02*
X192270000Y111150000D01*
X192270000Y111150000D02*
X192270000Y108150000D01*
X192270000Y108150000D02*
X183570000Y108150000D01*
G04 #@! TO.C,D57*
X275610000Y50940000D02*
X266910000Y50940000D01*
X275610000Y53940000D02*
X275610000Y50940000D01*
X266910000Y53940000D02*
X275610000Y53940000D01*
G04 #@! TO.C,D78*
X220890000Y12920000D02*
X212190000Y12920000D01*
X220890000Y15920000D02*
X220890000Y12920000D01*
X212190000Y15920000D02*
X220890000Y15920000D01*
G04 #@! TO.C,D7*
X154200000Y108140000D02*
X145500000Y108140000D01*
X154200000Y111140000D02*
X154200000Y108140000D01*
X145500000Y111140000D02*
X154200000Y111140000D01*
G04 #@! TO.C,D82*
X306500000Y12860000D02*
X297800000Y12860000D01*
X306500000Y15860000D02*
X306500000Y12860000D01*
X297800000Y15860000D02*
X306500000Y15860000D01*
G04 #@! TO.C,D54*
X206620000Y51020000D02*
X197920000Y51020000D01*
X206620000Y54020000D02*
X206620000Y51020000D01*
X197920000Y54020000D02*
X206620000Y54020000D01*
G04 #@! TO.C,D34*
X97680000Y73060000D02*
X106380000Y73060000D01*
X106380000Y73060000D02*
X106380000Y70060000D01*
X106380000Y70060000D02*
X97680000Y70060000D01*
G04 #@! TO.C,D45*
X19360000Y54030000D02*
X28060000Y54030000D01*
X28060000Y54030000D02*
X28060000Y51030000D01*
X28060000Y51030000D02*
X19360000Y51030000D01*
G04 #@! TO.C,D77*
X138570000Y15790000D02*
X147270000Y15790000D01*
X147270000Y15790000D02*
X147270000Y12790000D01*
X147270000Y12790000D02*
X138570000Y12790000D01*
G04 #@! TO.C,D79*
X238200000Y15900000D02*
X246900000Y15900000D01*
X246900000Y15900000D02*
X246900000Y12900000D01*
X246900000Y12900000D02*
X238200000Y12900000D01*
G04 #@! TO.C,D53*
X178660000Y53960000D02*
X187360000Y53960000D01*
X187360000Y53960000D02*
X187360000Y50960000D01*
X187360000Y50960000D02*
X178660000Y50960000D01*
G04 #@! TO.C,C5*
X166251252Y22540000D02*
X165728748Y22540000D01*
X166251252Y21120000D02*
X165728748Y21120000D01*
G04 #@! TO.C,Y1*
X154100000Y16810000D02*
X154100000Y32785000D01*
X154100000Y32785000D02*
X159200000Y32785000D01*
X159200000Y32785000D02*
X159200000Y16810000D01*
G04 #@! TO.C,D3*
X68420000Y108150000D02*
X59720000Y108150000D01*
X68420000Y111150000D02*
X68420000Y108150000D01*
X59720000Y111150000D02*
X68420000Y111150000D01*
G04 #@! TO.C,R2*
X189893748Y20340000D02*
X190416252Y20340000D01*
X189893748Y21760000D02*
X190416252Y21760000D01*
G04 #@! TO.C,D43*
X273860000Y74030000D02*
X282560000Y74030000D01*
X282560000Y74030000D02*
X282560000Y71030000D01*
X282560000Y71030000D02*
X273860000Y71030000D01*
G04 #@! TO.C,D56*
X244650000Y50940000D02*
X235950000Y50940000D01*
X244650000Y53940000D02*
X244650000Y50940000D01*
X235950000Y53940000D02*
X244650000Y53940000D01*
G04 #@! TO.C,D35*
X125840000Y69990000D02*
X117140000Y69990000D01*
X125840000Y72990000D02*
X125840000Y69990000D01*
X117140000Y72990000D02*
X125840000Y72990000D01*
G04 #@! TO.C,D41*
X239890000Y70020000D02*
X231190000Y70020000D01*
X239890000Y73020000D02*
X239890000Y70020000D01*
X231190000Y73020000D02*
X239890000Y73020000D01*
G04 #@! TO.C,D68*
X211370000Y31890000D02*
X202670000Y31890000D01*
X211370000Y34890000D02*
X211370000Y31890000D01*
X202670000Y34890000D02*
X211370000Y34890000D01*
G04 #@! TO.C,D67*
X195000000Y35500000D02*
X195000000Y44200000D01*
X195000000Y44200000D02*
X198000000Y44200000D01*
X198000000Y44200000D02*
X198000000Y35500000D01*
G04 #@! TO.C,D15*
X12100000Y92100000D02*
X20800000Y92100000D01*
X20800000Y92100000D02*
X20800000Y89100000D01*
X20800000Y89100000D02*
X12100000Y89100000D01*
G04 #@! TO.C,D40*
X212340000Y73010000D02*
X221040000Y73010000D01*
X221040000Y73010000D02*
X221040000Y70010000D01*
X221040000Y70010000D02*
X212340000Y70010000D01*
G04 #@! TO.C,C2*
X151750000Y29896252D02*
X151750000Y29373748D01*
X153170000Y29896252D02*
X153170000Y29373748D01*
G04 #@! TO.C,D70*
X249490000Y31930000D02*
X240790000Y31930000D01*
X249490000Y34930000D02*
X249490000Y31930000D01*
X240790000Y34930000D02*
X249490000Y34930000D01*
G04 #@! TO.C,J1*
X196820000Y118340000D02*
X196820000Y116790000D01*
X196820000Y118340000D02*
X197120000Y118340000D01*
X197120000Y121140000D02*
X197120000Y118340000D01*
X205120000Y118340000D02*
X205120000Y116790000D01*
X204820000Y118340000D02*
X205120000Y118340000D01*
X204820000Y121140000D02*
X204820000Y118340000D01*
X200070000Y115090000D02*
X199670000Y115540000D01*
X199270000Y115090000D02*
X200070000Y115090000D01*
X199670000Y115540000D02*
X199270000Y115090000D01*
G04 #@! TO.C,D19*
X96900000Y89130000D02*
X88200000Y89130000D01*
X96900000Y92130000D02*
X96900000Y89130000D01*
X88200000Y92130000D02*
X96900000Y92130000D01*
G04 #@! TO.C,D44*
X297920000Y73040000D02*
X306620000Y73040000D01*
X306620000Y73040000D02*
X306620000Y70040000D01*
X306620000Y70040000D02*
X297920000Y70040000D01*
G04 #@! TO.C,D66*
X159940000Y45050000D02*
X159940000Y36350000D01*
X156940000Y45050000D02*
X159940000Y45050000D01*
X156940000Y36350000D02*
X156940000Y45050000D01*
G04 #@! TO.C,D14*
X306740000Y108160000D02*
X298040000Y108160000D01*
X306740000Y111160000D02*
X306740000Y108160000D01*
X298040000Y111160000D02*
X306740000Y111160000D01*
G04 #@! TO.C,C4*
X166176252Y14440000D02*
X165653748Y14440000D01*
X166176252Y15860000D02*
X165653748Y15860000D01*
G04 #@! TO.C,D46*
X54290000Y51010000D02*
X45590000Y51010000D01*
X54290000Y54010000D02*
X54290000Y51010000D01*
X45590000Y54010000D02*
X54290000Y54010000D01*
G04 #@! TO.C,D17*
D11*
X54824285Y92357619D02*
X54824285Y93357619D01*
X54586190Y93357619D01*
X54443333Y93310000D01*
X54348095Y93214761D01*
X54300476Y93119523D01*
X54252857Y92929047D01*
X54252857Y92786190D01*
X54300476Y92595714D01*
X54348095Y92500476D01*
X54443333Y92405238D01*
X54586190Y92357619D01*
X54824285Y92357619D01*
X53300476Y92357619D02*
X53871904Y92357619D01*
X53586190Y92357619D02*
X53586190Y93357619D01*
X53681428Y93214761D01*
X53776666Y93119523D01*
X53871904Y93071904D01*
X52967142Y93357619D02*
X52300476Y93357619D01*
X52729047Y92357619D01*
G04 #@! TO.C,D60*
X54974285Y35207619D02*
X54974285Y36207619D01*
X54736190Y36207619D01*
X54593333Y36160000D01*
X54498095Y36064761D01*
X54450476Y35969523D01*
X54402857Y35779047D01*
X54402857Y35636190D01*
X54450476Y35445714D01*
X54498095Y35350476D01*
X54593333Y35255238D01*
X54736190Y35207619D01*
X54974285Y35207619D01*
X53545714Y36207619D02*
X53736190Y36207619D01*
X53831428Y36160000D01*
X53879047Y36112380D01*
X53974285Y35969523D01*
X54021904Y35779047D01*
X54021904Y35398095D01*
X53974285Y35302857D01*
X53926666Y35255238D01*
X53831428Y35207619D01*
X53640952Y35207619D01*
X53545714Y35255238D01*
X53498095Y35302857D01*
X53450476Y35398095D01*
X53450476Y35636190D01*
X53498095Y35731428D01*
X53545714Y35779047D01*
X53640952Y35826666D01*
X53831428Y35826666D01*
X53926666Y35779047D01*
X53974285Y35731428D01*
X54021904Y35636190D01*
X52831428Y36207619D02*
X52736190Y36207619D01*
X52640952Y36160000D01*
X52593333Y36112380D01*
X52545714Y36017142D01*
X52498095Y35826666D01*
X52498095Y35588571D01*
X52545714Y35398095D01*
X52593333Y35302857D01*
X52640952Y35255238D01*
X52736190Y35207619D01*
X52831428Y35207619D01*
X52926666Y35255238D01*
X52974285Y35302857D01*
X53021904Y35398095D01*
X53069523Y35588571D01*
X53069523Y35826666D01*
X53021904Y36017142D01*
X52974285Y36112380D01*
X52926666Y36160000D01*
X52831428Y36207619D01*
G04 #@! TO.C,D76*
X69004285Y16137619D02*
X69004285Y17137619D01*
X68766190Y17137619D01*
X68623333Y17090000D01*
X68528095Y16994761D01*
X68480476Y16899523D01*
X68432857Y16709047D01*
X68432857Y16566190D01*
X68480476Y16375714D01*
X68528095Y16280476D01*
X68623333Y16185238D01*
X68766190Y16137619D01*
X69004285Y16137619D01*
X68099523Y17137619D02*
X67432857Y17137619D01*
X67861428Y16137619D01*
X66623333Y17137619D02*
X66813809Y17137619D01*
X66909047Y17090000D01*
X66956666Y17042380D01*
X67051904Y16899523D01*
X67099523Y16709047D01*
X67099523Y16328095D01*
X67051904Y16232857D01*
X67004285Y16185238D01*
X66909047Y16137619D01*
X66718571Y16137619D01*
X66623333Y16185238D01*
X66575714Y16232857D01*
X66528095Y16328095D01*
X66528095Y16566190D01*
X66575714Y16661428D01*
X66623333Y16709047D01*
X66718571Y16756666D01*
X66909047Y16756666D01*
X67004285Y16709047D01*
X67051904Y16661428D01*
X67099523Y16566190D01*
G04 #@! TO.C,D36*
X140724285Y73317619D02*
X140724285Y74317619D01*
X140486190Y74317619D01*
X140343333Y74270000D01*
X140248095Y74174761D01*
X140200476Y74079523D01*
X140152857Y73889047D01*
X140152857Y73746190D01*
X140200476Y73555714D01*
X140248095Y73460476D01*
X140343333Y73365238D01*
X140486190Y73317619D01*
X140724285Y73317619D01*
X139819523Y74317619D02*
X139200476Y74317619D01*
X139533809Y73936666D01*
X139390952Y73936666D01*
X139295714Y73889047D01*
X139248095Y73841428D01*
X139200476Y73746190D01*
X139200476Y73508095D01*
X139248095Y73412857D01*
X139295714Y73365238D01*
X139390952Y73317619D01*
X139676666Y73317619D01*
X139771904Y73365238D01*
X139819523Y73412857D01*
X138343333Y74317619D02*
X138533809Y74317619D01*
X138629047Y74270000D01*
X138676666Y74222380D01*
X138771904Y74079523D01*
X138819523Y73889047D01*
X138819523Y73508095D01*
X138771904Y73412857D01*
X138724285Y73365238D01*
X138629047Y73317619D01*
X138438571Y73317619D01*
X138343333Y73365238D01*
X138295714Y73412857D01*
X138248095Y73508095D01*
X138248095Y73746190D01*
X138295714Y73841428D01*
X138343333Y73889047D01*
X138438571Y73936666D01*
X138629047Y73936666D01*
X138724285Y73889047D01*
X138771904Y73841428D01*
X138819523Y73746190D01*
G04 #@! TO.C,D22*
X150084285Y92397619D02*
X150084285Y93397619D01*
X149846190Y93397619D01*
X149703333Y93350000D01*
X149608095Y93254761D01*
X149560476Y93159523D01*
X149512857Y92969047D01*
X149512857Y92826190D01*
X149560476Y92635714D01*
X149608095Y92540476D01*
X149703333Y92445238D01*
X149846190Y92397619D01*
X150084285Y92397619D01*
X149131904Y93302380D02*
X149084285Y93350000D01*
X148989047Y93397619D01*
X148750952Y93397619D01*
X148655714Y93350000D01*
X148608095Y93302380D01*
X148560476Y93207142D01*
X148560476Y93111904D01*
X148608095Y92969047D01*
X149179523Y92397619D01*
X148560476Y92397619D01*
X148179523Y93302380D02*
X148131904Y93350000D01*
X148036666Y93397619D01*
X147798571Y93397619D01*
X147703333Y93350000D01*
X147655714Y93302380D01*
X147608095Y93207142D01*
X147608095Y93111904D01*
X147655714Y92969047D01*
X148227142Y92397619D01*
X147608095Y92397619D01*
G04 #@! TO.C,D63*
X112034285Y35627619D02*
X112034285Y36627619D01*
X111796190Y36627619D01*
X111653333Y36580000D01*
X111558095Y36484761D01*
X111510476Y36389523D01*
X111462857Y36199047D01*
X111462857Y36056190D01*
X111510476Y35865714D01*
X111558095Y35770476D01*
X111653333Y35675238D01*
X111796190Y35627619D01*
X112034285Y35627619D01*
X110605714Y36627619D02*
X110796190Y36627619D01*
X110891428Y36580000D01*
X110939047Y36532380D01*
X111034285Y36389523D01*
X111081904Y36199047D01*
X111081904Y35818095D01*
X111034285Y35722857D01*
X110986666Y35675238D01*
X110891428Y35627619D01*
X110700952Y35627619D01*
X110605714Y35675238D01*
X110558095Y35722857D01*
X110510476Y35818095D01*
X110510476Y36056190D01*
X110558095Y36151428D01*
X110605714Y36199047D01*
X110700952Y36246666D01*
X110891428Y36246666D01*
X110986666Y36199047D01*
X111034285Y36151428D01*
X111081904Y36056190D01*
X110177142Y36627619D02*
X109558095Y36627619D01*
X109891428Y36246666D01*
X109748571Y36246666D01*
X109653333Y36199047D01*
X109605714Y36151428D01*
X109558095Y36056190D01*
X109558095Y35818095D01*
X109605714Y35722857D01*
X109653333Y35675238D01*
X109748571Y35627619D01*
X110034285Y35627619D01*
X110129523Y35675238D01*
X110177142Y35722857D01*
G04 #@! TO.C,D2*
X44818095Y111417619D02*
X44818095Y112417619D01*
X44580000Y112417619D01*
X44437142Y112370000D01*
X44341904Y112274761D01*
X44294285Y112179523D01*
X44246666Y111989047D01*
X44246666Y111846190D01*
X44294285Y111655714D01*
X44341904Y111560476D01*
X44437142Y111465238D01*
X44580000Y111417619D01*
X44818095Y111417619D01*
X43865714Y112322380D02*
X43818095Y112370000D01*
X43722857Y112417619D01*
X43484761Y112417619D01*
X43389523Y112370000D01*
X43341904Y112322380D01*
X43294285Y112227142D01*
X43294285Y112131904D01*
X43341904Y111989047D01*
X43913333Y111417619D01*
X43294285Y111417619D01*
G04 #@! TO.C,D69*
X226414285Y35167619D02*
X226414285Y36167619D01*
X226176190Y36167619D01*
X226033333Y36120000D01*
X225938095Y36024761D01*
X225890476Y35929523D01*
X225842857Y35739047D01*
X225842857Y35596190D01*
X225890476Y35405714D01*
X225938095Y35310476D01*
X226033333Y35215238D01*
X226176190Y35167619D01*
X226414285Y35167619D01*
X224985714Y36167619D02*
X225176190Y36167619D01*
X225271428Y36120000D01*
X225319047Y36072380D01*
X225414285Y35929523D01*
X225461904Y35739047D01*
X225461904Y35358095D01*
X225414285Y35262857D01*
X225366666Y35215238D01*
X225271428Y35167619D01*
X225080952Y35167619D01*
X224985714Y35215238D01*
X224938095Y35262857D01*
X224890476Y35358095D01*
X224890476Y35596190D01*
X224938095Y35691428D01*
X224985714Y35739047D01*
X225080952Y35786666D01*
X225271428Y35786666D01*
X225366666Y35739047D01*
X225414285Y35691428D01*
X225461904Y35596190D01*
X224414285Y35167619D02*
X224223809Y35167619D01*
X224128571Y35215238D01*
X224080952Y35262857D01*
X223985714Y35405714D01*
X223938095Y35596190D01*
X223938095Y35977142D01*
X223985714Y36072380D01*
X224033333Y36120000D01*
X224128571Y36167619D01*
X224319047Y36167619D01*
X224414285Y36120000D01*
X224461904Y36072380D01*
X224509523Y35977142D01*
X224509523Y35739047D01*
X224461904Y35643809D01*
X224414285Y35596190D01*
X224319047Y35548571D01*
X224128571Y35548571D01*
X224033333Y35596190D01*
X223985714Y35643809D01*
X223938095Y35739047D01*
G04 #@! TO.C,SW83*
X131844761Y21829523D02*
X131892380Y21686666D01*
X131892380Y21448571D01*
X131844761Y21353333D01*
X131797142Y21305714D01*
X131701904Y21258095D01*
X131606666Y21258095D01*
X131511428Y21305714D01*
X131463809Y21353333D01*
X131416190Y21448571D01*
X131368571Y21639047D01*
X131320952Y21734285D01*
X131273333Y21781904D01*
X131178095Y21829523D01*
X131082857Y21829523D01*
X130987619Y21781904D01*
X130940000Y21734285D01*
X130892380Y21639047D01*
X130892380Y21400952D01*
X130940000Y21258095D01*
X130892380Y20924761D02*
X131892380Y20686666D01*
X131178095Y20496190D01*
X131892380Y20305714D01*
X130892380Y20067619D01*
X131320952Y19543809D02*
X131273333Y19639047D01*
X131225714Y19686666D01*
X131130476Y19734285D01*
X131082857Y19734285D01*
X130987619Y19686666D01*
X130940000Y19639047D01*
X130892380Y19543809D01*
X130892380Y19353333D01*
X130940000Y19258095D01*
X130987619Y19210476D01*
X131082857Y19162857D01*
X131130476Y19162857D01*
X131225714Y19210476D01*
X131273333Y19258095D01*
X131320952Y19353333D01*
X131320952Y19543809D01*
X131368571Y19639047D01*
X131416190Y19686666D01*
X131511428Y19734285D01*
X131701904Y19734285D01*
X131797142Y19686666D01*
X131844761Y19639047D01*
X131892380Y19543809D01*
X131892380Y19353333D01*
X131844761Y19258095D01*
X131797142Y19210476D01*
X131701904Y19162857D01*
X131511428Y19162857D01*
X131416190Y19210476D01*
X131368571Y19258095D01*
X131320952Y19353333D01*
X130892380Y18829523D02*
X130892380Y18210476D01*
X131273333Y18543809D01*
X131273333Y18400952D01*
X131320952Y18305714D01*
X131368571Y18258095D01*
X131463809Y18210476D01*
X131701904Y18210476D01*
X131797142Y18258095D01*
X131844761Y18305714D01*
X131892380Y18400952D01*
X131892380Y18686666D01*
X131844761Y18781904D01*
X131797142Y18829523D01*
G04 #@! TO.C,D39*
X197754285Y73357619D02*
X197754285Y74357619D01*
X197516190Y74357619D01*
X197373333Y74310000D01*
X197278095Y74214761D01*
X197230476Y74119523D01*
X197182857Y73929047D01*
X197182857Y73786190D01*
X197230476Y73595714D01*
X197278095Y73500476D01*
X197373333Y73405238D01*
X197516190Y73357619D01*
X197754285Y73357619D01*
X196849523Y74357619D02*
X196230476Y74357619D01*
X196563809Y73976666D01*
X196420952Y73976666D01*
X196325714Y73929047D01*
X196278095Y73881428D01*
X196230476Y73786190D01*
X196230476Y73548095D01*
X196278095Y73452857D01*
X196325714Y73405238D01*
X196420952Y73357619D01*
X196706666Y73357619D01*
X196801904Y73405238D01*
X196849523Y73452857D01*
X195754285Y73357619D02*
X195563809Y73357619D01*
X195468571Y73405238D01*
X195420952Y73452857D01*
X195325714Y73595714D01*
X195278095Y73786190D01*
X195278095Y74167142D01*
X195325714Y74262380D01*
X195373333Y74310000D01*
X195468571Y74357619D01*
X195659047Y74357619D01*
X195754285Y74310000D01*
X195801904Y74262380D01*
X195849523Y74167142D01*
X195849523Y73929047D01*
X195801904Y73833809D01*
X195754285Y73786190D01*
X195659047Y73738571D01*
X195468571Y73738571D01*
X195373333Y73786190D01*
X195325714Y73833809D01*
X195278095Y73929047D01*
G04 #@! TO.C,D50*
X126334285Y54297619D02*
X126334285Y55297619D01*
X126096190Y55297619D01*
X125953333Y55250000D01*
X125858095Y55154761D01*
X125810476Y55059523D01*
X125762857Y54869047D01*
X125762857Y54726190D01*
X125810476Y54535714D01*
X125858095Y54440476D01*
X125953333Y54345238D01*
X126096190Y54297619D01*
X126334285Y54297619D01*
X124858095Y55297619D02*
X125334285Y55297619D01*
X125381904Y54821428D01*
X125334285Y54869047D01*
X125239047Y54916666D01*
X125000952Y54916666D01*
X124905714Y54869047D01*
X124858095Y54821428D01*
X124810476Y54726190D01*
X124810476Y54488095D01*
X124858095Y54392857D01*
X124905714Y54345238D01*
X125000952Y54297619D01*
X125239047Y54297619D01*
X125334285Y54345238D01*
X125381904Y54392857D01*
X124191428Y55297619D02*
X124096190Y55297619D01*
X124000952Y55250000D01*
X123953333Y55202380D01*
X123905714Y55107142D01*
X123858095Y54916666D01*
X123858095Y54678571D01*
X123905714Y54488095D01*
X123953333Y54392857D01*
X124000952Y54345238D01*
X124096190Y54297619D01*
X124191428Y54297619D01*
X124286666Y54345238D01*
X124334285Y54392857D01*
X124381904Y54488095D01*
X124429523Y54678571D01*
X124429523Y54916666D01*
X124381904Y55107142D01*
X124334285Y55202380D01*
X124286666Y55250000D01*
X124191428Y55297619D01*
G04 #@! TO.C,D32*
X64394285Y73307619D02*
X64394285Y74307619D01*
X64156190Y74307619D01*
X64013333Y74260000D01*
X63918095Y74164761D01*
X63870476Y74069523D01*
X63822857Y73879047D01*
X63822857Y73736190D01*
X63870476Y73545714D01*
X63918095Y73450476D01*
X64013333Y73355238D01*
X64156190Y73307619D01*
X64394285Y73307619D01*
X63489523Y74307619D02*
X62870476Y74307619D01*
X63203809Y73926666D01*
X63060952Y73926666D01*
X62965714Y73879047D01*
X62918095Y73831428D01*
X62870476Y73736190D01*
X62870476Y73498095D01*
X62918095Y73402857D01*
X62965714Y73355238D01*
X63060952Y73307619D01*
X63346666Y73307619D01*
X63441904Y73355238D01*
X63489523Y73402857D01*
X62489523Y74212380D02*
X62441904Y74260000D01*
X62346666Y74307619D01*
X62108571Y74307619D01*
X62013333Y74260000D01*
X61965714Y74212380D01*
X61918095Y74117142D01*
X61918095Y74021904D01*
X61965714Y73879047D01*
X62537142Y73307619D01*
X61918095Y73307619D01*
G04 #@! TO.C,D58*
X302474285Y54267619D02*
X302474285Y55267619D01*
X302236190Y55267619D01*
X302093333Y55220000D01*
X301998095Y55124761D01*
X301950476Y55029523D01*
X301902857Y54839047D01*
X301902857Y54696190D01*
X301950476Y54505714D01*
X301998095Y54410476D01*
X302093333Y54315238D01*
X302236190Y54267619D01*
X302474285Y54267619D01*
X300998095Y55267619D02*
X301474285Y55267619D01*
X301521904Y54791428D01*
X301474285Y54839047D01*
X301379047Y54886666D01*
X301140952Y54886666D01*
X301045714Y54839047D01*
X300998095Y54791428D01*
X300950476Y54696190D01*
X300950476Y54458095D01*
X300998095Y54362857D01*
X301045714Y54315238D01*
X301140952Y54267619D01*
X301379047Y54267619D01*
X301474285Y54315238D01*
X301521904Y54362857D01*
X300379047Y54839047D02*
X300474285Y54886666D01*
X300521904Y54934285D01*
X300569523Y55029523D01*
X300569523Y55077142D01*
X300521904Y55172380D01*
X300474285Y55220000D01*
X300379047Y55267619D01*
X300188571Y55267619D01*
X300093333Y55220000D01*
X300045714Y55172380D01*
X299998095Y55077142D01*
X299998095Y55029523D01*
X300045714Y54934285D01*
X300093333Y54886666D01*
X300188571Y54839047D01*
X300379047Y54839047D01*
X300474285Y54791428D01*
X300521904Y54743809D01*
X300569523Y54648571D01*
X300569523Y54458095D01*
X300521904Y54362857D01*
X300474285Y54315238D01*
X300379047Y54267619D01*
X300188571Y54267619D01*
X300093333Y54315238D01*
X300045714Y54362857D01*
X299998095Y54458095D01*
X299998095Y54648571D01*
X300045714Y54743809D01*
X300093333Y54791428D01*
X300188571Y54839047D01*
G04 #@! TO.C,D72*
X283544285Y35307619D02*
X283544285Y36307619D01*
X283306190Y36307619D01*
X283163333Y36260000D01*
X283068095Y36164761D01*
X283020476Y36069523D01*
X282972857Y35879047D01*
X282972857Y35736190D01*
X283020476Y35545714D01*
X283068095Y35450476D01*
X283163333Y35355238D01*
X283306190Y35307619D01*
X283544285Y35307619D01*
X282639523Y36307619D02*
X281972857Y36307619D01*
X282401428Y35307619D01*
X281639523Y36212380D02*
X281591904Y36260000D01*
X281496666Y36307619D01*
X281258571Y36307619D01*
X281163333Y36260000D01*
X281115714Y36212380D01*
X281068095Y36117142D01*
X281068095Y36021904D01*
X281115714Y35879047D01*
X281687142Y35307619D01*
X281068095Y35307619D01*
G04 #@! TO.C,D65*
X144064285Y35207619D02*
X144064285Y36207619D01*
X143826190Y36207619D01*
X143683333Y36160000D01*
X143588095Y36064761D01*
X143540476Y35969523D01*
X143492857Y35779047D01*
X143492857Y35636190D01*
X143540476Y35445714D01*
X143588095Y35350476D01*
X143683333Y35255238D01*
X143826190Y35207619D01*
X144064285Y35207619D01*
X142635714Y36207619D02*
X142826190Y36207619D01*
X142921428Y36160000D01*
X142969047Y36112380D01*
X143064285Y35969523D01*
X143111904Y35779047D01*
X143111904Y35398095D01*
X143064285Y35302857D01*
X143016666Y35255238D01*
X142921428Y35207619D01*
X142730952Y35207619D01*
X142635714Y35255238D01*
X142588095Y35302857D01*
X142540476Y35398095D01*
X142540476Y35636190D01*
X142588095Y35731428D01*
X142635714Y35779047D01*
X142730952Y35826666D01*
X142921428Y35826666D01*
X143016666Y35779047D01*
X143064285Y35731428D01*
X143111904Y35636190D01*
X141635714Y36207619D02*
X142111904Y36207619D01*
X142159523Y35731428D01*
X142111904Y35779047D01*
X142016666Y35826666D01*
X141778571Y35826666D01*
X141683333Y35779047D01*
X141635714Y35731428D01*
X141588095Y35636190D01*
X141588095Y35398095D01*
X141635714Y35302857D01*
X141683333Y35255238D01*
X141778571Y35207619D01*
X142016666Y35207619D01*
X142111904Y35255238D01*
X142159523Y35302857D01*
G04 #@! TO.C,D24*
X188074285Y92407619D02*
X188074285Y93407619D01*
X187836190Y93407619D01*
X187693333Y93360000D01*
X187598095Y93264761D01*
X187550476Y93169523D01*
X187502857Y92979047D01*
X187502857Y92836190D01*
X187550476Y92645714D01*
X187598095Y92550476D01*
X187693333Y92455238D01*
X187836190Y92407619D01*
X188074285Y92407619D01*
X187121904Y93312380D02*
X187074285Y93360000D01*
X186979047Y93407619D01*
X186740952Y93407619D01*
X186645714Y93360000D01*
X186598095Y93312380D01*
X186550476Y93217142D01*
X186550476Y93121904D01*
X186598095Y92979047D01*
X187169523Y92407619D01*
X186550476Y92407619D01*
X185693333Y93074285D02*
X185693333Y92407619D01*
X185931428Y93455238D02*
X186169523Y92740952D01*
X185550476Y92740952D01*
G04 #@! TO.C,D55*
X221614285Y54257619D02*
X221614285Y55257619D01*
X221376190Y55257619D01*
X221233333Y55210000D01*
X221138095Y55114761D01*
X221090476Y55019523D01*
X221042857Y54829047D01*
X221042857Y54686190D01*
X221090476Y54495714D01*
X221138095Y54400476D01*
X221233333Y54305238D01*
X221376190Y54257619D01*
X221614285Y54257619D01*
X220138095Y55257619D02*
X220614285Y55257619D01*
X220661904Y54781428D01*
X220614285Y54829047D01*
X220519047Y54876666D01*
X220280952Y54876666D01*
X220185714Y54829047D01*
X220138095Y54781428D01*
X220090476Y54686190D01*
X220090476Y54448095D01*
X220138095Y54352857D01*
X220185714Y54305238D01*
X220280952Y54257619D01*
X220519047Y54257619D01*
X220614285Y54305238D01*
X220661904Y54352857D01*
X219185714Y55257619D02*
X219661904Y55257619D01*
X219709523Y54781428D01*
X219661904Y54829047D01*
X219566666Y54876666D01*
X219328571Y54876666D01*
X219233333Y54829047D01*
X219185714Y54781428D01*
X219138095Y54686190D01*
X219138095Y54448095D01*
X219185714Y54352857D01*
X219233333Y54305238D01*
X219328571Y54257619D01*
X219566666Y54257619D01*
X219661904Y54305238D01*
X219709523Y54352857D01*
G04 #@! TO.C,D42*
X254844285Y73277619D02*
X254844285Y74277619D01*
X254606190Y74277619D01*
X254463333Y74230000D01*
X254368095Y74134761D01*
X254320476Y74039523D01*
X254272857Y73849047D01*
X254272857Y73706190D01*
X254320476Y73515714D01*
X254368095Y73420476D01*
X254463333Y73325238D01*
X254606190Y73277619D01*
X254844285Y73277619D01*
X253415714Y73944285D02*
X253415714Y73277619D01*
X253653809Y74325238D02*
X253891904Y73610952D01*
X253272857Y73610952D01*
X252939523Y74182380D02*
X252891904Y74230000D01*
X252796666Y74277619D01*
X252558571Y74277619D01*
X252463333Y74230000D01*
X252415714Y74182380D01*
X252368095Y74087142D01*
X252368095Y73991904D01*
X252415714Y73849047D01*
X252987142Y73277619D01*
X252368095Y73277619D01*
G04 #@! TO.C,D27*
X245404285Y92437619D02*
X245404285Y93437619D01*
X245166190Y93437619D01*
X245023333Y93390000D01*
X244928095Y93294761D01*
X244880476Y93199523D01*
X244832857Y93009047D01*
X244832857Y92866190D01*
X244880476Y92675714D01*
X244928095Y92580476D01*
X245023333Y92485238D01*
X245166190Y92437619D01*
X245404285Y92437619D01*
X244451904Y93342380D02*
X244404285Y93390000D01*
X244309047Y93437619D01*
X244070952Y93437619D01*
X243975714Y93390000D01*
X243928095Y93342380D01*
X243880476Y93247142D01*
X243880476Y93151904D01*
X243928095Y93009047D01*
X244499523Y92437619D01*
X243880476Y92437619D01*
X243547142Y93437619D02*
X242880476Y93437619D01*
X243309047Y92437619D01*
G04 #@! TO.C,D16*
X35784285Y92387619D02*
X35784285Y93387619D01*
X35546190Y93387619D01*
X35403333Y93340000D01*
X35308095Y93244761D01*
X35260476Y93149523D01*
X35212857Y92959047D01*
X35212857Y92816190D01*
X35260476Y92625714D01*
X35308095Y92530476D01*
X35403333Y92435238D01*
X35546190Y92387619D01*
X35784285Y92387619D01*
X34260476Y92387619D02*
X34831904Y92387619D01*
X34546190Y92387619D02*
X34546190Y93387619D01*
X34641428Y93244761D01*
X34736666Y93149523D01*
X34831904Y93101904D01*
X33403333Y93387619D02*
X33593809Y93387619D01*
X33689047Y93340000D01*
X33736666Y93292380D01*
X33831904Y93149523D01*
X33879523Y92959047D01*
X33879523Y92578095D01*
X33831904Y92482857D01*
X33784285Y92435238D01*
X33689047Y92387619D01*
X33498571Y92387619D01*
X33403333Y92435238D01*
X33355714Y92482857D01*
X33308095Y92578095D01*
X33308095Y92816190D01*
X33355714Y92911428D01*
X33403333Y92959047D01*
X33498571Y93006666D01*
X33689047Y93006666D01*
X33784285Y92959047D01*
X33831904Y92911428D01*
X33879523Y92816190D01*
G04 #@! TO.C,C6*
X194526666Y16912857D02*
X194574285Y16865238D01*
X194717142Y16817619D01*
X194812380Y16817619D01*
X194955238Y16865238D01*
X195050476Y16960476D01*
X195098095Y17055714D01*
X195145714Y17246190D01*
X195145714Y17389047D01*
X195098095Y17579523D01*
X195050476Y17674761D01*
X194955238Y17770000D01*
X194812380Y17817619D01*
X194717142Y17817619D01*
X194574285Y17770000D01*
X194526666Y17722380D01*
X193669523Y17817619D02*
X193860000Y17817619D01*
X193955238Y17770000D01*
X194002857Y17722380D01*
X194098095Y17579523D01*
X194145714Y17389047D01*
X194145714Y17008095D01*
X194098095Y16912857D01*
X194050476Y16865238D01*
X193955238Y16817619D01*
X193764761Y16817619D01*
X193669523Y16865238D01*
X193621904Y16912857D01*
X193574285Y17008095D01*
X193574285Y17246190D01*
X193621904Y17341428D01*
X193669523Y17389047D01*
X193764761Y17436666D01*
X193955238Y17436666D01*
X194050476Y17389047D01*
X194098095Y17341428D01*
X194145714Y17246190D01*
G04 #@! TO.C,D47*
X68994285Y54307619D02*
X68994285Y55307619D01*
X68756190Y55307619D01*
X68613333Y55260000D01*
X68518095Y55164761D01*
X68470476Y55069523D01*
X68422857Y54879047D01*
X68422857Y54736190D01*
X68470476Y54545714D01*
X68518095Y54450476D01*
X68613333Y54355238D01*
X68756190Y54307619D01*
X68994285Y54307619D01*
X67565714Y54974285D02*
X67565714Y54307619D01*
X67803809Y55355238D02*
X68041904Y54640952D01*
X67422857Y54640952D01*
X67137142Y55307619D02*
X66470476Y55307619D01*
X66899047Y54307619D01*
G04 #@! TO.C,D81*
X283454285Y16167619D02*
X283454285Y17167619D01*
X283216190Y17167619D01*
X283073333Y17120000D01*
X282978095Y17024761D01*
X282930476Y16929523D01*
X282882857Y16739047D01*
X282882857Y16596190D01*
X282930476Y16405714D01*
X282978095Y16310476D01*
X283073333Y16215238D01*
X283216190Y16167619D01*
X283454285Y16167619D01*
X282311428Y16739047D02*
X282406666Y16786666D01*
X282454285Y16834285D01*
X282501904Y16929523D01*
X282501904Y16977142D01*
X282454285Y17072380D01*
X282406666Y17120000D01*
X282311428Y17167619D01*
X282120952Y17167619D01*
X282025714Y17120000D01*
X281978095Y17072380D01*
X281930476Y16977142D01*
X281930476Y16929523D01*
X281978095Y16834285D01*
X282025714Y16786666D01*
X282120952Y16739047D01*
X282311428Y16739047D01*
X282406666Y16691428D01*
X282454285Y16643809D01*
X282501904Y16548571D01*
X282501904Y16358095D01*
X282454285Y16262857D01*
X282406666Y16215238D01*
X282311428Y16167619D01*
X282120952Y16167619D01*
X282025714Y16215238D01*
X281978095Y16262857D01*
X281930476Y16358095D01*
X281930476Y16548571D01*
X281978095Y16643809D01*
X282025714Y16691428D01*
X282120952Y16739047D01*
X280978095Y16167619D02*
X281549523Y16167619D01*
X281263809Y16167619D02*
X281263809Y17167619D01*
X281359047Y17024761D01*
X281454285Y16929523D01*
X281549523Y16881904D01*
G04 #@! TO.C,D33*
X83404285Y73287619D02*
X83404285Y74287619D01*
X83166190Y74287619D01*
X83023333Y74240000D01*
X82928095Y74144761D01*
X82880476Y74049523D01*
X82832857Y73859047D01*
X82832857Y73716190D01*
X82880476Y73525714D01*
X82928095Y73430476D01*
X83023333Y73335238D01*
X83166190Y73287619D01*
X83404285Y73287619D01*
X82499523Y74287619D02*
X81880476Y74287619D01*
X82213809Y73906666D01*
X82070952Y73906666D01*
X81975714Y73859047D01*
X81928095Y73811428D01*
X81880476Y73716190D01*
X81880476Y73478095D01*
X81928095Y73382857D01*
X81975714Y73335238D01*
X82070952Y73287619D01*
X82356666Y73287619D01*
X82451904Y73335238D01*
X82499523Y73382857D01*
X81547142Y74287619D02*
X80928095Y74287619D01*
X81261428Y73906666D01*
X81118571Y73906666D01*
X81023333Y73859047D01*
X80975714Y73811428D01*
X80928095Y73716190D01*
X80928095Y73478095D01*
X80975714Y73382857D01*
X81023333Y73335238D01*
X81118571Y73287619D01*
X81404285Y73287619D01*
X81499523Y73335238D01*
X81547142Y73382857D01*
G04 #@! TO.C,D74*
X19204285Y16157619D02*
X19204285Y17157619D01*
X18966190Y17157619D01*
X18823333Y17110000D01*
X18728095Y17014761D01*
X18680476Y16919523D01*
X18632857Y16729047D01*
X18632857Y16586190D01*
X18680476Y16395714D01*
X18728095Y16300476D01*
X18823333Y16205238D01*
X18966190Y16157619D01*
X19204285Y16157619D01*
X18299523Y17157619D02*
X17632857Y17157619D01*
X18061428Y16157619D01*
X16823333Y16824285D02*
X16823333Y16157619D01*
X17061428Y17205238D02*
X17299523Y16490952D01*
X16680476Y16490952D01*
G04 #@! TO.C,D64*
X131234285Y35217619D02*
X131234285Y36217619D01*
X130996190Y36217619D01*
X130853333Y36170000D01*
X130758095Y36074761D01*
X130710476Y35979523D01*
X130662857Y35789047D01*
X130662857Y35646190D01*
X130710476Y35455714D01*
X130758095Y35360476D01*
X130853333Y35265238D01*
X130996190Y35217619D01*
X131234285Y35217619D01*
X129805714Y36217619D02*
X129996190Y36217619D01*
X130091428Y36170000D01*
X130139047Y36122380D01*
X130234285Y35979523D01*
X130281904Y35789047D01*
X130281904Y35408095D01*
X130234285Y35312857D01*
X130186666Y35265238D01*
X130091428Y35217619D01*
X129900952Y35217619D01*
X129805714Y35265238D01*
X129758095Y35312857D01*
X129710476Y35408095D01*
X129710476Y35646190D01*
X129758095Y35741428D01*
X129805714Y35789047D01*
X129900952Y35836666D01*
X130091428Y35836666D01*
X130186666Y35789047D01*
X130234285Y35741428D01*
X130281904Y35646190D01*
X128853333Y35884285D02*
X128853333Y35217619D01*
X129091428Y36265238D02*
X129329523Y35550952D01*
X128710476Y35550952D01*
G04 #@! TO.C,D28*
X273904285Y92387619D02*
X273904285Y93387619D01*
X273666190Y93387619D01*
X273523333Y93340000D01*
X273428095Y93244761D01*
X273380476Y93149523D01*
X273332857Y92959047D01*
X273332857Y92816190D01*
X273380476Y92625714D01*
X273428095Y92530476D01*
X273523333Y92435238D01*
X273666190Y92387619D01*
X273904285Y92387619D01*
X272951904Y93292380D02*
X272904285Y93340000D01*
X272809047Y93387619D01*
X272570952Y93387619D01*
X272475714Y93340000D01*
X272428095Y93292380D01*
X272380476Y93197142D01*
X272380476Y93101904D01*
X272428095Y92959047D01*
X272999523Y92387619D01*
X272380476Y92387619D01*
X271809047Y92959047D02*
X271904285Y93006666D01*
X271951904Y93054285D01*
X271999523Y93149523D01*
X271999523Y93197142D01*
X271951904Y93292380D01*
X271904285Y93340000D01*
X271809047Y93387619D01*
X271618571Y93387619D01*
X271523333Y93340000D01*
X271475714Y93292380D01*
X271428095Y93197142D01*
X271428095Y93149523D01*
X271475714Y93054285D01*
X271523333Y93006666D01*
X271618571Y92959047D01*
X271809047Y92959047D01*
X271904285Y92911428D01*
X271951904Y92863809D01*
X271999523Y92768571D01*
X271999523Y92578095D01*
X271951904Y92482857D01*
X271904285Y92435238D01*
X271809047Y92387619D01*
X271618571Y92387619D01*
X271523333Y92435238D01*
X271475714Y92482857D01*
X271428095Y92578095D01*
X271428095Y92768571D01*
X271475714Y92863809D01*
X271523333Y92911428D01*
X271618571Y92959047D01*
G04 #@! TO.C,D29*
X302474285Y92377619D02*
X302474285Y93377619D01*
X302236190Y93377619D01*
X302093333Y93330000D01*
X301998095Y93234761D01*
X301950476Y93139523D01*
X301902857Y92949047D01*
X301902857Y92806190D01*
X301950476Y92615714D01*
X301998095Y92520476D01*
X302093333Y92425238D01*
X302236190Y92377619D01*
X302474285Y92377619D01*
X301521904Y93282380D02*
X301474285Y93330000D01*
X301379047Y93377619D01*
X301140952Y93377619D01*
X301045714Y93330000D01*
X300998095Y93282380D01*
X300950476Y93187142D01*
X300950476Y93091904D01*
X300998095Y92949047D01*
X301569523Y92377619D01*
X300950476Y92377619D01*
X300474285Y92377619D02*
X300283809Y92377619D01*
X300188571Y92425238D01*
X300140952Y92472857D01*
X300045714Y92615714D01*
X299998095Y92806190D01*
X299998095Y93187142D01*
X300045714Y93282380D01*
X300093333Y93330000D01*
X300188571Y93377619D01*
X300379047Y93377619D01*
X300474285Y93330000D01*
X300521904Y93282380D01*
X300569523Y93187142D01*
X300569523Y92949047D01*
X300521904Y92853809D01*
X300474285Y92806190D01*
X300379047Y92758571D01*
X300188571Y92758571D01*
X300093333Y92806190D01*
X300045714Y92853809D01*
X299998095Y92949047D01*
G04 #@! TO.C,D52*
X164284285Y54277619D02*
X164284285Y55277619D01*
X164046190Y55277619D01*
X163903333Y55230000D01*
X163808095Y55134761D01*
X163760476Y55039523D01*
X163712857Y54849047D01*
X163712857Y54706190D01*
X163760476Y54515714D01*
X163808095Y54420476D01*
X163903333Y54325238D01*
X164046190Y54277619D01*
X164284285Y54277619D01*
X162808095Y55277619D02*
X163284285Y55277619D01*
X163331904Y54801428D01*
X163284285Y54849047D01*
X163189047Y54896666D01*
X162950952Y54896666D01*
X162855714Y54849047D01*
X162808095Y54801428D01*
X162760476Y54706190D01*
X162760476Y54468095D01*
X162808095Y54372857D01*
X162855714Y54325238D01*
X162950952Y54277619D01*
X163189047Y54277619D01*
X163284285Y54325238D01*
X163331904Y54372857D01*
X162379523Y55182380D02*
X162331904Y55230000D01*
X162236666Y55277619D01*
X161998571Y55277619D01*
X161903333Y55230000D01*
X161855714Y55182380D01*
X161808095Y55087142D01*
X161808095Y54991904D01*
X161855714Y54849047D01*
X162427142Y54277619D01*
X161808095Y54277619D01*
G04 #@! TO.C,D23*
X169034285Y92347619D02*
X169034285Y93347619D01*
X168796190Y93347619D01*
X168653333Y93300000D01*
X168558095Y93204761D01*
X168510476Y93109523D01*
X168462857Y92919047D01*
X168462857Y92776190D01*
X168510476Y92585714D01*
X168558095Y92490476D01*
X168653333Y92395238D01*
X168796190Y92347619D01*
X169034285Y92347619D01*
X168081904Y93252380D02*
X168034285Y93300000D01*
X167939047Y93347619D01*
X167700952Y93347619D01*
X167605714Y93300000D01*
X167558095Y93252380D01*
X167510476Y93157142D01*
X167510476Y93061904D01*
X167558095Y92919047D01*
X168129523Y92347619D01*
X167510476Y92347619D01*
X167177142Y93347619D02*
X166558095Y93347619D01*
X166891428Y92966666D01*
X166748571Y92966666D01*
X166653333Y92919047D01*
X166605714Y92871428D01*
X166558095Y92776190D01*
X166558095Y92538095D01*
X166605714Y92442857D01*
X166653333Y92395238D01*
X166748571Y92347619D01*
X167034285Y92347619D01*
X167129523Y92395238D01*
X167177142Y92442857D01*
G04 #@! TO.C,C1*
X194546666Y14772857D02*
X194594285Y14725238D01*
X194737142Y14677619D01*
X194832380Y14677619D01*
X194975238Y14725238D01*
X195070476Y14820476D01*
X195118095Y14915714D01*
X195165714Y15106190D01*
X195165714Y15249047D01*
X195118095Y15439523D01*
X195070476Y15534761D01*
X194975238Y15630000D01*
X194832380Y15677619D01*
X194737142Y15677619D01*
X194594285Y15630000D01*
X194546666Y15582380D01*
X193594285Y14677619D02*
X194165714Y14677619D01*
X193880000Y14677619D02*
X193880000Y15677619D01*
X193975238Y15534761D01*
X194070476Y15439523D01*
X194165714Y15391904D01*
G04 #@! TO.C,D4*
X82988095Y111397619D02*
X82988095Y112397619D01*
X82750000Y112397619D01*
X82607142Y112350000D01*
X82511904Y112254761D01*
X82464285Y112159523D01*
X82416666Y111969047D01*
X82416666Y111826190D01*
X82464285Y111635714D01*
X82511904Y111540476D01*
X82607142Y111445238D01*
X82750000Y111397619D01*
X82988095Y111397619D01*
X81559523Y112064285D02*
X81559523Y111397619D01*
X81797619Y112445238D02*
X82035714Y111730952D01*
X81416666Y111730952D01*
G04 #@! TO.C,R3*
X204092380Y110856666D02*
X203616190Y111190000D01*
X204092380Y111428095D02*
X203092380Y111428095D01*
X203092380Y111047142D01*
X203140000Y110951904D01*
X203187619Y110904285D01*
X203282857Y110856666D01*
X203425714Y110856666D01*
X203520952Y110904285D01*
X203568571Y110951904D01*
X203616190Y111047142D01*
X203616190Y111428095D01*
X203092380Y110523333D02*
X203092380Y109904285D01*
X203473333Y110237619D01*
X203473333Y110094761D01*
X203520952Y109999523D01*
X203568571Y109951904D01*
X203663809Y109904285D01*
X203901904Y109904285D01*
X203997142Y109951904D01*
X204044761Y109999523D01*
X204092380Y110094761D01*
X204092380Y110380476D01*
X204044761Y110475714D01*
X203997142Y110523333D01*
G04 #@! TO.C,D49*
X107194285Y54267619D02*
X107194285Y55267619D01*
X106956190Y55267619D01*
X106813333Y55220000D01*
X106718095Y55124761D01*
X106670476Y55029523D01*
X106622857Y54839047D01*
X106622857Y54696190D01*
X106670476Y54505714D01*
X106718095Y54410476D01*
X106813333Y54315238D01*
X106956190Y54267619D01*
X107194285Y54267619D01*
X105765714Y54934285D02*
X105765714Y54267619D01*
X106003809Y55315238D02*
X106241904Y54600952D01*
X105622857Y54600952D01*
X105194285Y54267619D02*
X105003809Y54267619D01*
X104908571Y54315238D01*
X104860952Y54362857D01*
X104765714Y54505714D01*
X104718095Y54696190D01*
X104718095Y55077142D01*
X104765714Y55172380D01*
X104813333Y55220000D01*
X104908571Y55267619D01*
X105099047Y55267619D01*
X105194285Y55220000D01*
X105241904Y55172380D01*
X105289523Y55077142D01*
X105289523Y54839047D01*
X105241904Y54743809D01*
X105194285Y54696190D01*
X105099047Y54648571D01*
X104908571Y54648571D01*
X104813333Y54696190D01*
X104765714Y54743809D01*
X104718095Y54839047D01*
G04 #@! TO.C,D30*
X21474285Y73287619D02*
X21474285Y74287619D01*
X21236190Y74287619D01*
X21093333Y74240000D01*
X20998095Y74144761D01*
X20950476Y74049523D01*
X20902857Y73859047D01*
X20902857Y73716190D01*
X20950476Y73525714D01*
X20998095Y73430476D01*
X21093333Y73335238D01*
X21236190Y73287619D01*
X21474285Y73287619D01*
X20569523Y74287619D02*
X19950476Y74287619D01*
X20283809Y73906666D01*
X20140952Y73906666D01*
X20045714Y73859047D01*
X19998095Y73811428D01*
X19950476Y73716190D01*
X19950476Y73478095D01*
X19998095Y73382857D01*
X20045714Y73335238D01*
X20140952Y73287619D01*
X20426666Y73287619D01*
X20521904Y73335238D01*
X20569523Y73382857D01*
X19331428Y74287619D02*
X19236190Y74287619D01*
X19140952Y74240000D01*
X19093333Y74192380D01*
X19045714Y74097142D01*
X18998095Y73906666D01*
X18998095Y73668571D01*
X19045714Y73478095D01*
X19093333Y73382857D01*
X19140952Y73335238D01*
X19236190Y73287619D01*
X19331428Y73287619D01*
X19426666Y73335238D01*
X19474285Y73382857D01*
X19521904Y73478095D01*
X19569523Y73668571D01*
X19569523Y73906666D01*
X19521904Y74097142D01*
X19474285Y74192380D01*
X19426666Y74240000D01*
X19331428Y74287619D01*
G04 #@! TO.C,D80*
X264404285Y16177619D02*
X264404285Y17177619D01*
X264166190Y17177619D01*
X264023333Y17130000D01*
X263928095Y17034761D01*
X263880476Y16939523D01*
X263832857Y16749047D01*
X263832857Y16606190D01*
X263880476Y16415714D01*
X263928095Y16320476D01*
X264023333Y16225238D01*
X264166190Y16177619D01*
X264404285Y16177619D01*
X263261428Y16749047D02*
X263356666Y16796666D01*
X263404285Y16844285D01*
X263451904Y16939523D01*
X263451904Y16987142D01*
X263404285Y17082380D01*
X263356666Y17130000D01*
X263261428Y17177619D01*
X263070952Y17177619D01*
X262975714Y17130000D01*
X262928095Y17082380D01*
X262880476Y16987142D01*
X262880476Y16939523D01*
X262928095Y16844285D01*
X262975714Y16796666D01*
X263070952Y16749047D01*
X263261428Y16749047D01*
X263356666Y16701428D01*
X263404285Y16653809D01*
X263451904Y16558571D01*
X263451904Y16368095D01*
X263404285Y16272857D01*
X263356666Y16225238D01*
X263261428Y16177619D01*
X263070952Y16177619D01*
X262975714Y16225238D01*
X262928095Y16272857D01*
X262880476Y16368095D01*
X262880476Y16558571D01*
X262928095Y16653809D01*
X262975714Y16701428D01*
X263070952Y16749047D01*
X262261428Y17177619D02*
X262166190Y17177619D01*
X262070952Y17130000D01*
X262023333Y17082380D01*
X261975714Y16987142D01*
X261928095Y16796666D01*
X261928095Y16558571D01*
X261975714Y16368095D01*
X262023333Y16272857D01*
X262070952Y16225238D01*
X262166190Y16177619D01*
X262261428Y16177619D01*
X262356666Y16225238D01*
X262404285Y16272857D01*
X262451904Y16368095D01*
X262499523Y16558571D01*
X262499523Y16796666D01*
X262451904Y16987142D01*
X262404285Y17082380D01*
X262356666Y17130000D01*
X262261428Y17177619D01*
G04 #@! TO.C,D8*
X168898095Y111587619D02*
X168898095Y112587619D01*
X168660000Y112587619D01*
X168517142Y112540000D01*
X168421904Y112444761D01*
X168374285Y112349523D01*
X168326666Y112159047D01*
X168326666Y112016190D01*
X168374285Y111825714D01*
X168421904Y111730476D01*
X168517142Y111635238D01*
X168660000Y111587619D01*
X168898095Y111587619D01*
X167755238Y112159047D02*
X167850476Y112206666D01*
X167898095Y112254285D01*
X167945714Y112349523D01*
X167945714Y112397142D01*
X167898095Y112492380D01*
X167850476Y112540000D01*
X167755238Y112587619D01*
X167564761Y112587619D01*
X167469523Y112540000D01*
X167421904Y112492380D01*
X167374285Y112397142D01*
X167374285Y112349523D01*
X167421904Y112254285D01*
X167469523Y112206666D01*
X167564761Y112159047D01*
X167755238Y112159047D01*
X167850476Y112111428D01*
X167898095Y112063809D01*
X167945714Y111968571D01*
X167945714Y111778095D01*
X167898095Y111682857D01*
X167850476Y111635238D01*
X167755238Y111587619D01*
X167564761Y111587619D01*
X167469523Y111635238D01*
X167421904Y111682857D01*
X167374285Y111778095D01*
X167374285Y111968571D01*
X167421904Y112063809D01*
X167469523Y112111428D01*
X167564761Y112159047D01*
G04 #@! TO.C,D10*
X216764285Y111497619D02*
X216764285Y112497619D01*
X216526190Y112497619D01*
X216383333Y112450000D01*
X216288095Y112354761D01*
X216240476Y112259523D01*
X216192857Y112069047D01*
X216192857Y111926190D01*
X216240476Y111735714D01*
X216288095Y111640476D01*
X216383333Y111545238D01*
X216526190Y111497619D01*
X216764285Y111497619D01*
X215240476Y111497619D02*
X215811904Y111497619D01*
X215526190Y111497619D02*
X215526190Y112497619D01*
X215621428Y112354761D01*
X215716666Y112259523D01*
X215811904Y112211904D01*
X214621428Y112497619D02*
X214526190Y112497619D01*
X214430952Y112450000D01*
X214383333Y112402380D01*
X214335714Y112307142D01*
X214288095Y112116666D01*
X214288095Y111878571D01*
X214335714Y111688095D01*
X214383333Y111592857D01*
X214430952Y111545238D01*
X214526190Y111497619D01*
X214621428Y111497619D01*
X214716666Y111545238D01*
X214764285Y111592857D01*
X214811904Y111688095D01*
X214859523Y111878571D01*
X214859523Y112116666D01*
X214811904Y112307142D01*
X214764285Y112402380D01*
X214716666Y112450000D01*
X214621428Y112497619D01*
G04 #@! TO.C,D26*
X226284285Y92377619D02*
X226284285Y93377619D01*
X226046190Y93377619D01*
X225903333Y93330000D01*
X225808095Y93234761D01*
X225760476Y93139523D01*
X225712857Y92949047D01*
X225712857Y92806190D01*
X225760476Y92615714D01*
X225808095Y92520476D01*
X225903333Y92425238D01*
X226046190Y92377619D01*
X226284285Y92377619D01*
X225331904Y93282380D02*
X225284285Y93330000D01*
X225189047Y93377619D01*
X224950952Y93377619D01*
X224855714Y93330000D01*
X224808095Y93282380D01*
X224760476Y93187142D01*
X224760476Y93091904D01*
X224808095Y92949047D01*
X225379523Y92377619D01*
X224760476Y92377619D01*
X223903333Y93377619D02*
X224093809Y93377619D01*
X224189047Y93330000D01*
X224236666Y93282380D01*
X224331904Y93139523D01*
X224379523Y92949047D01*
X224379523Y92568095D01*
X224331904Y92472857D01*
X224284285Y92425238D01*
X224189047Y92377619D01*
X223998571Y92377619D01*
X223903333Y92425238D01*
X223855714Y92472857D01*
X223808095Y92568095D01*
X223808095Y92806190D01*
X223855714Y92901428D01*
X223903333Y92949047D01*
X223998571Y92996666D01*
X224189047Y92996666D01*
X224284285Y92949047D01*
X224331904Y92901428D01*
X224379523Y92806190D01*
G04 #@! TO.C,D75*
X42754285Y16087619D02*
X42754285Y17087619D01*
X42516190Y17087619D01*
X42373333Y17040000D01*
X42278095Y16944761D01*
X42230476Y16849523D01*
X42182857Y16659047D01*
X42182857Y16516190D01*
X42230476Y16325714D01*
X42278095Y16230476D01*
X42373333Y16135238D01*
X42516190Y16087619D01*
X42754285Y16087619D01*
X41849523Y17087619D02*
X41182857Y17087619D01*
X41611428Y16087619D01*
X40325714Y17087619D02*
X40801904Y17087619D01*
X40849523Y16611428D01*
X40801904Y16659047D01*
X40706666Y16706666D01*
X40468571Y16706666D01*
X40373333Y16659047D01*
X40325714Y16611428D01*
X40278095Y16516190D01*
X40278095Y16278095D01*
X40325714Y16182857D01*
X40373333Y16135238D01*
X40468571Y16087619D01*
X40706666Y16087619D01*
X40801904Y16135238D01*
X40849523Y16182857D01*
G04 #@! TO.C,D18*
X73904285Y92447619D02*
X73904285Y93447619D01*
X73666190Y93447619D01*
X73523333Y93400000D01*
X73428095Y93304761D01*
X73380476Y93209523D01*
X73332857Y93019047D01*
X73332857Y92876190D01*
X73380476Y92685714D01*
X73428095Y92590476D01*
X73523333Y92495238D01*
X73666190Y92447619D01*
X73904285Y92447619D01*
X72380476Y92447619D02*
X72951904Y92447619D01*
X72666190Y92447619D02*
X72666190Y93447619D01*
X72761428Y93304761D01*
X72856666Y93209523D01*
X72951904Y93161904D01*
X71809047Y93019047D02*
X71904285Y93066666D01*
X71951904Y93114285D01*
X71999523Y93209523D01*
X71999523Y93257142D01*
X71951904Y93352380D01*
X71904285Y93400000D01*
X71809047Y93447619D01*
X71618571Y93447619D01*
X71523333Y93400000D01*
X71475714Y93352380D01*
X71428095Y93257142D01*
X71428095Y93209523D01*
X71475714Y93114285D01*
X71523333Y93066666D01*
X71618571Y93019047D01*
X71809047Y93019047D01*
X71904285Y92971428D01*
X71951904Y92923809D01*
X71999523Y92828571D01*
X71999523Y92638095D01*
X71951904Y92542857D01*
X71904285Y92495238D01*
X71809047Y92447619D01*
X71618571Y92447619D01*
X71523333Y92495238D01*
X71475714Y92542857D01*
X71428095Y92638095D01*
X71428095Y92828571D01*
X71475714Y92923809D01*
X71523333Y92971428D01*
X71618571Y93019047D01*
G04 #@! TO.C,D31*
X45284285Y73347619D02*
X45284285Y74347619D01*
X45046190Y74347619D01*
X44903333Y74300000D01*
X44808095Y74204761D01*
X44760476Y74109523D01*
X44712857Y73919047D01*
X44712857Y73776190D01*
X44760476Y73585714D01*
X44808095Y73490476D01*
X44903333Y73395238D01*
X45046190Y73347619D01*
X45284285Y73347619D01*
X44379523Y74347619D02*
X43760476Y74347619D01*
X44093809Y73966666D01*
X43950952Y73966666D01*
X43855714Y73919047D01*
X43808095Y73871428D01*
X43760476Y73776190D01*
X43760476Y73538095D01*
X43808095Y73442857D01*
X43855714Y73395238D01*
X43950952Y73347619D01*
X44236666Y73347619D01*
X44331904Y73395238D01*
X44379523Y73442857D01*
X42808095Y73347619D02*
X43379523Y73347619D01*
X43093809Y73347619D02*
X43093809Y74347619D01*
X43189047Y74204761D01*
X43284285Y74109523D01*
X43379523Y74061904D01*
G04 #@! TO.C,D11*
X235654285Y111417619D02*
X235654285Y112417619D01*
X235416190Y112417619D01*
X235273333Y112370000D01*
X235178095Y112274761D01*
X235130476Y112179523D01*
X235082857Y111989047D01*
X235082857Y111846190D01*
X235130476Y111655714D01*
X235178095Y111560476D01*
X235273333Y111465238D01*
X235416190Y111417619D01*
X235654285Y111417619D01*
X234130476Y111417619D02*
X234701904Y111417619D01*
X234416190Y111417619D02*
X234416190Y112417619D01*
X234511428Y112274761D01*
X234606666Y112179523D01*
X234701904Y112131904D01*
X233178095Y111417619D02*
X233749523Y111417619D01*
X233463809Y111417619D02*
X233463809Y112417619D01*
X233559047Y112274761D01*
X233654285Y112179523D01*
X233749523Y112131904D01*
G04 #@! TO.C,D61*
X74034285Y35277619D02*
X74034285Y36277619D01*
X73796190Y36277619D01*
X73653333Y36230000D01*
X73558095Y36134761D01*
X73510476Y36039523D01*
X73462857Y35849047D01*
X73462857Y35706190D01*
X73510476Y35515714D01*
X73558095Y35420476D01*
X73653333Y35325238D01*
X73796190Y35277619D01*
X74034285Y35277619D01*
X72605714Y36277619D02*
X72796190Y36277619D01*
X72891428Y36230000D01*
X72939047Y36182380D01*
X73034285Y36039523D01*
X73081904Y35849047D01*
X73081904Y35468095D01*
X73034285Y35372857D01*
X72986666Y35325238D01*
X72891428Y35277619D01*
X72700952Y35277619D01*
X72605714Y35325238D01*
X72558095Y35372857D01*
X72510476Y35468095D01*
X72510476Y35706190D01*
X72558095Y35801428D01*
X72605714Y35849047D01*
X72700952Y35896666D01*
X72891428Y35896666D01*
X72986666Y35849047D01*
X73034285Y35801428D01*
X73081904Y35706190D01*
X71558095Y35277619D02*
X72129523Y35277619D01*
X71843809Y35277619D02*
X71843809Y36277619D01*
X71939047Y36134761D01*
X72034285Y36039523D01*
X72129523Y35991904D01*
G04 #@! TO.C,D62*
X93004285Y35197619D02*
X93004285Y36197619D01*
X92766190Y36197619D01*
X92623333Y36150000D01*
X92528095Y36054761D01*
X92480476Y35959523D01*
X92432857Y35769047D01*
X92432857Y35626190D01*
X92480476Y35435714D01*
X92528095Y35340476D01*
X92623333Y35245238D01*
X92766190Y35197619D01*
X93004285Y35197619D01*
X91575714Y36197619D02*
X91766190Y36197619D01*
X91861428Y36150000D01*
X91909047Y36102380D01*
X92004285Y35959523D01*
X92051904Y35769047D01*
X92051904Y35388095D01*
X92004285Y35292857D01*
X91956666Y35245238D01*
X91861428Y35197619D01*
X91670952Y35197619D01*
X91575714Y35245238D01*
X91528095Y35292857D01*
X91480476Y35388095D01*
X91480476Y35626190D01*
X91528095Y35721428D01*
X91575714Y35769047D01*
X91670952Y35816666D01*
X91861428Y35816666D01*
X91956666Y35769047D01*
X92004285Y35721428D01*
X92051904Y35626190D01*
X91099523Y36102380D02*
X91051904Y36150000D01*
X90956666Y36197619D01*
X90718571Y36197619D01*
X90623333Y36150000D01*
X90575714Y36102380D01*
X90528095Y36007142D01*
X90528095Y35911904D01*
X90575714Y35769047D01*
X91147142Y35197619D01*
X90528095Y35197619D01*
G04 #@! TO.C,D13*
X273894285Y111397619D02*
X273894285Y112397619D01*
X273656190Y112397619D01*
X273513333Y112350000D01*
X273418095Y112254761D01*
X273370476Y112159523D01*
X273322857Y111969047D01*
X273322857Y111826190D01*
X273370476Y111635714D01*
X273418095Y111540476D01*
X273513333Y111445238D01*
X273656190Y111397619D01*
X273894285Y111397619D01*
X272370476Y111397619D02*
X272941904Y111397619D01*
X272656190Y111397619D02*
X272656190Y112397619D01*
X272751428Y112254761D01*
X272846666Y112159523D01*
X272941904Y112111904D01*
X272037142Y112397619D02*
X271418095Y112397619D01*
X271751428Y112016666D01*
X271608571Y112016666D01*
X271513333Y111969047D01*
X271465714Y111921428D01*
X271418095Y111826190D01*
X271418095Y111588095D01*
X271465714Y111492857D01*
X271513333Y111445238D01*
X271608571Y111397619D01*
X271894285Y111397619D01*
X271989523Y111445238D01*
X272037142Y111492857D01*
G04 #@! TO.C,D12*
X254894285Y111447619D02*
X254894285Y112447619D01*
X254656190Y112447619D01*
X254513333Y112400000D01*
X254418095Y112304761D01*
X254370476Y112209523D01*
X254322857Y112019047D01*
X254322857Y111876190D01*
X254370476Y111685714D01*
X254418095Y111590476D01*
X254513333Y111495238D01*
X254656190Y111447619D01*
X254894285Y111447619D01*
X253370476Y111447619D02*
X253941904Y111447619D01*
X253656190Y111447619D02*
X253656190Y112447619D01*
X253751428Y112304761D01*
X253846666Y112209523D01*
X253941904Y112161904D01*
X252989523Y112352380D02*
X252941904Y112400000D01*
X252846666Y112447619D01*
X252608571Y112447619D01*
X252513333Y112400000D01*
X252465714Y112352380D01*
X252418095Y112257142D01*
X252418095Y112161904D01*
X252465714Y112019047D01*
X253037142Y111447619D01*
X252418095Y111447619D01*
G04 #@! TO.C,D1*
X16248095Y111637619D02*
X16248095Y112637619D01*
X16010000Y112637619D01*
X15867142Y112590000D01*
X15771904Y112494761D01*
X15724285Y112399523D01*
X15676666Y112209047D01*
X15676666Y112066190D01*
X15724285Y111875714D01*
X15771904Y111780476D01*
X15867142Y111685238D01*
X16010000Y111637619D01*
X16248095Y111637619D01*
X14724285Y111637619D02*
X15295714Y111637619D01*
X15010000Y111637619D02*
X15010000Y112637619D01*
X15105238Y112494761D01*
X15200476Y112399523D01*
X15295714Y112351904D01*
G04 #@! TO.C,C7*
X194551666Y19042857D02*
X194599285Y18995238D01*
X194742142Y18947619D01*
X194837380Y18947619D01*
X194980238Y18995238D01*
X195075476Y19090476D01*
X195123095Y19185714D01*
X195170714Y19376190D01*
X195170714Y19519047D01*
X195123095Y19709523D01*
X195075476Y19804761D01*
X194980238Y19900000D01*
X194837380Y19947619D01*
X194742142Y19947619D01*
X194599285Y19900000D01*
X194551666Y19852380D01*
X194218333Y19947619D02*
X193551666Y19947619D01*
X193980238Y18947619D01*
G04 #@! TO.C,R1*
X202082380Y110841666D02*
X201606190Y111175000D01*
X202082380Y111413095D02*
X201082380Y111413095D01*
X201082380Y111032142D01*
X201130000Y110936904D01*
X201177619Y110889285D01*
X201272857Y110841666D01*
X201415714Y110841666D01*
X201510952Y110889285D01*
X201558571Y110936904D01*
X201606190Y111032142D01*
X201606190Y111413095D01*
X202082380Y109889285D02*
X202082380Y110460714D01*
X202082380Y110175000D02*
X201082380Y110175000D01*
X201225238Y110270238D01*
X201320476Y110365476D01*
X201368095Y110460714D01*
G04 #@! TO.C,D71*
X264464285Y35227619D02*
X264464285Y36227619D01*
X264226190Y36227619D01*
X264083333Y36180000D01*
X263988095Y36084761D01*
X263940476Y35989523D01*
X263892857Y35799047D01*
X263892857Y35656190D01*
X263940476Y35465714D01*
X263988095Y35370476D01*
X264083333Y35275238D01*
X264226190Y35227619D01*
X264464285Y35227619D01*
X263559523Y36227619D02*
X262892857Y36227619D01*
X263321428Y35227619D01*
X261988095Y35227619D02*
X262559523Y35227619D01*
X262273809Y35227619D02*
X262273809Y36227619D01*
X262369047Y36084761D01*
X262464285Y35989523D01*
X262559523Y35941904D01*
G04 #@! TO.C,D21*
X131004285Y92387619D02*
X131004285Y93387619D01*
X130766190Y93387619D01*
X130623333Y93340000D01*
X130528095Y93244761D01*
X130480476Y93149523D01*
X130432857Y92959047D01*
X130432857Y92816190D01*
X130480476Y92625714D01*
X130528095Y92530476D01*
X130623333Y92435238D01*
X130766190Y92387619D01*
X131004285Y92387619D01*
X130051904Y93292380D02*
X130004285Y93340000D01*
X129909047Y93387619D01*
X129670952Y93387619D01*
X129575714Y93340000D01*
X129528095Y93292380D01*
X129480476Y93197142D01*
X129480476Y93101904D01*
X129528095Y92959047D01*
X130099523Y92387619D01*
X129480476Y92387619D01*
X128528095Y92387619D02*
X129099523Y92387619D01*
X128813809Y92387619D02*
X128813809Y93387619D01*
X128909047Y93244761D01*
X129004285Y93149523D01*
X129099523Y93101904D01*
G04 #@! TO.C,D38*
X178614285Y73257619D02*
X178614285Y74257619D01*
X178376190Y74257619D01*
X178233333Y74210000D01*
X178138095Y74114761D01*
X178090476Y74019523D01*
X178042857Y73829047D01*
X178042857Y73686190D01*
X178090476Y73495714D01*
X178138095Y73400476D01*
X178233333Y73305238D01*
X178376190Y73257619D01*
X178614285Y73257619D01*
X177709523Y74257619D02*
X177090476Y74257619D01*
X177423809Y73876666D01*
X177280952Y73876666D01*
X177185714Y73829047D01*
X177138095Y73781428D01*
X177090476Y73686190D01*
X177090476Y73448095D01*
X177138095Y73352857D01*
X177185714Y73305238D01*
X177280952Y73257619D01*
X177566666Y73257619D01*
X177661904Y73305238D01*
X177709523Y73352857D01*
X176519047Y73829047D02*
X176614285Y73876666D01*
X176661904Y73924285D01*
X176709523Y74019523D01*
X176709523Y74067142D01*
X176661904Y74162380D01*
X176614285Y74210000D01*
X176519047Y74257619D01*
X176328571Y74257619D01*
X176233333Y74210000D01*
X176185714Y74162380D01*
X176138095Y74067142D01*
X176138095Y74019523D01*
X176185714Y73924285D01*
X176233333Y73876666D01*
X176328571Y73829047D01*
X176519047Y73829047D01*
X176614285Y73781428D01*
X176661904Y73733809D01*
X176709523Y73638571D01*
X176709523Y73448095D01*
X176661904Y73352857D01*
X176614285Y73305238D01*
X176519047Y73257619D01*
X176328571Y73257619D01*
X176233333Y73305238D01*
X176185714Y73352857D01*
X176138095Y73448095D01*
X176138095Y73638571D01*
X176185714Y73733809D01*
X176233333Y73781428D01*
X176328571Y73829047D01*
G04 #@! TO.C,D37*
X159614285Y73297619D02*
X159614285Y74297619D01*
X159376190Y74297619D01*
X159233333Y74250000D01*
X159138095Y74154761D01*
X159090476Y74059523D01*
X159042857Y73869047D01*
X159042857Y73726190D01*
X159090476Y73535714D01*
X159138095Y73440476D01*
X159233333Y73345238D01*
X159376190Y73297619D01*
X159614285Y73297619D01*
X158709523Y74297619D02*
X158090476Y74297619D01*
X158423809Y73916666D01*
X158280952Y73916666D01*
X158185714Y73869047D01*
X158138095Y73821428D01*
X158090476Y73726190D01*
X158090476Y73488095D01*
X158138095Y73392857D01*
X158185714Y73345238D01*
X158280952Y73297619D01*
X158566666Y73297619D01*
X158661904Y73345238D01*
X158709523Y73392857D01*
X157757142Y74297619D02*
X157090476Y74297619D01*
X157519047Y73297619D01*
G04 #@! TO.C,D59*
X26194285Y35227619D02*
X26194285Y36227619D01*
X25956190Y36227619D01*
X25813333Y36180000D01*
X25718095Y36084761D01*
X25670476Y35989523D01*
X25622857Y35799047D01*
X25622857Y35656190D01*
X25670476Y35465714D01*
X25718095Y35370476D01*
X25813333Y35275238D01*
X25956190Y35227619D01*
X26194285Y35227619D01*
X24718095Y36227619D02*
X25194285Y36227619D01*
X25241904Y35751428D01*
X25194285Y35799047D01*
X25099047Y35846666D01*
X24860952Y35846666D01*
X24765714Y35799047D01*
X24718095Y35751428D01*
X24670476Y35656190D01*
X24670476Y35418095D01*
X24718095Y35322857D01*
X24765714Y35275238D01*
X24860952Y35227619D01*
X25099047Y35227619D01*
X25194285Y35275238D01*
X25241904Y35322857D01*
X24194285Y35227619D02*
X24003809Y35227619D01*
X23908571Y35275238D01*
X23860952Y35322857D01*
X23765714Y35465714D01*
X23718095Y35656190D01*
X23718095Y36037142D01*
X23765714Y36132380D01*
X23813333Y36180000D01*
X23908571Y36227619D01*
X24099047Y36227619D01*
X24194285Y36180000D01*
X24241904Y36132380D01*
X24289523Y36037142D01*
X24289523Y35799047D01*
X24241904Y35703809D01*
X24194285Y35656190D01*
X24099047Y35608571D01*
X23908571Y35608571D01*
X23813333Y35656190D01*
X23765714Y35703809D01*
X23718095Y35799047D01*
G04 #@! TO.C,C8*
X197706666Y14152857D02*
X197754285Y14105238D01*
X197897142Y14057619D01*
X197992380Y14057619D01*
X198135238Y14105238D01*
X198230476Y14200476D01*
X198278095Y14295714D01*
X198325714Y14486190D01*
X198325714Y14629047D01*
X198278095Y14819523D01*
X198230476Y14914761D01*
X198135238Y15010000D01*
X197992380Y15057619D01*
X197897142Y15057619D01*
X197754285Y15010000D01*
X197706666Y14962380D01*
X197135238Y14629047D02*
X197230476Y14676666D01*
X197278095Y14724285D01*
X197325714Y14819523D01*
X197325714Y14867142D01*
X197278095Y14962380D01*
X197230476Y15010000D01*
X197135238Y15057619D01*
X196944761Y15057619D01*
X196849523Y15010000D01*
X196801904Y14962380D01*
X196754285Y14867142D01*
X196754285Y14819523D01*
X196801904Y14724285D01*
X196849523Y14676666D01*
X196944761Y14629047D01*
X197135238Y14629047D01*
X197230476Y14581428D01*
X197278095Y14533809D01*
X197325714Y14438571D01*
X197325714Y14248095D01*
X197278095Y14152857D01*
X197230476Y14105238D01*
X197135238Y14057619D01*
X196944761Y14057619D01*
X196849523Y14105238D01*
X196801904Y14152857D01*
X196754285Y14248095D01*
X196754285Y14438571D01*
X196801904Y14533809D01*
X196849523Y14581428D01*
X196944761Y14629047D01*
G04 #@! TO.C,D73*
X302624285Y35257619D02*
X302624285Y36257619D01*
X302386190Y36257619D01*
X302243333Y36210000D01*
X302148095Y36114761D01*
X302100476Y36019523D01*
X302052857Y35829047D01*
X302052857Y35686190D01*
X302100476Y35495714D01*
X302148095Y35400476D01*
X302243333Y35305238D01*
X302386190Y35257619D01*
X302624285Y35257619D01*
X301719523Y36257619D02*
X301052857Y36257619D01*
X301481428Y35257619D01*
X300767142Y36257619D02*
X300148095Y36257619D01*
X300481428Y35876666D01*
X300338571Y35876666D01*
X300243333Y35829047D01*
X300195714Y35781428D01*
X300148095Y35686190D01*
X300148095Y35448095D01*
X300195714Y35352857D01*
X300243333Y35305238D01*
X300338571Y35257619D01*
X300624285Y35257619D01*
X300719523Y35305238D01*
X300767142Y35352857D01*
G04 #@! TO.C,U1*
X179391904Y14127619D02*
X179391904Y13318095D01*
X179344285Y13222857D01*
X179296666Y13175238D01*
X179201428Y13127619D01*
X179010952Y13127619D01*
X178915714Y13175238D01*
X178868095Y13222857D01*
X178820476Y13318095D01*
X178820476Y14127619D01*
X177820476Y13127619D02*
X178391904Y13127619D01*
X178106190Y13127619D02*
X178106190Y14127619D01*
X178201428Y13984761D01*
X178296666Y13889523D01*
X178391904Y13841904D01*
G04 #@! TO.C,D5*
X101948095Y111397619D02*
X101948095Y112397619D01*
X101710000Y112397619D01*
X101567142Y112350000D01*
X101471904Y112254761D01*
X101424285Y112159523D01*
X101376666Y111969047D01*
X101376666Y111826190D01*
X101424285Y111635714D01*
X101471904Y111540476D01*
X101567142Y111445238D01*
X101710000Y111397619D01*
X101948095Y111397619D01*
X100471904Y112397619D02*
X100948095Y112397619D01*
X100995714Y111921428D01*
X100948095Y111969047D01*
X100852857Y112016666D01*
X100614761Y112016666D01*
X100519523Y111969047D01*
X100471904Y111921428D01*
X100424285Y111826190D01*
X100424285Y111588095D01*
X100471904Y111492857D01*
X100519523Y111445238D01*
X100614761Y111397619D01*
X100852857Y111397619D01*
X100948095Y111445238D01*
X100995714Y111492857D01*
G04 #@! TO.C,C3*
X160047142Y18811666D02*
X160094761Y18859285D01*
X160142380Y19002142D01*
X160142380Y19097380D01*
X160094761Y19240238D01*
X159999523Y19335476D01*
X159904285Y19383095D01*
X159713809Y19430714D01*
X159570952Y19430714D01*
X159380476Y19383095D01*
X159285238Y19335476D01*
X159190000Y19240238D01*
X159142380Y19097380D01*
X159142380Y19002142D01*
X159190000Y18859285D01*
X159237619Y18811666D01*
X159142380Y18478333D02*
X159142380Y17859285D01*
X159523333Y18192619D01*
X159523333Y18049761D01*
X159570952Y17954523D01*
X159618571Y17906904D01*
X159713809Y17859285D01*
X159951904Y17859285D01*
X160047142Y17906904D01*
X160094761Y17954523D01*
X160142380Y18049761D01*
X160142380Y18335476D01*
X160094761Y18430714D01*
X160047142Y18478333D01*
G04 #@! TO.C,D6*
X130468095Y111447619D02*
X130468095Y112447619D01*
X130230000Y112447619D01*
X130087142Y112400000D01*
X129991904Y112304761D01*
X129944285Y112209523D01*
X129896666Y112019047D01*
X129896666Y111876190D01*
X129944285Y111685714D01*
X129991904Y111590476D01*
X130087142Y111495238D01*
X130230000Y111447619D01*
X130468095Y111447619D01*
X129039523Y112447619D02*
X129230000Y112447619D01*
X129325238Y112400000D01*
X129372857Y112352380D01*
X129468095Y112209523D01*
X129515714Y112019047D01*
X129515714Y111638095D01*
X129468095Y111542857D01*
X129420476Y111495238D01*
X129325238Y111447619D01*
X129134761Y111447619D01*
X129039523Y111495238D01*
X128991904Y111542857D01*
X128944285Y111638095D01*
X128944285Y111876190D01*
X128991904Y111971428D01*
X129039523Y112019047D01*
X129134761Y112066666D01*
X129325238Y112066666D01*
X129420476Y112019047D01*
X129468095Y111971428D01*
X129515714Y111876190D01*
G04 #@! TO.C,D20*
X111924285Y92397619D02*
X111924285Y93397619D01*
X111686190Y93397619D01*
X111543333Y93350000D01*
X111448095Y93254761D01*
X111400476Y93159523D01*
X111352857Y92969047D01*
X111352857Y92826190D01*
X111400476Y92635714D01*
X111448095Y92540476D01*
X111543333Y92445238D01*
X111686190Y92397619D01*
X111924285Y92397619D01*
X110971904Y93302380D02*
X110924285Y93350000D01*
X110829047Y93397619D01*
X110590952Y93397619D01*
X110495714Y93350000D01*
X110448095Y93302380D01*
X110400476Y93207142D01*
X110400476Y93111904D01*
X110448095Y92969047D01*
X111019523Y92397619D01*
X110400476Y92397619D01*
X109781428Y93397619D02*
X109686190Y93397619D01*
X109590952Y93350000D01*
X109543333Y93302380D01*
X109495714Y93207142D01*
X109448095Y93016666D01*
X109448095Y92778571D01*
X109495714Y92588095D01*
X109543333Y92492857D01*
X109590952Y92445238D01*
X109686190Y92397619D01*
X109781428Y92397619D01*
X109876666Y92445238D01*
X109924285Y92492857D01*
X109971904Y92588095D01*
X110019523Y92778571D01*
X110019523Y93016666D01*
X109971904Y93207142D01*
X109924285Y93302380D01*
X109876666Y93350000D01*
X109781428Y93397619D01*
G04 #@! TO.C,D48*
X88204285Y54277619D02*
X88204285Y55277619D01*
X87966190Y55277619D01*
X87823333Y55230000D01*
X87728095Y55134761D01*
X87680476Y55039523D01*
X87632857Y54849047D01*
X87632857Y54706190D01*
X87680476Y54515714D01*
X87728095Y54420476D01*
X87823333Y54325238D01*
X87966190Y54277619D01*
X88204285Y54277619D01*
X86775714Y54944285D02*
X86775714Y54277619D01*
X87013809Y55325238D02*
X87251904Y54610952D01*
X86632857Y54610952D01*
X86109047Y54849047D02*
X86204285Y54896666D01*
X86251904Y54944285D01*
X86299523Y55039523D01*
X86299523Y55087142D01*
X86251904Y55182380D01*
X86204285Y55230000D01*
X86109047Y55277619D01*
X85918571Y55277619D01*
X85823333Y55230000D01*
X85775714Y55182380D01*
X85728095Y55087142D01*
X85728095Y55039523D01*
X85775714Y54944285D01*
X85823333Y54896666D01*
X85918571Y54849047D01*
X86109047Y54849047D01*
X86204285Y54801428D01*
X86251904Y54753809D01*
X86299523Y54658571D01*
X86299523Y54468095D01*
X86251904Y54372857D01*
X86204285Y54325238D01*
X86109047Y54277619D01*
X85918571Y54277619D01*
X85823333Y54325238D01*
X85775714Y54372857D01*
X85728095Y54468095D01*
X85728095Y54658571D01*
X85775714Y54753809D01*
X85823333Y54801428D01*
X85918571Y54849047D01*
G04 #@! TO.C,D51*
X145384285Y54247619D02*
X145384285Y55247619D01*
X145146190Y55247619D01*
X145003333Y55200000D01*
X144908095Y55104761D01*
X144860476Y55009523D01*
X144812857Y54819047D01*
X144812857Y54676190D01*
X144860476Y54485714D01*
X144908095Y54390476D01*
X145003333Y54295238D01*
X145146190Y54247619D01*
X145384285Y54247619D01*
X143908095Y55247619D02*
X144384285Y55247619D01*
X144431904Y54771428D01*
X144384285Y54819047D01*
X144289047Y54866666D01*
X144050952Y54866666D01*
X143955714Y54819047D01*
X143908095Y54771428D01*
X143860476Y54676190D01*
X143860476Y54438095D01*
X143908095Y54342857D01*
X143955714Y54295238D01*
X144050952Y54247619D01*
X144289047Y54247619D01*
X144384285Y54295238D01*
X144431904Y54342857D01*
X142908095Y54247619D02*
X143479523Y54247619D01*
X143193809Y54247619D02*
X143193809Y55247619D01*
X143289047Y55104761D01*
X143384285Y55009523D01*
X143479523Y54961904D01*
G04 #@! TO.C,D25*
X207194285Y92367619D02*
X207194285Y93367619D01*
X206956190Y93367619D01*
X206813333Y93320000D01*
X206718095Y93224761D01*
X206670476Y93129523D01*
X206622857Y92939047D01*
X206622857Y92796190D01*
X206670476Y92605714D01*
X206718095Y92510476D01*
X206813333Y92415238D01*
X206956190Y92367619D01*
X207194285Y92367619D01*
X206241904Y93272380D02*
X206194285Y93320000D01*
X206099047Y93367619D01*
X205860952Y93367619D01*
X205765714Y93320000D01*
X205718095Y93272380D01*
X205670476Y93177142D01*
X205670476Y93081904D01*
X205718095Y92939047D01*
X206289523Y92367619D01*
X205670476Y92367619D01*
X204765714Y93367619D02*
X205241904Y93367619D01*
X205289523Y92891428D01*
X205241904Y92939047D01*
X205146666Y92986666D01*
X204908571Y92986666D01*
X204813333Y92939047D01*
X204765714Y92891428D01*
X204718095Y92796190D01*
X204718095Y92558095D01*
X204765714Y92462857D01*
X204813333Y92415238D01*
X204908571Y92367619D01*
X205146666Y92367619D01*
X205241904Y92415238D01*
X205289523Y92462857D01*
G04 #@! TO.C,D9*
X187708095Y111447619D02*
X187708095Y112447619D01*
X187470000Y112447619D01*
X187327142Y112400000D01*
X187231904Y112304761D01*
X187184285Y112209523D01*
X187136666Y112019047D01*
X187136666Y111876190D01*
X187184285Y111685714D01*
X187231904Y111590476D01*
X187327142Y111495238D01*
X187470000Y111447619D01*
X187708095Y111447619D01*
X186660476Y111447619D02*
X186470000Y111447619D01*
X186374761Y111495238D01*
X186327142Y111542857D01*
X186231904Y111685714D01*
X186184285Y111876190D01*
X186184285Y112257142D01*
X186231904Y112352380D01*
X186279523Y112400000D01*
X186374761Y112447619D01*
X186565238Y112447619D01*
X186660476Y112400000D01*
X186708095Y112352380D01*
X186755714Y112257142D01*
X186755714Y112019047D01*
X186708095Y111923809D01*
X186660476Y111876190D01*
X186565238Y111828571D01*
X186374761Y111828571D01*
X186279523Y111876190D01*
X186231904Y111923809D01*
X186184285Y112019047D01*
G04 #@! TO.C,D57*
X271524285Y54237619D02*
X271524285Y55237619D01*
X271286190Y55237619D01*
X271143333Y55190000D01*
X271048095Y55094761D01*
X271000476Y54999523D01*
X270952857Y54809047D01*
X270952857Y54666190D01*
X271000476Y54475714D01*
X271048095Y54380476D01*
X271143333Y54285238D01*
X271286190Y54237619D01*
X271524285Y54237619D01*
X270048095Y55237619D02*
X270524285Y55237619D01*
X270571904Y54761428D01*
X270524285Y54809047D01*
X270429047Y54856666D01*
X270190952Y54856666D01*
X270095714Y54809047D01*
X270048095Y54761428D01*
X270000476Y54666190D01*
X270000476Y54428095D01*
X270048095Y54332857D01*
X270095714Y54285238D01*
X270190952Y54237619D01*
X270429047Y54237619D01*
X270524285Y54285238D01*
X270571904Y54332857D01*
X269667142Y55237619D02*
X269000476Y55237619D01*
X269429047Y54237619D01*
G04 #@! TO.C,D78*
X216804285Y16217619D02*
X216804285Y17217619D01*
X216566190Y17217619D01*
X216423333Y17170000D01*
X216328095Y17074761D01*
X216280476Y16979523D01*
X216232857Y16789047D01*
X216232857Y16646190D01*
X216280476Y16455714D01*
X216328095Y16360476D01*
X216423333Y16265238D01*
X216566190Y16217619D01*
X216804285Y16217619D01*
X215899523Y17217619D02*
X215232857Y17217619D01*
X215661428Y16217619D01*
X214709047Y16789047D02*
X214804285Y16836666D01*
X214851904Y16884285D01*
X214899523Y16979523D01*
X214899523Y17027142D01*
X214851904Y17122380D01*
X214804285Y17170000D01*
X214709047Y17217619D01*
X214518571Y17217619D01*
X214423333Y17170000D01*
X214375714Y17122380D01*
X214328095Y17027142D01*
X214328095Y16979523D01*
X214375714Y16884285D01*
X214423333Y16836666D01*
X214518571Y16789047D01*
X214709047Y16789047D01*
X214804285Y16741428D01*
X214851904Y16693809D01*
X214899523Y16598571D01*
X214899523Y16408095D01*
X214851904Y16312857D01*
X214804285Y16265238D01*
X214709047Y16217619D01*
X214518571Y16217619D01*
X214423333Y16265238D01*
X214375714Y16312857D01*
X214328095Y16408095D01*
X214328095Y16598571D01*
X214375714Y16693809D01*
X214423333Y16741428D01*
X214518571Y16789047D01*
G04 #@! TO.C,D7*
X149638095Y111437619D02*
X149638095Y112437619D01*
X149400000Y112437619D01*
X149257142Y112390000D01*
X149161904Y112294761D01*
X149114285Y112199523D01*
X149066666Y112009047D01*
X149066666Y111866190D01*
X149114285Y111675714D01*
X149161904Y111580476D01*
X149257142Y111485238D01*
X149400000Y111437619D01*
X149638095Y111437619D01*
X148733333Y112437619D02*
X148066666Y112437619D01*
X148495238Y111437619D01*
G04 #@! TO.C,D82*
X302414285Y16157619D02*
X302414285Y17157619D01*
X302176190Y17157619D01*
X302033333Y17110000D01*
X301938095Y17014761D01*
X301890476Y16919523D01*
X301842857Y16729047D01*
X301842857Y16586190D01*
X301890476Y16395714D01*
X301938095Y16300476D01*
X302033333Y16205238D01*
X302176190Y16157619D01*
X302414285Y16157619D01*
X301271428Y16729047D02*
X301366666Y16776666D01*
X301414285Y16824285D01*
X301461904Y16919523D01*
X301461904Y16967142D01*
X301414285Y17062380D01*
X301366666Y17110000D01*
X301271428Y17157619D01*
X301080952Y17157619D01*
X300985714Y17110000D01*
X300938095Y17062380D01*
X300890476Y16967142D01*
X300890476Y16919523D01*
X300938095Y16824285D01*
X300985714Y16776666D01*
X301080952Y16729047D01*
X301271428Y16729047D01*
X301366666Y16681428D01*
X301414285Y16633809D01*
X301461904Y16538571D01*
X301461904Y16348095D01*
X301414285Y16252857D01*
X301366666Y16205238D01*
X301271428Y16157619D01*
X301080952Y16157619D01*
X300985714Y16205238D01*
X300938095Y16252857D01*
X300890476Y16348095D01*
X300890476Y16538571D01*
X300938095Y16633809D01*
X300985714Y16681428D01*
X301080952Y16729047D01*
X300509523Y17062380D02*
X300461904Y17110000D01*
X300366666Y17157619D01*
X300128571Y17157619D01*
X300033333Y17110000D01*
X299985714Y17062380D01*
X299938095Y16967142D01*
X299938095Y16871904D01*
X299985714Y16729047D01*
X300557142Y16157619D01*
X299938095Y16157619D01*
G04 #@! TO.C,D54*
X202534285Y54317619D02*
X202534285Y55317619D01*
X202296190Y55317619D01*
X202153333Y55270000D01*
X202058095Y55174761D01*
X202010476Y55079523D01*
X201962857Y54889047D01*
X201962857Y54746190D01*
X202010476Y54555714D01*
X202058095Y54460476D01*
X202153333Y54365238D01*
X202296190Y54317619D01*
X202534285Y54317619D01*
X201058095Y55317619D02*
X201534285Y55317619D01*
X201581904Y54841428D01*
X201534285Y54889047D01*
X201439047Y54936666D01*
X201200952Y54936666D01*
X201105714Y54889047D01*
X201058095Y54841428D01*
X201010476Y54746190D01*
X201010476Y54508095D01*
X201058095Y54412857D01*
X201105714Y54365238D01*
X201200952Y54317619D01*
X201439047Y54317619D01*
X201534285Y54365238D01*
X201581904Y54412857D01*
X200153333Y54984285D02*
X200153333Y54317619D01*
X200391428Y55365238D02*
X200629523Y54650952D01*
X200010476Y54650952D01*
G04 #@! TO.C,D34*
X102294285Y73357619D02*
X102294285Y74357619D01*
X102056190Y74357619D01*
X101913333Y74310000D01*
X101818095Y74214761D01*
X101770476Y74119523D01*
X101722857Y73929047D01*
X101722857Y73786190D01*
X101770476Y73595714D01*
X101818095Y73500476D01*
X101913333Y73405238D01*
X102056190Y73357619D01*
X102294285Y73357619D01*
X101389523Y74357619D02*
X100770476Y74357619D01*
X101103809Y73976666D01*
X100960952Y73976666D01*
X100865714Y73929047D01*
X100818095Y73881428D01*
X100770476Y73786190D01*
X100770476Y73548095D01*
X100818095Y73452857D01*
X100865714Y73405238D01*
X100960952Y73357619D01*
X101246666Y73357619D01*
X101341904Y73405238D01*
X101389523Y73452857D01*
X99913333Y74024285D02*
X99913333Y73357619D01*
X100151428Y74405238D02*
X100389523Y73690952D01*
X99770476Y73690952D01*
G04 #@! TO.C,D45*
X23974285Y54327619D02*
X23974285Y55327619D01*
X23736190Y55327619D01*
X23593333Y55280000D01*
X23498095Y55184761D01*
X23450476Y55089523D01*
X23402857Y54899047D01*
X23402857Y54756190D01*
X23450476Y54565714D01*
X23498095Y54470476D01*
X23593333Y54375238D01*
X23736190Y54327619D01*
X23974285Y54327619D01*
X22545714Y54994285D02*
X22545714Y54327619D01*
X22783809Y55375238D02*
X23021904Y54660952D01*
X22402857Y54660952D01*
X21545714Y55327619D02*
X22021904Y55327619D01*
X22069523Y54851428D01*
X22021904Y54899047D01*
X21926666Y54946666D01*
X21688571Y54946666D01*
X21593333Y54899047D01*
X21545714Y54851428D01*
X21498095Y54756190D01*
X21498095Y54518095D01*
X21545714Y54422857D01*
X21593333Y54375238D01*
X21688571Y54327619D01*
X21926666Y54327619D01*
X22021904Y54375238D01*
X22069523Y54422857D01*
G04 #@! TO.C,D77*
X143184285Y16087619D02*
X143184285Y17087619D01*
X142946190Y17087619D01*
X142803333Y17040000D01*
X142708095Y16944761D01*
X142660476Y16849523D01*
X142612857Y16659047D01*
X142612857Y16516190D01*
X142660476Y16325714D01*
X142708095Y16230476D01*
X142803333Y16135238D01*
X142946190Y16087619D01*
X143184285Y16087619D01*
X142279523Y17087619D02*
X141612857Y17087619D01*
X142041428Y16087619D01*
X141327142Y17087619D02*
X140660476Y17087619D01*
X141089047Y16087619D01*
G04 #@! TO.C,D79*
X242814285Y16197619D02*
X242814285Y17197619D01*
X242576190Y17197619D01*
X242433333Y17150000D01*
X242338095Y17054761D01*
X242290476Y16959523D01*
X242242857Y16769047D01*
X242242857Y16626190D01*
X242290476Y16435714D01*
X242338095Y16340476D01*
X242433333Y16245238D01*
X242576190Y16197619D01*
X242814285Y16197619D01*
X241909523Y17197619D02*
X241242857Y17197619D01*
X241671428Y16197619D01*
X240814285Y16197619D02*
X240623809Y16197619D01*
X240528571Y16245238D01*
X240480952Y16292857D01*
X240385714Y16435714D01*
X240338095Y16626190D01*
X240338095Y17007142D01*
X240385714Y17102380D01*
X240433333Y17150000D01*
X240528571Y17197619D01*
X240719047Y17197619D01*
X240814285Y17150000D01*
X240861904Y17102380D01*
X240909523Y17007142D01*
X240909523Y16769047D01*
X240861904Y16673809D01*
X240814285Y16626190D01*
X240719047Y16578571D01*
X240528571Y16578571D01*
X240433333Y16626190D01*
X240385714Y16673809D01*
X240338095Y16769047D01*
G04 #@! TO.C,D53*
X183274285Y54257619D02*
X183274285Y55257619D01*
X183036190Y55257619D01*
X182893333Y55210000D01*
X182798095Y55114761D01*
X182750476Y55019523D01*
X182702857Y54829047D01*
X182702857Y54686190D01*
X182750476Y54495714D01*
X182798095Y54400476D01*
X182893333Y54305238D01*
X183036190Y54257619D01*
X183274285Y54257619D01*
X181798095Y55257619D02*
X182274285Y55257619D01*
X182321904Y54781428D01*
X182274285Y54829047D01*
X182179047Y54876666D01*
X181940952Y54876666D01*
X181845714Y54829047D01*
X181798095Y54781428D01*
X181750476Y54686190D01*
X181750476Y54448095D01*
X181798095Y54352857D01*
X181845714Y54305238D01*
X181940952Y54257619D01*
X182179047Y54257619D01*
X182274285Y54305238D01*
X182321904Y54352857D01*
X181417142Y55257619D02*
X180798095Y55257619D01*
X181131428Y54876666D01*
X180988571Y54876666D01*
X180893333Y54829047D01*
X180845714Y54781428D01*
X180798095Y54686190D01*
X180798095Y54448095D01*
X180845714Y54352857D01*
X180893333Y54305238D01*
X180988571Y54257619D01*
X181274285Y54257619D01*
X181369523Y54305238D01*
X181417142Y54352857D01*
G04 #@! TO.C,C5*
X166156666Y23122857D02*
X166204285Y23075238D01*
X166347142Y23027619D01*
X166442380Y23027619D01*
X166585238Y23075238D01*
X166680476Y23170476D01*
X166728095Y23265714D01*
X166775714Y23456190D01*
X166775714Y23599047D01*
X166728095Y23789523D01*
X166680476Y23884761D01*
X166585238Y23980000D01*
X166442380Y24027619D01*
X166347142Y24027619D01*
X166204285Y23980000D01*
X166156666Y23932380D01*
X165251904Y24027619D02*
X165728095Y24027619D01*
X165775714Y23551428D01*
X165728095Y23599047D01*
X165632857Y23646666D01*
X165394761Y23646666D01*
X165299523Y23599047D01*
X165251904Y23551428D01*
X165204285Y23456190D01*
X165204285Y23218095D01*
X165251904Y23122857D01*
X165299523Y23075238D01*
X165394761Y23027619D01*
X165632857Y23027619D01*
X165728095Y23075238D01*
X165775714Y23122857D01*
G04 #@! TO.C,Y1*
X153076190Y23186190D02*
X153552380Y23186190D01*
X152552380Y23519523D02*
X153076190Y23186190D01*
X152552380Y22852857D01*
X153552380Y21995714D02*
X153552380Y22567142D01*
X153552380Y22281428D02*
X152552380Y22281428D01*
X152695238Y22376666D01*
X152790476Y22471904D01*
X152838095Y22567142D01*
G04 #@! TO.C,D3*
X63858095Y111447619D02*
X63858095Y112447619D01*
X63620000Y112447619D01*
X63477142Y112400000D01*
X63381904Y112304761D01*
X63334285Y112209523D01*
X63286666Y112019047D01*
X63286666Y111876190D01*
X63334285Y111685714D01*
X63381904Y111590476D01*
X63477142Y111495238D01*
X63620000Y111447619D01*
X63858095Y111447619D01*
X62953333Y112447619D02*
X62334285Y112447619D01*
X62667619Y112066666D01*
X62524761Y112066666D01*
X62429523Y112019047D01*
X62381904Y111971428D01*
X62334285Y111876190D01*
X62334285Y111638095D01*
X62381904Y111542857D01*
X62429523Y111495238D01*
X62524761Y111447619D01*
X62810476Y111447619D01*
X62905714Y111495238D01*
X62953333Y111542857D01*
G04 #@! TO.C,R2*
X190321666Y18947619D02*
X190655000Y19423809D01*
X190893095Y18947619D02*
X190893095Y19947619D01*
X190512142Y19947619D01*
X190416904Y19900000D01*
X190369285Y19852380D01*
X190321666Y19757142D01*
X190321666Y19614285D01*
X190369285Y19519047D01*
X190416904Y19471428D01*
X190512142Y19423809D01*
X190893095Y19423809D01*
X189940714Y19852380D02*
X189893095Y19900000D01*
X189797857Y19947619D01*
X189559761Y19947619D01*
X189464523Y19900000D01*
X189416904Y19852380D01*
X189369285Y19757142D01*
X189369285Y19661904D01*
X189416904Y19519047D01*
X189988333Y18947619D01*
X189369285Y18947619D01*
G04 #@! TO.C,D43*
X278474285Y74327619D02*
X278474285Y75327619D01*
X278236190Y75327619D01*
X278093333Y75280000D01*
X277998095Y75184761D01*
X277950476Y75089523D01*
X277902857Y74899047D01*
X277902857Y74756190D01*
X277950476Y74565714D01*
X277998095Y74470476D01*
X278093333Y74375238D01*
X278236190Y74327619D01*
X278474285Y74327619D01*
X277045714Y74994285D02*
X277045714Y74327619D01*
X277283809Y75375238D02*
X277521904Y74660952D01*
X276902857Y74660952D01*
X276617142Y75327619D02*
X275998095Y75327619D01*
X276331428Y74946666D01*
X276188571Y74946666D01*
X276093333Y74899047D01*
X276045714Y74851428D01*
X275998095Y74756190D01*
X275998095Y74518095D01*
X276045714Y74422857D01*
X276093333Y74375238D01*
X276188571Y74327619D01*
X276474285Y74327619D01*
X276569523Y74375238D01*
X276617142Y74422857D01*
G04 #@! TO.C,D56*
X240564285Y54237619D02*
X240564285Y55237619D01*
X240326190Y55237619D01*
X240183333Y55190000D01*
X240088095Y55094761D01*
X240040476Y54999523D01*
X239992857Y54809047D01*
X239992857Y54666190D01*
X240040476Y54475714D01*
X240088095Y54380476D01*
X240183333Y54285238D01*
X240326190Y54237619D01*
X240564285Y54237619D01*
X239088095Y55237619D02*
X239564285Y55237619D01*
X239611904Y54761428D01*
X239564285Y54809047D01*
X239469047Y54856666D01*
X239230952Y54856666D01*
X239135714Y54809047D01*
X239088095Y54761428D01*
X239040476Y54666190D01*
X239040476Y54428095D01*
X239088095Y54332857D01*
X239135714Y54285238D01*
X239230952Y54237619D01*
X239469047Y54237619D01*
X239564285Y54285238D01*
X239611904Y54332857D01*
X238183333Y55237619D02*
X238373809Y55237619D01*
X238469047Y55190000D01*
X238516666Y55142380D01*
X238611904Y54999523D01*
X238659523Y54809047D01*
X238659523Y54428095D01*
X238611904Y54332857D01*
X238564285Y54285238D01*
X238469047Y54237619D01*
X238278571Y54237619D01*
X238183333Y54285238D01*
X238135714Y54332857D01*
X238088095Y54428095D01*
X238088095Y54666190D01*
X238135714Y54761428D01*
X238183333Y54809047D01*
X238278571Y54856666D01*
X238469047Y54856666D01*
X238564285Y54809047D01*
X238611904Y54761428D01*
X238659523Y54666190D01*
G04 #@! TO.C,D35*
X121754285Y73287619D02*
X121754285Y74287619D01*
X121516190Y74287619D01*
X121373333Y74240000D01*
X121278095Y74144761D01*
X121230476Y74049523D01*
X121182857Y73859047D01*
X121182857Y73716190D01*
X121230476Y73525714D01*
X121278095Y73430476D01*
X121373333Y73335238D01*
X121516190Y73287619D01*
X121754285Y73287619D01*
X120849523Y74287619D02*
X120230476Y74287619D01*
X120563809Y73906666D01*
X120420952Y73906666D01*
X120325714Y73859047D01*
X120278095Y73811428D01*
X120230476Y73716190D01*
X120230476Y73478095D01*
X120278095Y73382857D01*
X120325714Y73335238D01*
X120420952Y73287619D01*
X120706666Y73287619D01*
X120801904Y73335238D01*
X120849523Y73382857D01*
X119325714Y74287619D02*
X119801904Y74287619D01*
X119849523Y73811428D01*
X119801904Y73859047D01*
X119706666Y73906666D01*
X119468571Y73906666D01*
X119373333Y73859047D01*
X119325714Y73811428D01*
X119278095Y73716190D01*
X119278095Y73478095D01*
X119325714Y73382857D01*
X119373333Y73335238D01*
X119468571Y73287619D01*
X119706666Y73287619D01*
X119801904Y73335238D01*
X119849523Y73382857D01*
G04 #@! TO.C,D41*
X235804285Y73317619D02*
X235804285Y74317619D01*
X235566190Y74317619D01*
X235423333Y74270000D01*
X235328095Y74174761D01*
X235280476Y74079523D01*
X235232857Y73889047D01*
X235232857Y73746190D01*
X235280476Y73555714D01*
X235328095Y73460476D01*
X235423333Y73365238D01*
X235566190Y73317619D01*
X235804285Y73317619D01*
X234375714Y73984285D02*
X234375714Y73317619D01*
X234613809Y74365238D02*
X234851904Y73650952D01*
X234232857Y73650952D01*
X233328095Y73317619D02*
X233899523Y73317619D01*
X233613809Y73317619D02*
X233613809Y74317619D01*
X233709047Y74174761D01*
X233804285Y74079523D01*
X233899523Y74031904D01*
G04 #@! TO.C,D68*
X207284285Y35187619D02*
X207284285Y36187619D01*
X207046190Y36187619D01*
X206903333Y36140000D01*
X206808095Y36044761D01*
X206760476Y35949523D01*
X206712857Y35759047D01*
X206712857Y35616190D01*
X206760476Y35425714D01*
X206808095Y35330476D01*
X206903333Y35235238D01*
X207046190Y35187619D01*
X207284285Y35187619D01*
X205855714Y36187619D02*
X206046190Y36187619D01*
X206141428Y36140000D01*
X206189047Y36092380D01*
X206284285Y35949523D01*
X206331904Y35759047D01*
X206331904Y35378095D01*
X206284285Y35282857D01*
X206236666Y35235238D01*
X206141428Y35187619D01*
X205950952Y35187619D01*
X205855714Y35235238D01*
X205808095Y35282857D01*
X205760476Y35378095D01*
X205760476Y35616190D01*
X205808095Y35711428D01*
X205855714Y35759047D01*
X205950952Y35806666D01*
X206141428Y35806666D01*
X206236666Y35759047D01*
X206284285Y35711428D01*
X206331904Y35616190D01*
X205189047Y35759047D02*
X205284285Y35806666D01*
X205331904Y35854285D01*
X205379523Y35949523D01*
X205379523Y35997142D01*
X205331904Y36092380D01*
X205284285Y36140000D01*
X205189047Y36187619D01*
X204998571Y36187619D01*
X204903333Y36140000D01*
X204855714Y36092380D01*
X204808095Y35997142D01*
X204808095Y35949523D01*
X204855714Y35854285D01*
X204903333Y35806666D01*
X204998571Y35759047D01*
X205189047Y35759047D01*
X205284285Y35711428D01*
X205331904Y35663809D01*
X205379523Y35568571D01*
X205379523Y35378095D01*
X205331904Y35282857D01*
X205284285Y35235238D01*
X205189047Y35187619D01*
X204998571Y35187619D01*
X204903333Y35235238D01*
X204855714Y35282857D01*
X204808095Y35378095D01*
X204808095Y35568571D01*
X204855714Y35663809D01*
X204903333Y35711428D01*
X204998571Y35759047D01*
G04 #@! TO.C,D67*
X194702380Y40114285D02*
X193702380Y40114285D01*
X193702380Y39876190D01*
X193750000Y39733333D01*
X193845238Y39638095D01*
X193940476Y39590476D01*
X194130952Y39542857D01*
X194273809Y39542857D01*
X194464285Y39590476D01*
X194559523Y39638095D01*
X194654761Y39733333D01*
X194702380Y39876190D01*
X194702380Y40114285D01*
X193702380Y38685714D02*
X193702380Y38876190D01*
X193750000Y38971428D01*
X193797619Y39019047D01*
X193940476Y39114285D01*
X194130952Y39161904D01*
X194511904Y39161904D01*
X194607142Y39114285D01*
X194654761Y39066666D01*
X194702380Y38971428D01*
X194702380Y38780952D01*
X194654761Y38685714D01*
X194607142Y38638095D01*
X194511904Y38590476D01*
X194273809Y38590476D01*
X194178571Y38638095D01*
X194130952Y38685714D01*
X194083333Y38780952D01*
X194083333Y38971428D01*
X194130952Y39066666D01*
X194178571Y39114285D01*
X194273809Y39161904D01*
X193702380Y38257142D02*
X193702380Y37590476D01*
X194702380Y38019047D01*
G04 #@! TO.C,D15*
X16714285Y92397619D02*
X16714285Y93397619D01*
X16476190Y93397619D01*
X16333333Y93350000D01*
X16238095Y93254761D01*
X16190476Y93159523D01*
X16142857Y92969047D01*
X16142857Y92826190D01*
X16190476Y92635714D01*
X16238095Y92540476D01*
X16333333Y92445238D01*
X16476190Y92397619D01*
X16714285Y92397619D01*
X15190476Y92397619D02*
X15761904Y92397619D01*
X15476190Y92397619D02*
X15476190Y93397619D01*
X15571428Y93254761D01*
X15666666Y93159523D01*
X15761904Y93111904D01*
X14285714Y93397619D02*
X14761904Y93397619D01*
X14809523Y92921428D01*
X14761904Y92969047D01*
X14666666Y93016666D01*
X14428571Y93016666D01*
X14333333Y92969047D01*
X14285714Y92921428D01*
X14238095Y92826190D01*
X14238095Y92588095D01*
X14285714Y92492857D01*
X14333333Y92445238D01*
X14428571Y92397619D01*
X14666666Y92397619D01*
X14761904Y92445238D01*
X14809523Y92492857D01*
G04 #@! TO.C,D40*
X216954285Y73307619D02*
X216954285Y74307619D01*
X216716190Y74307619D01*
X216573333Y74260000D01*
X216478095Y74164761D01*
X216430476Y74069523D01*
X216382857Y73879047D01*
X216382857Y73736190D01*
X216430476Y73545714D01*
X216478095Y73450476D01*
X216573333Y73355238D01*
X216716190Y73307619D01*
X216954285Y73307619D01*
X215525714Y73974285D02*
X215525714Y73307619D01*
X215763809Y74355238D02*
X216001904Y73640952D01*
X215382857Y73640952D01*
X214811428Y74307619D02*
X214716190Y74307619D01*
X214620952Y74260000D01*
X214573333Y74212380D01*
X214525714Y74117142D01*
X214478095Y73926666D01*
X214478095Y73688571D01*
X214525714Y73498095D01*
X214573333Y73402857D01*
X214620952Y73355238D01*
X214716190Y73307619D01*
X214811428Y73307619D01*
X214906666Y73355238D01*
X214954285Y73402857D01*
X215001904Y73498095D01*
X215049523Y73688571D01*
X215049523Y73926666D01*
X215001904Y74117142D01*
X214954285Y74212380D01*
X214906666Y74260000D01*
X214811428Y74307619D01*
G04 #@! TO.C,C2*
X151167142Y29801666D02*
X151214761Y29849285D01*
X151262380Y29992142D01*
X151262380Y30087380D01*
X151214761Y30230238D01*
X151119523Y30325476D01*
X151024285Y30373095D01*
X150833809Y30420714D01*
X150690952Y30420714D01*
X150500476Y30373095D01*
X150405238Y30325476D01*
X150310000Y30230238D01*
X150262380Y30087380D01*
X150262380Y29992142D01*
X150310000Y29849285D01*
X150357619Y29801666D01*
X150357619Y29420714D02*
X150310000Y29373095D01*
X150262380Y29277857D01*
X150262380Y29039761D01*
X150310000Y28944523D01*
X150357619Y28896904D01*
X150452857Y28849285D01*
X150548095Y28849285D01*
X150690952Y28896904D01*
X151262380Y29468333D01*
X151262380Y28849285D01*
G04 #@! TO.C,D70*
X245404285Y35227619D02*
X245404285Y36227619D01*
X245166190Y36227619D01*
X245023333Y36180000D01*
X244928095Y36084761D01*
X244880476Y35989523D01*
X244832857Y35799047D01*
X244832857Y35656190D01*
X244880476Y35465714D01*
X244928095Y35370476D01*
X245023333Y35275238D01*
X245166190Y35227619D01*
X245404285Y35227619D01*
X244499523Y36227619D02*
X243832857Y36227619D01*
X244261428Y35227619D01*
X243261428Y36227619D02*
X243166190Y36227619D01*
X243070952Y36180000D01*
X243023333Y36132380D01*
X242975714Y36037142D01*
X242928095Y35846666D01*
X242928095Y35608571D01*
X242975714Y35418095D01*
X243023333Y35322857D01*
X243070952Y35275238D01*
X243166190Y35227619D01*
X243261428Y35227619D01*
X243356666Y35275238D01*
X243404285Y35322857D01*
X243451904Y35418095D01*
X243499523Y35608571D01*
X243499523Y35846666D01*
X243451904Y36037142D01*
X243404285Y36132380D01*
X243356666Y36180000D01*
X243261428Y36227619D01*
G04 #@! TO.C,J1*
X203253333Y115587619D02*
X203253333Y114873333D01*
X203300952Y114730476D01*
X203396190Y114635238D01*
X203539047Y114587619D01*
X203634285Y114587619D01*
X202253333Y114587619D02*
X202824761Y114587619D01*
X202539047Y114587619D02*
X202539047Y115587619D01*
X202634285Y115444761D01*
X202729523Y115349523D01*
X202824761Y115301904D01*
G04 #@! TO.C,D19*
X92814285Y92427619D02*
X92814285Y93427619D01*
X92576190Y93427619D01*
X92433333Y93380000D01*
X92338095Y93284761D01*
X92290476Y93189523D01*
X92242857Y92999047D01*
X92242857Y92856190D01*
X92290476Y92665714D01*
X92338095Y92570476D01*
X92433333Y92475238D01*
X92576190Y92427619D01*
X92814285Y92427619D01*
X91290476Y92427619D02*
X91861904Y92427619D01*
X91576190Y92427619D02*
X91576190Y93427619D01*
X91671428Y93284761D01*
X91766666Y93189523D01*
X91861904Y93141904D01*
X90814285Y92427619D02*
X90623809Y92427619D01*
X90528571Y92475238D01*
X90480952Y92522857D01*
X90385714Y92665714D01*
X90338095Y92856190D01*
X90338095Y93237142D01*
X90385714Y93332380D01*
X90433333Y93380000D01*
X90528571Y93427619D01*
X90719047Y93427619D01*
X90814285Y93380000D01*
X90861904Y93332380D01*
X90909523Y93237142D01*
X90909523Y92999047D01*
X90861904Y92903809D01*
X90814285Y92856190D01*
X90719047Y92808571D01*
X90528571Y92808571D01*
X90433333Y92856190D01*
X90385714Y92903809D01*
X90338095Y92999047D01*
G04 #@! TO.C,D44*
X302534285Y73337619D02*
X302534285Y74337619D01*
X302296190Y74337619D01*
X302153333Y74290000D01*
X302058095Y74194761D01*
X302010476Y74099523D01*
X301962857Y73909047D01*
X301962857Y73766190D01*
X302010476Y73575714D01*
X302058095Y73480476D01*
X302153333Y73385238D01*
X302296190Y73337619D01*
X302534285Y73337619D01*
X301105714Y74004285D02*
X301105714Y73337619D01*
X301343809Y74385238D02*
X301581904Y73670952D01*
X300962857Y73670952D01*
X300153333Y74004285D02*
X300153333Y73337619D01*
X300391428Y74385238D02*
X300629523Y73670952D01*
X300010476Y73670952D01*
G04 #@! TO.C,D66*
X156642380Y40964285D02*
X155642380Y40964285D01*
X155642380Y40726190D01*
X155690000Y40583333D01*
X155785238Y40488095D01*
X155880476Y40440476D01*
X156070952Y40392857D01*
X156213809Y40392857D01*
X156404285Y40440476D01*
X156499523Y40488095D01*
X156594761Y40583333D01*
X156642380Y40726190D01*
X156642380Y40964285D01*
X155642380Y39535714D02*
X155642380Y39726190D01*
X155690000Y39821428D01*
X155737619Y39869047D01*
X155880476Y39964285D01*
X156070952Y40011904D01*
X156451904Y40011904D01*
X156547142Y39964285D01*
X156594761Y39916666D01*
X156642380Y39821428D01*
X156642380Y39630952D01*
X156594761Y39535714D01*
X156547142Y39488095D01*
X156451904Y39440476D01*
X156213809Y39440476D01*
X156118571Y39488095D01*
X156070952Y39535714D01*
X156023333Y39630952D01*
X156023333Y39821428D01*
X156070952Y39916666D01*
X156118571Y39964285D01*
X156213809Y40011904D01*
X155642380Y38583333D02*
X155642380Y38773809D01*
X155690000Y38869047D01*
X155737619Y38916666D01*
X155880476Y39011904D01*
X156070952Y39059523D01*
X156451904Y39059523D01*
X156547142Y39011904D01*
X156594761Y38964285D01*
X156642380Y38869047D01*
X156642380Y38678571D01*
X156594761Y38583333D01*
X156547142Y38535714D01*
X156451904Y38488095D01*
X156213809Y38488095D01*
X156118571Y38535714D01*
X156070952Y38583333D01*
X156023333Y38678571D01*
X156023333Y38869047D01*
X156070952Y38964285D01*
X156118571Y39011904D01*
X156213809Y39059523D01*
G04 #@! TO.C,D14*
X302654285Y111457619D02*
X302654285Y112457619D01*
X302416190Y112457619D01*
X302273333Y112410000D01*
X302178095Y112314761D01*
X302130476Y112219523D01*
X302082857Y112029047D01*
X302082857Y111886190D01*
X302130476Y111695714D01*
X302178095Y111600476D01*
X302273333Y111505238D01*
X302416190Y111457619D01*
X302654285Y111457619D01*
X301130476Y111457619D02*
X301701904Y111457619D01*
X301416190Y111457619D02*
X301416190Y112457619D01*
X301511428Y112314761D01*
X301606666Y112219523D01*
X301701904Y112171904D01*
X300273333Y112124285D02*
X300273333Y111457619D01*
X300511428Y112505238D02*
X300749523Y111790952D01*
X300130476Y111790952D01*
G04 #@! TO.C,C4*
X166081666Y16442857D02*
X166129285Y16395238D01*
X166272142Y16347619D01*
X166367380Y16347619D01*
X166510238Y16395238D01*
X166605476Y16490476D01*
X166653095Y16585714D01*
X166700714Y16776190D01*
X166700714Y16919047D01*
X166653095Y17109523D01*
X166605476Y17204761D01*
X166510238Y17300000D01*
X166367380Y17347619D01*
X166272142Y17347619D01*
X166129285Y17300000D01*
X166081666Y17252380D01*
X165224523Y17014285D02*
X165224523Y16347619D01*
X165462619Y17395238D02*
X165700714Y16680952D01*
X165081666Y16680952D01*
G04 #@! TO.C,D46*
X50204285Y54307619D02*
X50204285Y55307619D01*
X49966190Y55307619D01*
X49823333Y55260000D01*
X49728095Y55164761D01*
X49680476Y55069523D01*
X49632857Y54879047D01*
X49632857Y54736190D01*
X49680476Y54545714D01*
X49728095Y54450476D01*
X49823333Y54355238D01*
X49966190Y54307619D01*
X50204285Y54307619D01*
X48775714Y54974285D02*
X48775714Y54307619D01*
X49013809Y55355238D02*
X49251904Y54640952D01*
X48632857Y54640952D01*
X47823333Y55307619D02*
X48013809Y55307619D01*
X48109047Y55260000D01*
X48156666Y55212380D01*
X48251904Y55069523D01*
X48299523Y54879047D01*
X48299523Y54498095D01*
X48251904Y54402857D01*
X48204285Y54355238D01*
X48109047Y54307619D01*
X47918571Y54307619D01*
X47823333Y54355238D01*
X47775714Y54402857D01*
X47728095Y54498095D01*
X47728095Y54736190D01*
X47775714Y54831428D01*
X47823333Y54879047D01*
X47918571Y54926666D01*
X48109047Y54926666D01*
X48204285Y54879047D01*
X48251904Y54831428D01*
X48299523Y54736190D01*
G04 #@! TD*
M02*
